<svg width="5324" height="5271" viewBox="0 0 5324 5271" fill="none" xmlns="http://www.w3.org/2000/svg">
<g filter="url(#filter0_d_214:416)">
<g filter="url(#filter1_d_214:416)">
<circle cx="2663.12" cy="2635.21" r="2416.24" fill="#0C2E8A"/>
<g filter="url(#filter2_d_214:416)">
<path fill-rule="evenodd" clip-rule="evenodd" d="M2661.95 112C1254.68 112 112 1240.66 112 2635.21C112 4029.76 1254.68 5158.42 2661.95 5158.42C4069.23 5158.42 5211.91 4029.76 5211.91 2635.21C5211.91 1240.66 4069.23 112 2661.95 112ZM1666.76 526.855C1672.61 520.842 1679.64 515.992 1687.3 512.554C1984.27 379.062 2314.26 304.689 2661.95 304.689C2917.99 304.689 3164.42 345.018 3395.14 419.585C3405.56 422.953 3415.29 428.557 3422.2 437.048C3452.68 474.445 3437.65 499.777 3418.81 531.547C3408.97 548.135 3398.09 566.479 3392.1 589.212C3371.22 668.052 3390.31 821.151 3404.63 901.308C3406.43 911.395 3406.37 921.787 3403.14 931.509C3386.91 980.258 3342.78 1054.43 3258.76 1051.31C3231.69 1050.37 3197.2 1046.72 3159.64 1042.75C3038.33 1029.91 2885.08 1013.7 2846.85 1074.58C2829.33 1102.49 2825.71 1134.59 2821.93 1168.13C2814.91 1230.42 2807.32 1297.71 2709.05 1352.44C2557.87 1436.63 2460.22 1567.39 2521.19 1624.34C2572.15 1671.95 2947.96 1684.27 3093.98 1689.05L3093.99 1689.05C3122.66 1689.99 3142.47 1690.64 3149.22 1691.21C3190.36 1694.67 3462.49 1731.82 3523.96 1938.85C3585.42 2145.87 3290.98 2239.98 3099.15 2161.23C3064.35 2146.94 3021.89 2126.88 2973.94 2104.22C2757.61 2002.02 2429.51 1847 2188.09 1930.92C1893.15 2033.44 1629.95 2308.82 1755.85 2853.63C1808.35 3082.33 2019.16 3058.62 2221.02 3035.91C2406.03 3015.09 2583.54 2995.12 2624.78 3171.1C2641.03 3245.29 2619.8 3368.89 2598.77 3491.36C2588.36 3552.02 2577.99 3612.41 2572.24 3666.38C2545.97 3922.44 2678.81 4398.9 2770.52 4405.33C2959.37 4418.21 3455.06 4260.22 3509.09 3982.37C3563.11 3704.51 3616.15 3441.03 3774.28 3292.44C3866.88 3204.86 3945.31 3103.44 4006.75 2991.81C4029.07 2946.12 3963.9 2931.02 3882.42 2912.14C3779.29 2888.24 3650.03 2858.28 3638.96 2752.59C3619.45 2566.43 3892.69 2590.29 4037.93 2626.5C4042.64 2627.67 4047.33 2628.41 4052.19 2628.55C4145.7 2631.22 4314.59 2601.33 4296.73 2462.85C4273.96 2289.07 4608.99 2407.48 4698.37 2546.75C4702.44 2553.09 4704.81 2560.18 4706.57 2567.52C4744.41 2724.62 4959.15 2969.95 4842.97 3501.95V3501.95C4841.64 3506.53 4821.24 3558.52 4819.43 3562.94C4470.81 4416.39 3652.21 4992.14 2661.95 4992.14C1914.76 4992.14 1249.31 4623.11 817.57 4086.72C805.013 4071.12 805.122 4048.82 819.693 4035.08C924.499 3936.25 1153.15 3837.44 1055.95 3555.94C1014.6 3441.57 1004.89 3318.19 1027.83 3198.77C1050.07 3083 1102.22 2975.11 1179 2885.77C1183.8 2880.19 1189.5 2875.57 1195.75 2871.68C1346.49 2778.05 1542.66 2547.36 1186.31 2326.16C731.276 2042.86 610.826 1921.52 641.062 1632.77C665.847 1401.47 926.08 1365.32 1052.98 1375.72C1362.78 1433.67 1640.36 1223.67 1610.62 1000.79C1604.43 954.408 1594.83 913.386 1585.96 875.494C1557 751.804 1535.85 661.476 1666.76 526.855Z" fill="#EAEEF2"/>
</g>
</g>
<g filter="url(#filter3_d_214:416)">
<path d="M3897.1 2993.18C3940.95 2918.89 3638.2 2939.99 3591.76 2819.99C3585.76 2804.5 3579.94 2788.43 3568.57 2776.33L3142.57 2323.23C3138.64 2319.04 3134.36 2315.41 3129.53 2312.3C2967.98 2208.22 2609.97 2038.94 2355.96 2108.4C2098.14 2178.91 1862.77 2385.14 1955.91 2813.75C2030.27 3158.57 2633.73 2799.32 2697.69 3088.87C2715.49 3176.11 2657.73 3346.76 2638.05 3473.2C2607.99 3671.93 2709.1 4047.5 2788.16 4055.44C2950.99 4071.49 3383.89 3964.15 3438.56 3749.33C3493.24 3534.5 3546.65 3330.84 3687.56 3220.07C3770.1 3154.77 3840.79 3078.22 3897.1 2993.18Z" fill="#EAEEF2"/>
</g>
<g filter="url(#filter4_d_214:416)">
<path d="M3691.29 2963.45C3725.95 2908.87 3504.15 2915.91 3464.55 2828.84C3457.69 2813.73 3452.68 2797.23 3441.73 2784.76L3132.96 2433.45C3129.16 2429.14 3124.97 2425.33 3120.24 2422.08C2998.61 2338.27 2730.87 2201.23 2535.89 2247.73C2337.07 2295.15 2151.96 2446.96 2212.29 2777.18C2260.38 3042.82 2730.68 2783.26 2772.22 3006.36C2783.62 3073.54 2735.15 3202.62 2716.91 3298.84C2688.9 3450.1 2756.66 3739.94 2816.88 3748.01C2940.91 3764.4 3274.47 3693.23 3321.7 3530.28C3368.93 3367.33 3414.9 3212.89 3525.4 3131.72C3590.14 3083.85 3646.1 3027.08 3691.29 2963.45Z" fill="#EAEEF2"/>
</g>
<g filter="url(#filter5_d_214:416)">
<path d="M3497.41 2960.68C3523.11 2926.3 3382.84 2918.69 3351.5 2863.17C3343.34 2848.72 3339.98 2831.36 3330 2818.1L3141.94 2568.21C3138.49 2563.62 3134.54 2559.45 3130.05 2555.87C3049.61 2491.53 2874.14 2385.11 2738.5 2406.75C2598.96 2429.02 2463.41 2523.96 2487.68 2754.74C2506.91 2940.38 2844.7 2786.11 2861.64 2942.08C2865.97 2988.99 2825.8 3075.42 2808.18 3140.79C2780.94 3243.58 2812.45 3446.93 2853.54 3455.65C2938.18 3473.45 3171.84 3441.88 3212.94 3332.03C3254.03 3222.18 3293.82 3118.13 3374.25 3067.98C3421.38 3038.37 3462.93 3002.18 3497.41 2960.68Z" fill="#EAEEF2"/>
</g>
<g filter="url(#filter6_d_214:416)">
<path d="M3302.61 2919.45C3317.51 2899.77 3249.2 2892.09 3226.88 2862.52C3217.47 2850.05 3215.75 2832.81 3207.59 2819.48L3115.68 2669.52C3112.62 2664.53 3109.03 2659.92 3104.76 2655.91C3059.93 2613.82 2965.75 2546.8 2888.85 2557.76C2808.11 2569.26 2726.94 2626.5 2732.18 2771.98C2736.23 2888.99 2935.43 2798.07 2939.28 2896.4C2940 2925.96 2913.76 2979.56 2901.22 3020.33C2881.77 3084.45 2892.18 3212.81 2915.38 3219.02C2963.18 3231.72 3098.15 3216.05 3125.8 3147.75C3153.45 3079.45 3180.14 3014.77 3228.07 2984.68C3256.16 2966.92 3281.31 2944.91 3302.61 2919.45Z" fill="#EAEEF2"/>
</g>
<g filter="url(#filter7_d_214:416)">
<path d="M3458.97 698.561C3457.77 702.28 3456.74 706.129 3455.92 710.123C3442.18 776.357 3471.02 902.287 3488.8 963.334C3490.05 967.624 3490.35 972.116 3489.31 976.462C3479.87 1015.96 3446.07 1084.13 3368.09 1087.85C3266.67 1092.93 3044.75 1068.9 3005.69 1136.03C2966.63 1203.16 3030.08 1289.34 2901.97 1367.3C2773.87 1445.25 2696.08 1556.44 2753.64 1597.43C2811.2 1638.42 3276.25 1605.72 3312.82 1605.52C3349.15 1605.33 3588.95 1615.21 3658.55 1772.61C3659.49 1774.74 3660.14 1777.08 3660.49 1779.37C3727.27 2215.39 3823.56 2357.18 4162.6 2288.1C4164.11 2287.79 4165.66 2287.6 4167.21 2287.53C4248.37 2283.95 4399.11 2249.24 4377.3 2140.69C4376.91 2138.75 4376.64 2136.6 4376.67 2134.62C4378.77 1990.52 4649.39 2095.84 4710.34 2204.11C4776.47 2299.47 4878.22 2662.99 4933.96 2828.35C4953.48 2886.27 4986.13 2882.76 5009.55 2826.31C5408.08 1865.71 4504.28 863.934 3603 593.789C3571.94 584.479 3468.89 667.688 3458.97 698.561Z" fill="#EAEEF2"/>
</g>
<g filter="url(#filter8_d_214:416)">
<path d="M4987.92 2550.5C5100.6 1811.87 4454.24 1032.29 3805.81 788.215C3782.6 779.479 3689.64 838.88 3682.57 862.649C3668.56 909.387 3682.76 1000.47 3692.83 1046.55C3693.83 1051.12 3693.81 1055.83 3692.24 1060.23C3682.1 1088.66 3652.5 1134.2 3594.27 1132.77C3516.71 1131.03 3348.98 1101.66 3315.42 1148.41C3281.86 1195.16 3325.32 1261.26 3223.3 1311.12C3121.29 1360.97 3055.72 1437.71 3097.26 1470.61C3138.79 1503.52 3494.98 1504.62 3522.86 1506.44C3550.49 1508.24 3732.03 1528.2 3776.58 1645.88C3777.34 1647.89 3777.81 1649.97 3778.07 1652.11C3795.4 1793.25 3955.34 2042.2 4133.49 2048.33C4195.61 2050.47 4316.34 2033.4 4303.3 1950.61C4289.39 1863.5 4501.08 1902.22 4563.07 1965.4C4577.17 1979.78 4601.61 1996.6 4621.7 1995.16C4822.62 1980.77 4895.23 2334.51 4926.6 2549.26C4941.87 2653.85 4971.99 2654.98 4987.92 2550.5Z" fill="#EAEEF2"/>
</g>
<g filter="url(#filter9_d_214:416)">
<path d="M4712.76 1783.01C4688.59 1402.09 4155.96 1086.6 3871.6 977.316C3860.02 972.865 3800.73 1007.22 3796.89 1019.02C3788.11 1045.82 3796.25 1097.02 3802.71 1125.41C3803.83 1130.37 3803.85 1135.57 3801.76 1140.21C3794.07 1157.18 3774.88 1181.13 3739.26 1180.35C3688.73 1179.34 3579.47 1161.88 3557.59 1189.8C3535.71 1217.73 3563.99 1257.18 3497.51 1287C3431.03 1316.81 3388.29 1362.65 3415.33 1382.28C3442.38 1401.91 3674.42 1402.43 3692.58 1403.5C3709.52 1404.5 3815.19 1415.05 3851.77 1474.79C3856.75 1482.92 3853.9 1493.18 3853.48 1502.71C3851.45 1549.03 3965.89 1622.04 4026.65 1699.66C4082.04 1770.42 4049.52 1831.7 4177.83 1870.84C4179.32 1871.29 4180.99 1871.64 4182.53 1871.82C4330.47 1888.91 4303.35 1765.02 4376.55 1703.13C4379.32 1700.79 4382.75 1699.11 4386.26 1698.23C4489.85 1672.29 4562.26 1733.74 4610.52 1802.11C4673.02 1890.65 4719.63 1891.17 4712.76 1783.01Z" fill="#EAEEF2"/>
</g>
<g filter="url(#filter10_d_214:416)">
<path d="M1540.16 638.369C1586.96 561.554 1597.72 531.649 1595.97 521.54C1593.28 506.079 1567.94 523.684 1552.31 525.094C1154.69 560.978 101.437 1464.45 226.873 2748.63C296.616 3462.64 583.689 3802.15 679.687 3897.27C696.55 3913.98 723.354 3911.27 740.834 3895.21C833.023 3810.5 1026.91 3687.65 954.939 3474.56C923.047 3384.4 915.554 3287.11 933.25 3192.96C950.945 3098.81 993.177 2968.11 1055.49 2896.42C1172.46 2774.42 1336.11 2581.79 1055.49 2403.73C449.844 2019.42 502.394 1590.12 597.179 1475.59C753.9 1286.21 957.617 1313.67 1055.49 1321.87C1294.44 1367.56 1508.54 1201.99 1485.6 1026.27C1480.83 989.695 1473.42 957.353 1466.58 927.478C1444.15 829.563 1427.8 758.164 1530.13 651.312C1533.85 647.425 1537.36 642.965 1540.16 638.369Z" fill="#EAEEF2"/>
</g>
<g filter="url(#filter11_d_214:416)">
<path d="M848.537 3273.27C902.694 3433.53 760.907 3527.31 688.512 3592.22C672.034 3606.99 647.404 3610.64 630.429 3596.44C541.268 3521.86 289.211 3262.66 289.211 2715.87C289.21 887.507 619.854 2378.21 905.476 2448.49C918.552 2451.71 931.974 2454.79 943.019 2462.49C1134.39 2595.96 1013.14 2738.28 925.784 2829.35C877.912 2884.4 845.468 2984.76 831.874 3057.05C818.279 3129.34 824.036 3204.04 848.537 3273.27Z" fill="#EAEEF2"/>
</g>
<g filter="url(#filter12_d_214:416)">
<path d="M771.853 3070.06C806.646 3172.86 723.048 3235.56 671.837 3279.48C655.056 3293.87 629.975 3297.05 613.455 3282.36C545.979 3222.36 389.783 3045.09 389.783 2689.88C389.782 1456.23 610.817 2438 804.451 2505.64C817.148 2510.07 830.886 2512.94 841.745 2520.88C964.807 2610.8 883.456 2706.03 824.62 2767.28C791.919 2804.82 769.757 2873.27 760.471 2922.58C751.184 2971.89 755.117 3022.84 771.853 3070.06Z" fill="#EAEEF2"/>
</g>
<g filter="url(#filter13_d_214:416)">
<path d="M697.855 2917.18C716.206 2971.29 679.666 3006.85 649.687 3032.52C632.92 3046.88 607.16 3049.21 591.49 3033.66C547.148 2989.66 468.613 2884.24 468.613 2689.54C468.613 1966.52 595.666 2514.36 709.998 2575.92C721.821 2582.28 735.872 2584.86 746.287 2593.34C810.624 2645.69 763.726 2700.34 729.515 2735.88C709.894 2758.36 696.597 2799.35 691.026 2828.87C685.454 2858.4 687.813 2888.91 697.855 2917.18Z" fill="#EAEEF2"/>
</g>
<g filter="url(#filter14_d_214:416)">
<path d="M1427.86 729.162C1449.51 687.349 1457.43 666.053 1458.82 655.814C1460.82 641.044 1436.65 653.601 1421.89 655.68C1163.79 692.05 954.423 911.537 699.471 1263.49C649.165 1332.94 872.148 1199.89 1126.31 1220.01C1299.35 1233.71 1440.91 1108.63 1413.11 993.354C1407.33 969.363 1399.95 948.368 1393.13 928.976C1370.97 865.956 1354.76 819.858 1418.67 742.839C1422.15 738.639 1425.35 734.009 1427.86 729.162Z" fill="#EAEEF2"/>
</g>
<g filter="url(#filter15_d_214:416)">
<path d="M1319.85 825.613C1329.07 807.638 1334.22 795.758 1336.78 788.036C1341.46 773.886 1321.49 778.995 1306.78 781.409C1142.19 808.419 1007.42 950.546 843.878 1176.32C811.094 1221.57 956.412 1134.86 1122.05 1147.97C1234.82 1156.9 1327.07 1075.39 1308.96 1000.27C1305.19 984.631 1300.38 970.948 1295.93 958.31C1281.7 917.85 1271.24 888.093 1310.76 839.227C1314.19 834.983 1317.36 830.47 1319.85 825.613Z" fill="#EAEEF2"/>
</g>
</g>
<defs>
<filter id="filter0_d_214:416" x="0" y="0" width="5323.91" height="5270.42" filterUnits="userSpaceOnUse" color-interpolation-filters="sRGB">
<feFlood flood-opacity="0" result="BackgroundImageFix"/>
<feColorMatrix in="SourceAlpha" type="matrix" values="0 0 0 0 0 0 0 0 0 0 0 0 0 0 0 0 0 0 127 0" result="hardAlpha"/>
<feOffset/>
<feGaussianBlur stdDeviation="56"/>
<feComposite in2="hardAlpha" operator="out"/>
<feColorMatrix type="matrix" values="0 0 0 0 1 0 0 0 0 1 0 0 0 0 1 0 0 0 1 0"/>
<feBlend mode="normal" in2="BackgroundImageFix" result="effect1_dropShadow_214:416"/>
<feBlend mode="normal" in="SourceGraphic" in2="effect1_dropShadow_214:416" result="shape"/>
</filter>
<filter id="filter1_d_214:416" x="24" y="28" width="5275.91" height="5222.42" filterUnits="userSpaceOnUse" color-interpolation-filters="sRGB">
<feFlood flood-opacity="0" result="BackgroundImageFix"/>
<feColorMatrix in="SourceAlpha" type="matrix" values="0 0 0 0 0 0 0 0 0 0 0 0 0 0 0 0 0 0 127 0" result="hardAlpha"/>
<feMorphology radius="62" operator="dilate" in="SourceAlpha" result="effect1_dropShadow_214:416"/>
<feOffset dy="4"/>
<feGaussianBlur stdDeviation="13"/>
<feComposite in2="hardAlpha" operator="out"/>
<feColorMatrix type="matrix" values="0 0 0 0 0.0470588 0 0 0 0 0.180392 0 0 0 0 0.541176 0 0 0 0.39 0"/>
<feBlend mode="normal" in2="BackgroundImageFix" result="effect1_dropShadow_214:416"/>
<feBlend mode="normal" in="SourceGraphic" in2="effect1_dropShadow_214:416" result="shape"/>
</filter>
<filter id="filter2_d_214:416" x="93" y="97" width="5137.91" height="5084.42" filterUnits="userSpaceOnUse" color-interpolation-filters="sRGB">
<feFlood flood-opacity="0" result="BackgroundImageFix"/>
<feColorMatrix in="SourceAlpha" type="matrix" values="0 0 0 0 0 0 0 0 0 0 0 0 0 0 0 0 0 0 127 0" result="hardAlpha"/>
<feOffset dy="4"/>
<feGaussianBlur stdDeviation="9.5"/>
<feComposite in2="hardAlpha" operator="out"/>
<feColorMatrix type="matrix" values="0 0 0 0 0 0 0 0 0 0 0 0 0 0 0 0 0 0 1 0"/>
<feBlend mode="normal" in2="BackgroundImageFix" result="effect1_dropShadow_214:416"/>
<feBlend mode="normal" in="SourceGraphic" in2="effect1_dropShadow_214:416" result="shape"/>
</filter>
<filter id="filter3_d_214:416" x="1795.41" y="1988.13" width="2224.8" height="2199.42" filterUnits="userSpaceOnUse" color-interpolation-filters="sRGB">
<feFlood flood-opacity="0" result="BackgroundImageFix"/>
<feColorMatrix in="SourceAlpha" type="matrix" values="0 0 0 0 0 0 0 0 0 0 0 0 0 0 0 0 0 0 127 0" result="hardAlpha"/>
<feMorphology radius="62" operator="dilate" in="SourceAlpha" result="effect1_dropShadow_214:416"/>
<feOffset dy="4"/>
<feGaussianBlur stdDeviation="13"/>
<feComposite in2="hardAlpha" operator="out"/>
<feColorMatrix type="matrix" values="0 0 0 0 0.0470588 0 0 0 0 0.180392 0 0 0 0 0.541176 0 0 0 0.39 0"/>
<feBlend mode="normal" in2="BackgroundImageFix" result="effect1_dropShadow_214:416"/>
<feBlend mode="normal" in="SourceGraphic" in2="effect1_dropShadow_214:416" result="shape"/>
</filter>
<filter id="filter4_d_214:416" x="2038.26" y="2125.87" width="1789.34" height="1771.9" filterUnits="userSpaceOnUse" color-interpolation-filters="sRGB">
<feFlood flood-opacity="0" result="BackgroundImageFix"/>
<feColorMatrix in="SourceAlpha" type="matrix" values="0 0 0 0 0 0 0 0 0 0 0 0 0 0 0 0 0 0 127 0" result="hardAlpha"/>
<feMorphology radius="62" operator="dilate" in="SourceAlpha" result="effect1_dropShadow_214:416"/>
<feOffset dy="4"/>
<feGaussianBlur stdDeviation="13"/>
<feComposite in2="hardAlpha" operator="out"/>
<feColorMatrix type="matrix" values="0 0 0 0 0.0470588 0 0 0 0 0.180392 0 0 0 0 0.541176 0 0 0 0.39 0"/>
<feBlend mode="normal" in2="BackgroundImageFix" result="effect1_dropShadow_214:416"/>
<feBlend mode="normal" in="SourceGraphic" in2="effect1_dropShadow_214:416" result="shape"/>
</filter>
<filter id="filter5_d_214:416" x="2292" y="2280.65" width="1360.69" height="1349.71" filterUnits="userSpaceOnUse" color-interpolation-filters="sRGB">
<feFlood flood-opacity="0" result="BackgroundImageFix"/>
<feColorMatrix in="SourceAlpha" type="matrix" values="0 0 0 0 0 0 0 0 0 0 0 0 0 0 0 0 0 0 127 0" result="hardAlpha"/>
<feMorphology radius="62" operator="dilate" in="SourceAlpha" result="effect1_dropShadow_214:416"/>
<feOffset dy="4"/>
<feGaussianBlur stdDeviation="13"/>
<feComposite in2="hardAlpha" operator="out"/>
<feColorMatrix type="matrix" values="0 0 0 0 0.0470588 0 0 0 0 0.180392 0 0 0 0 0.541176 0 0 0 0.39 0"/>
<feBlend mode="normal" in2="BackgroundImageFix" result="effect1_dropShadow_214:416"/>
<feBlend mode="normal" in="SourceGraphic" in2="effect1_dropShadow_214:416" result="shape"/>
</filter>
<filter id="filter6_d_214:416" x="2558.84" y="2443.57" width="886.945" height="929.457" filterUnits="userSpaceOnUse" color-interpolation-filters="sRGB">
<feFlood flood-opacity="0" result="BackgroundImageFix"/>
<feColorMatrix in="SourceAlpha" type="matrix" values="0 0 0 0 0 0 0 0 0 0 0 0 0 0 0 0 0 0 127 0" result="hardAlpha"/>
<feMorphology radius="62" operator="dilate" in="SourceAlpha" result="effect1_dropShadow_214:416"/>
<feOffset dy="4"/>
<feGaussianBlur stdDeviation="13"/>
<feComposite in2="hardAlpha" operator="out"/>
<feColorMatrix type="matrix" values="0 0 0 0 0.0470588 0 0 0 0 0.180392 0 0 0 0 0.541176 0 0 0 0.39 0"/>
<feBlend mode="normal" in2="BackgroundImageFix" result="effect1_dropShadow_214:416"/>
<feBlend mode="normal" in="SourceGraphic" in2="effect1_dropShadow_214:416" result="shape"/>
</filter>
<filter id="filter7_d_214:416" x="2573.69" y="398.133" width="2666.37" height="2736.34" filterUnits="userSpaceOnUse" color-interpolation-filters="sRGB">
<feFlood flood-opacity="0" result="BackgroundImageFix"/>
<feColorMatrix in="SourceAlpha" type="matrix" values="0 0 0 0 0 0 0 0 0 0 0 0 0 0 0 0 0 0 127 0" result="hardAlpha"/>
<feMorphology radius="62" operator="dilate" in="SourceAlpha" result="effect1_dropShadow_214:416"/>
<feOffset dy="4"/>
<feGaussianBlur stdDeviation="13"/>
<feComposite in2="hardAlpha" operator="out"/>
<feColorMatrix type="matrix" values="0 0 0 0 0.0470588 0 0 0 0 0.180392 0 0 0 0 0.541176 0 0 0 0.39 0"/>
<feBlend mode="normal" in2="BackgroundImageFix" result="effect1_dropShadow_214:416"/>
<feBlend mode="normal" in="SourceGraphic" in2="effect1_dropShadow_214:416" result="shape"/>
</filter>
<filter id="filter8_d_214:416" x="2991.76" y="694.512" width="2098.92" height="2039.62" filterUnits="userSpaceOnUse" color-interpolation-filters="sRGB">
<feFlood flood-opacity="0" result="BackgroundImageFix"/>
<feColorMatrix in="SourceAlpha" type="matrix" values="0 0 0 0 0 0 0 0 0 0 0 0 0 0 0 0 0 0 127 0" result="hardAlpha"/>
<feMorphology radius="62" operator="dilate" in="SourceAlpha" result="effect1_dropShadow_214:416"/>
<feOffset dy="4"/>
<feGaussianBlur stdDeviation="13"/>
<feComposite in2="hardAlpha" operator="out"/>
<feColorMatrix type="matrix" values="0 0 0 0 0.0470588 0 0 0 0 0.180392 0 0 0 0 0.541176 0 0 0 0.39 0"/>
<feBlend mode="normal" in2="BackgroundImageFix" result="effect1_dropShadow_214:416"/>
<feBlend mode="normal" in="SourceGraphic" in2="effect1_dropShadow_214:416" result="shape"/>
</filter>
<filter id="filter9_d_214:416" x="3316.23" y="886.691" width="1485.71" height="1084.66" filterUnits="userSpaceOnUse" color-interpolation-filters="sRGB">
<feFlood flood-opacity="0" result="BackgroundImageFix"/>
<feColorMatrix in="SourceAlpha" type="matrix" values="0 0 0 0 0 0 0 0 0 0 0 0 0 0 0 0 0 0 127 0" result="hardAlpha"/>
<feMorphology radius="62" operator="dilate" in="SourceAlpha" result="effect1_dropShadow_214:416"/>
<feOffset dy="4"/>
<feGaussianBlur stdDeviation="13"/>
<feComposite in2="hardAlpha" operator="out"/>
<feColorMatrix type="matrix" values="0 0 0 0 0.0470588 0 0 0 0 0.180392 0 0 0 0 0.541176 0 0 0 0.39 0"/>
<feBlend mode="normal" in2="BackgroundImageFix" result="effect1_dropShadow_214:416"/>
<feBlend mode="normal" in="SourceGraphic" in2="effect1_dropShadow_214:416" result="shape"/>
</filter>
<filter id="filter10_d_214:416" x="128.566" y="431.223" width="1555.58" height="3569.37" filterUnits="userSpaceOnUse" color-interpolation-filters="sRGB">
<feFlood flood-opacity="0" result="BackgroundImageFix"/>
<feColorMatrix in="SourceAlpha" type="matrix" values="0 0 0 0 0 0 0 0 0 0 0 0 0 0 0 0 0 0 127 0" result="hardAlpha"/>
<feMorphology radius="62" operator="dilate" in="SourceAlpha" result="effect1_dropShadow_214:416"/>
<feOffset dy="4"/>
<feGaussianBlur stdDeviation="13"/>
<feComposite in2="hardAlpha" operator="out"/>
<feColorMatrix type="matrix" values="0 0 0 0 0.0470588 0 0 0 0 0.180392 0 0 0 0 0.541176 0 0 0 0.39 0"/>
<feBlend mode="normal" in2="BackgroundImageFix" result="effect1_dropShadow_214:416"/>
<feBlend mode="normal" in="SourceGraphic" in2="effect1_dropShadow_214:416" result="shape"/>
</filter>
<filter id="filter11_d_214:416" x="201.211" y="1725.24" width="931.617" height="1972.15" filterUnits="userSpaceOnUse" color-interpolation-filters="sRGB">
<feFlood flood-opacity="0" result="BackgroundImageFix"/>
<feColorMatrix in="SourceAlpha" type="matrix" values="0 0 0 0 0 0 0 0 0 0 0 0 0 0 0 0 0 0 127 0" result="hardAlpha"/>
<feMorphology radius="62" operator="dilate" in="SourceAlpha" result="effect1_dropShadow_214:416"/>
<feOffset dy="4"/>
<feGaussianBlur stdDeviation="13"/>
<feComposite in2="hardAlpha" operator="out"/>
<feColorMatrix type="matrix" values="0 0 0 0 0.0470588 0 0 0 0 0.180392 0 0 0 0 0.541176 0 0 0 0.39 0"/>
<feBlend mode="normal" in2="BackgroundImageFix" result="effect1_dropShadow_214:416"/>
<feBlend mode="normal" in="SourceGraphic" in2="effect1_dropShadow_214:416" result="shape"/>
</filter>
<filter id="filter12_d_214:416" x="301.783" y="1987.51" width="692.154" height="1396.44" filterUnits="userSpaceOnUse" color-interpolation-filters="sRGB">
<feFlood flood-opacity="0" result="BackgroundImageFix"/>
<feColorMatrix in="SourceAlpha" type="matrix" values="0 0 0 0 0 0 0 0 0 0 0 0 0 0 0 0 0 0 127 0" result="hardAlpha"/>
<feMorphology radius="62" operator="dilate" in="SourceAlpha" result="effect1_dropShadow_214:416"/>
<feOffset dy="4"/>
<feGaussianBlur stdDeviation="13"/>
<feComposite in2="hardAlpha" operator="out"/>
<feColorMatrix type="matrix" values="0 0 0 0 0.0470588 0 0 0 0 0.180392 0 0 0 0 0.541176 0 0 0 0.39 0"/>
<feBlend mode="normal" in2="BackgroundImageFix" result="effect1_dropShadow_214:416"/>
<feBlend mode="normal" in="SourceGraphic" in2="effect1_dropShadow_214:416" result="shape"/>
</filter>
<filter id="filter13_d_214:416" x="380.613" y="2235.27" width="485.693" height="901.078" filterUnits="userSpaceOnUse" color-interpolation-filters="sRGB">
<feFlood flood-opacity="0" result="BackgroundImageFix"/>
<feColorMatrix in="SourceAlpha" type="matrix" values="0 0 0 0 0 0 0 0 0 0 0 0 0 0 0 0 0 0 127 0" result="hardAlpha"/>
<feMorphology radius="62" operator="dilate" in="SourceAlpha" result="effect1_dropShadow_214:416"/>
<feOffset dy="4"/>
<feGaussianBlur stdDeviation="13"/>
<feComposite in2="hardAlpha" operator="out"/>
<feColorMatrix type="matrix" values="0 0 0 0 0.0470588 0 0 0 0 0.180392 0 0 0 0 0.541176 0 0 0 0.39 0"/>
<feBlend mode="normal" in2="BackgroundImageFix" result="effect1_dropShadow_214:416"/>
<feBlend mode="normal" in="SourceGraphic" in2="effect1_dropShadow_214:416" result="shape"/>
</filter>
<filter id="filter14_d_214:416" x="550.348" y="564.053" width="1050.62" height="812.764" filterUnits="userSpaceOnUse" color-interpolation-filters="sRGB">
<feFlood flood-opacity="0" result="BackgroundImageFix"/>
<feColorMatrix in="SourceAlpha" type="matrix" values="0 0 0 0 0 0 0 0 0 0 0 0 0 0 0 0 0 0 127 0" result="hardAlpha"/>
<feMorphology radius="62" operator="dilate" in="SourceAlpha" result="effect1_dropShadow_214:416"/>
<feOffset dy="4"/>
<feGaussianBlur stdDeviation="13"/>
<feComposite in2="hardAlpha" operator="out"/>
<feColorMatrix type="matrix" values="0 0 0 0 0.0470588 0 0 0 0 0.180392 0 0 0 0 0.541176 0 0 0 0.39 0"/>
<feBlend mode="normal" in2="BackgroundImageFix" result="effect1_dropShadow_214:416"/>
<feBlend mode="normal" in="SourceGraphic" in2="effect1_dropShadow_214:416" result="shape"/>
</filter>
<filter id="filter15_d_214:416" x="716.244" y="693.451" width="743.965" height="588.76" filterUnits="userSpaceOnUse" color-interpolation-filters="sRGB">
<feFlood flood-opacity="0" result="BackgroundImageFix"/>
<feColorMatrix in="SourceAlpha" type="matrix" values="0 0 0 0 0 0 0 0 0 0 0 0 0 0 0 0 0 0 127 0" result="hardAlpha"/>
<feMorphology radius="62" operator="dilate" in="SourceAlpha" result="effect1_dropShadow_214:416"/>
<feOffset dy="4"/>
<feGaussianBlur stdDeviation="13"/>
<feComposite in2="hardAlpha" operator="out"/>
<feColorMatrix type="matrix" values="0 0 0 0 0.0470588 0 0 0 0 0.180392 0 0 0 0 0.541176 0 0 0 0.39 0"/>
<feBlend mode="normal" in2="BackgroundImageFix" result="effect1_dropShadow_214:416"/>
<feBlend mode="normal" in="SourceGraphic" in2="effect1_dropShadow_214:416" result="shape"/>
</filter>
</defs>
</svg>
