<svg width="4770" height="3656" viewBox="0 0 4770 3656" fill="none" xmlns="http://www.w3.org/2000/svg">
<g clip-path="url(#clip0_203:269)">
<rect width="4770" height="3656" rx="327" fill="#293469"/>
<g filter="url(#filter0_d_203:269)">
<path d="M2564 598.235C2570 598.235 2574.86 593.507 2574.86 587.674C2574.86 581.841 2570 577.113 2564 577.113C2558 577.113 2553.14 581.841 2553.14 587.674C2553.14 593.507 2558 598.235 2564 598.235Z" fill="#F2F5F8"/>
<path d="M3796.06 713.352C3802.06 713.352 3806.92 708.623 3806.92 702.79C3806.92 696.958 3802.06 692.229 3796.06 692.229C3790.06 692.229 3785.2 696.958 3785.2 702.79C3785.2 708.623 3790.06 713.352 3796.06 713.352Z" fill="#F2F5F8"/>
<path d="M3735.73 92.3525C3741.72 92.3525 3746.59 87.8605 3746.59 82.3193C3746.59 76.7781 3741.72 72.2861 3735.73 72.2861C3729.73 72.2861 3724.87 76.7781 3724.87 82.3193C3724.87 87.8605 3729.73 92.3525 3735.73 92.3525Z" fill="#F2F5F8"/>
<path d="M2150.09 884.443C2156.09 884.443 2160.95 879.715 2160.95 873.882C2160.95 868.049 2156.09 863.321 2150.09 863.321C2144.09 863.321 2139.23 868.049 2139.23 873.882C2139.23 879.715 2144.09 884.443 2150.09 884.443Z" fill="#F2F5F8"/>
<path d="M3383.36 999.561C3389.36 999.561 3394.22 994.833 3394.22 989C3394.22 983.167 3389.36 978.439 3383.36 978.439C3377.37 978.439 3372.5 983.167 3372.5 989C3372.5 994.833 3377.37 999.561 3383.36 999.561Z" fill="#F2F5F8"/>
<path d="M3323.03 378.561C3329.02 378.561 3333.89 374.069 3333.89 368.528C3333.89 362.986 3329.02 358.494 3323.03 358.494C3317.03 358.494 3312.17 362.986 3312.17 368.528C3312.17 374.069 3317.03 378.561 3323.03 378.561Z" fill="#F2F5F8"/>
<path d="M3389.4 526.418C3395.4 526.418 3400.26 521.926 3400.26 516.385C3400.26 510.844 3395.4 506.352 3389.4 506.352C3383.4 506.352 3378.54 510.844 3378.54 516.385C3378.54 521.926 3383.4 526.418 3389.4 526.418Z" fill="#F2F5F8"/>
<path d="M4622.67 641.536C4628.66 641.536 4633.53 636.808 4633.53 630.975C4633.53 625.142 4628.66 620.414 4622.67 620.414C4616.67 620.414 4611.81 625.142 4611.81 630.975C4611.81 636.808 4616.67 641.536 4622.67 641.536Z" fill="#F2F5F8"/>
<path d="M4562.33 20.5358C4568.33 20.5358 4573.19 16.0438 4573.19 10.5026C4573.19 4.96148 4568.33 0.469482 4562.33 0.469482C4556.33 0.469482 4551.47 4.96148 4551.47 10.5026C4551.47 16.0438 4556.33 20.5358 4562.33 20.5358Z" fill="#F2F5F8"/>
<path d="M3454.56 1037.58C3460.56 1037.58 3465.42 1033.09 3465.42 1027.55C3465.42 1022.01 3460.56 1017.52 3454.56 1017.52C3448.56 1017.52 3443.7 1022.01 3443.7 1027.55C3443.7 1033.09 3448.56 1037.58 3454.56 1037.58Z" fill="#F2F5F8"/>
<path d="M4687.83 1152.7C4693.83 1152.7 4698.69 1147.97 4698.69 1142.14C4698.69 1136.3 4693.83 1131.58 4687.83 1131.58C4681.83 1131.58 4676.97 1136.3 4676.97 1142.14C4676.97 1147.97 4681.83 1152.7 4687.83 1152.7Z" fill="#F2F5F8"/>
<path d="M4627.49 531.7C4633.49 531.7 4638.35 527.208 4638.35 521.666C4638.35 516.125 4633.49 511.633 4627.49 511.633C4621.5 511.633 4616.63 516.125 4616.63 521.666C4616.63 527.208 4621.5 531.7 4627.49 531.7Z" fill="#F2F5F8"/>
<path d="M2618.3 270.837C2624.3 270.837 2629.16 266.345 2629.16 260.804C2629.16 255.263 2624.3 250.771 2618.3 250.771C2612.3 250.771 2607.44 255.263 2607.44 260.804C2607.44 266.345 2612.3 270.837 2618.3 270.837Z" fill="#F2F5F8"/>
<path d="M3850.36 385.954C3856.36 385.954 3861.22 381.226 3861.22 375.393C3861.22 369.56 3856.36 364.832 3850.36 364.832C3844.37 364.832 3839.5 369.56 3839.5 375.393C3839.5 381.226 3844.37 385.954 3850.36 385.954Z" fill="#F2F5F8"/>
<path d="M2204.4 557.046C2210.39 557.046 2215.26 552.554 2215.26 547.012C2215.26 541.471 2210.39 536.979 2204.4 536.979C2198.4 536.979 2193.53 541.471 2193.53 547.012C2193.53 552.554 2198.4 557.046 2204.4 557.046Z" fill="#F2F5F8"/>
<path d="M3437.67 672.163C3443.66 672.163 3448.53 667.434 3448.53 661.602C3448.53 655.769 3443.66 651.04 3437.67 651.04C3431.67 651.04 3426.81 655.769 3426.81 661.602C3426.81 667.434 3431.67 672.163 3437.67 672.163Z" fill="#F2F5F8"/>
<path d="M3377.33 51.1635C3383.33 51.1635 3388.19 46.6715 3388.19 41.1303C3388.19 35.5892 3383.33 31.0972 3377.33 31.0972C3371.33 31.0972 3366.47 35.5892 3366.47 41.1303C3366.47 46.6715 3371.33 51.1635 3377.33 51.1635Z" fill="#F2F5F8"/>
<path d="M3443.7 199.02C3449.7 199.02 3454.56 194.528 3454.56 188.987C3454.56 183.446 3449.7 178.954 3443.7 178.954C3437.7 178.954 3432.84 183.446 3432.84 188.987C3432.84 194.528 3437.7 199.02 3443.7 199.02Z" fill="#F2F5F8"/>
<path d="M4676.97 314.137C4682.97 314.137 4687.83 309.645 4687.83 304.104C4687.83 298.563 4682.97 294.071 4676.97 294.071C4670.97 294.071 4666.11 298.563 4666.11 304.104C4666.11 309.645 4670.97 314.137 4676.97 314.137Z" fill="#F2F5F8"/>
<path d="M3508.86 710.183C3514.86 710.183 3519.72 705.691 3519.72 700.15C3519.72 694.609 3514.86 690.117 3508.86 690.117C3502.86 690.117 3498 694.609 3498 700.15C3498 705.691 3502.86 710.183 3508.86 710.183Z" fill="#F2F5F8"/>
<path d="M4742.13 825.301C4748.13 825.301 4752.99 820.809 4752.99 815.268C4752.99 809.727 4748.13 805.235 4742.13 805.235C4736.13 805.235 4731.27 809.727 4731.27 815.268C4731.27 820.809 4736.13 825.301 4742.13 825.301Z" fill="#F2F5F8"/>
<path d="M4681.8 205.357C4687.79 205.357 4692.66 200.629 4692.66 194.796C4692.66 188.963 4687.79 184.235 4681.8 184.235C4675.8 184.235 4670.94 188.963 4670.94 194.796C4670.94 200.629 4675.8 205.357 4681.8 205.357Z" fill="#F2F5F8"/>
<path d="M1846 260.276C1852 260.276 1856.86 255.784 1856.86 250.243C1856.86 244.702 1852 240.21 1846 240.21C1840 240.21 1835.14 244.702 1835.14 250.243C1835.14 255.784 1840 260.276 1846 260.276Z" fill="#F2F5F8"/>
<path d="M3079.27 375.393C3085.27 375.393 3090.13 370.901 3090.13 365.36C3090.13 359.818 3085.27 355.326 3079.27 355.326C3073.27 355.326 3068.41 359.818 3068.41 365.36C3068.41 370.901 3073.27 375.393 3079.27 375.393Z" fill="#F2F5F8"/>
<path d="M2672.6 189.516C2678.6 189.516 2683.46 184.787 2683.46 178.954C2683.46 173.121 2678.6 168.393 2672.6 168.393C2666.61 168.393 2661.74 173.121 2661.74 178.954C2661.74 184.787 2666.61 189.516 2672.6 189.516Z" fill="#F2F5F8"/>
<path d="M2737.77 700.678C2743.76 700.678 2748.63 695.95 2748.63 690.117C2748.63 684.284 2743.76 679.556 2737.77 679.556C2731.77 679.556 2726.91 684.284 2726.91 690.117C2726.91 695.95 2731.77 700.678 2737.77 700.678Z" fill="#F2F5F8"/>
<path d="M1867.72 2110.6C1873.72 2110.6 1878.58 2106.11 1878.58 2100.57C1878.58 2095.03 1873.72 2090.54 1867.72 2090.54C1861.72 2090.54 1856.86 2095.03 1856.86 2100.57C1856.86 2106.11 1861.72 2110.6 1867.72 2110.6Z" fill="#F2F5F8"/>
<path d="M2694.32 2039.84C2700.32 2039.84 2705.18 2035.11 2705.18 2029.28C2705.18 2023.45 2700.32 2018.72 2694.32 2018.72C2688.33 2018.72 2683.46 2023.45 2683.46 2029.28C2683.46 2035.11 2688.33 2039.84 2694.32 2039.84Z" fill="#F2F5F8"/>
<path d="M3932.42 2090.54C3938.42 2090.54 3943.28 2086.04 3943.28 2080.5C3943.28 2074.96 3938.42 2070.47 3932.42 2070.47C3926.42 2070.47 3921.56 2074.96 3921.56 2080.5C3921.56 2086.04 3926.42 2090.54 3932.42 2090.54Z" fill="#F2F5F8"/>
<path d="M3519.72 2376.75C3525.72 2376.75 3530.58 2372.25 3530.58 2366.71C3530.58 2361.17 3525.72 2356.68 3519.72 2356.68C3513.72 2356.68 3508.86 2361.17 3508.86 2366.71C3508.86 2372.25 3513.72 2376.75 3519.72 2376.75Z" fill="#F2F5F8"/>
<path d="M4759.03 2018.72C4765.02 2018.72 4769.89 2014.23 4769.89 2008.69C4769.89 2003.14 4765.02 1998.65 4759.03 1998.65C4753.03 1998.65 4748.17 2003.14 4748.17 2008.69C4748.17 2014.23 4753.03 2018.72 4759.03 2018.72Z" fill="#F2F5F8"/>
<path d="M4216 1732.51C4222 1732.51 4226.86 1728.02 4226.86 1722.48C4226.86 1716.94 4222 1712.44 4216 1712.44C4210 1712.44 4205.14 1716.94 4205.14 1722.48C4205.14 1728.02 4210 1732.51 4216 1732.51Z" fill="#F2F5F8"/>
<path d="M4237.72 1548.75C4243.72 1548.75 4248.58 1544.25 4248.58 1538.71C4248.58 1533.17 4243.72 1528.68 4237.72 1528.68C4231.72 1528.68 4226.86 1533.17 4226.86 1538.71C4226.86 1544.25 4231.72 1548.75 4237.72 1548.75Z" fill="#F2F5F8"/>
<path d="M4476.65 1528.68C4482.65 1528.68 4487.51 1523.95 4487.51 1518.12C4487.51 1512.28 4482.65 1507.56 4476.65 1507.56C4470.65 1507.56 4465.79 1512.28 4465.79 1518.12C4465.79 1523.95 4470.65 1528.68 4476.65 1528.68Z" fill="#F2F5F8"/>
<path d="M4498.37 2326.05C4504.37 2326.05 4509.23 2321.32 4509.23 2315.49C4509.23 2309.66 4504.37 2304.93 4498.37 2304.93C4492.38 2304.93 4487.51 2309.66 4487.51 2315.49C4487.51 2321.32 4492.38 2326.05 4498.37 2326.05Z" fill="#F2F5F8"/>
<path d="M4520.1 1017.52C4526.09 1017.52 4530.96 1012.79 4530.96 1006.95C4530.96 1001.12 4526.09 996.393 4520.1 996.393C4514.1 996.393 4509.24 1001.12 4509.24 1006.95C4509.24 1012.79 4514.1 1017.52 4520.1 1017.52Z" fill="#F2F5F8"/>
<path d="M3052.72 740.811C3058.72 740.811 3063.58 736.319 3063.58 730.778C3063.58 725.236 3058.72 720.744 3052.72 720.744C3046.72 720.744 3041.86 725.236 3041.86 730.778C3041.86 736.319 3046.72 740.811 3052.72 740.811Z" fill="#F2F5F8"/>
<path d="M2128.37 301.465C2134.37 301.465 2139.23 296.973 2139.23 291.432C2139.23 285.89 2134.37 281.398 2128.37 281.398C2122.37 281.398 2117.51 285.89 2117.51 291.432C2117.51 296.973 2122.37 301.465 2128.37 301.465Z" fill="#F2F5F8"/>
<path d="M3107.02 414.47C3113.02 414.47 3117.88 409.741 3117.88 403.908C3117.88 398.076 3113.02 393.347 3107.02 393.347C3101.03 393.347 3096.16 398.076 3096.16 403.908C3096.16 409.741 3101.03 414.47 3107.02 414.47Z" fill="#F2F5F8"/>
<path d="M2335.93 403.908C2341.93 403.908 2346.79 399.416 2346.79 393.875C2346.79 388.334 2341.93 383.842 2335.93 383.842C2329.93 383.842 2325.07 388.334 2325.07 393.875C2325.07 399.416 2329.93 403.908 2335.93 403.908Z" fill="#F2F5F8"/>
<path d="M2357.65 2254.23C2363.65 2254.23 2368.51 2249.51 2368.51 2243.67C2368.51 2237.84 2363.65 2233.11 2357.65 2233.11C2351.65 2233.11 2346.79 2237.84 2346.79 2243.67C2346.79 2249.51 2351.65 2254.23 2357.65 2254.23Z" fill="#F2F5F8"/>
<path d="M4422.35 2233.11C4428.35 2233.11 4433.21 2228.62 4433.21 2223.08C4433.21 2217.54 4428.35 2213.05 4422.35 2213.05C4416.35 2213.05 4411.49 2217.54 4411.49 2223.08C4411.49 2228.62 4416.35 2233.11 4422.35 2233.11Z" fill="#F2F5F8"/>
<path d="M3498 1793.77C3504 1793.77 3508.86 1789.27 3508.86 1783.73C3508.86 1778.19 3504 1773.7 3498 1773.7C3492 1773.7 3487.14 1778.19 3487.14 1783.73C3487.14 1789.27 3492 1793.77 3498 1793.77Z" fill="#F2F5F8"/>
<path d="M2030.63 2407.37C2036.63 2407.37 2041.49 2402.88 2041.49 2397.34C2041.49 2391.8 2036.63 2387.31 2030.63 2387.31C2024.63 2387.31 2019.77 2391.8 2019.77 2397.34C2019.77 2402.88 2024.63 2407.37 2030.63 2407.37Z" fill="#F2F5F8"/>
<path d="M2281.02 2376.75C2287.35 2376.75 2292.49 2372.25 2292.49 2366.71C2292.49 2361.17 2287.35 2356.68 2281.02 2356.68C2274.69 2356.68 2269.56 2361.17 2269.56 2366.71C2269.56 2372.25 2274.69 2376.75 2281.02 2376.75Z" fill="#F2F5F8"/>
<path d="M1867.72 2417.93C1873.72 2417.93 1878.58 2413.21 1878.58 2407.37C1878.58 2401.54 1873.72 2396.81 1867.72 2396.81C1861.72 2396.81 1856.86 2401.54 1856.86 2407.37C1856.86 2413.21 1861.72 2417.93 1867.72 2417.93Z" fill="#F2F5F8"/>
<path d="M4096.53 2059.91C4102.53 2059.91 4107.39 2055.42 4107.39 2049.87C4107.39 2044.33 4102.53 2039.84 4096.53 2039.84C4090.54 2039.84 4085.67 2044.33 4085.67 2049.87C4085.67 2055.42 4090.54 2059.91 4096.53 2059.91Z" fill="#F2F5F8"/>
<path d="M1660.16 1650.13C1666.16 1650.13 1671.02 1645.64 1671.02 1640.1C1671.02 1634.56 1666.16 1630.07 1660.16 1630.07C1654.17 1630.07 1649.3 1634.56 1649.3 1640.1C1649.3 1645.64 1654.17 1650.13 1660.16 1650.13Z" fill="#F2F5F8"/>
<path d="M3845.54 2346.12C3851.53 2346.12 3856.4 2341.63 3856.4 2336.08C3856.4 2330.54 3851.53 2326.05 3845.54 2326.05C3839.54 2326.05 3834.68 2330.54 3834.68 2336.08C3834.68 2341.63 3839.54 2346.12 3845.54 2346.12Z" fill="#F2F5F8"/>
<path d="M4172.56 1436.8C4178.56 1436.8 4183.42 1432.07 4183.42 1426.24C4183.42 1420.4 4178.56 1415.67 4172.56 1415.67C4166.56 1415.67 4161.7 1420.4 4161.7 1426.24C4161.7 1432.07 4166.56 1436.8 4172.56 1436.8Z" fill="#F2F5F8"/>
<path d="M1736.19 1027.02C1742.18 1027.02 1747.05 1022.29 1747.05 1016.46C1747.05 1010.63 1742.18 1005.9 1736.19 1005.9C1730.19 1005.9 1725.33 1010.63 1725.33 1016.46C1725.33 1022.29 1730.19 1027.02 1736.19 1027.02Z" fill="#F2F5F8"/>
<path d="M4205.14 1262.54C4211.14 1262.54 4216 1258.04 4216 1252.5C4216 1246.96 4211.14 1242.47 4205.14 1242.47C4199.14 1242.47 4194.28 1246.96 4194.28 1252.5C4194.28 1258.04 4199.14 1262.54 4205.14 1262.54Z" fill="#F2F5F8"/>
<path d="M1768.77 852.761C1774.77 852.761 1779.63 848.269 1779.63 842.728C1779.63 837.186 1774.77 832.694 1768.77 832.694C1762.77 832.694 1757.91 837.186 1757.91 842.728C1757.91 848.269 1762.77 852.761 1768.77 852.761Z" fill="#F2F5F8"/>
<path d="M4454.93 1231.91C4460.93 1231.91 4465.79 1227.42 4465.79 1221.87C4465.79 1216.33 4460.93 1211.84 4454.93 1211.84C4448.93 1211.84 4444.07 1216.33 4444.07 1221.87C4444.07 1227.42 4448.93 1231.91 4454.93 1231.91Z" fill="#F2F5F8"/>
<path d="M2019.77 822.133C2025.76 822.133 2030.63 817.641 2030.63 812.1C2030.63 806.559 2025.76 802.067 2019.77 802.067C2013.77 802.067 2008.91 806.559 2008.91 812.1C2008.91 817.641 2013.77 822.133 2019.77 822.133Z" fill="#F2F5F8"/>
<path d="M4042.23 1273.1C4048.23 1273.1 4053.09 1268.37 4053.09 1262.54C4053.09 1256.7 4048.23 1251.98 4042.23 1251.98C4036.23 1251.98 4031.37 1256.7 4031.37 1262.54C4031.37 1268.37 4036.23 1273.1 4042.23 1273.1Z" fill="#F2F5F8"/>
<path d="M1605.86 863.321C1611.86 863.321 1616.72 858.593 1616.72 852.76C1616.72 846.927 1611.86 842.199 1605.86 842.199C1599.86 842.199 1595 846.927 1595 852.76C1595 858.593 1599.86 863.321 1605.86 863.321Z" fill="#F2F5F8"/>
<path d="M4433.21 2151.79C4439.21 2151.79 4444.07 2147.3 4444.07 2141.76C4444.07 2136.22 4439.21 2131.72 4433.21 2131.72C4427.21 2131.72 4422.35 2136.22 4422.35 2141.76C4422.35 2147.3 4427.21 2151.79 4433.21 2151.79Z" fill="#F2F5F8"/>
<path d="M1998.05 1742.02C2004.04 1742.02 2008.91 1737.52 2008.91 1731.98C2008.91 1726.44 2004.04 1721.95 1998.05 1721.95C1992.05 1721.95 1987.19 1726.44 1987.19 1731.98C1987.19 1737.52 1992.05 1742.02 1998.05 1742.02Z" fill="#F2F5F8"/>
<path d="M4183.42 2438C4189.42 2438 4194.28 2433.51 4194.28 2427.97C4194.28 2422.43 4189.42 2417.93 4183.42 2417.93C4177.42 2417.93 4172.56 2422.43 4172.56 2427.97C4172.56 2433.51 4177.42 2438 4183.42 2438Z" fill="#F2F5F8"/>
</g>
<g filter="url(#filter1_d_203:269)">
<path d="M917.999 598.235C923.997 598.235 928.859 593.507 928.859 587.674C928.859 581.841 923.997 577.113 917.999 577.113C912.001 577.113 907.138 581.841 907.138 587.674C907.138 593.507 912.001 598.235 917.999 598.235Z" fill="#F2F5F8"/>
<path d="M2150.06 713.352C2156.06 713.352 2160.92 708.623 2160.92 702.79C2160.92 696.958 2156.06 692.229 2150.06 692.229C2144.06 692.229 2139.2 696.958 2139.2 702.79C2139.2 708.623 2144.06 713.352 2150.06 713.352Z" fill="#F2F5F8"/>
<path d="M2089.73 92.3525C2095.72 92.3525 2100.59 87.8605 2100.59 82.3193C2100.59 76.7781 2095.72 72.2861 2089.73 72.2861C2083.73 72.2861 2078.87 76.7781 2078.87 82.3193C2078.87 87.8605 2083.73 92.3525 2089.73 92.3525Z" fill="#F2F5F8"/>
<path d="M504.092 884.443C510.09 884.443 514.953 879.715 514.953 873.882C514.953 868.049 510.09 863.321 504.092 863.321C498.094 863.321 493.232 868.049 493.232 873.882C493.232 879.715 498.094 884.443 504.092 884.443Z" fill="#F2F5F8"/>
<path d="M1737.36 999.561C1743.36 999.561 1748.22 994.833 1748.22 989C1748.22 983.167 1743.36 978.439 1737.36 978.439C1731.37 978.439 1726.5 983.167 1726.5 989C1726.5 994.833 1731.37 999.561 1737.36 999.561Z" fill="#F2F5F8"/>
<path d="M1677.03 378.561C1683.02 378.561 1687.89 374.069 1687.89 368.528C1687.89 362.986 1683.02 358.494 1677.03 358.494C1671.03 358.494 1666.17 362.986 1666.17 368.528C1666.17 374.069 1671.03 378.561 1677.03 378.561Z" fill="#F2F5F8"/>
<path d="M1743.4 526.418C1749.4 526.418 1754.26 521.926 1754.26 516.385C1754.26 510.844 1749.4 506.352 1743.4 506.352C1737.4 506.352 1732.54 510.844 1732.54 516.385C1732.54 521.926 1737.4 526.418 1743.4 526.418Z" fill="#F2F5F8"/>
<path d="M2976.67 641.536C2982.66 641.536 2987.53 636.808 2987.53 630.975C2987.53 625.142 2982.66 620.414 2976.67 620.414C2970.67 620.414 2965.81 625.142 2965.81 630.975C2965.81 636.808 2970.67 641.536 2976.67 641.536Z" fill="#F2F5F8"/>
<path d="M2916.33 20.5358C2922.33 20.5358 2927.19 16.0438 2927.19 10.5026C2927.19 4.96148 2922.33 0.469482 2916.33 0.469482C2910.33 0.469482 2905.47 4.96148 2905.47 10.5026C2905.47 16.0438 2910.33 20.5358 2916.33 20.5358Z" fill="#F2F5F8"/>
<path d="M1808.56 1037.58C1814.56 1037.58 1819.42 1033.09 1819.42 1027.55C1819.42 1022.01 1814.56 1017.52 1808.56 1017.52C1802.56 1017.52 1797.7 1022.01 1797.7 1027.55C1797.7 1033.09 1802.56 1037.58 1808.56 1037.58Z" fill="#F2F5F8"/>
<path d="M3041.83 1152.7C3047.83 1152.7 3052.69 1147.97 3052.69 1142.14C3052.69 1136.3 3047.83 1131.58 3041.83 1131.58C3035.83 1131.58 3030.97 1136.3 3030.97 1142.14C3030.97 1147.97 3035.83 1152.7 3041.83 1152.7Z" fill="#F2F5F8"/>
<path d="M2981.49 531.7C2987.49 531.7 2992.35 527.208 2992.35 521.666C2992.35 516.125 2987.49 511.633 2981.49 511.633C2975.5 511.633 2970.63 516.125 2970.63 521.666C2970.63 527.208 2975.5 531.7 2981.49 531.7Z" fill="#F2F5F8"/>
<path d="M972.302 270.837C978.3 270.837 983.162 266.345 983.162 260.804C983.162 255.263 978.3 250.771 972.302 250.771C966.304 250.771 961.441 255.263 961.441 260.804C961.441 266.345 966.304 270.837 972.302 270.837Z" fill="#F2F5F8"/>
<path d="M2204.36 385.954C2210.36 385.954 2215.22 381.226 2215.22 375.393C2215.22 369.56 2210.36 364.832 2204.36 364.832C2198.37 364.832 2193.5 369.56 2193.5 375.393C2193.5 381.226 2198.37 385.954 2204.36 385.954Z" fill="#F2F5F8"/>
<path d="M558.395 557.046C564.394 557.046 569.256 552.554 569.256 547.012C569.256 541.471 564.394 536.979 558.395 536.979C552.397 536.979 547.535 541.471 547.535 547.012C547.535 552.554 552.397 557.046 558.395 557.046Z" fill="#F2F5F8"/>
<path d="M1791.67 672.163C1797.66 672.163 1802.53 667.434 1802.53 661.602C1802.53 655.769 1797.66 651.04 1791.67 651.04C1785.67 651.04 1780.81 655.769 1780.81 661.602C1780.81 667.434 1785.67 672.163 1791.67 672.163Z" fill="#F2F5F8"/>
<path d="M1731.33 51.1635C1737.33 51.1635 1742.19 46.6715 1742.19 41.1303C1742.19 35.5892 1737.33 31.0972 1731.33 31.0972C1725.33 31.0972 1720.47 35.5892 1720.47 41.1303C1720.47 46.6715 1725.33 51.1635 1731.33 51.1635Z" fill="#F2F5F8"/>
<path d="M1797.7 199.02C1803.7 199.02 1808.56 194.528 1808.56 188.987C1808.56 183.446 1803.7 178.954 1797.7 178.954C1791.7 178.954 1786.84 183.446 1786.84 188.987C1786.84 194.528 1791.7 199.02 1797.7 199.02Z" fill="#F2F5F8"/>
<path d="M3030.97 314.137C3036.97 314.137 3041.83 309.645 3041.83 304.104C3041.83 298.563 3036.97 294.071 3030.97 294.071C3024.97 294.071 3020.11 298.563 3020.11 304.104C3020.11 309.645 3024.97 314.137 3030.97 314.137Z" fill="#F2F5F8"/>
<path d="M1862.86 710.183C1868.86 710.183 1873.72 705.691 1873.72 700.15C1873.72 694.609 1868.86 690.117 1862.86 690.117C1856.86 690.117 1852 694.609 1852 700.15C1852 705.691 1856.86 710.183 1862.86 710.183Z" fill="#F2F5F8"/>
<path d="M3096.13 825.301C3102.13 825.301 3106.99 820.809 3106.99 815.268C3106.99 809.727 3102.13 805.235 3096.13 805.235C3090.13 805.235 3085.27 809.727 3085.27 815.268C3085.27 820.809 3090.13 825.301 3096.13 825.301Z" fill="#F2F5F8"/>
<path d="M3035.8 205.357C3041.79 205.357 3046.66 200.629 3046.66 194.796C3046.66 188.963 3041.79 184.235 3035.8 184.235C3029.8 184.235 3024.94 188.963 3024.94 194.796C3024.94 200.629 3029.8 205.357 3035.8 205.357Z" fill="#F2F5F8"/>
<path d="M199.998 260.276C205.997 260.276 210.859 255.784 210.859 250.243C210.859 244.702 205.997 240.21 199.998 240.21C194 240.21 189.138 244.702 189.138 250.243C189.138 255.784 194 260.276 199.998 260.276Z" fill="#F2F5F8"/>
<path d="M1433.27 375.393C1439.27 375.393 1444.13 370.901 1444.13 365.36C1444.13 359.818 1439.27 355.326 1433.27 355.326C1427.27 355.326 1422.41 359.818 1422.41 365.36C1422.41 370.901 1427.27 375.393 1433.27 375.393Z" fill="#F2F5F8"/>
<path d="M1026.6 189.516C1032.6 189.516 1037.46 184.787 1037.46 178.954C1037.46 173.121 1032.6 168.393 1026.6 168.393C1020.61 168.393 1015.74 173.121 1015.74 178.954C1015.74 184.787 1020.61 189.516 1026.6 189.516Z" fill="#F2F5F8"/>
<path d="M1091.77 700.678C1097.76 700.678 1102.63 695.95 1102.63 690.117C1102.63 684.284 1097.76 679.556 1091.77 679.556C1085.77 679.556 1080.91 684.284 1080.91 690.117C1080.91 695.95 1085.77 700.678 1091.77 700.678Z" fill="#F2F5F8"/>
<path d="M221.719 2110.6C227.717 2110.6 232.579 2106.11 232.579 2100.57C232.579 2095.03 227.717 2090.54 221.719 2090.54C215.721 2090.54 210.858 2095.03 210.858 2100.57C210.858 2106.11 215.721 2110.6 221.719 2110.6Z" fill="#F2F5F8"/>
<path d="M1048.32 2039.84C1054.32 2039.84 1059.18 2035.11 1059.18 2029.28C1059.18 2023.45 1054.32 2018.72 1048.32 2018.72C1042.33 2018.72 1037.46 2023.45 1037.46 2029.28C1037.46 2035.11 1042.33 2039.84 1048.32 2039.84Z" fill="#F2F5F8"/>
<path d="M2286.42 2090.54C2292.42 2090.54 2297.28 2086.04 2297.28 2080.5C2297.28 2074.96 2292.42 2070.47 2286.42 2070.47C2280.42 2070.47 2275.56 2074.96 2275.56 2080.5C2275.56 2086.04 2280.42 2090.54 2286.42 2090.54Z" fill="#F2F5F8"/>
<path d="M1873.72 2376.75C1879.72 2376.75 1884.58 2372.25 1884.58 2366.71C1884.58 2361.17 1879.72 2356.68 1873.72 2356.68C1867.72 2356.68 1862.86 2361.17 1862.86 2366.71C1862.86 2372.25 1867.72 2376.75 1873.72 2376.75Z" fill="#F2F5F8"/>
<path d="M3113.03 2018.72C3119.02 2018.72 3123.89 2014.23 3123.89 2008.69C3123.89 2003.14 3119.02 1998.65 3113.03 1998.65C3107.03 1998.65 3102.17 2003.14 3102.17 2008.69C3102.17 2014.23 3107.03 2018.72 3113.03 2018.72Z" fill="#F2F5F8"/>
<path d="M2570 1732.51C2576 1732.51 2580.86 1728.02 2580.86 1722.48C2580.86 1716.94 2576 1712.44 2570 1712.44C2564 1712.44 2559.14 1716.94 2559.14 1722.48C2559.14 1728.02 2564 1732.51 2570 1732.51Z" fill="#F2F5F8"/>
<path d="M2591.72 1548.75C2597.72 1548.75 2602.58 1544.25 2602.58 1538.71C2602.58 1533.17 2597.72 1528.68 2591.72 1528.68C2585.72 1528.68 2580.86 1533.17 2580.86 1538.71C2580.86 1544.25 2585.72 1548.75 2591.72 1548.75Z" fill="#F2F5F8"/>
<path d="M2830.65 1528.68C2836.65 1528.68 2841.51 1523.95 2841.51 1518.12C2841.51 1512.28 2836.65 1507.56 2830.65 1507.56C2824.65 1507.56 2819.79 1512.28 2819.79 1518.12C2819.79 1523.95 2824.65 1528.68 2830.65 1528.68Z" fill="#F2F5F8"/>
<path d="M2852.37 2326.05C2858.37 2326.05 2863.23 2321.32 2863.23 2315.49C2863.23 2309.66 2858.37 2304.93 2852.37 2304.93C2846.38 2304.93 2841.51 2309.66 2841.51 2315.49C2841.51 2321.32 2846.38 2326.05 2852.37 2326.05Z" fill="#F2F5F8"/>
<path d="M2874.1 1017.52C2880.09 1017.52 2884.96 1012.79 2884.96 1006.95C2884.96 1001.12 2880.09 996.393 2874.1 996.393C2868.1 996.393 2863.24 1001.12 2863.24 1006.95C2863.24 1012.79 2868.1 1017.52 2874.1 1017.52Z" fill="#F2F5F8"/>
<path d="M1406.72 740.811C1412.72 740.811 1417.58 736.319 1417.58 730.778C1417.58 725.236 1412.72 720.744 1406.72 720.744C1400.72 720.744 1395.86 725.236 1395.86 730.778C1395.86 736.319 1400.72 740.811 1406.72 740.811Z" fill="#F2F5F8"/>
<path d="M482.371 301.465C488.369 301.465 493.231 296.973 493.231 291.432C493.231 285.89 488.369 281.398 482.371 281.398C476.373 281.398 471.51 285.89 471.51 291.432C471.51 296.973 476.373 301.465 482.371 301.465Z" fill="#F2F5F8"/>
<path d="M1461.02 414.47C1467.02 414.47 1471.88 409.741 1471.88 403.908C1471.88 398.076 1467.02 393.347 1461.02 393.347C1455.03 393.347 1450.16 398.076 1450.16 403.908C1450.16 409.741 1455.03 414.47 1461.02 414.47Z" fill="#F2F5F8"/>
<path d="M689.927 403.908C695.925 403.908 700.787 399.416 700.787 393.875C700.787 388.334 695.925 383.842 689.927 383.842C683.929 383.842 679.066 388.334 679.066 393.875C679.066 399.416 683.929 403.908 689.927 403.908Z" fill="#F2F5F8"/>
<path d="M711.649 2254.23C717.647 2254.23 722.509 2249.51 722.509 2243.67C722.509 2237.84 717.647 2233.11 711.649 2233.11C705.651 2233.11 700.788 2237.84 700.788 2243.67C700.788 2249.51 705.651 2254.23 711.649 2254.23Z" fill="#F2F5F8"/>
<path d="M2776.35 2233.11C2782.35 2233.11 2787.21 2228.62 2787.21 2223.08C2787.21 2217.54 2782.35 2213.05 2776.35 2213.05C2770.35 2213.05 2765.49 2217.54 2765.49 2223.08C2765.49 2228.62 2770.35 2233.11 2776.35 2233.11Z" fill="#F2F5F8"/>
<path d="M1852 1793.77C1858 1793.77 1862.86 1789.27 1862.86 1783.73C1862.86 1778.19 1858 1773.7 1852 1773.7C1846 1773.7 1841.14 1778.19 1841.14 1783.73C1841.14 1789.27 1846 1793.77 1852 1793.77Z" fill="#F2F5F8"/>
<path d="M384.627 2407.37C390.625 2407.37 395.488 2402.88 395.488 2397.34C395.488 2391.8 390.625 2387.31 384.627 2387.31C378.629 2387.31 373.767 2391.8 373.767 2397.34C373.767 2402.88 378.629 2407.37 384.627 2407.37Z" fill="#F2F5F8"/>
<path d="M635.022 2376.75C641.354 2376.75 646.486 2372.25 646.486 2366.71C646.486 2361.17 641.354 2356.68 635.022 2356.68C628.691 2356.68 623.558 2361.17 623.558 2366.71C623.558 2372.25 628.691 2376.75 635.022 2376.75Z" fill="#F2F5F8"/>
<path d="M221.719 2417.93C227.717 2417.93 232.579 2413.21 232.579 2407.37C232.579 2401.54 227.717 2396.81 221.719 2396.81C215.721 2396.81 210.858 2401.54 210.858 2407.37C210.858 2413.21 215.721 2417.93 221.719 2417.93Z" fill="#F2F5F8"/>
<path d="M2450.53 2059.91C2456.53 2059.91 2461.39 2055.42 2461.39 2049.87C2461.39 2044.33 2456.53 2039.84 2450.53 2039.84C2444.54 2039.84 2439.67 2044.33 2439.67 2049.87C2439.67 2055.42 2444.54 2059.91 2450.53 2059.91Z" fill="#F2F5F8"/>
<path d="M14.1637 1650.13C20.1618 1650.13 25.0242 1645.64 25.0242 1640.1C25.0242 1634.56 20.1618 1630.07 14.1637 1630.07C8.16564 1630.07 3.30322 1634.56 3.30322 1640.1C3.30322 1645.64 8.16564 1650.13 14.1637 1650.13Z" fill="#F2F5F8"/>
<path d="M2199.54 2346.12C2205.53 2346.12 2210.4 2341.63 2210.4 2336.08C2210.4 2330.54 2205.53 2326.05 2199.54 2326.05C2193.54 2326.05 2188.68 2330.54 2188.68 2336.08C2188.68 2341.63 2193.54 2346.12 2199.54 2346.12Z" fill="#F2F5F8"/>
<path d="M2526.56 1436.8C2532.56 1436.8 2537.42 1432.07 2537.42 1426.24C2537.42 1420.4 2532.56 1415.67 2526.56 1415.67C2520.56 1415.67 2515.7 1420.4 2515.7 1426.24C2515.7 1432.07 2520.56 1436.8 2526.56 1436.8Z" fill="#F2F5F8"/>
<path d="M90.1857 1027.02C96.1838 1027.02 101.046 1022.29 101.046 1016.46C101.046 1010.63 96.1838 1005.9 90.1857 1005.9C84.1876 1005.9 79.3252 1010.63 79.3252 1016.46C79.3252 1022.29 84.1876 1027.02 90.1857 1027.02Z" fill="#F2F5F8"/>
<path d="M2559.14 1262.54C2565.14 1262.54 2570 1258.04 2570 1252.5C2570 1246.96 2565.14 1242.47 2559.14 1242.47C2553.14 1242.47 2548.28 1246.96 2548.28 1252.5C2548.28 1258.04 2553.14 1262.54 2559.14 1262.54Z" fill="#F2F5F8"/>
<path d="M122.769 852.761C128.767 852.761 133.629 848.269 133.629 842.728C133.629 837.186 128.767 832.694 122.769 832.694C116.771 832.694 111.908 837.186 111.908 842.728C111.908 848.269 116.771 852.761 122.769 852.761Z" fill="#F2F5F8"/>
<path d="M2808.93 1231.91C2814.93 1231.91 2819.79 1227.42 2819.79 1221.87C2819.79 1216.33 2814.93 1211.84 2808.93 1211.84C2802.93 1211.84 2798.07 1216.33 2798.07 1221.87C2798.07 1227.42 2802.93 1231.91 2808.93 1231.91Z" fill="#F2F5F8"/>
<path d="M373.767 822.133C379.765 822.133 384.628 817.641 384.628 812.1C384.628 806.559 379.765 802.067 373.767 802.067C367.769 802.067 362.906 806.559 362.906 812.1C362.906 817.641 367.769 822.133 373.767 822.133Z" fill="#F2F5F8"/>
<path d="M2396.23 1273.1C2402.23 1273.1 2407.09 1268.37 2407.09 1262.54C2407.09 1256.7 2402.23 1251.98 2396.23 1251.98C2390.23 1251.98 2385.37 1256.7 2385.37 1262.54C2385.37 1268.37 2390.23 1273.1 2396.23 1273.1Z" fill="#F2F5F8"/>
<path d="M2787.21 2151.79C2793.21 2151.79 2798.07 2147.3 2798.07 2141.76C2798.07 2136.22 2793.21 2131.72 2787.21 2131.72C2781.21 2131.72 2776.35 2136.22 2776.35 2141.76C2776.35 2147.3 2781.21 2151.79 2787.21 2151.79Z" fill="#F2F5F8"/>
<path d="M352.045 1742.02C358.043 1742.02 362.906 1737.52 362.906 1731.98C362.906 1726.44 358.043 1721.95 352.045 1721.95C346.047 1721.95 341.185 1726.44 341.185 1731.98C341.185 1737.52 346.047 1742.02 352.045 1742.02Z" fill="#F2F5F8"/>
<path d="M2537.42 2438C2543.42 2438 2548.28 2433.51 2548.28 2427.97C2548.28 2422.43 2543.42 2417.93 2537.42 2417.93C2531.42 2417.93 2526.56 2422.43 2526.56 2427.97C2526.56 2433.51 2531.42 2438 2537.42 2438Z" fill="#F2F5F8"/>
</g>
<g filter="url(#filter2_d_203:269)">
<path d="M3423.64 2774.11C3428.14 2778.08 3434.92 2777.75 3438.78 2773.37C3442.63 2769 3442.11 2762.24 3437.62 2758.27C3433.12 2754.3 3426.34 2754.63 3422.48 2759.01C3418.63 2763.38 3419.15 2770.14 3423.64 2774.11Z" fill="#F2F5F8"/>
<path d="M4271.54 3675.39C4276.04 3679.35 4282.82 3679.02 4286.67 3674.65C4290.53 3670.27 4290.01 3663.51 4285.51 3659.54C4281.02 3655.58 4274.24 3655.91 4270.38 3660.28C4266.53 3664.66 4267.04 3671.42 4271.54 3675.39Z" fill="#F2F5F8"/>
<path d="M4637.05 3169.73C4641.55 3173.7 4648.16 3173.55 4651.83 3169.39C4655.49 3165.23 4654.82 3158.65 4650.32 3154.68C4645.82 3150.71 4639.2 3150.87 4635.54 3155.02C4631.87 3159.18 4632.55 3165.76 4637.05 3169.73Z" fill="#F2F5F8"/>
<path d="M2923.91 2714.99C2928.4 2718.96 2935.18 2718.63 2939.04 2714.25C2942.89 2709.88 2942.38 2703.12 2937.88 2699.15C2933.38 2695.18 2926.6 2695.51 2922.75 2699.89C2918.89 2704.26 2919.41 2711.02 2923.91 2714.99Z" fill="#F2F5F8"/>
<path d="M3772.71 3617.07C3777.21 3621.03 3783.98 3620.7 3787.84 3616.33C3791.7 3611.95 3791.18 3605.19 3786.68 3601.22C3782.18 3597.26 3775.41 3597.59 3771.55 3601.96C3767.69 3606.34 3768.21 3613.1 3772.71 3617.07Z" fill="#F2F5F8"/>
<path d="M4138.21 3111.41C4142.71 3115.38 4149.33 3115.22 4153 3111.07C4156.66 3106.91 4155.98 3100.33 4151.49 3096.36C4146.99 3092.39 4140.37 3092.54 4136.7 3096.7C4133.04 3100.86 4133.71 3107.44 4138.21 3111.41Z" fill="#F2F5F8"/>
<path d="M4090.19 3266.2C4094.69 3270.17 4101.31 3270.02 4104.97 3265.86C4108.64 3261.7 4107.96 3255.12 4103.47 3251.15C4098.97 3247.18 4092.35 3247.34 4088.68 3251.49C4085.02 3255.65 4085.69 3262.23 4090.19 3266.2Z" fill="#F2F5F8"/>
<path d="M3680.93 2564.48C3685.42 2568.45 3692.04 2568.3 3695.71 2564.14C3699.37 2559.98 3698.7 2553.4 3694.2 2549.43C3689.7 2545.46 3683.08 2545.62 3679.42 2549.77C3675.75 2553.93 3676.43 2560.51 3680.93 2564.48Z" fill="#F2F5F8"/>
<path d="M4528.82 3465.76C4533.32 3469.72 4540.1 3469.39 4543.95 3465.02C4547.81 3460.65 4547.29 3453.88 4542.8 3449.92C4538.3 3445.95 4531.52 3446.28 4527.66 3450.65C4523.81 3455.03 4524.33 3461.79 4528.82 3465.76Z" fill="#F2F5F8"/>
<path d="M3181.19 2505.36C3185.69 2509.33 3192.3 2509.18 3195.97 2505.02C3199.63 2500.86 3198.96 2494.28 3194.46 2490.31C3189.96 2486.34 3183.34 2486.5 3179.68 2490.65C3176.01 2494.81 3176.69 2501.39 3181.19 2505.36Z" fill="#F2F5F8"/>
<path d="M4029.99 3407.44C4034.49 3411.4 4041.26 3411.07 4045.12 3406.7C4048.98 3402.32 4048.46 3395.56 4043.96 3391.59C4039.46 3387.63 4032.69 3387.96 4028.83 3392.33C4024.97 3396.71 4025.49 3403.47 4029.99 3407.44Z" fill="#F2F5F8"/>
<path d="M4395.49 2901.78C4399.99 2905.75 4406.61 2905.59 4410.28 2901.44C4413.94 2897.28 4413.27 2890.7 4408.77 2886.73C4404.27 2882.76 4397.65 2882.92 4393.99 2887.07C4390.32 2891.23 4391 2897.81 4395.49 2901.78Z" fill="#F2F5F8"/>
<path d="M4347.47 3056.57C4351.97 3060.54 4358.59 3060.39 4362.26 3056.23C4365.92 3052.08 4365.25 3045.49 4360.75 3041.52C4356.25 3037.56 4349.63 3037.71 4345.97 3041.86C4342.3 3046.02 4342.98 3052.61 4347.47 3056.57Z" fill="#F2F5F8"/>
<path d="M4058.24 3483.04C4062.74 3487.01 4069.36 3486.86 4073.02 3482.7C4076.69 3478.55 4076.01 3471.96 4071.51 3467.99C4067.01 3464.03 4060.4 3464.18 4056.73 3468.34C4053.07 3472.49 4053.74 3479.08 4058.24 3483.04Z" fill="#F2F5F8"/>
<path d="M3108.69 2045.73C3113.19 2049.69 3119.8 2049.54 3123.47 2045.39C3127.13 2041.23 3126.46 2034.64 3121.96 2030.68C3117.46 2026.71 3110.84 2026.86 3107.18 2031.02C3103.51 2035.17 3104.19 2041.76 3108.69 2045.73Z" fill="#F2F5F8"/>
<path d="M3957.49 2947.8C3961.99 2951.77 3968.61 2951.62 3972.27 2947.46C3975.94 2943.3 3975.26 2936.72 3970.76 2932.75C3966.27 2928.78 3959.65 2928.94 3955.98 2933.09C3952.32 2937.25 3952.99 2943.83 3957.49 2947.8Z" fill="#F2F5F8"/>
<path d="M3775.44 2539.41C3779.94 2543.38 3786.72 2543.05 3790.57 2538.67C3794.43 2534.3 3793.91 2527.53 3789.41 2523.57C3784.91 2519.6 3778.14 2519.93 3774.28 2524.3C3770.42 2528.68 3770.94 2535.44 3775.44 2539.41Z" fill="#F2F5F8"/>
<path d="M3486.21 2965.88C3490.71 2969.85 3497.48 2969.52 3501.34 2965.14C3505.2 2960.77 3504.68 2954.01 3500.18 2950.04C3495.68 2946.07 3488.91 2946.4 3485.05 2950.78C3481.19 2955.15 3481.71 2961.91 3486.21 2965.88Z" fill="#F2F5F8"/>
<path d="M1901.09 3447.83C1905.59 3451.8 1912.21 3451.65 1915.88 3447.49C1919.54 3443.33 1918.86 3436.75 1914.37 3432.78C1909.87 3428.81 1903.25 3428.97 1899.58 3433.12C1895.92 3437.28 1896.59 3443.86 1901.09 3447.83Z" fill="#F2F5F8"/>
<path d="M3695.88 3204.3C3700.38 3208.27 3706.99 3208.12 3710.66 3203.96C3714.32 3199.81 3713.65 3193.22 3709.15 3189.25C3704.65 3185.29 3698.03 3185.44 3694.37 3189.59C3690.7 3193.75 3691.38 3200.34 3695.88 3204.3Z" fill="#F2F5F8"/>
<path d="M3293.22 2263.39C3297.72 2267.36 3304.34 2267.21 3308 2263.05C3311.67 2258.89 3310.99 2252.31 3306.49 2248.34C3302 2244.37 3295.38 2244.53 3291.71 2248.68C3288.05 2252.84 3288.72 2259.42 3293.22 2263.39Z" fill="#F2F5F8"/>
<path d="M3952.46 2995.47C3956.96 2999.43 3963.73 2999.1 3967.59 2994.73C3971.45 2990.36 3970.93 2983.59 3966.43 2979.63C3961.93 2975.66 3955.16 2975.99 3951.3 2980.36C3947.44 2984.74 3947.96 2991.5 3952.46 2995.47Z" fill="#F2F5F8"/>
<path d="M3550.5 2053.76C3555 2057.73 3561.62 2057.58 3565.29 2053.42C3568.95 2049.26 3568.28 2042.68 3563.78 2038.71C3559.28 2034.75 3552.66 2034.9 3548.99 2039.05C3545.33 2043.21 3546.01 2049.79 3550.5 2053.76Z" fill="#F2F5F8"/>
<path d="M3381.13 2477.51C3385.63 2481.48 3392.24 2481.32 3395.91 2477.17C3399.57 2473.01 3398.9 2466.43 3394.4 2462.46C3389.9 2458.49 3383.28 2458.65 3379.62 2462.8C3375.95 2466.96 3376.63 2473.54 3381.13 2477.51Z" fill="#F2F5F8"/>
<path d="M1697.81 3678.33C1702.31 3682.3 1709.08 3681.97 1712.94 3677.59C1716.8 3673.22 1716.28 3666.45 1711.78 3662.49C1707.28 3658.52 1700.51 3658.85 1696.65 3663.22C1692.79 3667.6 1693.31 3674.36 1697.81 3678.33Z" fill="#F2F5F8"/>
<path d="M2050 2965.19C2054.5 2969.16 2061.12 2969.01 2064.78 2964.85C2068.45 2960.7 2067.77 2954.11 2063.27 2950.15C2058.78 2946.18 2052.16 2946.33 2048.49 2950.49C2044.83 2954.64 2045.5 2961.23 2050 2965.19Z" fill="#F2F5F8"/>
<path d="M2519.17 2548.15C2523.67 2552.12 2530.44 2551.79 2534.3 2547.41C2538.16 2543.04 2537.64 2536.27 2533.14 2532.31C2528.64 2528.34 2521.87 2528.67 2518.01 2533.04C2514.15 2537.42 2514.67 2544.18 2519.17 2548.15Z" fill="#F2F5F8"/>
<path d="M2658.87 2439C2663.37 2442.97 2669.99 2442.82 2673.65 2438.66C2677.32 2434.51 2676.64 2427.92 2672.14 2423.96C2667.64 2419.99 2661.03 2420.14 2657.36 2424.3C2653.7 2428.45 2654.37 2435.04 2658.87 2439Z" fill="#F2F5F8"/>
<path d="M2867.38 2582.06C2871.88 2586.02 2878.49 2585.87 2882.16 2581.71C2885.82 2577.56 2885.15 2570.97 2880.65 2567.01C2876.15 2563.04 2869.53 2563.19 2865.87 2567.35C2862.2 2571.5 2862.88 2578.09 2867.38 2582.06Z" fill="#F2F5F8"/>
<path d="M2529.71 2339.17C2534.2 2343.14 2540.98 2342.81 2544.84 2338.43C2548.69 2334.06 2548.18 2327.3 2543.68 2323.33C2539.18 2319.36 2532.4 2319.69 2528.55 2324.07C2524.69 2328.44 2525.21 2335.2 2529.71 2339.17Z" fill="#F2F5F8"/>
<path d="M2242.64 3257.6C2247.14 3261.56 2253.75 3261.41 2257.42 3257.25C2261.08 3253.1 2260.41 3246.51 2255.91 3242.55C2251.41 3238.58 2244.79 3238.73 2241.13 3242.89C2237.46 3247.04 2238.14 3253.63 2242.64 3257.6Z" fill="#F2F5F8"/>
</g>
<g filter="url(#filter3_d_203:269)">
<g filter="url(#filter4_d_203:269)">
<circle cx="505.118" cy="3060.21" r="2416.24" fill="#0C2E8A"/>
<g filter="url(#filter5_d_203:269)">
<path fill-rule="evenodd" clip-rule="evenodd" d="M503.954 537C-903.319 537 -2046 1665.66 -2046 3060.21C-2046 4454.76 -903.319 5583.42 503.954 5583.42C1911.23 5583.42 3053.91 4454.76 3053.91 3060.21C3053.91 1665.66 1911.23 537 503.954 537ZM-491.24 951.855C-485.392 945.842 -478.355 940.992 -470.705 937.554C-173.727 804.062 156.264 729.689 503.954 729.689C759.985 729.689 1006.42 770.018 1237.14 844.585C1247.56 847.953 1257.29 853.557 1264.2 862.048C1294.68 899.445 1279.65 924.777 1260.81 956.547C1250.97 973.135 1240.09 991.479 1234.1 1014.21C1213.22 1093.05 1232.31 1246.15 1246.63 1326.31C1248.43 1336.4 1248.37 1346.79 1245.14 1356.51C1228.91 1405.26 1184.78 1479.43 1100.76 1476.31C1073.69 1475.37 1039.2 1471.72 1001.64 1467.75C880.331 1454.91 727.078 1438.7 688.85 1499.58C671.329 1527.49 667.711 1559.59 663.93 1593.13C656.908 1655.42 649.323 1722.71 551.05 1777.44C399.866 1861.63 302.217 1992.39 363.186 2049.34C414.148 2096.95 789.965 2109.27 935.983 2114.05L935.995 2114.05C964.66 2114.99 984.467 2115.64 991.219 2116.21C1032.36 2119.67 1304.49 2156.82 1365.96 2363.85C1427.42 2570.87 1132.98 2664.98 941.155 2586.23C906.35 2571.94 863.892 2551.88 815.943 2529.22C599.615 2427.02 271.507 2272 30.0859 2355.92C-264.846 2458.44 -528.055 2733.82 -402.151 3278.63C-349.647 3507.33 -138.844 3483.62 63.0222 3460.91C248.034 3440.09 425.538 3420.12 466.784 3596.1C483.027 3670.29 461.804 3793.89 440.773 3916.36C430.357 3977.02 419.988 4037.41 414.241 4091.38C387.97 4347.44 520.814 4823.9 612.515 4830.33C801.371 4843.21 1297.06 4685.22 1351.09 4407.37C1405.11 4129.51 1458.15 3866.03 1616.28 3717.44C1708.88 3629.86 1787.31 3528.44 1848.75 3416.81C1871.07 3371.12 1805.9 3356.02 1724.42 3337.14C1621.29 3313.24 1492.03 3283.28 1480.96 3177.59C1461.45 2991.43 1734.69 3015.29 1879.93 3051.5C1884.64 3052.67 1889.33 3053.41 1894.19 3053.55C1987.7 3056.22 2156.59 3026.33 2138.73 2887.85C2115.96 2714.07 2450.99 2832.48 2540.37 2971.75C2544.44 2978.09 2546.81 2985.18 2548.57 2992.52C2586.41 3149.62 2801.15 3394.95 2684.97 3926.95C2683.64 3931.53 2663.24 3983.52 2661.43 3987.94C2312.81 4841.39 1494.21 5417.14 503.954 5417.14C-243.24 5417.14 -908.693 5048.11 -1340.43 4511.72C-1352.99 4496.12 -1352.88 4473.82 -1338.31 4460.08C-1233.5 4361.25 -1004.85 4262.44 -1102.05 3980.94C-1143.4 3866.57 -1153.11 3743.19 -1130.17 3623.77C-1107.93 3508 -1055.78 3400.11 -979 3310.77C-974.199 3305.19 -968.502 3300.57 -962.245 3296.68C-811.514 3203.05 -615.344 2972.36 -971.685 2751.16C-1426.72 2467.86 -1547.17 2346.52 -1516.94 2057.77C-1492.15 1826.47 -1231.92 1790.32 -1105.02 1800.72C-795.222 1858.67 -517.639 1648.67 -547.38 1425.79C-553.569 1379.41 -563.173 1338.39 -572.043 1300.49C-601 1176.8 -622.147 1086.48 -491.24 951.855Z" fill="#EAEEF2"/>
</g>
</g>
</g>
<path d="M4077.62 1094.04C4052.48 1090.14 4026.93 1089.61 4001.64 1092.45C3988.2 1093.9 3982.08 1090.75 3977.55 1081.27C3951.99 1024.26 3915.31 972.955 3869.64 930.358C3810.73 877.665 3735.3 846.24 3637.28 835.311C3631.64 835.149 3626.11 836.889 3621.58 840.251C3617.06 843.614 3613.79 848.403 3612.31 853.848C3598.72 894.05 3590.56 935.887 3588.06 978.246C3584.16 1046.02 3599.42 1113.51 3632.1 1172.97C3652.28 1209.75 3676.18 1244.36 3703.42 1276.26C3704.18 1277.33 3704.66 1278.56 3704.82 1279.86C3704.98 1281.16 3704.81 1282.48 3704.33 1283.7C3694.56 1305.43 3683.33 1327.17 3674.42 1349.04C3669.05 1360.14 3666.49 1372.4 3666.96 1384.73C3667.42 1397.06 3670.91 1409.08 3677.1 1419.74C3686.45 1435.22 3698.4 1448.96 3712.43 1460.35C3749.02 1489.01 3789.41 1512.43 3832.45 1529.94C3836.04 1531.62 3840.03 1532.26 3843.96 1531.79C3849.91 1531.42 3855.5 1528.85 3859.65 1524.58C3863.81 1520.31 3866.22 1514.64 3866.42 1508.69C3867.82 1477.04 3869.06 1445.32 3870.13 1413.55C3870.19 1411.54 3870.81 1409.59 3871.91 1407.9C3873 1406.21 3874.54 1404.86 3876.36 1404L3936.28 1365.48L3976.8 1424.73C3978.2 1427.35 3980.12 1429.65 3982.45 1431.49C3984.79 1433.33 3987.47 1434.67 3990.35 1435.42C3993.22 1436.17 3996.22 1436.31 3999.15 1435.85C4002.09 1435.38 4004.89 1434.31 4007.39 1432.7C4009.89 1431.1 4012.04 1428.99 4013.68 1426.52C4015.33 1424.04 4016.45 1421.25 4016.97 1418.33C4017.49 1415.4 4017.4 1412.4 4016.7 1409.51C4016.01 1406.62 4014.72 1403.91 4012.93 1401.54L3973.67 1341.84L4035.58 1301.86C4037.09 1300.57 4038.94 1299.73 4040.91 1299.45C4042.88 1299.17 4044.89 1299.46 4046.7 1300.29C4073.56 1311.39 4100.47 1322.33 4127.5 1332.95C4131.73 1334.79 4136.37 1335.48 4140.95 1334.96C4146.96 1334.49 4152.55 1331.71 4156.57 1327.21C4160.59 1322.72 4162.72 1316.84 4162.52 1310.81C4161.66 1282.83 4161.06 1255.66 4158.65 1227.47C4156.91 1195.88 4148.79 1164.97 4134.78 1136.62C4129.54 1125.33 4121.57 1115.53 4111.59 1108.09C4101.61 1100.66 4089.94 1095.83 4077.62 1094.04ZM3833.1 1414.38C3832.41 1437.62 3831.29 1461.06 3830.28 1486.18C3789.08 1465.09 3749.71 1443.95 3722.42 1411.2C3716.74 1405.65 3712.37 1398.9 3709.62 1391.43C3706.88 1383.97 3705.83 1376 3706.55 1368.08C3711.16 1346.41 3719.31 1325.64 3730.68 1306.63L3752.03 1328.28L3831.29 1407.89C3832.17 1408.78 3832.85 1409.84 3833.3 1411.01C3833.75 1412.18 3833.95 1413.43 3833.9 1414.68L3833.1 1414.38ZM3984.03 1200.71L4016.21 1275.29L4017.1 1277.81L3957.84 1316.02L3876.6 1190.16C3875.09 1187.75 3873.12 1185.66 3870.8 1184.03C3868.47 1182.39 3865.85 1181.23 3863.07 1180.62C3860.3 1180.01 3857.43 1179.97 3854.63 1180.48C3851.84 1181 3849.17 1182.06 3846.8 1183.62C3842 1186.73 3838.62 1191.61 3837.4 1197.19C3836.17 1202.78 3837.2 1208.62 3840.25 1213.45L3921.49 1339.31L3860.29 1378.82C3844.82 1362.96 3829.43 1347.86 3814.82 1332.14C3782.51 1297.19 3749.14 1263.13 3719.04 1226.63C3675.18 1175.98 3645.19 1114.83 3631.96 1049.11C3622.42 995.155 3624.94 939.745 3639.33 886.858L3643.13 871.499L3643.95 869.251C3653.2 870.815 3662.72 872.116 3671.86 874.001C3718.37 883.256 3762.68 901.325 3802.41 927.237C3840.03 953.08 3872.34 985.918 3897.58 1023.97C3933.09 1079.8 3962.61 1139.24 3985.64 1201.3L3984.03 1200.71ZM4097.58 1157.78C4110.39 1184.43 4117.98 1213.28 4119.94 1242.79C4121.55 1257.77 4122.23 1273.31 4123.4 1290.49C4099.69 1280.72 4077.85 1271.82 4056.18 1262.98C4054.64 1262.16 4053.45 1260.82 4052.83 1259.2L4002.02 1129.19C4001.51 1127.67 4001.11 1126.12 4000.81 1124.55C4023.76 1122.42 4046.91 1124.19 4069.28 1129.77C4076.01 1132.13 4082.16 1135.91 4087.31 1140.84C4092.47 1145.77 4096.52 1151.75 4099.18 1158.37L4097.58 1157.78Z" fill="#F2F5F8" stroke="#F2F5F8" stroke-width="5"/>
<path d="M3723.09 1007.81C3710.62 1015.94 3701.6 1028.4 3697.75 1042.78C3693.85 1057.5 3695.89 1073.16 3703.44 1086.37C3707.4 1093.37 3712.75 1099.49 3719.16 1104.35C3725.57 1109.2 3732.91 1112.7 3740.72 1114.62C3748.53 1116.54 3756.65 1116.85 3764.58 1115.52C3772.51 1114.19 3780.1 1111.25 3786.86 1106.88C3799.47 1098.58 3808.49 1085.82 3812.12 1071.16C3815.55 1056.28 3813.07 1040.64 3805.2 1027.57C3797.32 1014.49 3784.67 1005 3769.92 1001.1C3762.07 998.949 3753.87 998.436 3745.81 999.591C3737.76 1000.75 3730.02 1003.54 3723.09 1007.81ZM3729.45 1050.56C3731.17 1044.24 3735.11 1038.76 3740.55 1035.14C3743.62 1033.2 3747.05 1031.9 3750.64 1031.34C3754.22 1030.77 3757.88 1030.94 3761.4 1031.84C3766.29 1033.18 3770.7 1035.91 3774.09 1039.69C3777.49 1043.46 3779.72 1048.14 3780.53 1053.16C3781.34 1058.18 3780.69 1063.32 3778.66 1067.98C3776.63 1072.64 3773.3 1076.62 3769.08 1079.44C3766.07 1081.33 3762.7 1082.59 3759.19 1083.12C3755.68 1083.65 3752.1 1083.45 3748.67 1082.53C3741.94 1080.74 3736.18 1076.41 3732.6 1070.44C3729.01 1064.47 3727.88 1057.34 3729.45 1050.56Z" fill="#F2F5F8" stroke="#F2F5F8" stroke-width="5"/>
<path d="M3763.55 1032.93C3777.49 1038.03 3784.65 1053.47 3779.54 1067.43C3774.43 1081.39 3758.99 1088.56 3745.06 1083.46C3731.12 1078.36 3723.96 1062.92 3729.06 1048.96C3734.17 1035 3749.61 1027.83 3763.55 1032.93Z" fill="#50D8AF" stroke="#F2F5F8" stroke-width="5"/>
<mask id="path-157-inside-1_203:269" fill="white">
<path d="M459.735 3008.85L459.691 3007.62V2845.45L459.59 2845.01C457.484 2836.02 455.568 2830.01 453.561 2825.24C451.561 2820.48 449.508 2817.06 447.28 2813.34L447.244 2813.28C444.951 2809.46 442.398 2805.2 439.248 2798.51C434.77 2789.01 432.665 2783.94 431.636 2780.28C430.663 2776.82 430.641 2774.6 430.621 2770.43L430.621 2770.42C430.61 2767.93 430.595 2764.84 430.34 2760.62C429.209 2682.18 437.747 2630.24 449.422 2598.46C455.261 2582.57 461.824 2571.88 468.214 2565.41C474.592 2558.94 480.641 2556.81 485.682 2557.48C486.157 2557.55 486.675 2557.57 487.073 2557.58L487.134 2557.58C489.051 2557.64 490.594 2557.77 491.931 2559.41C493.403 2561.21 495.176 2565.56 495.176 2576.1C495.176 2577.54 495.062 2579.66 494.828 2582.45L494.814 2582.61V3007.62L494.77 3008.85C494.431 3018.35 492.144 3026.68 488.807 3032.53C485.445 3038.43 481.31 3041.38 477.253 3041.38C473.195 3041.38 469.06 3038.43 465.699 3032.53C462.362 3026.68 460.075 3018.35 459.735 3008.85Z"/>
<path d="M292.014 2563.63C292.014 2559.32 295.084 2555.83 298.87 2555.83C302.657 2555.83 305.727 2559.32 305.727 2563.63V2652.06C305.727 2660.21 311.543 2666.82 318.717 2666.82C325.892 2666.82 331.708 2660.21 331.708 2652.06V2565.81C331.708 2560.3 335.639 2555.83 340.489 2555.83H342.173C347.022 2555.83 350.954 2560.3 350.954 2565.81V2652.06C350.954 2660.21 356.77 2666.82 363.945 2666.82C371.119 2666.82 376.935 2660.21 376.935 2652.06V2563.76C376.935 2559.38 380.059 2555.83 383.912 2555.83C387.765 2555.83 390.888 2559.38 390.888 2563.76V2664.23C390.742 2664.68 390.677 2665.18 390.713 2665.7C390.829 2667.38 390.888 2669.07 390.888 2670.79C390.888 2682.81 387.982 2699.89 382.864 2716.94C377.745 2734 370.533 2750.63 362.147 2761.93C359.765 2765.14 358.171 2769.25 358.171 2773.72V3012.5C358.166 3012.57 358.162 3012.64 358.161 3012.71C357.996 3021.22 355.779 3028.73 352.45 3034.03C349.114 3039.33 344.853 3042.17 340.489 3042.17C336.125 3042.17 331.864 3039.33 328.528 3034.03C325.198 3028.73 322.982 3021.22 322.817 3012.71C322.815 3012.64 322.812 3012.57 322.807 3012.5V2771.02C322.807 2766.84 321.414 2762.95 319.262 2759.84C311.256 2748.27 304.42 2731.95 299.584 2715.41C294.747 2698.86 292.014 2682.45 292.014 2670.79C292.014 2669.07 292.073 2667.38 292.189 2665.7C292.225 2665.18 292.16 2664.68 292.014 2664.23V2563.63Z"/>
</mask>
<g filter="url(#filter6_i_203:269)">
<path d="M459.735 3008.85L459.691 3007.62V2845.45L459.59 2845.01C457.484 2836.02 455.568 2830.01 453.561 2825.24C451.561 2820.48 449.508 2817.06 447.28 2813.34L447.244 2813.28C444.951 2809.46 442.398 2805.2 439.248 2798.51C434.77 2789.01 432.665 2783.94 431.636 2780.28C430.663 2776.82 430.641 2774.6 430.621 2770.43L430.621 2770.42C430.61 2767.93 430.595 2764.84 430.34 2760.62C429.209 2682.18 437.747 2630.24 449.422 2598.46C455.261 2582.57 461.824 2571.88 468.214 2565.41C474.592 2558.94 480.641 2556.81 485.682 2557.48C486.157 2557.55 486.675 2557.57 487.073 2557.58L487.134 2557.58C489.051 2557.64 490.594 2557.77 491.931 2559.41C493.403 2561.21 495.176 2565.56 495.176 2576.1C495.176 2577.54 495.062 2579.66 494.828 2582.45L494.814 2582.61V3007.62L494.77 3008.85C494.431 3018.35 492.144 3026.68 488.807 3032.53C485.445 3038.43 481.31 3041.38 477.253 3041.38C473.195 3041.38 469.06 3038.43 465.699 3032.53C462.362 3026.68 460.075 3018.35 459.735 3008.85Z" fill="#0AD598"/>
<path d="M292.014 2563.63C292.014 2559.32 295.084 2555.83 298.87 2555.83C302.657 2555.83 305.727 2559.32 305.727 2563.63V2652.06C305.727 2660.21 311.543 2666.82 318.717 2666.82C325.892 2666.82 331.708 2660.21 331.708 2652.06V2565.81C331.708 2560.3 335.639 2555.83 340.489 2555.83H342.173C347.022 2555.83 350.954 2560.3 350.954 2565.81V2652.06C350.954 2660.21 356.77 2666.82 363.945 2666.82C371.119 2666.82 376.935 2660.21 376.935 2652.06V2563.76C376.935 2559.38 380.059 2555.83 383.912 2555.83C387.765 2555.83 390.888 2559.38 390.888 2563.76V2664.23C390.742 2664.68 390.677 2665.18 390.713 2665.7C390.829 2667.38 390.888 2669.07 390.888 2670.79C390.888 2682.81 387.982 2699.89 382.864 2716.94C377.745 2734 370.533 2750.63 362.147 2761.93C359.765 2765.14 358.171 2769.25 358.171 2773.72V3012.5C358.166 3012.57 358.162 3012.64 358.161 3012.71C357.996 3021.22 355.779 3028.73 352.45 3034.03C349.114 3039.33 344.853 3042.17 340.489 3042.17C336.125 3042.17 331.864 3039.33 328.528 3034.03C325.198 3028.73 322.982 3021.22 322.817 3012.71C322.815 3012.64 322.812 3012.57 322.807 3012.5V2771.02C322.807 2766.84 321.414 2762.95 319.262 2759.84C311.256 2748.27 304.42 2731.95 299.584 2715.41C294.747 2698.86 292.014 2682.45 292.014 2670.79C292.014 2669.07 292.073 2667.38 292.189 2665.7C292.225 2665.18 292.16 2664.68 292.014 2664.23V2563.63Z" fill="#0AD598"/>
</g>
<path d="M459.735 3008.85L459.691 3007.62V2845.45L459.59 2845.01C457.484 2836.02 455.568 2830.01 453.561 2825.24C451.561 2820.48 449.508 2817.06 447.28 2813.34L447.244 2813.28C444.951 2809.46 442.398 2805.2 439.248 2798.51C434.77 2789.01 432.665 2783.94 431.636 2780.28C430.663 2776.82 430.641 2774.6 430.621 2770.43L430.621 2770.42C430.61 2767.93 430.595 2764.84 430.34 2760.62C429.209 2682.18 437.747 2630.24 449.422 2598.46C455.261 2582.57 461.824 2571.88 468.214 2565.41C474.592 2558.94 480.641 2556.81 485.682 2557.48C486.157 2557.55 486.675 2557.57 487.073 2557.58L487.134 2557.58C489.051 2557.64 490.594 2557.77 491.931 2559.41C493.403 2561.21 495.176 2565.56 495.176 2576.1C495.176 2577.54 495.062 2579.66 494.828 2582.45L494.814 2582.61V3007.62L494.77 3008.85C494.431 3018.35 492.144 3026.68 488.807 3032.53C485.445 3038.43 481.31 3041.38 477.253 3041.38C473.195 3041.38 469.06 3038.43 465.699 3032.53C462.362 3026.68 460.075 3018.35 459.735 3008.85Z" stroke="#0AD598" stroke-width="6" mask="url(#path-157-inside-1_203:269)"/>
<path d="M292.014 2563.63C292.014 2559.32 295.084 2555.83 298.87 2555.83C302.657 2555.83 305.727 2559.32 305.727 2563.63V2652.06C305.727 2660.21 311.543 2666.82 318.717 2666.82C325.892 2666.82 331.708 2660.21 331.708 2652.06V2565.81C331.708 2560.3 335.639 2555.83 340.489 2555.83H342.173C347.022 2555.83 350.954 2560.3 350.954 2565.81V2652.06C350.954 2660.21 356.77 2666.82 363.945 2666.82C371.119 2666.82 376.935 2660.21 376.935 2652.06V2563.76C376.935 2559.38 380.059 2555.83 383.912 2555.83C387.765 2555.83 390.888 2559.38 390.888 2563.76V2664.23C390.742 2664.68 390.677 2665.18 390.713 2665.7C390.829 2667.38 390.888 2669.07 390.888 2670.79C390.888 2682.81 387.982 2699.89 382.864 2716.94C377.745 2734 370.533 2750.63 362.147 2761.93C359.765 2765.14 358.171 2769.25 358.171 2773.72V3012.5C358.166 3012.57 358.162 3012.64 358.161 3012.71C357.996 3021.22 355.779 3028.73 352.45 3034.03C349.114 3039.33 344.853 3042.17 340.489 3042.17C336.125 3042.17 331.864 3039.33 328.528 3034.03C325.198 3028.73 322.982 3021.22 322.817 3012.71C322.815 3012.64 322.812 3012.57 322.807 3012.5V2771.02C322.807 2766.84 321.414 2762.95 319.262 2759.84C311.256 2748.27 304.42 2731.95 299.584 2715.41C294.747 2698.86 292.014 2682.45 292.014 2670.79C292.014 2669.07 292.073 2667.38 292.189 2665.7C292.225 2665.18 292.16 2664.68 292.014 2664.23V2563.63Z" stroke="#0AD598" stroke-width="6" mask="url(#path-157-inside-1_203:269)"/>
<g filter="url(#filter7_i_203:269)">
<path d="M2121.84 3311.29C2121.5 3312.59 2120 3313.19 2118.88 3312.44C2096.6 3297.49 2061.87 3259.17 2100.18 3247.15C2139.87 3234.7 2129.84 3280.45 2121.84 3311.29Z" fill="#0AD598"/>
<path d="M2179.07 3391.72C2178.17 3392.73 2176.56 3392.57 2175.91 3391.39C2162.99 3367.89 2149.74 3317.92 2189.29 3324.81C2230.27 3331.95 2200.34 3368 2179.07 3391.72Z" fill="#0AD598"/>
<path d="M2101.94 3401.7C2101.9 3403.05 2100.56 3403.96 2099.31 3403.47C2074.29 3393.76 2032.01 3363.97 2066.75 3343.86C2102.75 3323.03 2102.99 3369.87 2101.94 3401.7Z" fill="#0AD598"/>
<path d="M2472.72 3392.67C2471.62 3393.44 2470.09 3392.92 2469.73 3391.62C2462.52 3365.79 2461.06 3314.12 2497.98 3329.86C2536.25 3346.18 2498.86 3374.43 2472.72 3392.67Z" fill="#0AD598"/>
<path d="M2486.76 3481.38C2485.41 3481.51 2484.34 3480.3 2484.67 3478.99C2491.19 3452.98 2515.5 3407.35 2539.8 3439.27C2564.98 3472.35 2518.5 3478.44 2486.76 3481.38Z" fill="#0AD598"/>
<path d="M2060.33 3513.01C2094.76 3551.79 2153.6 3621.17 2267.99 3582.79C2270.87 3579.06 2270.44 3568.19 2263.51 3546.74C2254.86 3519.91 2218.85 3498.41 2190.76 3494.06C2150.59 3487.85 2086.8 3490.95 2048.46 3494.06C2050.28 3499.93 2054.34 3506.27 2060.33 3513.01Z" fill="#0AD598"/>
<path fill-rule="evenodd" clip-rule="evenodd" d="M2285.3 3452.18H2071.01C2070.7 3452.18 2070.4 3452.25 2070.13 3452.39C2058.5 3458.29 2041.98 3473.19 2048.46 3494.06C2086.8 3490.95 2150.59 3487.85 2190.76 3494.06C2218.85 3498.41 2254.86 3519.91 2263.51 3546.74C2278.85 3536.76 2316.8 3520.73 2345.9 3536.43C2346.73 3536.88 2347.55 3537.33 2348.34 3537.77C2385.13 3502.93 2417.99 3441.45 2413.15 3329.86C2413.12 3329.29 2413.32 3328.75 2413.72 3328.34C2428.88 3313.18 2457.05 3275.74 2455.55 3240.27C2455.5 3239.07 2454.33 3238.23 2453.15 3238.49C2409.84 3247.98 2401.87 3260.19 2395.41 3273.75C2394.5 3275.68 2390.66 3275.1 2389.8 3273.16C2382.07 3255.68 2351.53 3241.14 2332.66 3238.27C2331.55 3238.1 2330.54 3238.93 2330.48 3240.05C2328.15 3279.4 2356.46 3314.91 2371.68 3328.46C2372.06 3328.79 2372.29 3329.25 2372.34 3329.75C2382.24 3423.03 2318.5 3450.24 2285.3 3452.18ZM2244.45 3497.95C2252.29 3497.95 2258.65 3491.6 2258.65 3483.76C2258.65 3475.93 2252.29 3469.58 2244.45 3469.58C2236.61 3469.58 2230.25 3475.93 2230.25 3483.76C2230.25 3491.6 2236.61 3497.95 2244.45 3497.95Z" fill="#0AD598"/>
<path d="M2263.51 3546.74C2270.44 3568.19 2270.87 3579.06 2267.99 3582.79C2325.47 3603.48 2364.92 3573.25 2378.57 3561.59C2378.71 3561.46 2378.84 3561.33 2378.89 3561.15C2379.46 3559.04 2374.1 3551.92 2348.34 3537.77C2347.55 3537.33 2346.73 3536.88 2345.9 3536.43C2316.8 3520.73 2278.85 3536.76 2263.51 3546.74Z" fill="#0AD598"/>
</g>
<path d="M2189.29 3324.81L2188.17 3331.21L2189.29 3324.81ZM2066.75 3343.86L2070.01 3349.49L2066.75 3343.86ZM2100.18 3247.15L2098.23 3240.95L2100.18 3247.15ZM2497.98 3329.86L2500.53 3323.88L2497.98 3329.86ZM2539.8 3439.27L2534.63 3443.21L2539.8 3439.27ZM2285.3 3452.18V3458.68C2285.43 3458.68 2285.55 3458.68 2285.68 3458.67L2285.3 3452.18ZM2060.33 3513.01L2065.19 3508.7H2065.19L2060.33 3513.01ZM2190.76 3494.06L2191.75 3487.64L2190.76 3494.06ZM2345.9 3536.43L2348.98 3530.71L2345.9 3536.43ZM2348.34 3537.77L2345.21 3543.46L2345.21 3543.46L2348.34 3537.77ZM2389.8 3273.16L2395.74 3270.53L2389.8 3273.16ZM2395.41 3273.75L2389.55 3270.96L2395.41 3273.75ZM2413.72 3328.34L2409.13 3323.75L2413.72 3328.34ZM2413.15 3329.86L2419.64 3329.58L2413.15 3329.86ZM2372.34 3329.75L2365.88 3330.44L2372.34 3329.75ZM2371.68 3328.46L2376 3323.6L2371.68 3328.46ZM2484.67 3478.99L2478.37 3477.41L2484.67 3478.99ZM2486.76 3481.38L2487.36 3487.85L2486.76 3481.38ZM2455.55 3240.27L2449.06 3240.55L2455.55 3240.27ZM2453.15 3238.49L2454.55 3244.84L2453.15 3238.49ZM2469.73 3391.62L2475.99 3389.88L2469.73 3391.62ZM2472.72 3392.67L2476.44 3398L2472.72 3392.67ZM2330.48 3240.05L2323.99 3239.67L2330.48 3240.05ZM2332.66 3238.27L2333.64 3231.84L2332.66 3238.27ZM2118.88 3312.44L2122.5 3307.04L2118.88 3312.44ZM2121.84 3311.29L2115.55 3309.65L2121.84 3311.29ZM2099.31 3403.47L2101.66 3397.41L2099.31 3403.47ZM2101.94 3401.7L2108.44 3401.92L2101.94 3401.7ZM2070.13 3452.39L2073.07 3458.18L2070.13 3452.39ZM2378.57 3561.59L2382.79 3566.53L2378.57 3561.59ZM2378.89 3561.15L2385.16 3562.86L2378.89 3561.15ZM2175.91 3391.39L2170.22 3394.52L2175.91 3391.39ZM2179.07 3391.72L2183.91 3396.06L2179.07 3391.72ZM2181.61 3388.26C2175.44 3377.04 2169.41 3359.78 2169.42 3346.71C2169.43 3340.15 2170.95 3335.92 2173.27 3333.62C2175.35 3331.56 2179.46 3329.7 2188.17 3331.21L2190.4 3318.41C2179.34 3316.48 2170.28 3318.28 2164.12 3324.39C2158.21 3330.25 2156.43 3338.68 2156.42 3346.7C2156.4 3362.76 2163.46 3382.24 2170.22 3394.52L2181.61 3388.26ZM2188.17 3331.21C2197.62 3332.86 2201.06 3335.86 2202.28 3338.08C2203.52 3340.34 2203.7 3343.95 2201.47 3349.69C2196.96 3361.25 2185.05 3375.31 2174.23 3387.39L2183.91 3396.06C2194.36 3384.41 2208.05 3368.58 2213.58 3354.41C2216.36 3347.27 2217.67 3339.06 2213.66 3331.8C2209.64 3324.51 2201.44 3320.33 2190.4 3318.41L2188.17 3331.21ZM2101.66 3397.41C2089.72 3392.78 2074 3383.42 2065.61 3373.39C2061.4 3368.36 2059.84 3364.14 2060.14 3360.89C2060.41 3357.98 2062.36 3353.92 2070.01 3349.49L2063.5 3338.24C2053.78 3343.86 2047.99 3351.06 2047.19 3359.7C2046.43 3367.99 2050.49 3375.59 2055.64 3381.74C2065.95 3394.06 2083.88 3404.45 2096.95 3409.53L2101.66 3397.41ZM2070.01 3349.49C2078.31 3344.69 2082.87 3344.78 2085.24 3345.7C2087.65 3346.63 2090.11 3349.29 2092.08 3355.12C2096.06 3366.88 2095.98 3385.29 2095.45 3401.49L2108.44 3401.92C2108.95 3386.28 2109.28 3365.36 2104.4 3350.95C2101.94 3343.69 2097.66 3336.56 2089.93 3333.57C2082.16 3330.57 2073.2 3332.63 2063.5 3338.24L2070.01 3349.49ZM2122.5 3307.04C2111.87 3299.9 2098.58 3287.33 2092.59 3275.71C2089.58 3269.89 2088.99 3265.43 2089.99 3262.32C2090.89 3259.54 2093.69 3256 2102.12 3253.35L2098.23 3240.95C2087.52 3244.31 2080.29 3250.06 2077.62 3258.32C2075.06 3266.24 2077.36 3274.55 2081.03 3281.67C2088.4 3295.95 2103.61 3310.02 2115.26 3317.83L2122.5 3307.04ZM2102.12 3253.35C2111.28 3250.48 2115.71 3251.57 2117.82 3252.99C2119.96 3254.42 2121.78 3257.55 2122.43 3263.67C2123.74 3276.01 2119.62 3293.96 2115.55 3309.65L2128.13 3312.92C2132.06 3297.77 2136.96 3277.43 2135.36 3262.3C2134.55 3254.69 2131.94 3246.79 2125.05 3242.18C2118.13 3237.55 2108.93 3237.6 2098.23 3240.95L2102.12 3253.35ZM2475.99 3389.88C2472.55 3377.55 2470.63 3359.37 2473.63 3346.65C2475.14 3340.27 2477.59 3336.49 2480.38 3334.78C2482.87 3333.25 2487.3 3332.38 2495.43 3335.84L2500.53 3323.88C2490.2 3319.48 2480.97 3319.16 2473.58 3323.7C2466.48 3328.06 2462.82 3335.86 2460.98 3343.66C2457.29 3359.3 2459.7 3379.87 2463.47 3393.37L2475.99 3389.88ZM2495.43 3335.84C2504.26 3339.6 2506.91 3343.31 2507.6 3345.75C2508.29 3348.23 2507.64 3351.79 2504.15 3356.86C2497.11 3367.09 2482.3 3378.06 2469 3387.34L2476.44 3398C2489.28 3389.04 2506.24 3376.76 2514.86 3364.23C2519.2 3357.92 2522.35 3350.22 2520.11 3342.24C2517.86 3334.22 2510.84 3328.28 2500.53 3323.88L2495.43 3335.84ZM2490.98 3480.57C2494.09 3468.16 2501.42 3451.4 2510.33 3441.83C2514.79 3437.03 2518.79 3434.96 2522.07 3434.85C2524.99 3434.75 2529.28 3436.18 2534.63 3443.21L2544.97 3435.33C2538.17 3426.4 2530.3 3421.56 2521.63 3421.85C2513.31 3422.13 2506.27 3427.11 2500.81 3432.98C2489.86 3444.74 2481.78 3463.81 2478.37 3477.41L2490.98 3480.57ZM2534.63 3443.21C2540.43 3450.84 2540.9 3455.37 2540.29 3457.82C2539.67 3460.32 2537.34 3463.1 2531.79 3465.78C2520.61 3471.2 2502.31 3473.41 2486.16 3474.91L2487.36 3487.85C2502.95 3486.41 2523.76 3484.12 2537.46 3477.48C2544.36 3474.14 2550.9 3469.01 2552.91 3460.97C2554.92 3452.89 2551.76 3444.25 2544.97 3435.33L2534.63 3443.21ZM2285.3 3445.68H2071.01V3458.68H2285.3V3445.68ZM2055.47 3517.33C2072.56 3536.58 2096.63 3564.56 2131.17 3582.6C2166.06 3600.82 2211.2 3608.7 2270.05 3588.95L2265.92 3576.63C2210.39 3595.26 2168.92 3587.64 2137.18 3571.07C2105.1 3554.32 2082.52 3528.22 2065.19 3508.7L2055.47 3517.33ZM2285.68 3458.67C2303.55 3457.63 2329.39 3449.86 2349.56 3429.83C2369.99 3409.56 2383.93 3377.39 2378.8 3329.07L2365.88 3330.44C2370.65 3375.38 2357.67 3403.47 2340.41 3420.6C2322.89 3437.99 2300.25 3444.8 2284.92 3445.69L2285.68 3458.67ZM2376 3323.6C2368.89 3317.27 2358.48 3305.57 2350.17 3290.75C2341.85 3275.92 2335.9 3258.46 2336.97 3240.43L2323.99 3239.67C2322.73 3260.99 2329.77 3280.95 2338.83 3297.11C2347.89 3313.27 2359.25 3326.09 2367.36 3333.31L2376 3323.6ZM2418.32 3332.94C2426.28 3324.97 2437.49 3311.35 2446.56 3295.09C2455.58 3278.9 2462.87 3259.44 2462.05 3240L2449.06 3240.55C2449.73 3256.58 2443.68 3273.56 2435.2 3288.75C2426.77 3303.87 2416.32 3316.55 2409.13 3323.75L2418.32 3332.94ZM2331.68 3244.7C2340.21 3245.99 2351.82 3250.04 2362.21 3255.9C2372.82 3261.88 2380.85 3269.01 2383.85 3275.78L2395.74 3270.53C2391.01 3259.83 2379.91 3250.95 2368.6 3244.57C2357.07 3238.08 2343.97 3233.42 2333.64 3231.84L2331.68 3244.7ZM2401.28 3276.55C2404.32 3270.16 2407.35 3264.86 2414.27 3259.86C2421.44 3254.68 2433.27 3249.5 2454.55 3244.84L2451.76 3232.14C2429.73 3236.97 2415.91 3242.64 2406.65 3249.32C2397.15 3256.2 2392.96 3263.79 2389.55 3270.96L2401.28 3276.55ZM2067.19 3446.59C2060.65 3449.91 2052.65 3455.77 2047.11 3463.98C2041.44 3472.38 2038.33 3483.35 2042.25 3495.99L2054.67 3492.14C2052.11 3483.91 2054.01 3476.99 2057.89 3471.25C2061.89 3465.31 2067.97 3460.77 2073.07 3458.18L2067.19 3446.59ZM2042.25 3495.99C2044.46 3503.1 2049.18 3510.25 2055.47 3517.33L2065.19 3508.7C2059.5 3502.29 2056.1 3496.76 2054.67 3492.14L2042.25 3495.99ZM2048.99 3500.54C2087.36 3497.43 2150.44 3494.4 2189.76 3500.49L2191.75 3487.64C2150.73 3481.29 2086.23 3484.48 2047.94 3487.59L2048.99 3500.54ZM2189.76 3500.49C2202.75 3502.5 2217.88 3508.56 2230.76 3517.34C2243.73 3526.18 2253.61 3537.23 2257.33 3548.73L2269.7 3544.74C2264.76 3529.42 2252.31 3516.3 2238.08 3506.6C2223.78 3496.85 2206.85 3489.98 2191.75 3487.64L2189.76 3500.49ZM2257.33 3548.73C2260.72 3559.26 2262.42 3566.86 2262.96 3572.09C2263.24 3574.7 2263.2 3576.52 2263.04 3577.72C2262.87 3578.97 2262.62 3579.11 2262.85 3578.81L2273.13 3586.77C2274.8 3584.61 2275.58 3581.99 2275.92 3579.48C2276.27 3576.92 2276.23 3573.99 2275.89 3570.73C2275.21 3564.23 2273.23 3555.67 2269.7 3544.74L2257.33 3548.73ZM2267.06 3552.18C2274.15 3547.57 2286.75 3541.41 2300.93 3538.3C2315.15 3535.19 2330.14 3535.32 2342.81 3542.15L2348.98 3530.71C2332.55 3521.84 2314.02 3522.13 2298.15 3525.6C2282.25 3529.08 2268.21 3535.92 2259.97 3541.29L2267.06 3552.18ZM2374.34 3556.64C2361.19 3567.89 2324.25 3596.13 2270.19 3576.67L2265.79 3588.9C2326.69 3610.83 2368.65 3578.61 2382.79 3566.53L2374.34 3556.64ZM2342.81 3542.15C2343.63 3542.6 2344.43 3543.03 2345.21 3543.46L2351.47 3532.07C2350.66 3531.62 2349.83 3531.17 2348.98 3530.71L2342.81 3542.15ZM2345.21 3543.46C2357.92 3550.44 2365.27 3555.52 2369.28 3558.93C2371.31 3560.65 2372.26 3561.77 2372.64 3562.31C2372.83 3562.58 2372.75 3562.53 2372.63 3562.18C2372.53 3561.88 2372.23 3560.84 2372.62 3559.44L2385.16 3562.86C2385.68 3560.94 2385.34 3559.21 2384.96 3558.06C2384.56 3556.87 2383.95 3555.81 2383.32 3554.89C2382.05 3553.06 2380.16 3551.12 2377.7 3549.02C2372.74 3544.8 2364.53 3539.24 2351.47 3532.07L2345.21 3543.46ZM2352.81 3542.49C2391.22 3506.13 2424.55 3442.68 2419.64 3329.58L2406.65 3330.14C2411.43 3440.21 2379.05 3499.74 2343.88 3533.05L2352.81 3542.49ZM2252.15 3483.76C2252.15 3488 2248.71 3491.45 2244.45 3491.45V3504.45C2255.88 3504.45 2265.15 3495.19 2265.15 3483.76H2252.15ZM2244.45 3491.45C2240.19 3491.45 2236.75 3488 2236.75 3483.76H2223.75C2223.75 3495.19 2233.02 3504.45 2244.45 3504.45V3491.45ZM2236.75 3483.76C2236.75 3479.52 2240.19 3476.08 2244.45 3476.08V3463.08C2233.02 3463.08 2223.75 3472.33 2223.75 3483.76H2236.75ZM2244.45 3476.08C2248.71 3476.08 2252.15 3479.52 2252.15 3483.76H2265.15C2265.15 3472.33 2255.88 3463.08 2244.45 3463.08V3476.08ZM2383.85 3275.78C2385.57 3279.66 2389.39 3281.06 2391.79 3281.36C2394.04 3281.64 2399.02 3281.3 2401.28 3276.55L2389.55 3270.96C2390.19 3269.61 2391.28 3268.92 2392.01 3268.65C2392.68 3268.4 2393.17 3268.43 2393.38 3268.46C2393.61 3268.48 2393.91 3268.56 2394.25 3268.77C2394.59 3268.97 2395.28 3269.49 2395.74 3270.53L2383.85 3275.78ZM2409.13 3323.75C2407.38 3325.5 2406.55 3327.84 2406.65 3330.14L2419.64 3329.58C2419.69 3330.75 2419.27 3331.99 2418.32 3332.94L2409.13 3323.75ZM2378.8 3329.07C2378.59 3327.03 2377.64 3325.06 2376 3323.6L2367.36 3333.31C2366.47 3332.52 2365.99 3331.47 2365.88 3330.44L2378.8 3329.07ZM2478.37 3477.41C2476.91 3483.21 2481.71 3488.38 2487.36 3487.85L2486.16 3474.91C2489.12 3474.64 2491.78 3477.38 2490.98 3480.57L2478.37 3477.41ZM2462.05 3240C2461.81 3234.46 2456.6 3231.08 2451.76 3232.14L2454.55 3244.84C2452.07 3245.38 2449.19 3243.67 2449.06 3240.55L2462.05 3240ZM2463.47 3393.37C2465.07 3399.13 2471.79 3401.25 2476.44 3398L2469 3387.34C2471.44 3385.64 2475.11 3386.71 2475.99 3389.88L2463.47 3393.37ZM2336.97 3240.43C2336.81 3243.05 2334.43 3245.11 2331.68 3244.7L2333.64 3231.84C2328.67 3231.09 2324.28 3234.8 2323.99 3239.67L2336.97 3240.43ZM2115.26 3317.83C2120.23 3321.16 2126.71 3318.41 2128.13 3312.92L2115.55 3309.65C2116.3 3306.77 2119.78 3305.21 2122.5 3307.04L2115.26 3317.83ZM2096.95 3409.53C2102.53 3411.7 2108.25 3407.59 2108.44 3401.92L2095.45 3401.49C2095.54 3398.51 2098.6 3396.23 2101.66 3397.41L2096.95 3409.53ZM2071.01 3445.68C2069.73 3445.68 2068.42 3445.96 2067.19 3446.59L2073.07 3458.18C2072.38 3458.53 2071.66 3458.68 2071.01 3458.68V3445.68ZM2382.79 3566.53C2383.06 3566.3 2384.55 3565.08 2385.16 3562.86L2372.62 3559.44C2372.87 3558.51 2373.31 3557.81 2373.68 3557.34C2374.01 3556.92 2374.31 3556.67 2374.34 3556.64L2382.79 3566.53ZM2170.22 3394.52C2173.1 3399.76 2180.12 3400.29 2183.91 3396.06L2174.23 3387.39C2176.22 3385.17 2180.02 3385.38 2181.61 3388.26L2170.22 3394.52Z" fill="#F2F5F8"/>
<g filter="url(#filter8_i_203:269)">
<path fill-rule="evenodd" clip-rule="evenodd" d="M1744.96 1368.21C1740.84 1368.21 1737.5 1371.55 1737.5 1375.66V1452.01C1737.5 1456.12 1740.84 1459.46 1744.96 1459.46H1871.33C1875.46 1459.46 1878.8 1456.12 1878.8 1452.01V1375.66C1878.8 1371.55 1875.46 1368.21 1871.33 1368.21H1744.96ZM1754.74 1450.23C1750.32 1450.23 1746.74 1446.65 1746.74 1442.23V1385.44C1746.74 1381.02 1750.32 1377.44 1754.74 1377.44H1861.56C1865.97 1377.44 1869.56 1381.02 1869.56 1385.44V1442.23C1869.56 1446.65 1865.97 1450.23 1861.56 1450.23H1754.74Z" fill="#0AD598"/>
<path fill-rule="evenodd" clip-rule="evenodd" d="M1704.62 1358.44C1704.62 1339.42 1720.05 1324 1739.1 1324H1877.2C1896.24 1324 1911.68 1339.42 1911.68 1358.44V1440.34C1911.68 1440.73 1911.82 1441.11 1912.04 1441.44C1921.75 1456.01 1926.91 1480.04 1929.95 1508.85C1933.02 1537.94 1934.02 1573.09 1934.69 1610.71C1934.8 1616.49 1936.73 1622.47 1939.76 1627.4C1942.83 1632.41 1946.64 1635.69 1949.97 1636.89C1951.56 1637.46 1952.96 1637.54 1954.2 1637.24C1955.43 1636.95 1956.9 1636.21 1958.49 1634.51C1961.82 1630.97 1965.38 1623.58 1967.46 1609.94C1974.25 1565.53 1973.99 1511.26 1967.41 1467.89C1966.82 1464 1963.41 1461.28 1959.51 1460.78C1953.64 1460.02 1948.75 1458.14 1944.87 1455.25C1938.48 1450.48 1935.66 1443.57 1935.46 1436.76C1935.25 1430.06 1937.54 1423.28 1941.52 1418.02C1942.34 1416.95 1943.24 1415.92 1944.22 1414.96C1947.51 1411.75 1949.41 1406.66 1946.67 1402.97C1945.5 1401.38 1944.3 1400.01 1943.1 1398.85C1939.4 1395.26 1935.89 1393.95 1932.44 1394.2C1929.26 1394.43 1926.5 1392.04 1926.27 1388.86C1926.04 1385.68 1928.43 1382.92 1931.61 1382.69C1939.16 1382.15 1945.73 1385.33 1951.14 1390.55C1956.45 1395.69 1960.9 1403.02 1964.65 1411.62C1969.7 1423.24 1973.74 1437.81 1976.79 1454.05C1985.48 1500.36 1986.48 1561.93 1978.89 1611.68C1976.67 1626.2 1972.61 1636.35 1966.91 1642.41C1963.99 1645.52 1960.59 1647.6 1956.85 1648.48C1953.12 1649.36 1949.42 1648.96 1946.05 1647.74C1939.45 1645.37 1933.84 1639.82 1929.91 1633.43C1925.94 1626.96 1923.29 1618.99 1923.14 1610.92C1922.47 1573.26 1921.47 1538.59 1918.46 1510.05C1917.8 1503.85 1911.68 1504.43 1911.68 1510.67V1671.88C1911.68 1676.29 1915.26 1679.88 1919.68 1679.88H1928.92C1932.11 1679.88 1934.7 1682.46 1934.7 1685.65C1934.7 1688.83 1932.11 1691.42 1928.92 1691.42H1689.78C1686.59 1691.42 1684 1688.83 1684 1685.65C1684 1682.46 1686.59 1679.88 1689.78 1679.88H1696.62C1701.04 1679.88 1704.62 1676.29 1704.62 1671.88V1358.44ZM1739.1 1334.65C1725.94 1334.65 1715.28 1345.3 1715.28 1358.44V1666.64C1715.28 1671.06 1718.86 1674.64 1723.28 1674.64H1893.01C1897.43 1674.64 1901.01 1671.06 1901.01 1666.64V1358.44C1901.01 1345.3 1890.35 1334.65 1877.2 1334.65H1739.1ZM1958.15 1427.06C1957 1423.59 1952.95 1422.07 1950.73 1424.99C1948.27 1428.24 1946.88 1432.45 1947 1436.41C1947.12 1440.25 1948.63 1443.64 1951.79 1446C1952.46 1446.51 1953.25 1446.99 1954.16 1447.43C1958.85 1449.69 1963.08 1444.65 1961.79 1439.6C1960.66 1435.16 1959.45 1430.98 1958.15 1427.06Z" fill="#0AD598"/>
<path fill-rule="evenodd" clip-rule="evenodd" d="M1715.28 1358.44C1715.28 1345.3 1725.94 1334.65 1739.1 1334.65H1877.2C1890.35 1334.65 1901.01 1345.3 1901.01 1358.44V1666.64C1901.01 1671.06 1897.43 1674.64 1893.01 1674.64H1723.28C1718.86 1674.64 1715.28 1671.06 1715.28 1666.64V1358.44ZM1744.96 1368.21C1740.84 1368.21 1737.5 1371.55 1737.5 1375.66V1452.01C1737.5 1456.12 1740.84 1459.46 1744.96 1459.46H1871.33C1875.46 1459.46 1878.8 1456.12 1878.8 1452.01V1375.66C1878.8 1371.55 1875.46 1368.21 1871.33 1368.21H1744.96Z" fill="#0AD598"/>
</g>
<g filter="url(#filter9_i_203:269)">
<path d="M2498.71 2216.39C2486.64 2230.51 2445.92 2207.44 2427.08 2195.93C2417.99 2207.22 2404.56 2238.18 2423.49 2257.31C2432.09 2266 2447.03 2280.21 2462.89 2295.06C2481.26 2312.27 2500.87 2330.33 2513.28 2341.69C2514.2 2342.53 2514.77 2343.68 2514.88 2344.92L2518.95 2389.32C2519.02 2390.06 2519.25 2390.77 2519.63 2391.41L2554.49 2450.16L2576.49 2438.78L2548.67 2354.84C2548.3 2353.72 2548.35 2352.5 2548.71 2351.38C2550.54 2345.73 2552.31 2334.88 2548.09 2325.6C2543.5 2315.54 2510.47 2264.37 2493.27 2238.12C2492.42 2236.83 2492.23 2235.23 2492.73 2233.76L2498.71 2216.39Z" fill="#0AD598"/>
<path d="M2423.49 2257.31L2402.02 2313.86C2400.98 2316.6 2397.82 2317.86 2395.14 2316.69C2384.8 2312.15 2368.46 2306.11 2359.53 2306.8C2348.99 2307.62 2314.72 2319.68 2298.9 2325.6L2289.94 2349.52H2381.38C2382.24 2349.52 2383.08 2349.74 2383.83 2350.16C2387.48 2352.2 2393.71 2355.61 2396.38 2356.81C2399.29 2358.11 2417.38 2345.9 2426.56 2339.28C2426.91 2339.03 2427.21 2338.73 2427.49 2338.4L2462.89 2295.06C2447.03 2280.21 2432.09 2266 2423.49 2257.31Z" fill="#0AD598"/>
<path d="M2520.33 2089.27C2519 2083.95 2503.83 2081.94 2496.41 2081.6L2477.73 2085.21C2475.48 2085.64 2473.22 2084.49 2472.25 2082.41L2464.3 2065.36C2457.56 2063.86 2442.5 2061.77 2436.16 2065.36C2430.09 2068.78 2390.34 2096.79 2368.67 2112.17C2366.94 2113.4 2366.18 2115.57 2366.83 2117.59C2372.26 2134.44 2385.53 2162.54 2404.39 2168.94C2407.07 2169.85 2409.04 2172.42 2409.07 2175.25C2409.18 2184.07 2412.84 2195.67 2427.08 2195.93C2444.37 2196.23 2454.24 2189.23 2457.01 2185.7C2457.01 2183.76 2455.4 2167.94 2441.53 2165.27L2432.19 2165.36C2417.26 2167.98 2403.6 2142.51 2397.91 2126.2C2396.99 2123.57 2398.58 2120.78 2401.27 2120.06L2430.47 2112.27C2433.45 2111.48 2436.43 2113.54 2436.74 2116.61L2441.53 2165.27C2455.4 2167.94 2457.01 2183.76 2457.01 2185.7C2454.24 2189.23 2444.37 2196.23 2427.08 2195.93C2445.92 2207.44 2486.64 2230.51 2498.71 2216.39C2509.13 2204.21 2510.33 2161.56 2509.4 2133.51L2508.82 2121.37C2509.05 2124.92 2509.25 2129.03 2509.4 2133.51L2509.94 2144.73C2510 2146.01 2510.54 2147.21 2511.47 2148.1L2535.72 2171.43C2537.74 2173.37 2540.95 2173.27 2542.85 2171.23L2579.02 2132.28C2579.21 2132.08 2579.41 2131.9 2579.62 2131.73C2586.06 2126.59 2595.57 2114.22 2584.29 2103.85C2569.96 2090.68 2563.06 2102.95 2557.56 2107.69C2554.31 2110.48 2556.86 2116.15 2559.89 2120.55C2561.49 2122.86 2561.31 2126.08 2559.19 2127.91L2544.93 2140.24C2542.27 2142.54 2538.12 2141.45 2536.95 2138.13C2530.77 2120.57 2521.49 2093.92 2520.33 2089.27Z" fill="#0AD598"/>
<path d="M2469.14 2048.4C2470.28 2049.97 2470.56 2052.02 2469.74 2053.77L2464.3 2065.36L2472.25 2082.41C2473.22 2084.49 2475.48 2085.64 2477.73 2085.21L2496.41 2081.6L2498.27 2063.14C2498.52 2060.61 2500.67 2058.76 2503.11 2058.07C2514.06 2054.94 2519.12 2041.17 2520.33 2033.9C2531.18 1995.22 2503.52 1982 2488.1 1985.55C2461.78 1991.62 2455.75 2011 2459.45 2026.15C2460.82 2034.64 2464.88 2042.57 2469.14 2048.4Z" fill="#0AD598"/>
<path d="M2289.94 2349.52L2298.9 2325.6L2269.87 2304.72C2268.87 2304 2267.65 2303.65 2266.45 2303.9C2260.75 2305.05 2252.08 2309.16 2252.08 2318.95V2340.77C2252.08 2342.19 2251.48 2343.54 2250.42 2344.49L2237.64 2355.98C2237.04 2356.53 2236.58 2357.2 2236.32 2357.96C2234.22 2364.05 2231.82 2374.34 2233.65 2381.18C2234.46 2384.24 2238.11 2383.71 2240.09 2381.25C2251.85 2366.63 2278.41 2356.45 2289.94 2349.52Z" fill="#0AD598"/>
<path d="M2576.49 2438.78L2554.49 2450.16C2552.87 2459.93 2552.31 2480.29 2563.06 2483.67C2572.84 2486.75 2581.53 2483.83 2585.55 2481.52C2586.25 2481.11 2586.79 2480.48 2587.16 2479.76L2593.51 2467.48C2594.16 2466.23 2595.3 2465.32 2596.65 2464.9C2608.84 2461.1 2628.5 2450.34 2629.35 2431.71C2629.48 2428.78 2626.6 2426.84 2623.74 2427.52L2576.49 2438.78Z" fill="#0AD598"/>
</g>
<g filter="url(#filter10_i_203:269)">
<path fill-rule="evenodd" clip-rule="evenodd" d="M1808 2803C1830.63 2791.2 1885 2709.25 1885 2665.75C1885 2622.26 1850.53 2587 1808 2587C1765.47 2587 1731 2622.26 1731 2665.75C1731 2709.25 1784.19 2789.72 1808 2803ZM1841.64 2665.37C1841.64 2684.59 1826.41 2700.16 1807.63 2700.16C1788.84 2700.16 1773.61 2684.59 1773.61 2665.37C1773.61 2646.16 1788.84 2630.58 1807.63 2630.58C1826.41 2630.58 1841.64 2646.16 1841.64 2665.37Z" fill="#0AD598"/>
</g>
<g filter="url(#filter11_i_203:269)">
<path fill-rule="evenodd" clip-rule="evenodd" d="M971 1958C1003.33 1941.17 1081 1824.32 1081 1762.3C1081 1700.28 1031.75 1650 971 1650C910.249 1650 861 1700.28 861 1762.3C861 1824.32 936.992 1939.07 971 1958ZM1019.06 1761.75C1019.06 1789.15 997.303 1811.36 970.466 1811.36C943.629 1811.36 921.874 1789.15 921.874 1761.75C921.874 1734.35 943.629 1712.15 970.466 1712.15C997.303 1712.15 1019.06 1734.35 1019.06 1761.75Z" fill="#0AD598"/>
</g>
<g filter="url(#filter12_i_203:269)">
<path fill-rule="evenodd" clip-rule="evenodd" d="M729.5 3841C781.372 3814.01 906 3626.59 906 3527.11C906 3427.64 826.978 3347 729.5 3347C632.022 3347 553 3427.64 553 3527.11C553 3626.59 674.933 3810.63 729.5 3841ZM806.612 3526.24C806.612 3570.18 771.704 3605.8 728.643 3605.8C685.582 3605.8 650.675 3570.18 650.675 3526.24C650.675 3482.3 685.582 3446.67 728.643 3446.67C771.704 3446.67 806.612 3482.3 806.612 3526.24Z" fill="#0AD598"/>
</g>
<g filter="url(#filter13_i_203:269)">
<path d="M626.619 1069.71C625.487 1070.44 623.985 1069.87 623.686 1068.55C619.197 1048.86 619.863 1011.21 646.723 1023.9C674.601 1037.08 646.65 1056.84 626.619 1069.71Z" fill="#0AD598"/>
</g>
<path d="M646.723 1023.9L643.945 1029.78L646.723 1023.9ZM623.686 1068.55L617.348 1070L623.686 1068.55ZM626.619 1069.71L623.105 1064.24L626.619 1069.71ZM630.023 1067.11C627.908 1057.83 627.153 1044.71 629.694 1035.88C630.967 1031.46 632.715 1029.31 634.268 1028.46C635.548 1027.77 638.293 1027.11 643.945 1029.78L649.5 1018.03C641.722 1014.35 634.312 1013.64 628.053 1017.05C622.067 1020.3 618.892 1026.41 617.202 1032.28C613.818 1044.03 614.975 1059.58 617.348 1070L630.023 1067.11ZM643.945 1029.78C650.193 1032.73 651.569 1035.26 651.857 1036.4C652.146 1037.54 651.933 1039.62 649.394 1043.08C644.23 1050.13 633.349 1057.66 623.105 1064.24L630.133 1075.18C639.92 1068.89 653.03 1060.11 659.88 1050.77C663.347 1046.03 666.147 1039.89 664.461 1033.22C662.776 1026.55 657.192 1021.66 649.5 1018.03L643.945 1029.78ZM617.348 1070C618.7 1075.93 625.407 1078.22 630.133 1075.18L623.105 1064.24C625.566 1062.66 629.269 1063.8 630.023 1067.11L617.348 1070Z" fill="#F2F5F8"/>
<g filter="url(#filter14_i_203:269)">
<path d="M641.784 1160.96C640.441 1161.05 639.4 1159.83 639.769 1158.53C645.305 1139.1 663.992 1106.42 681.438 1130.46C699.546 1155.42 665.536 1159.31 641.784 1160.96Z" fill="#0AD598"/>
</g>
<path d="M681.438 1130.46L676.177 1134.28L681.438 1130.46ZM639.769 1158.53L633.518 1156.75L639.769 1158.53ZM641.784 1160.96L641.333 1154.48L641.784 1160.96ZM646.02 1160.32C648.629 1151.16 654.276 1139.29 660.749 1132.78C663.99 1129.51 666.557 1128.47 668.326 1128.47C669.783 1128.48 672.506 1129.22 676.177 1134.28L686.699 1126.65C681.647 1119.68 675.493 1115.49 668.366 1115.47C661.551 1115.45 655.829 1119.28 651.526 1123.61C642.909 1132.29 636.445 1146.48 633.518 1156.75L646.02 1160.32ZM676.177 1134.28C680.235 1139.87 680.226 1142.75 679.93 1143.89C679.635 1145.03 678.452 1146.74 674.559 1148.56C666.643 1152.26 653.479 1153.63 641.333 1154.48L642.235 1167.44C653.841 1166.64 669.558 1165.24 680.058 1160.34C685.373 1157.86 690.782 1153.82 692.513 1147.16C694.243 1140.5 691.695 1133.53 686.699 1126.65L676.177 1134.28ZM633.518 1156.75C631.85 1162.61 636.632 1167.83 642.235 1167.44L641.333 1154.48C644.25 1154.27 646.95 1157.05 646.02 1160.32L633.518 1156.75Z" fill="#F2F5F8"/>
<g filter="url(#filter15_i_203:269)">
<path d="M695.164 1094.66C693.92 1095.17 692.545 1094.34 692.486 1093C691.602 1072.81 699.007 1035.89 723.156 1053.2C748.219 1071.16 717.179 1085.59 695.164 1094.66Z" fill="#0AD598"/>
</g>
<path d="M723.156 1053.2L719.369 1058.48L723.156 1053.2ZM692.486 1093L685.992 1093.28L692.486 1093ZM695.164 1094.66L692.688 1088.65L695.164 1094.66ZM698.98 1092.71C698.563 1083.2 700.173 1070.16 704.256 1061.93C706.3 1057.81 708.406 1056.01 710.086 1055.45C711.469 1055 714.288 1054.84 719.369 1058.48L726.942 1047.92C719.949 1042.9 712.787 1040.87 706.018 1043.1C699.545 1045.24 695.326 1050.68 692.611 1056.15C687.176 1067.1 685.525 1082.61 685.992 1093.28L698.98 1092.71ZM719.369 1058.48C724.986 1062.51 725.887 1065.24 725.966 1066.42C726.045 1067.59 725.465 1069.59 722.345 1072.54C716.002 1078.55 703.946 1084.01 692.688 1088.65L697.641 1100.67C708.397 1096.24 722.869 1089.95 731.283 1081.98C735.543 1077.95 739.399 1072.41 738.937 1065.54C738.475 1058.68 733.857 1052.87 726.942 1047.92L719.369 1058.48ZM685.992 1093.28C686.259 1099.36 692.448 1102.81 697.641 1100.67L692.688 1088.65C695.392 1087.54 698.831 1089.32 698.98 1092.71L685.992 1093.28Z" fill="#F2F5F8"/>
<g filter="url(#filter16_i_203:269)">
<path d="M433.11 1220.86C447.995 1217.95 479.351 1216.14 485.687 1232.24C493.456 1251.98 339.263 1415.83 196.05 1418C191.798 1418.06 188.842 1413.96 190.44 1410.02C206.068 1371.52 255.673 1317.17 302.383 1290.99L354.658 1258.58L414.251 1226.55L433.11 1220.86Z" fill="#50D8AF"/>
</g>
<path d="M414.251 1226.55L433.11 1220.86C447.995 1217.95 479.351 1216.14 485.687 1232.24C493.456 1251.98 339.263 1415.83 196.05 1418C191.798 1418.06 188.842 1413.96 190.44 1410.02C206.068 1371.52 255.673 1317.17 302.383 1290.99L354.658 1258.58L414.251 1226.55ZM414.251 1226.55C465.341 1139.69 395.748 1094.1 329.292 1093.87C328.954 1093.87 328.635 1093.85 328.3 1093.8C307.654 1090.81 256.619 1099.66 202.758 1154.43C198.203 1159.07 190.742 1155.43 192.705 1149.24C224.152 1050.11 427.55 955.067 559.311 1071.94C627.422 1132.36 589.56 1274.79 457.626 1377.62" stroke="#F2F5F8" stroke-width="13" stroke-linecap="round" stroke-linejoin="round"/>
<g filter="url(#filter17_i_203:269)">
<path d="M375.167 1118.5L391.073 1094.59L383.995 1067.17C358.348 1048.44 345.08 1067.15 341.529 1077.76C341.291 1088.38 342.058 1108.06 346.133 1118.5C347.268 1121.4 348.659 1123.59 350.357 1124.66C358.15 1129.6 370.144 1122.61 375.167 1118.5Z" fill="#0AD598"/>
<path d="M384.055 1105.14L375.167 1118.5C370.144 1122.61 358.15 1129.6 350.357 1124.66C348.659 1123.59 347.268 1121.4 346.133 1118.5L299.976 1177.74C293.202 1202.56 283.72 1255.02 299.976 1266.29C316.232 1277.56 317.962 1223.17 316.795 1194.56L350.357 1153.9L341.529 1177.74C352.741 1180.4 375.167 1184.13 375.167 1177.74C375.167 1171.34 398.708 1147.36 410.479 1136.16C454.417 1143.24 533.981 1150.86 500.739 1124.66C467.496 1098.47 406.76 1100.72 384.055 1105.14Z" fill="#0AD598"/>
<path d="M370.677 1245.05C362.3 1251.15 345.253 1261.34 335.718 1259.93L307.054 1320.2C309.269 1333.2 315.903 1359.19 324.71 1359.19C333.516 1359.19 335.718 1333.2 335.718 1320.2L370.677 1245.05Z" fill="#0AD598"/>
<path d="M410.479 1250.3L398.987 1218.47C401.572 1229.35 392.653 1233.93 383.995 1235.49C372.782 1253.24 351.955 1292.03 358.348 1305.2C364.741 1318.38 388.105 1316.58 398.987 1314.04L383.995 1289.29L410.479 1250.3Z" fill="#0AD598"/>
<path d="M375.167 1177.74C375.167 1184.13 352.741 1180.4 341.529 1177.74L350.357 1153.9L316.795 1194.56C318.545 1213.14 323.994 1251.9 331.787 1258.3C332.862 1259.18 334.194 1259.7 335.718 1259.93C345.253 1261.34 362.3 1251.15 370.677 1245.05L358.348 1207.89L375.167 1236.14C377.689 1236.22 380.825 1236.06 383.995 1235.49C392.653 1233.93 401.572 1229.35 398.987 1218.47C395.456 1203.61 381.636 1185.12 375.167 1177.74Z" fill="#0AD598"/>
</g>
<path d="M375.167 1118.5L391.073 1094.59L383.995 1067.17C358.348 1048.44 345.08 1067.15 341.529 1077.76C341.291 1088.38 342.058 1108.06 346.133 1118.5M375.167 1118.5C370.144 1122.61 358.15 1129.6 350.357 1124.66C348.659 1123.59 347.268 1121.4 346.133 1118.5M375.167 1118.5L384.055 1105.14C406.76 1100.72 467.496 1098.47 500.739 1124.66C533.981 1150.86 454.417 1143.24 410.479 1136.16C398.708 1147.36 375.167 1171.34 375.167 1177.74M375.167 1177.74C375.167 1184.13 352.741 1180.4 341.529 1177.74L350.357 1153.9L316.795 1194.56M375.167 1177.74C381.636 1185.12 395.456 1203.61 398.987 1218.47M346.133 1118.5L299.976 1177.74C293.202 1202.56 283.72 1255.02 299.976 1266.29C316.232 1277.56 317.962 1223.17 316.795 1194.56M316.795 1194.56C318.545 1213.14 323.994 1251.9 331.787 1258.3C332.862 1259.18 334.194 1259.7 335.718 1259.93M398.987 1218.47L410.479 1250.3L383.995 1289.29L398.987 1314.04C388.105 1316.58 364.741 1318.38 358.348 1305.2C351.955 1292.03 372.782 1253.24 383.995 1235.49M398.987 1218.47C401.572 1229.35 392.653 1233.93 383.995 1235.49M370.677 1245.05L358.348 1207.89L375.167 1236.14C377.689 1236.22 380.825 1236.06 383.995 1235.49M370.677 1245.05C362.3 1251.15 345.253 1261.34 335.718 1259.93M370.677 1245.05L335.718 1320.2C335.718 1333.2 333.516 1359.19 324.71 1359.19C315.903 1359.19 309.269 1333.2 307.054 1320.2L335.718 1259.93" stroke="#EAEEF2" stroke-width="7" stroke-linecap="round" stroke-linejoin="round"/>
</g>
<defs>
<filter id="filter0_d_203:269" x="1577" y="-64" width="3210.89" height="2520" filterUnits="userSpaceOnUse" color-interpolation-filters="sRGB">
<feFlood flood-opacity="0" result="BackgroundImageFix"/>
<feColorMatrix in="SourceAlpha" type="matrix" values="0 0 0 0 0 0 0 0 0 0 0 0 0 0 0 0 0 0 127 0" result="hardAlpha"/>
<feOffset/>
<feGaussianBlur stdDeviation="9"/>
<feComposite in2="hardAlpha" operator="out"/>
<feColorMatrix type="matrix" values="0 0 0 0 1 0 0 0 0 1 0 0 0 0 1 0 0 0 1 0"/>
<feBlend mode="normal" in2="BackgroundImageFix" result="effect1_dropShadow_203:269"/>
<feBlend mode="normal" in="SourceGraphic" in2="effect1_dropShadow_203:269" result="shape"/>
</filter>
<filter id="filter1_d_203:269" x="-69" y="-64" width="3210.89" height="2520" filterUnits="userSpaceOnUse" color-interpolation-filters="sRGB">
<feFlood flood-opacity="0" result="BackgroundImageFix"/>
<feColorMatrix in="SourceAlpha" type="matrix" values="0 0 0 0 0 0 0 0 0 0 0 0 0 0 0 0 0 0 127 0" result="hardAlpha"/>
<feOffset/>
<feGaussianBlur stdDeviation="9"/>
<feComposite in2="hardAlpha" operator="out"/>
<feColorMatrix type="matrix" values="0 0 0 0 1 0 0 0 0 1 0 0 0 0 1 0 0 0 1 0"/>
<feBlend mode="normal" in2="BackgroundImageFix" result="effect1_dropShadow_203:269"/>
<feBlend mode="normal" in="SourceGraphic" in2="effect1_dropShadow_203:269" result="shape"/>
</filter>
<filter id="filter2_d_203:269" x="1671.67" y="2005.49" width="3672.25" height="3369.13" filterUnits="userSpaceOnUse" color-interpolation-filters="sRGB">
<feFlood flood-opacity="0" result="BackgroundImageFix"/>
<feColorMatrix in="SourceAlpha" type="matrix" values="0 0 0 0 0 0 0 0 0 0 0 0 0 0 0 0 0 0 127 0" result="hardAlpha"/>
<feOffset/>
<feGaussianBlur stdDeviation="9"/>
<feComposite in2="hardAlpha" operator="out"/>
<feColorMatrix type="matrix" values="0 0 0 0 1 0 0 0 0 1 0 0 0 0 1 0 0 0 1 0"/>
<feBlend mode="normal" in2="BackgroundImageFix" result="effect1_dropShadow_203:269"/>
<feBlend mode="normal" in="SourceGraphic" in2="effect1_dropShadow_203:269" result="shape"/>
</filter>
<filter id="filter3_d_203:269" x="-2158" y="425" width="5323.91" height="5270.42" filterUnits="userSpaceOnUse" color-interpolation-filters="sRGB">
<feFlood flood-opacity="0" result="BackgroundImageFix"/>
<feColorMatrix in="SourceAlpha" type="matrix" values="0 0 0 0 0 0 0 0 0 0 0 0 0 0 0 0 0 0 127 0" result="hardAlpha"/>
<feOffset/>
<feGaussianBlur stdDeviation="56"/>
<feComposite in2="hardAlpha" operator="out"/>
<feColorMatrix type="matrix" values="0 0 0 0 1 0 0 0 0 1 0 0 0 0 1 0 0 0 1 0"/>
<feBlend mode="normal" in2="BackgroundImageFix" result="effect1_dropShadow_203:269"/>
<feBlend mode="normal" in="SourceGraphic" in2="effect1_dropShadow_203:269" result="shape"/>
</filter>
<filter id="filter4_d_203:269" x="-2134" y="453" width="5275.91" height="5222.42" filterUnits="userSpaceOnUse" color-interpolation-filters="sRGB">
<feFlood flood-opacity="0" result="BackgroundImageFix"/>
<feColorMatrix in="SourceAlpha" type="matrix" values="0 0 0 0 0 0 0 0 0 0 0 0 0 0 0 0 0 0 127 0" result="hardAlpha"/>
<feMorphology radius="62" operator="dilate" in="SourceAlpha" result="effect1_dropShadow_203:269"/>
<feOffset dy="4"/>
<feGaussianBlur stdDeviation="13"/>
<feComposite in2="hardAlpha" operator="out"/>
<feColorMatrix type="matrix" values="0 0 0 0 0.0470588 0 0 0 0 0.180392 0 0 0 0 0.541176 0 0 0 0.39 0"/>
<feBlend mode="normal" in2="BackgroundImageFix" result="effect1_dropShadow_203:269"/>
<feBlend mode="normal" in="SourceGraphic" in2="effect1_dropShadow_203:269" result="shape"/>
</filter>
<filter id="filter5_d_203:269" x="-2065" y="522" width="5137.91" height="5084.42" filterUnits="userSpaceOnUse" color-interpolation-filters="sRGB">
<feFlood flood-opacity="0" result="BackgroundImageFix"/>
<feColorMatrix in="SourceAlpha" type="matrix" values="0 0 0 0 0 0 0 0 0 0 0 0 0 0 0 0 0 0 127 0" result="hardAlpha"/>
<feOffset dy="4"/>
<feGaussianBlur stdDeviation="9.5"/>
<feComposite in2="hardAlpha" operator="out"/>
<feColorMatrix type="matrix" values="0 0 0 0 0 0 0 0 0 0 0 0 0 0 0 0 0 0 1 0"/>
<feBlend mode="normal" in2="BackgroundImageFix" result="effect1_dropShadow_203:269"/>
<feBlend mode="normal" in="SourceGraphic" in2="effect1_dropShadow_203:269" result="shape"/>
</filter>
<filter id="filter6_i_203:269" x="292.014" y="2555.83" width="211.161" height="490.331" filterUnits="userSpaceOnUse" color-interpolation-filters="sRGB">
<feFlood flood-opacity="0" result="BackgroundImageFix"/>
<feBlend mode="normal" in="SourceGraphic" in2="BackgroundImageFix" result="shape"/>
<feColorMatrix in="SourceAlpha" type="matrix" values="0 0 0 0 0 0 0 0 0 0 0 0 0 0 0 0 0 0 127 0" result="hardAlpha"/>
<feOffset dx="8" dy="4"/>
<feGaussianBlur stdDeviation="5"/>
<feComposite in2="hardAlpha" operator="arithmetic" k2="-1" k3="1"/>
<feColorMatrix type="matrix" values="0 0 0 0 0 0 0 0 0 0 0 0 0 0 0 0 0 0 0.42 0"/>
<feBlend mode="normal" in2="shape" result="effect1_innerShadow_203:269"/>
</filter>
<filter id="filter7_i_203:269" x="2040.5" y="3231.75" width="528.007" height="383.755" filterUnits="userSpaceOnUse" color-interpolation-filters="sRGB">
<feFlood flood-opacity="0" result="BackgroundImageFix"/>
<feBlend mode="normal" in="SourceGraphic" in2="BackgroundImageFix" result="shape"/>
<feColorMatrix in="SourceAlpha" type="matrix" values="0 0 0 0 0 0 0 0 0 0 0 0 0 0 0 0 0 0 127 0" result="hardAlpha"/>
<feOffset dx="34" dy="24"/>
<feGaussianBlur stdDeviation="7.5"/>
<feComposite in2="hardAlpha" operator="arithmetic" k2="-1" k3="1"/>
<feColorMatrix type="matrix" values="0 0 0 0 0 0 0 0 0 0 0 0 0 0 0 0 0 0 0.25 0"/>
<feBlend mode="normal" in2="shape" result="effect1_innerShadow_203:269"/>
</filter>
<filter id="filter8_i_203:269" x="1684" y="1324" width="308" height="371.416" filterUnits="userSpaceOnUse" color-interpolation-filters="sRGB">
<feFlood flood-opacity="0" result="BackgroundImageFix"/>
<feBlend mode="normal" in="SourceGraphic" in2="BackgroundImageFix" result="shape"/>
<feColorMatrix in="SourceAlpha" type="matrix" values="0 0 0 0 0 0 0 0 0 0 0 0 0 0 0 0 0 0 127 0" result="hardAlpha"/>
<feOffset dx="8" dy="4"/>
<feGaussianBlur stdDeviation="5"/>
<feComposite in2="hardAlpha" operator="arithmetic" k2="-1" k3="1"/>
<feColorMatrix type="matrix" values="0 0 0 0 0 0 0 0 0 0 0 0 0 0 0 0 0 0 0.42 0"/>
<feBlend mode="normal" in2="shape" result="effect1_innerShadow_203:269"/>
</filter>
<filter id="filter9_i_203:269" x="2233" y="1985" width="404.352" height="504" filterUnits="userSpaceOnUse" color-interpolation-filters="sRGB">
<feFlood flood-opacity="0" result="BackgroundImageFix"/>
<feBlend mode="normal" in="SourceGraphic" in2="BackgroundImageFix" result="shape"/>
<feColorMatrix in="SourceAlpha" type="matrix" values="0 0 0 0 0 0 0 0 0 0 0 0 0 0 0 0 0 0 127 0" result="hardAlpha"/>
<feOffset dx="8" dy="4"/>
<feGaussianBlur stdDeviation="5"/>
<feComposite in2="hardAlpha" operator="arithmetic" k2="-1" k3="1"/>
<feColorMatrix type="matrix" values="0 0 0 0 0 0 0 0 0 0 0 0 0 0 0 0 0 0 0.42 0"/>
<feBlend mode="normal" in2="shape" result="effect1_innerShadow_203:269"/>
</filter>
<filter id="filter10_i_203:269" x="1731" y="2587" width="162" height="220" filterUnits="userSpaceOnUse" color-interpolation-filters="sRGB">
<feFlood flood-opacity="0" result="BackgroundImageFix"/>
<feBlend mode="normal" in="SourceGraphic" in2="BackgroundImageFix" result="shape"/>
<feColorMatrix in="SourceAlpha" type="matrix" values="0 0 0 0 0 0 0 0 0 0 0 0 0 0 0 0 0 0 127 0" result="hardAlpha"/>
<feOffset dx="8" dy="4"/>
<feGaussianBlur stdDeviation="5"/>
<feComposite in2="hardAlpha" operator="arithmetic" k2="-1" k3="1"/>
<feColorMatrix type="matrix" values="0 0 0 0 0 0 0 0 0 0 0 0 0 0 0 0 0 0 0.42 0"/>
<feBlend mode="normal" in2="shape" result="effect1_innerShadow_203:269"/>
</filter>
<filter id="filter11_i_203:269" x="861" y="1650" width="228" height="312" filterUnits="userSpaceOnUse" color-interpolation-filters="sRGB">
<feFlood flood-opacity="0" result="BackgroundImageFix"/>
<feBlend mode="normal" in="SourceGraphic" in2="BackgroundImageFix" result="shape"/>
<feColorMatrix in="SourceAlpha" type="matrix" values="0 0 0 0 0 0 0 0 0 0 0 0 0 0 0 0 0 0 127 0" result="hardAlpha"/>
<feOffset dx="8" dy="4"/>
<feGaussianBlur stdDeviation="5"/>
<feComposite in2="hardAlpha" operator="arithmetic" k2="-1" k3="1"/>
<feColorMatrix type="matrix" values="0 0 0 0 0 0 0 0 0 0 0 0 0 0 0 0 0 0 0.42 0"/>
<feBlend mode="normal" in2="shape" result="effect1_innerShadow_203:269"/>
</filter>
<filter id="filter12_i_203:269" x="553" y="3347" width="361" height="498" filterUnits="userSpaceOnUse" color-interpolation-filters="sRGB">
<feFlood flood-opacity="0" result="BackgroundImageFix"/>
<feBlend mode="normal" in="SourceGraphic" in2="BackgroundImageFix" result="shape"/>
<feColorMatrix in="SourceAlpha" type="matrix" values="0 0 0 0 0 0 0 0 0 0 0 0 0 0 0 0 0 0 127 0" result="hardAlpha"/>
<feOffset dx="8" dy="4"/>
<feGaussianBlur stdDeviation="5"/>
<feComposite in2="hardAlpha" operator="arithmetic" k2="-1" k3="1"/>
<feColorMatrix type="matrix" values="0 0 0 0 0 0 0 0 0 0 0 0 0 0 0 0 0 0 0.42 0"/>
<feBlend mode="normal" in2="shape" result="effect1_innerShadow_203:269"/>
</filter>
<filter id="filter13_i_203:269" x="606.365" y="1010.2" width="78.2" height="89.1177" filterUnits="userSpaceOnUse" color-interpolation-filters="sRGB">
<feFlood flood-opacity="0" result="BackgroundImageFix"/>
<feBlend mode="normal" in="SourceGraphic" in2="BackgroundImageFix" result="shape"/>
<feColorMatrix in="SourceAlpha" type="matrix" values="0 0 0 0 0 0 0 0 0 0 0 0 0 0 0 0 0 0 127 0" result="hardAlpha"/>
<feOffset dx="34" dy="24"/>
<feGaussianBlur stdDeviation="7.5"/>
<feComposite in2="hardAlpha" operator="arithmetic" k2="-1" k3="1"/>
<feColorMatrix type="matrix" values="0 0 0 0 0 0 0 0 0 0 0 0 0 0 0 0 0 0 0.25 0"/>
<feBlend mode="normal" in2="shape" result="effect1_innerShadow_203:269"/>
</filter>
<filter id="filter14_i_203:269" x="623.142" y="1107.18" width="93.7749" height="94.0967" filterUnits="userSpaceOnUse" color-interpolation-filters="sRGB">
<feFlood flood-opacity="0" result="BackgroundImageFix"/>
<feBlend mode="normal" in="SourceGraphic" in2="BackgroundImageFix" result="shape"/>
<feColorMatrix in="SourceAlpha" type="matrix" values="0 0 0 0 0 0 0 0 0 0 0 0 0 0 0 0 0 0 127 0" result="hardAlpha"/>
<feOffset dx="34" dy="24"/>
<feGaussianBlur stdDeviation="7.5"/>
<feComposite in2="hardAlpha" operator="arithmetic" k2="-1" k3="1"/>
<feColorMatrix type="matrix" values="0 0 0 0 0 0 0 0 0 0 0 0 0 0 0 0 0 0 0.25 0"/>
<feBlend mode="normal" in2="shape" result="effect1_innerShadow_203:269"/>
</filter>
<filter id="filter15_i_203:269" x="674.909" y="1035.52" width="85.8867" height="93.1777" filterUnits="userSpaceOnUse" color-interpolation-filters="sRGB">
<feFlood flood-opacity="0" result="BackgroundImageFix"/>
<feBlend mode="normal" in="SourceGraphic" in2="BackgroundImageFix" result="shape"/>
<feColorMatrix in="SourceAlpha" type="matrix" values="0 0 0 0 0 0 0 0 0 0 0 0 0 0 0 0 0 0 127 0" result="hardAlpha"/>
<feOffset dx="34" dy="24"/>
<feGaussianBlur stdDeviation="7.5"/>
<feComposite in2="hardAlpha" operator="arithmetic" k2="-1" k3="1"/>
<feColorMatrix type="matrix" values="0 0 0 0 0 0 0 0 0 0 0 0 0 0 0 0 0 0 0.25 0"/>
<feBlend mode="normal" in2="shape" result="effect1_innerShadow_203:269"/>
</filter>
<filter id="filter16_i_203:269" x="183.479" y="1011.5" width="425.56" height="416.995" filterUnits="userSpaceOnUse" color-interpolation-filters="sRGB">
<feFlood flood-opacity="0" result="BackgroundImageFix"/>
<feBlend mode="normal" in="SourceGraphic" in2="BackgroundImageFix" result="shape"/>
<feColorMatrix in="SourceAlpha" type="matrix" values="0 0 0 0 0 0 0 0 0 0 0 0 0 0 0 0 0 0 127 0" result="hardAlpha"/>
<feOffset dx="31" dy="4"/>
<feGaussianBlur stdDeviation="5"/>
<feComposite in2="hardAlpha" operator="arithmetic" k2="-1" k3="1"/>
<feColorMatrix type="matrix" values="0 0 0 0 0 0 0 0 0 0 0 0 0 0 0 0 0 0 0.42 0"/>
<feBlend mode="normal" in2="shape" result="effect1_innerShadow_203:269"/>
</filter>
<filter id="filter17_i_203:269" x="287.5" y="1055.69" width="232.647" height="311.003" filterUnits="userSpaceOnUse" color-interpolation-filters="sRGB">
<feFlood flood-opacity="0" result="BackgroundImageFix"/>
<feBlend mode="normal" in="SourceGraphic" in2="BackgroundImageFix" result="shape"/>
<feColorMatrix in="SourceAlpha" type="matrix" values="0 0 0 0 0 0 0 0 0 0 0 0 0 0 0 0 0 0 127 0" result="hardAlpha"/>
<feOffset dx="8" dy="4"/>
<feGaussianBlur stdDeviation="5"/>
<feComposite in2="hardAlpha" operator="arithmetic" k2="-1" k3="1"/>
<feColorMatrix type="matrix" values="0 0 0 0 0 0 0 0 0 0 0 0 0 0 0 0 0 0 0.42 0"/>
<feBlend mode="normal" in2="shape" result="effect1_innerShadow_203:269"/>
</filter>
<clipPath id="clip0_203:269">
<rect width="4770" height="3656" rx="327" fill="white"/>
</clipPath>
</defs>
</svg>
