<svg width="4770" height="3656" viewBox="0 0 4770 3656" fill="none" xmlns="http://www.w3.org/2000/svg">
<g clip-path="url(#clip0_186:671)">
<rect width="4770" height="3656" rx="327" fill="#293469"/>
<g filter="url(#filter0_d_186:671)">
<path d="M2564 598.235C2570 598.235 2574.86 593.507 2574.86 587.674C2574.86 581.841 2570 577.113 2564 577.113C2558 577.113 2553.14 581.841 2553.14 587.674C2553.14 593.507 2558 598.235 2564 598.235Z" fill="#F2F5F8"/>
<path d="M3796.06 713.352C3802.06 713.352 3806.92 708.623 3806.92 702.79C3806.92 696.958 3802.06 692.229 3796.06 692.229C3790.06 692.229 3785.2 696.958 3785.2 702.79C3785.2 708.623 3790.06 713.352 3796.06 713.352Z" fill="#F2F5F8"/>
<path d="M3735.73 92.3525C3741.72 92.3525 3746.59 87.8605 3746.59 82.3193C3746.59 76.7781 3741.72 72.2861 3735.73 72.2861C3729.73 72.2861 3724.87 76.7781 3724.87 82.3193C3724.87 87.8605 3729.73 92.3525 3735.73 92.3525Z" fill="#F2F5F8"/>
<path d="M2150.09 884.443C2156.09 884.443 2160.95 879.715 2160.95 873.882C2160.95 868.049 2156.09 863.321 2150.09 863.321C2144.09 863.321 2139.23 868.049 2139.23 873.882C2139.23 879.715 2144.09 884.443 2150.09 884.443Z" fill="#F2F5F8"/>
<path d="M3383.36 999.561C3389.36 999.561 3394.23 994.833 3394.23 989C3394.23 983.167 3389.36 978.439 3383.36 978.439C3377.37 978.439 3372.5 983.167 3372.5 989C3372.5 994.833 3377.37 999.561 3383.36 999.561Z" fill="#F2F5F8"/>
<path d="M3323.03 378.561C3329.02 378.561 3333.89 374.069 3333.89 368.528C3333.89 362.986 3329.02 358.494 3323.03 358.494C3317.03 358.494 3312.17 362.986 3312.17 368.528C3312.17 374.069 3317.03 378.561 3323.03 378.561Z" fill="#F2F5F8"/>
<path d="M3389.4 526.418C3395.4 526.418 3400.26 521.926 3400.26 516.385C3400.26 510.844 3395.4 506.352 3389.4 506.352C3383.4 506.352 3378.54 510.844 3378.54 516.385C3378.54 521.926 3383.4 526.418 3389.4 526.418Z" fill="#F2F5F8"/>
<path d="M4622.67 641.536C4628.67 641.536 4633.53 636.808 4633.53 630.975C4633.53 625.142 4628.67 620.414 4622.67 620.414C4616.67 620.414 4611.81 625.142 4611.81 630.975C4611.81 636.808 4616.67 641.536 4622.67 641.536Z" fill="#F2F5F8"/>
<path d="M4562.33 20.5358C4568.33 20.5358 4573.19 16.0438 4573.19 10.5026C4573.19 4.96148 4568.33 0.469482 4562.33 0.469482C4556.34 0.469482 4551.47 4.96148 4551.47 10.5026C4551.47 16.0438 4556.34 20.5358 4562.33 20.5358Z" fill="#F2F5F8"/>
<path d="M3454.56 1037.58C3460.56 1037.58 3465.42 1033.09 3465.42 1027.55C3465.42 1022.01 3460.56 1017.52 3454.56 1017.52C3448.56 1017.52 3443.7 1022.01 3443.7 1027.55C3443.7 1033.09 3448.56 1037.58 3454.56 1037.58Z" fill="#F2F5F8"/>
<path d="M4687.83 1152.7C4693.83 1152.7 4698.69 1147.97 4698.69 1142.14C4698.69 1136.3 4693.83 1131.58 4687.83 1131.58C4681.83 1131.58 4676.97 1136.3 4676.97 1142.14C4676.97 1147.97 4681.83 1152.7 4687.83 1152.7Z" fill="#F2F5F8"/>
<path d="M4627.49 531.7C4633.49 531.7 4638.35 527.208 4638.35 521.666C4638.35 516.125 4633.49 511.633 4627.49 511.633C4621.5 511.633 4616.63 516.125 4616.63 521.666C4616.63 527.208 4621.5 531.7 4627.49 531.7Z" fill="#F2F5F8"/>
<path d="M2618.3 270.837C2624.3 270.837 2629.16 266.345 2629.16 260.804C2629.16 255.263 2624.3 250.771 2618.3 250.771C2612.3 250.771 2607.44 255.263 2607.44 260.804C2607.44 266.345 2612.3 270.837 2618.3 270.837Z" fill="#F2F5F8"/>
<path d="M3850.36 385.954C3856.36 385.954 3861.22 381.226 3861.22 375.393C3861.22 369.56 3856.36 364.832 3850.36 364.832C3844.37 364.832 3839.5 369.56 3839.5 375.393C3839.5 381.226 3844.37 385.954 3850.36 385.954Z" fill="#F2F5F8"/>
<path d="M2204.4 557.046C2210.39 557.046 2215.26 552.554 2215.26 547.012C2215.26 541.471 2210.39 536.979 2204.4 536.979C2198.4 536.979 2193.54 541.471 2193.54 547.012C2193.54 552.554 2198.4 557.046 2204.4 557.046Z" fill="#F2F5F8"/>
<path d="M3437.67 672.163C3443.66 672.163 3448.53 667.434 3448.53 661.602C3448.53 655.769 3443.66 651.04 3437.67 651.04C3431.67 651.04 3426.81 655.769 3426.81 661.602C3426.81 667.434 3431.67 672.163 3437.67 672.163Z" fill="#F2F5F8"/>
<path d="M3377.33 51.1635C3383.33 51.1635 3388.19 46.6715 3388.19 41.1303C3388.19 35.5892 3383.33 31.0972 3377.33 31.0972C3371.33 31.0972 3366.47 35.5892 3366.47 41.1303C3366.47 46.6715 3371.33 51.1635 3377.33 51.1635Z" fill="#F2F5F8"/>
<path d="M3443.7 199.02C3449.7 199.02 3454.56 194.528 3454.56 188.987C3454.56 183.446 3449.7 178.954 3443.7 178.954C3437.7 178.954 3432.84 183.446 3432.84 188.987C3432.84 194.528 3437.7 199.02 3443.7 199.02Z" fill="#F2F5F8"/>
<path d="M4676.97 314.137C4682.97 314.137 4687.83 309.645 4687.83 304.104C4687.83 298.563 4682.97 294.071 4676.97 294.071C4670.97 294.071 4666.11 298.563 4666.11 304.104C4666.11 309.645 4670.97 314.137 4676.97 314.137Z" fill="#F2F5F8"/>
<path d="M3508.86 710.183C3514.86 710.183 3519.72 705.691 3519.72 700.15C3519.72 694.609 3514.86 690.117 3508.86 690.117C3502.86 690.117 3498 694.609 3498 700.15C3498 705.691 3502.86 710.183 3508.86 710.183Z" fill="#F2F5F8"/>
<path d="M4742.13 825.301C4748.13 825.301 4752.99 820.809 4752.99 815.268C4752.99 809.727 4748.13 805.235 4742.13 805.235C4736.13 805.235 4731.27 809.727 4731.27 815.268C4731.27 820.809 4736.13 825.301 4742.13 825.301Z" fill="#F2F5F8"/>
<path d="M4681.8 205.357C4687.79 205.357 4692.66 200.629 4692.66 194.796C4692.66 188.963 4687.79 184.235 4681.8 184.235C4675.8 184.235 4670.94 188.963 4670.94 194.796C4670.94 200.629 4675.8 205.357 4681.8 205.357Z" fill="#F2F5F8"/>
<path d="M1846 260.276C1852 260.276 1856.86 255.784 1856.86 250.243C1856.86 244.702 1852 240.21 1846 240.21C1840 240.21 1835.14 244.702 1835.14 250.243C1835.14 255.784 1840 260.276 1846 260.276Z" fill="#F2F5F8"/>
<path d="M3079.27 375.393C3085.27 375.393 3090.13 370.901 3090.13 365.36C3090.13 359.818 3085.27 355.326 3079.27 355.326C3073.27 355.326 3068.41 359.818 3068.41 365.36C3068.41 370.901 3073.27 375.393 3079.27 375.393Z" fill="#F2F5F8"/>
<path d="M2672.6 189.516C2678.6 189.516 2683.46 184.787 2683.46 178.954C2683.46 173.121 2678.6 168.393 2672.6 168.393C2666.61 168.393 2661.74 173.121 2661.74 178.954C2661.74 184.787 2666.61 189.516 2672.6 189.516Z" fill="#F2F5F8"/>
<path d="M2737.77 700.678C2743.76 700.678 2748.63 695.95 2748.63 690.117C2748.63 684.284 2743.76 679.556 2737.77 679.556C2731.77 679.556 2726.91 684.284 2726.91 690.117C2726.91 695.95 2731.77 700.678 2737.77 700.678Z" fill="#F2F5F8"/>
<path d="M1867.72 2110.6C1873.72 2110.6 1878.58 2106.11 1878.58 2100.57C1878.58 2095.03 1873.72 2090.54 1867.72 2090.54C1861.72 2090.54 1856.86 2095.03 1856.86 2100.57C1856.86 2106.11 1861.72 2110.6 1867.72 2110.6Z" fill="#F2F5F8"/>
<path d="M2694.32 2039.84C2700.32 2039.84 2705.18 2035.11 2705.18 2029.28C2705.18 2023.45 2700.32 2018.72 2694.32 2018.72C2688.33 2018.72 2683.46 2023.45 2683.46 2029.28C2683.46 2035.11 2688.33 2039.84 2694.32 2039.84Z" fill="#F2F5F8"/>
<path d="M3932.42 2090.54C3938.42 2090.54 3943.28 2086.04 3943.28 2080.5C3943.28 2074.96 3938.42 2070.47 3932.42 2070.47C3926.42 2070.47 3921.56 2074.96 3921.56 2080.5C3921.56 2086.04 3926.42 2090.54 3932.42 2090.54Z" fill="#F2F5F8"/>
<path d="M3519.72 2376.75C3525.72 2376.75 3530.58 2372.25 3530.58 2366.71C3530.58 2361.17 3525.72 2356.68 3519.72 2356.68C3513.72 2356.68 3508.86 2361.17 3508.86 2366.71C3508.86 2372.25 3513.72 2376.75 3519.72 2376.75Z" fill="#F2F5F8"/>
<path d="M4759.03 2018.72C4765.02 2018.72 4769.89 2014.23 4769.89 2008.69C4769.89 2003.14 4765.02 1998.65 4759.03 1998.65C4753.03 1998.65 4748.17 2003.14 4748.17 2008.69C4748.17 2014.23 4753.03 2018.72 4759.03 2018.72Z" fill="#F2F5F8"/>
<path d="M4216 1732.51C4222 1732.51 4226.86 1728.02 4226.86 1722.48C4226.86 1716.94 4222 1712.44 4216 1712.44C4210 1712.44 4205.14 1716.94 4205.14 1722.48C4205.14 1728.02 4210 1732.51 4216 1732.51Z" fill="#F2F5F8"/>
<path d="M4237.72 1548.75C4243.72 1548.75 4248.58 1544.25 4248.58 1538.71C4248.58 1533.17 4243.72 1528.68 4237.72 1528.68C4231.72 1528.68 4226.86 1533.17 4226.86 1538.71C4226.86 1544.25 4231.72 1548.75 4237.72 1548.75Z" fill="#F2F5F8"/>
<path d="M4476.65 1528.68C4482.65 1528.68 4487.51 1523.95 4487.51 1518.12C4487.51 1512.28 4482.65 1507.56 4476.65 1507.56C4470.66 1507.56 4465.79 1512.28 4465.79 1518.12C4465.79 1523.95 4470.66 1528.68 4476.65 1528.68Z" fill="#F2F5F8"/>
<path d="M4498.37 2326.05C4504.37 2326.05 4509.23 2321.32 4509.23 2315.49C4509.23 2309.66 4504.37 2304.93 4498.37 2304.93C4492.38 2304.93 4487.51 2309.66 4487.51 2315.49C4487.51 2321.32 4492.38 2326.05 4498.37 2326.05Z" fill="#F2F5F8"/>
<path d="M4520.1 1017.52C4526.09 1017.52 4530.96 1012.79 4530.96 1006.95C4530.96 1001.12 4526.09 996.393 4520.1 996.393C4514.1 996.393 4509.24 1001.12 4509.24 1006.95C4509.24 1012.79 4514.1 1017.52 4520.1 1017.52Z" fill="#F2F5F8"/>
<path d="M3052.72 740.811C3058.72 740.811 3063.58 736.319 3063.58 730.778C3063.58 725.236 3058.72 720.744 3052.72 720.744C3046.72 720.744 3041.86 725.236 3041.86 730.778C3041.86 736.319 3046.72 740.811 3052.72 740.811Z" fill="#F2F5F8"/>
<path d="M2128.37 301.465C2134.37 301.465 2139.23 296.973 2139.23 291.432C2139.23 285.89 2134.37 281.398 2128.37 281.398C2122.37 281.398 2117.51 285.89 2117.51 291.432C2117.51 296.973 2122.37 301.465 2128.37 301.465Z" fill="#F2F5F8"/>
<path d="M3107.02 414.47C3113.02 414.47 3117.88 409.741 3117.88 403.908C3117.88 398.076 3113.02 393.347 3107.02 393.347C3101.03 393.347 3096.16 398.076 3096.16 403.908C3096.16 409.741 3101.03 414.47 3107.02 414.47Z" fill="#F2F5F8"/>
<path d="M2335.93 403.908C2341.93 403.908 2346.79 399.416 2346.79 393.875C2346.79 388.334 2341.93 383.842 2335.93 383.842C2329.93 383.842 2325.07 388.334 2325.07 393.875C2325.07 399.416 2329.93 403.908 2335.93 403.908Z" fill="#F2F5F8"/>
<path d="M2357.65 2254.23C2363.65 2254.23 2368.51 2249.51 2368.51 2243.67C2368.51 2237.84 2363.65 2233.11 2357.65 2233.11C2351.65 2233.11 2346.79 2237.84 2346.79 2243.67C2346.79 2249.51 2351.65 2254.23 2357.65 2254.23Z" fill="#F2F5F8"/>
<path d="M4422.35 2233.11C4428.35 2233.11 4433.21 2228.62 4433.21 2223.08C4433.21 2217.54 4428.35 2213.05 4422.35 2213.05C4416.35 2213.05 4411.49 2217.54 4411.49 2223.08C4411.49 2228.62 4416.35 2233.11 4422.35 2233.11Z" fill="#F2F5F8"/>
<path d="M3498 1793.77C3504 1793.77 3508.86 1789.27 3508.86 1783.73C3508.86 1778.19 3504 1773.7 3498 1773.7C3492 1773.7 3487.14 1778.19 3487.14 1783.73C3487.14 1789.27 3492 1793.77 3498 1793.77Z" fill="#F2F5F8"/>
<path d="M2030.63 2407.37C2036.63 2407.37 2041.49 2402.88 2041.49 2397.34C2041.49 2391.8 2036.63 2387.31 2030.63 2387.31C2024.63 2387.31 2019.77 2391.8 2019.77 2397.34C2019.77 2402.88 2024.63 2407.37 2030.63 2407.37Z" fill="#F2F5F8"/>
<path d="M2281.02 2376.75C2287.35 2376.75 2292.49 2372.25 2292.49 2366.71C2292.49 2361.17 2287.35 2356.68 2281.02 2356.68C2274.69 2356.68 2269.56 2361.17 2269.56 2366.71C2269.56 2372.25 2274.69 2376.75 2281.02 2376.75Z" fill="#F2F5F8"/>
<path d="M1867.72 2417.93C1873.72 2417.93 1878.58 2413.21 1878.58 2407.37C1878.58 2401.54 1873.72 2396.81 1867.72 2396.81C1861.72 2396.81 1856.86 2401.54 1856.86 2407.37C1856.86 2413.21 1861.72 2417.93 1867.72 2417.93Z" fill="#F2F5F8"/>
<path d="M4096.53 2059.91C4102.53 2059.91 4107.39 2055.42 4107.39 2049.87C4107.39 2044.33 4102.53 2039.84 4096.53 2039.84C4090.54 2039.84 4085.67 2044.33 4085.67 2049.87C4085.67 2055.42 4090.54 2059.91 4096.53 2059.91Z" fill="#F2F5F8"/>
<path d="M1660.16 1650.13C1666.16 1650.13 1671.02 1645.64 1671.02 1640.1C1671.02 1634.56 1666.16 1630.07 1660.16 1630.07C1654.17 1630.07 1649.3 1634.56 1649.3 1640.1C1649.3 1645.64 1654.17 1650.13 1660.16 1650.13Z" fill="#F2F5F8"/>
<path d="M3845.54 2346.12C3851.53 2346.12 3856.4 2341.63 3856.4 2336.08C3856.4 2330.54 3851.53 2326.05 3845.54 2326.05C3839.54 2326.05 3834.68 2330.54 3834.68 2336.08C3834.68 2341.63 3839.54 2346.12 3845.54 2346.12Z" fill="#F2F5F8"/>
<path d="M4172.56 1436.8C4178.56 1436.8 4183.42 1432.07 4183.42 1426.24C4183.42 1420.4 4178.56 1415.67 4172.56 1415.67C4166.56 1415.67 4161.7 1420.4 4161.7 1426.24C4161.7 1432.07 4166.56 1436.8 4172.56 1436.8Z" fill="#F2F5F8"/>
<path d="M1736.19 1027.02C1742.18 1027.02 1747.05 1022.29 1747.05 1016.46C1747.05 1010.63 1742.18 1005.9 1736.19 1005.9C1730.19 1005.9 1725.33 1010.63 1725.33 1016.46C1725.33 1022.29 1730.19 1027.02 1736.19 1027.02Z" fill="#F2F5F8"/>
<path d="M4205.14 1262.54C4211.14 1262.54 4216 1258.04 4216 1252.5C4216 1246.96 4211.14 1242.47 4205.14 1242.47C4199.14 1242.47 4194.28 1246.96 4194.28 1252.5C4194.28 1258.04 4199.14 1262.54 4205.14 1262.54Z" fill="#F2F5F8"/>
<path d="M1768.77 852.761C1774.77 852.761 1779.63 848.269 1779.63 842.728C1779.63 837.186 1774.77 832.694 1768.77 832.694C1762.77 832.694 1757.91 837.186 1757.91 842.728C1757.91 848.269 1762.77 852.761 1768.77 852.761Z" fill="#F2F5F8"/>
<path d="M4454.93 1231.91C4460.93 1231.91 4465.79 1227.42 4465.79 1221.87C4465.79 1216.33 4460.93 1211.84 4454.93 1211.84C4448.93 1211.84 4444.07 1216.33 4444.07 1221.87C4444.07 1227.42 4448.93 1231.91 4454.93 1231.91Z" fill="#F2F5F8"/>
<path d="M2019.77 822.133C2025.76 822.133 2030.63 817.641 2030.63 812.1C2030.63 806.559 2025.76 802.067 2019.77 802.067C2013.77 802.067 2008.91 806.559 2008.91 812.1C2008.91 817.641 2013.77 822.133 2019.77 822.133Z" fill="#F2F5F8"/>
<path d="M4042.23 1273.1C4048.23 1273.1 4053.09 1268.37 4053.09 1262.54C4053.09 1256.7 4048.23 1251.98 4042.23 1251.98C4036.23 1251.98 4031.37 1256.7 4031.37 1262.54C4031.37 1268.37 4036.23 1273.1 4042.23 1273.1Z" fill="#F2F5F8"/>
<path d="M1605.86 863.321C1611.86 863.321 1616.72 858.593 1616.72 852.76C1616.72 846.927 1611.86 842.199 1605.86 842.199C1599.86 842.199 1595 846.927 1595 852.76C1595 858.593 1599.86 863.321 1605.86 863.321Z" fill="#F2F5F8"/>
<path d="M4433.21 2151.79C4439.21 2151.79 4444.07 2147.3 4444.07 2141.76C4444.07 2136.22 4439.21 2131.72 4433.21 2131.72C4427.21 2131.72 4422.35 2136.22 4422.35 2141.76C4422.35 2147.3 4427.21 2151.79 4433.21 2151.79Z" fill="#F2F5F8"/>
<path d="M1998.05 1742.02C2004.04 1742.02 2008.91 1737.52 2008.91 1731.98C2008.91 1726.44 2004.04 1721.95 1998.05 1721.95C1992.05 1721.95 1987.18 1726.44 1987.18 1731.98C1987.18 1737.52 1992.05 1742.02 1998.05 1742.02Z" fill="#F2F5F8"/>
<path d="M4183.42 2438C4189.42 2438 4194.28 2433.51 4194.28 2427.97C4194.28 2422.43 4189.42 2417.93 4183.42 2417.93C4177.42 2417.93 4172.56 2422.43 4172.56 2427.97C4172.56 2433.51 4177.42 2438 4183.42 2438Z" fill="#F2F5F8"/>
</g>
<g filter="url(#filter1_d_186:671)">
<path d="M917.998 598.235C923.996 598.235 928.859 593.507 928.859 587.674C928.859 581.841 923.996 577.113 917.998 577.113C912 577.113 907.138 581.841 907.138 587.674C907.138 593.507 912 598.235 917.998 598.235Z" fill="#F2F5F8"/>
<path d="M2150.06 713.352C2156.06 713.352 2160.92 708.623 2160.92 702.79C2160.92 696.958 2156.06 692.229 2150.06 692.229C2144.06 692.229 2139.2 696.958 2139.2 702.79C2139.2 708.623 2144.06 713.352 2150.06 713.352Z" fill="#F2F5F8"/>
<path d="M2089.73 92.3525C2095.72 92.3525 2100.59 87.8605 2100.59 82.3193C2100.59 76.7781 2095.72 72.2861 2089.73 72.2861C2083.73 72.2861 2078.87 76.7781 2078.87 82.3193C2078.87 87.8605 2083.73 92.3525 2089.73 92.3525Z" fill="#F2F5F8"/>
<path d="M504.092 884.443C510.09 884.443 514.952 879.715 514.952 873.882C514.952 868.049 510.09 863.321 504.092 863.321C498.094 863.321 493.231 868.049 493.231 873.882C493.231 879.715 498.094 884.443 504.092 884.443Z" fill="#F2F5F8"/>
<path d="M1737.36 999.561C1743.36 999.561 1748.23 994.833 1748.23 989C1748.23 983.167 1743.36 978.439 1737.36 978.439C1731.37 978.439 1726.5 983.167 1726.5 989C1726.5 994.833 1731.37 999.561 1737.36 999.561Z" fill="#F2F5F8"/>
<path d="M1677.03 378.561C1683.02 378.561 1687.89 374.069 1687.89 368.528C1687.89 362.986 1683.02 358.494 1677.03 358.494C1671.03 358.494 1666.17 362.986 1666.17 368.528C1666.17 374.069 1671.03 378.561 1677.03 378.561Z" fill="#F2F5F8"/>
<path d="M1743.4 526.418C1749.4 526.418 1754.26 521.926 1754.26 516.385C1754.26 510.844 1749.4 506.352 1743.4 506.352C1737.4 506.352 1732.54 510.844 1732.54 516.385C1732.54 521.926 1737.4 526.418 1743.4 526.418Z" fill="#F2F5F8"/>
<path d="M2976.67 641.536C2982.67 641.536 2987.53 636.808 2987.53 630.975C2987.53 625.142 2982.67 620.414 2976.67 620.414C2970.67 620.414 2965.81 625.142 2965.81 630.975C2965.81 636.808 2970.67 641.536 2976.67 641.536Z" fill="#F2F5F8"/>
<path d="M2916.33 20.5358C2922.33 20.5358 2927.19 16.0438 2927.19 10.5026C2927.19 4.96148 2922.33 0.469482 2916.33 0.469482C2910.34 0.469482 2905.47 4.96148 2905.47 10.5026C2905.47 16.0438 2910.34 20.5358 2916.33 20.5358Z" fill="#F2F5F8"/>
<path d="M1808.56 1037.58C1814.56 1037.58 1819.42 1033.09 1819.42 1027.55C1819.42 1022.01 1814.56 1017.52 1808.56 1017.52C1802.56 1017.52 1797.7 1022.01 1797.7 1027.55C1797.7 1033.09 1802.56 1037.58 1808.56 1037.58Z" fill="#F2F5F8"/>
<path d="M3041.83 1152.7C3047.83 1152.7 3052.69 1147.97 3052.69 1142.14C3052.69 1136.3 3047.83 1131.58 3041.83 1131.58C3035.83 1131.58 3030.97 1136.3 3030.97 1142.14C3030.97 1147.97 3035.83 1152.7 3041.83 1152.7Z" fill="#F2F5F8"/>
<path d="M2981.49 531.7C2987.49 531.7 2992.35 527.208 2992.35 521.666C2992.35 516.125 2987.49 511.633 2981.49 511.633C2975.5 511.633 2970.63 516.125 2970.63 521.666C2970.63 527.208 2975.5 531.7 2981.49 531.7Z" fill="#F2F5F8"/>
<path d="M972.302 270.837C978.3 270.837 983.162 266.345 983.162 260.804C983.162 255.263 978.3 250.771 972.302 250.771C966.304 250.771 961.441 255.263 961.441 260.804C961.441 266.345 966.304 270.837 972.302 270.837Z" fill="#F2F5F8"/>
<path d="M2204.36 385.954C2210.36 385.954 2215.22 381.226 2215.22 375.393C2215.22 369.56 2210.36 364.832 2204.36 364.832C2198.37 364.832 2193.5 369.56 2193.5 375.393C2193.5 381.226 2198.37 385.954 2204.36 385.954Z" fill="#F2F5F8"/>
<path d="M558.396 557.046C564.394 557.046 569.256 552.554 569.256 547.012C569.256 541.471 564.394 536.979 558.396 536.979C552.398 536.979 547.535 541.471 547.535 547.012C547.535 552.554 552.398 557.046 558.396 557.046Z" fill="#F2F5F8"/>
<path d="M1791.67 672.163C1797.66 672.163 1802.53 667.434 1802.53 661.602C1802.53 655.769 1797.66 651.04 1791.67 651.04C1785.67 651.04 1780.81 655.769 1780.81 661.602C1780.81 667.434 1785.67 672.163 1791.67 672.163Z" fill="#F2F5F8"/>
<path d="M1731.33 51.1635C1737.33 51.1635 1742.19 46.6715 1742.19 41.1303C1742.19 35.5892 1737.33 31.0972 1731.33 31.0972C1725.33 31.0972 1720.47 35.5892 1720.47 41.1303C1720.47 46.6715 1725.33 51.1635 1731.33 51.1635Z" fill="#F2F5F8"/>
<path d="M1797.7 199.02C1803.7 199.02 1808.56 194.528 1808.56 188.987C1808.56 183.446 1803.7 178.954 1797.7 178.954C1791.7 178.954 1786.84 183.446 1786.84 188.987C1786.84 194.528 1791.7 199.02 1797.7 199.02Z" fill="#F2F5F8"/>
<path d="M3030.97 314.137C3036.97 314.137 3041.83 309.645 3041.83 304.104C3041.83 298.563 3036.97 294.071 3030.97 294.071C3024.97 294.071 3020.11 298.563 3020.11 304.104C3020.11 309.645 3024.97 314.137 3030.97 314.137Z" fill="#F2F5F8"/>
<path d="M1862.86 710.183C1868.86 710.183 1873.72 705.691 1873.72 700.15C1873.72 694.609 1868.86 690.117 1862.86 690.117C1856.86 690.117 1852 694.609 1852 700.15C1852 705.691 1856.86 710.183 1862.86 710.183Z" fill="#F2F5F8"/>
<path d="M3096.13 825.301C3102.13 825.301 3106.99 820.809 3106.99 815.268C3106.99 809.727 3102.13 805.235 3096.13 805.235C3090.13 805.235 3085.27 809.727 3085.27 815.268C3085.27 820.809 3090.13 825.301 3096.13 825.301Z" fill="#F2F5F8"/>
<path d="M3035.8 205.357C3041.79 205.357 3046.66 200.629 3046.66 194.796C3046.66 188.963 3041.79 184.235 3035.8 184.235C3029.8 184.235 3024.94 188.963 3024.94 194.796C3024.94 200.629 3029.8 205.357 3035.8 205.357Z" fill="#F2F5F8"/>
<path d="M199.998 260.276C205.996 260.276 210.859 255.784 210.859 250.243C210.859 244.702 205.996 240.21 199.998 240.21C194 240.21 189.138 244.702 189.138 250.243C189.138 255.784 194 260.276 199.998 260.276Z" fill="#F2F5F8"/>
<path d="M1433.27 375.393C1439.27 375.393 1444.13 370.901 1444.13 365.36C1444.13 359.818 1439.27 355.326 1433.27 355.326C1427.27 355.326 1422.41 359.818 1422.41 365.36C1422.41 370.901 1427.27 375.393 1433.27 375.393Z" fill="#F2F5F8"/>
<path d="M1026.6 189.516C1032.6 189.516 1037.46 184.787 1037.46 178.954C1037.46 173.121 1032.6 168.393 1026.6 168.393C1020.61 168.393 1015.74 173.121 1015.74 178.954C1015.74 184.787 1020.61 189.516 1026.6 189.516Z" fill="#F2F5F8"/>
<path d="M1091.77 700.678C1097.76 700.678 1102.63 695.95 1102.63 690.117C1102.63 684.284 1097.76 679.556 1091.77 679.556C1085.77 679.556 1080.91 684.284 1080.91 690.117C1080.91 695.95 1085.77 700.678 1091.77 700.678Z" fill="#F2F5F8"/>
<path d="M221.719 2110.6C227.717 2110.6 232.579 2106.11 232.579 2100.57C232.579 2095.03 227.717 2090.54 221.719 2090.54C215.721 2090.54 210.858 2095.03 210.858 2100.57C210.858 2106.11 215.721 2110.6 221.719 2110.6Z" fill="#F2F5F8"/>
<path d="M1048.32 2039.84C1054.32 2039.84 1059.18 2035.11 1059.18 2029.28C1059.18 2023.45 1054.32 2018.72 1048.32 2018.72C1042.33 2018.72 1037.46 2023.45 1037.46 2029.28C1037.46 2035.11 1042.33 2039.84 1048.32 2039.84Z" fill="#F2F5F8"/>
<path d="M2286.42 2090.54C2292.42 2090.54 2297.28 2086.04 2297.28 2080.5C2297.28 2074.96 2292.42 2070.47 2286.42 2070.47C2280.42 2070.47 2275.56 2074.96 2275.56 2080.5C2275.56 2086.04 2280.42 2090.54 2286.42 2090.54Z" fill="#F2F5F8"/>
<path d="M1873.72 2376.75C1879.72 2376.75 1884.58 2372.25 1884.58 2366.71C1884.58 2361.17 1879.72 2356.68 1873.72 2356.68C1867.72 2356.68 1862.86 2361.17 1862.86 2366.71C1862.86 2372.25 1867.72 2376.75 1873.72 2376.75Z" fill="#F2F5F8"/>
<path d="M3113.03 2018.72C3119.02 2018.72 3123.89 2014.23 3123.89 2008.69C3123.89 2003.14 3119.02 1998.65 3113.03 1998.65C3107.03 1998.65 3102.17 2003.14 3102.17 2008.69C3102.17 2014.23 3107.03 2018.72 3113.03 2018.72Z" fill="#F2F5F8"/>
<path d="M2570 1732.51C2576 1732.51 2580.86 1728.02 2580.86 1722.48C2580.86 1716.94 2576 1712.44 2570 1712.44C2564 1712.44 2559.14 1716.94 2559.14 1722.48C2559.14 1728.02 2564 1732.51 2570 1732.51Z" fill="#F2F5F8"/>
<path d="M2591.72 1548.75C2597.72 1548.75 2602.58 1544.25 2602.58 1538.71C2602.58 1533.17 2597.72 1528.68 2591.72 1528.68C2585.72 1528.68 2580.86 1533.17 2580.86 1538.71C2580.86 1544.25 2585.72 1548.75 2591.72 1548.75Z" fill="#F2F5F8"/>
<path d="M2830.65 1528.68C2836.65 1528.68 2841.51 1523.95 2841.51 1518.12C2841.51 1512.28 2836.65 1507.56 2830.65 1507.56C2824.66 1507.56 2819.79 1512.28 2819.79 1518.12C2819.79 1523.95 2824.66 1528.68 2830.65 1528.68Z" fill="#F2F5F8"/>
<path d="M2852.37 2326.05C2858.37 2326.05 2863.23 2321.32 2863.23 2315.49C2863.23 2309.66 2858.37 2304.93 2852.37 2304.93C2846.38 2304.93 2841.51 2309.66 2841.51 2315.49C2841.51 2321.32 2846.38 2326.05 2852.37 2326.05Z" fill="#F2F5F8"/>
<path d="M2874.1 1017.52C2880.09 1017.52 2884.96 1012.79 2884.96 1006.95C2884.96 1001.12 2880.09 996.393 2874.1 996.393C2868.1 996.393 2863.24 1001.12 2863.24 1006.95C2863.24 1012.79 2868.1 1017.52 2874.1 1017.52Z" fill="#F2F5F8"/>
<path d="M1406.72 740.811C1412.72 740.811 1417.58 736.319 1417.58 730.778C1417.58 725.236 1412.72 720.744 1406.72 720.744C1400.72 720.744 1395.86 725.236 1395.86 730.778C1395.86 736.319 1400.72 740.811 1406.72 740.811Z" fill="#F2F5F8"/>
<path d="M482.37 301.465C488.368 301.465 493.231 296.973 493.231 291.432C493.231 285.89 488.368 281.398 482.37 281.398C476.372 281.398 471.51 285.89 471.51 291.432C471.51 296.973 476.372 301.465 482.37 301.465Z" fill="#F2F5F8"/>
<path d="M1461.02 414.47C1467.02 414.47 1471.88 409.741 1471.88 403.908C1471.88 398.076 1467.02 393.347 1461.02 393.347C1455.03 393.347 1450.16 398.076 1450.16 403.908C1450.16 409.741 1455.03 414.47 1461.02 414.47Z" fill="#F2F5F8"/>
<path d="M689.927 403.908C695.925 403.908 700.787 399.416 700.787 393.875C700.787 388.334 695.925 383.842 689.927 383.842C683.929 383.842 679.066 388.334 679.066 393.875C679.066 399.416 683.929 403.908 689.927 403.908Z" fill="#F2F5F8"/>
<path d="M711.649 2254.23C717.647 2254.23 722.509 2249.51 722.509 2243.67C722.509 2237.84 717.647 2233.11 711.649 2233.11C705.651 2233.11 700.788 2237.84 700.788 2243.67C700.788 2249.51 705.651 2254.23 711.649 2254.23Z" fill="#F2F5F8"/>
<path d="M2776.35 2233.11C2782.35 2233.11 2787.21 2228.62 2787.21 2223.08C2787.21 2217.54 2782.35 2213.05 2776.35 2213.05C2770.35 2213.05 2765.49 2217.54 2765.49 2223.08C2765.49 2228.62 2770.35 2233.11 2776.35 2233.11Z" fill="#F2F5F8"/>
<path d="M1852 1793.77C1858 1793.77 1862.86 1789.27 1862.86 1783.73C1862.86 1778.19 1858 1773.7 1852 1773.7C1846 1773.7 1841.14 1778.19 1841.14 1783.73C1841.14 1789.27 1846 1793.77 1852 1793.77Z" fill="#F2F5F8"/>
<path d="M384.627 2407.37C390.625 2407.37 395.488 2402.88 395.488 2397.34C395.488 2391.8 390.625 2387.31 384.627 2387.31C378.629 2387.31 373.767 2391.8 373.767 2397.34C373.767 2402.88 378.629 2407.37 384.627 2407.37Z" fill="#F2F5F8"/>
<path d="M635.022 2376.75C641.354 2376.75 646.486 2372.25 646.486 2366.71C646.486 2361.17 641.354 2356.68 635.022 2356.68C628.691 2356.68 623.559 2361.17 623.559 2366.71C623.559 2372.25 628.691 2376.75 635.022 2376.75Z" fill="#F2F5F8"/>
<path d="M221.719 2417.93C227.717 2417.93 232.579 2413.21 232.579 2407.37C232.579 2401.54 227.717 2396.81 221.719 2396.81C215.721 2396.81 210.858 2401.54 210.858 2407.37C210.858 2413.21 215.721 2417.93 221.719 2417.93Z" fill="#F2F5F8"/>
<path d="M2450.53 2059.91C2456.53 2059.91 2461.39 2055.42 2461.39 2049.87C2461.39 2044.33 2456.53 2039.84 2450.53 2039.84C2444.54 2039.84 2439.67 2044.33 2439.67 2049.87C2439.67 2055.42 2444.54 2059.91 2450.53 2059.91Z" fill="#F2F5F8"/>
<path d="M14.1632 1650.13C20.1613 1650.13 25.0237 1645.64 25.0237 1640.1C25.0237 1634.56 20.1613 1630.07 14.1632 1630.07C8.16515 1630.07 3.30273 1634.56 3.30273 1640.1C3.30273 1645.64 8.16515 1650.13 14.1632 1650.13Z" fill="#F2F5F8"/>
<path d="M2199.54 2346.12C2205.53 2346.12 2210.4 2341.63 2210.4 2336.08C2210.4 2330.54 2205.53 2326.05 2199.54 2326.05C2193.54 2326.05 2188.68 2330.54 2188.68 2336.08C2188.68 2341.63 2193.54 2346.12 2199.54 2346.12Z" fill="#F2F5F8"/>
<path d="M2526.56 1436.8C2532.56 1436.8 2537.42 1432.07 2537.42 1426.24C2537.42 1420.4 2532.56 1415.67 2526.56 1415.67C2520.56 1415.67 2515.7 1420.4 2515.7 1426.24C2515.7 1432.07 2520.56 1436.8 2526.56 1436.8Z" fill="#F2F5F8"/>
<path d="M90.1857 1027.02C96.1838 1027.02 101.046 1022.29 101.046 1016.46C101.046 1010.63 96.1838 1005.9 90.1857 1005.9C84.1876 1005.9 79.3252 1010.63 79.3252 1016.46C79.3252 1022.29 84.1876 1027.02 90.1857 1027.02Z" fill="#F2F5F8"/>
<path d="M2559.14 1262.54C2565.14 1262.54 2570 1258.04 2570 1252.5C2570 1246.96 2565.14 1242.47 2559.14 1242.47C2553.14 1242.47 2548.28 1246.96 2548.28 1252.5C2548.28 1258.04 2553.14 1262.54 2559.14 1262.54Z" fill="#F2F5F8"/>
<path d="M122.769 852.761C128.767 852.761 133.629 848.269 133.629 842.728C133.629 837.186 128.767 832.694 122.769 832.694C116.771 832.694 111.908 837.186 111.908 842.728C111.908 848.269 116.771 852.761 122.769 852.761Z" fill="#F2F5F8"/>
<path d="M2808.93 1231.91C2814.93 1231.91 2819.79 1227.42 2819.79 1221.87C2819.79 1216.33 2814.93 1211.84 2808.93 1211.84C2802.93 1211.84 2798.07 1216.33 2798.07 1221.87C2798.07 1227.42 2802.93 1231.91 2808.93 1231.91Z" fill="#F2F5F8"/>
<path d="M373.767 822.133C379.765 822.133 384.627 817.641 384.627 812.1C384.627 806.559 379.765 802.067 373.767 802.067C367.769 802.067 362.906 806.559 362.906 812.1C362.906 817.641 367.769 822.133 373.767 822.133Z" fill="#F2F5F8"/>
<path d="M2396.23 1273.1C2402.23 1273.1 2407.09 1268.37 2407.09 1262.54C2407.09 1256.7 2402.23 1251.98 2396.23 1251.98C2390.23 1251.98 2385.37 1256.7 2385.37 1262.54C2385.37 1268.37 2390.23 1273.1 2396.23 1273.1Z" fill="#F2F5F8"/>
<path d="M2787.21 2151.79C2793.21 2151.79 2798.07 2147.3 2798.07 2141.76C2798.07 2136.22 2793.21 2131.72 2787.21 2131.72C2781.21 2131.72 2776.35 2136.22 2776.35 2141.76C2776.35 2147.3 2781.21 2151.79 2787.21 2151.79Z" fill="#F2F5F8"/>
<path d="M352.045 1742.02C358.043 1742.02 362.906 1737.52 362.906 1731.98C362.906 1726.44 358.043 1721.95 352.045 1721.95C346.047 1721.95 341.185 1726.44 341.185 1731.98C341.185 1737.52 346.047 1742.02 352.045 1742.02Z" fill="#F2F5F8"/>
<path d="M2537.42 2438C2543.42 2438 2548.28 2433.51 2548.28 2427.97C2548.28 2422.43 2543.42 2417.93 2537.42 2417.93C2531.42 2417.93 2526.56 2422.43 2526.56 2427.97C2526.56 2433.51 2531.42 2438 2537.42 2438Z" fill="#F2F5F8"/>
</g>
<g filter="url(#filter2_d_186:671)">
<path d="M3423.64 2774.11C3428.14 2778.08 3434.92 2777.75 3438.77 2773.37C3442.63 2769 3442.11 2762.24 3437.62 2758.27C3433.12 2754.3 3426.34 2754.63 3422.48 2759.01C3418.63 2763.38 3419.15 2770.14 3423.64 2774.11Z" fill="#F2F5F8"/>
<path d="M4271.54 3675.39C4276.04 3679.35 4282.82 3679.02 4286.67 3674.65C4290.53 3670.27 4290.01 3663.51 4285.51 3659.54C4281.02 3655.58 4274.24 3655.91 4270.38 3660.28C4266.53 3664.66 4267.04 3671.42 4271.54 3675.39Z" fill="#F2F5F8"/>
<path d="M4637.05 3169.73C4641.55 3173.7 4648.16 3173.55 4651.83 3169.39C4655.49 3165.23 4654.82 3158.65 4650.32 3154.68C4645.82 3150.71 4639.2 3150.87 4635.54 3155.02C4631.87 3159.18 4632.55 3165.76 4637.05 3169.73Z" fill="#F2F5F8"/>
<path d="M2923.91 2714.99C2928.4 2718.96 2935.18 2718.63 2939.04 2714.25C2942.89 2709.88 2942.38 2703.12 2937.88 2699.15C2933.38 2695.18 2926.6 2695.51 2922.75 2699.89C2918.89 2704.26 2919.41 2711.02 2923.91 2714.99Z" fill="#F2F5F8"/>
<path d="M3772.71 3617.07C3777.21 3621.03 3783.98 3620.7 3787.84 3616.33C3791.7 3611.95 3791.18 3605.19 3786.68 3601.22C3782.18 3597.26 3775.41 3597.59 3771.55 3601.96C3767.69 3606.34 3768.21 3613.1 3772.71 3617.07Z" fill="#F2F5F8"/>
<path d="M4138.21 3111.41C4142.71 3115.38 4149.33 3115.22 4153 3111.07C4156.66 3106.91 4155.98 3100.33 4151.49 3096.36C4146.99 3092.39 4140.37 3092.54 4136.7 3096.7C4133.04 3100.86 4133.71 3107.44 4138.21 3111.41Z" fill="#F2F5F8"/>
<path d="M4090.19 3266.2C4094.69 3270.17 4101.31 3270.02 4104.97 3265.86C4108.64 3261.7 4107.96 3255.12 4103.47 3251.15C4098.97 3247.18 4092.35 3247.34 4088.68 3251.49C4085.02 3255.65 4085.69 3262.23 4090.19 3266.2Z" fill="#F2F5F8"/>
<path d="M3680.93 2564.48C3685.42 2568.45 3692.04 2568.3 3695.71 2564.14C3699.37 2559.98 3698.7 2553.4 3694.2 2549.43C3689.7 2545.46 3683.08 2545.62 3679.42 2549.77C3675.75 2553.93 3676.43 2560.51 3680.93 2564.48Z" fill="#F2F5F8"/>
<path d="M4528.82 3465.76C4533.32 3469.72 4540.1 3469.39 4543.95 3465.02C4547.81 3460.65 4547.29 3453.88 4542.79 3449.92C4538.3 3445.95 4531.52 3446.28 4527.66 3450.65C4523.81 3455.03 4524.32 3461.79 4528.82 3465.76Z" fill="#F2F5F8"/>
<path d="M3181.19 2505.36C3185.69 2509.33 3192.3 2509.18 3195.97 2505.02C3199.63 2500.86 3198.96 2494.28 3194.46 2490.31C3189.96 2486.34 3183.34 2486.5 3179.68 2490.65C3176.01 2494.81 3176.69 2501.39 3181.19 2505.36Z" fill="#F2F5F8"/>
<path d="M4029.99 3407.44C4034.49 3411.4 4041.27 3411.07 4045.12 3406.7C4048.98 3402.32 4048.46 3395.56 4043.96 3391.59C4039.47 3387.63 4032.69 3387.96 4028.83 3392.33C4024.97 3396.71 4025.49 3403.47 4029.99 3407.44Z" fill="#F2F5F8"/>
<path d="M4395.49 2901.78C4399.99 2905.75 4406.61 2905.59 4410.28 2901.44C4413.94 2897.28 4413.27 2890.7 4408.77 2886.73C4404.27 2882.76 4397.65 2882.92 4393.99 2887.07C4390.32 2891.23 4391 2897.81 4395.49 2901.78Z" fill="#F2F5F8"/>
<path d="M4347.47 3056.57C4351.97 3060.54 4358.59 3060.39 4362.26 3056.23C4365.92 3052.08 4365.25 3045.49 4360.75 3041.52C4356.25 3037.56 4349.63 3037.71 4345.97 3041.86C4342.3 3046.02 4342.98 3052.61 4347.47 3056.57Z" fill="#F2F5F8"/>
<path d="M4058.24 3483.04C4062.74 3487.01 4069.36 3486.86 4073.02 3482.7C4076.69 3478.55 4076.01 3471.96 4071.51 3467.99C4067.01 3464.03 4060.4 3464.18 4056.73 3468.34C4053.07 3472.49 4053.74 3479.08 4058.24 3483.04Z" fill="#F2F5F8"/>
<path d="M3108.69 2045.73C3113.19 2049.69 3119.8 2049.54 3123.47 2045.39C3127.13 2041.23 3126.46 2034.64 3121.96 2030.68C3117.46 2026.71 3110.84 2026.86 3107.18 2031.02C3103.51 2035.17 3104.19 2041.76 3108.69 2045.73Z" fill="#F2F5F8"/>
<path d="M3957.49 2947.8C3961.99 2951.77 3968.61 2951.62 3972.27 2947.46C3975.94 2943.3 3975.26 2936.72 3970.76 2932.75C3966.27 2928.78 3959.65 2928.94 3955.98 2933.09C3952.32 2937.25 3952.99 2943.83 3957.49 2947.8Z" fill="#F2F5F8"/>
<path d="M3775.44 2539.41C3779.94 2543.38 3786.71 2543.05 3790.57 2538.67C3794.43 2534.3 3793.91 2527.53 3789.41 2523.57C3784.91 2519.6 3778.14 2519.93 3774.28 2524.3C3770.42 2528.68 3770.94 2535.44 3775.44 2539.41Z" fill="#F2F5F8"/>
<path d="M3486.21 2965.88C3490.71 2969.85 3497.48 2969.52 3501.34 2965.14C3505.2 2960.77 3504.68 2954.01 3500.18 2950.04C3495.68 2946.07 3488.91 2946.4 3485.05 2950.78C3481.19 2955.15 3481.71 2961.91 3486.21 2965.88Z" fill="#F2F5F8"/>
<path d="M1901.09 3447.83C1905.59 3451.8 1912.21 3451.65 1915.88 3447.49C1919.54 3443.33 1918.86 3436.75 1914.37 3432.78C1909.87 3428.81 1903.25 3428.97 1899.58 3433.12C1895.92 3437.28 1896.59 3443.86 1901.09 3447.83Z" fill="#F2F5F8"/>
<path d="M3695.88 3204.3C3700.38 3208.27 3706.99 3208.12 3710.66 3203.96C3714.33 3199.81 3713.65 3193.22 3709.15 3189.25C3704.65 3185.29 3698.03 3185.44 3694.37 3189.59C3690.7 3193.75 3691.38 3200.34 3695.88 3204.3Z" fill="#F2F5F8"/>
<path d="M3293.22 2263.39C3297.72 2267.36 3304.34 2267.21 3308 2263.05C3311.67 2258.89 3310.99 2252.31 3306.49 2248.34C3302 2244.37 3295.38 2244.53 3291.71 2248.68C3288.05 2252.84 3288.72 2259.42 3293.22 2263.39Z" fill="#F2F5F8"/>
<path d="M3952.46 2995.47C3956.96 2999.43 3963.73 2999.1 3967.59 2994.73C3971.45 2990.36 3970.93 2983.59 3966.43 2979.63C3961.93 2975.66 3955.16 2975.99 3951.3 2980.36C3947.44 2984.74 3947.96 2991.5 3952.46 2995.47Z" fill="#F2F5F8"/>
<path d="M3550.5 2053.76C3555 2057.73 3561.62 2057.58 3565.29 2053.42C3568.95 2049.26 3568.27 2042.68 3563.78 2038.71C3559.28 2034.75 3552.66 2034.9 3548.99 2039.05C3545.33 2043.21 3546 2049.79 3550.5 2053.76Z" fill="#F2F5F8"/>
<path d="M3381.13 2477.51C3385.63 2481.48 3392.24 2481.32 3395.91 2477.17C3399.57 2473.01 3398.9 2466.43 3394.4 2462.46C3389.9 2458.49 3383.28 2458.65 3379.62 2462.8C3375.95 2466.96 3376.63 2473.54 3381.13 2477.51Z" fill="#F2F5F8"/>
<path d="M1697.81 3678.33C1702.31 3682.3 1709.08 3681.97 1712.94 3677.59C1716.8 3673.22 1716.28 3666.45 1711.78 3662.49C1707.28 3658.52 1700.51 3658.85 1696.65 3663.22C1692.79 3667.6 1693.31 3674.36 1697.81 3678.33Z" fill="#F2F5F8"/>
<path d="M2050 2965.19C2054.5 2969.16 2061.12 2969.01 2064.78 2964.85C2068.45 2960.7 2067.77 2954.11 2063.27 2950.15C2058.78 2946.18 2052.16 2946.33 2048.49 2950.49C2044.83 2954.64 2045.5 2961.23 2050 2965.19Z" fill="#F2F5F8"/>
<path d="M2519.17 2548.15C2523.67 2552.12 2530.44 2551.79 2534.3 2547.41C2538.16 2543.04 2537.64 2536.27 2533.14 2532.31C2528.64 2528.34 2521.87 2528.67 2518.01 2533.04C2514.15 2537.42 2514.67 2544.18 2519.17 2548.15Z" fill="#F2F5F8"/>
<path d="M2658.87 2439C2663.37 2442.97 2669.99 2442.82 2673.65 2438.66C2677.32 2434.51 2676.64 2427.92 2672.14 2423.96C2667.64 2419.99 2661.03 2420.14 2657.36 2424.3C2653.7 2428.45 2654.37 2435.04 2658.87 2439Z" fill="#F2F5F8"/>
<path d="M2867.38 2582.06C2871.88 2586.02 2878.49 2585.87 2882.16 2581.71C2885.82 2577.56 2885.15 2570.97 2880.65 2567.01C2876.15 2563.04 2869.53 2563.19 2865.87 2567.35C2862.2 2571.5 2862.88 2578.09 2867.38 2582.06Z" fill="#F2F5F8"/>
<path d="M2529.71 2339.17C2534.2 2343.14 2540.98 2342.81 2544.84 2338.43C2548.69 2334.06 2548.18 2327.3 2543.68 2323.33C2539.18 2319.36 2532.4 2319.69 2528.55 2324.07C2524.69 2328.44 2525.21 2335.2 2529.71 2339.17Z" fill="#F2F5F8"/>
<path d="M2242.64 3257.6C2247.14 3261.56 2253.75 3261.41 2257.42 3257.25C2261.08 3253.1 2260.41 3246.51 2255.91 3242.55C2251.41 3238.58 2244.79 3238.73 2241.13 3242.89C2237.46 3247.04 2238.14 3253.63 2242.64 3257.6Z" fill="#F2F5F8"/>
</g>
<g filter="url(#filter3_d_186:671)">
<g filter="url(#filter4_d_186:671)">
<circle cx="493.118" cy="3055.21" r="2416.24" fill="#0C2E8A"/>
<g filter="url(#filter5_d_186:671)">
<path fill-rule="evenodd" clip-rule="evenodd" d="M491.954 532C-915.319 532 -2058 1660.66 -2058 3055.21C-2058 4449.76 -915.319 5578.42 491.954 5578.42C1899.23 5578.42 3041.91 4449.76 3041.91 3055.21C3041.91 1660.66 1899.23 532 491.954 532ZM-503.24 946.855C-497.392 940.842 -490.355 935.992 -482.705 932.554C-185.727 799.062 144.264 724.689 491.954 724.689C747.985 724.689 994.419 765.018 1225.14 839.585C1235.56 842.953 1245.29 848.557 1252.2 857.048C1282.68 894.445 1267.65 919.777 1248.81 951.547C1238.97 968.135 1228.09 986.479 1222.1 1009.21C1201.22 1088.05 1220.31 1241.15 1234.63 1321.31C1236.43 1331.4 1236.37 1341.79 1233.14 1351.51C1216.91 1400.26 1172.78 1474.43 1088.76 1471.31C1061.69 1470.37 1027.2 1466.72 989.636 1462.75C868.331 1449.91 715.078 1433.7 676.85 1494.58C659.329 1522.49 655.711 1554.59 651.93 1588.13C644.908 1650.42 637.323 1717.71 539.05 1772.44C387.866 1856.63 290.217 1987.39 351.186 2044.34C402.148 2091.95 777.965 2104.27 923.983 2109.05L923.995 2109.05C952.66 2109.99 972.467 2110.64 979.219 2111.21C1020.36 2114.67 1292.49 2151.82 1353.96 2358.85C1415.42 2565.87 1120.98 2659.98 929.155 2581.23C894.35 2566.94 851.892 2546.88 803.943 2524.22C587.615 2422.02 259.507 2267 18.0859 2350.92C-276.846 2453.44 -540.055 2728.82 -414.151 3273.63C-361.647 3502.33 -150.844 3478.62 51.0222 3455.91C236.034 3435.09 413.538 3415.12 454.784 3591.1C471.027 3665.29 449.804 3788.89 428.773 3911.36C418.357 3972.02 407.988 4032.41 402.241 4086.38C375.97 4342.44 508.814 4818.9 600.515 4825.33C789.371 4838.21 1285.06 4680.22 1339.09 4402.37C1393.11 4124.51 1446.15 3861.03 1604.28 3712.44C1696.88 3624.86 1775.31 3523.44 1836.75 3411.81C1859.07 3366.12 1793.9 3351.02 1712.42 3332.14C1609.29 3308.24 1480.03 3278.28 1468.96 3172.59C1449.45 2986.43 1722.69 3010.29 1867.93 3046.5C1872.64 3047.67 1877.33 3048.41 1882.19 3048.55C1975.7 3051.22 2144.59 3021.33 2126.73 2882.85C2103.96 2709.07 2438.99 2827.48 2528.37 2966.75C2532.44 2973.09 2534.81 2980.18 2536.57 2987.52C2574.41 3144.62 2789.15 3389.95 2672.97 3921.95C2671.64 3926.53 2651.24 3978.52 2649.43 3982.94C2300.81 4836.39 1482.21 5412.14 491.954 5412.14C-255.24 5412.14 -920.693 5043.11 -1352.43 4506.72C-1364.99 4491.12 -1364.88 4468.82 -1350.31 4455.08C-1245.5 4356.25 -1016.85 4257.44 -1114.05 3975.94C-1155.4 3861.57 -1165.11 3738.19 -1142.17 3618.77C-1119.93 3503 -1067.78 3395.11 -991 3305.77C-986.199 3300.19 -980.502 3295.57 -974.245 3291.68C-823.514 3198.05 -627.344 2967.36 -983.685 2746.16C-1438.72 2462.86 -1559.17 2341.52 -1528.94 2052.77C-1504.15 1821.47 -1243.92 1785.32 -1117.02 1795.72C-807.222 1853.67 -529.639 1643.67 -559.38 1420.79C-565.569 1374.41 -575.173 1333.39 -584.043 1295.49C-613 1171.8 -634.147 1081.48 -503.24 946.855Z" fill="#EAEEF2"/>
</g>
</g>
<g filter="url(#filter6_d_186:671)">
<path d="M1727.1 3413.18C1770.95 3338.89 1468.2 3360 1421.76 3239.99C1415.76 3224.5 1409.94 3208.43 1398.57 3196.33L972.575 2743.23C968.641 2739.04 964.359 2735.41 959.531 2732.3C797.978 2628.22 439.971 2458.94 185.955 2528.4C-71.8626 2598.91 -307.234 2805.14 -214.09 3233.75C-139.732 3578.57 463.735 3219.32 527.692 3508.87C545.493 3596.11 487.728 3766.76 468.052 3893.2C437.99 4091.93 539.095 4467.5 618.156 4475.44C780.989 4491.49 1213.89 4384.15 1268.56 4169.33C1323.24 3954.5 1376.65 3750.84 1517.56 3640.08C1600.1 3574.77 1670.79 3498.23 1727.1 3413.18Z" fill="#EAEEF2"/>
</g>
<g filter="url(#filter7_d_186:671)">
<path d="M1521.29 3383.45C1555.95 3328.87 1334.15 3335.91 1294.55 3248.84C1287.69 3233.73 1282.68 3217.23 1271.73 3204.76L962.957 2853.45C959.165 2849.14 954.974 2845.33 950.244 2842.08C828.614 2758.27 560.875 2621.23 365.889 2667.73C167.067 2715.15 -18.0368 2866.96 42.2912 3197.18C90.3849 3462.82 560.679 3203.26 602.224 3426.36C613.618 3493.54 565.149 3622.62 546.909 3718.84C518.901 3870.1 586.657 4159.94 646.877 4168.01C770.915 4184.4 1104.47 4113.23 1151.7 3950.28C1198.93 3787.33 1244.9 3632.89 1355.4 3551.72C1420.14 3503.85 1476.1 3447.08 1521.29 3383.45Z" fill="#EAEEF2"/>
</g>
<g filter="url(#filter8_d_186:671)">
<path d="M1327.41 3380.68C1353.11 3346.3 1212.84 3338.69 1181.5 3283.17C1173.34 3268.72 1169.98 3251.36 1160 3238.1L971.939 2988.21C968.485 2983.62 964.538 2979.45 960.052 2975.86C879.607 2911.52 704.145 2805.11 568.501 2826.75C428.964 2849.02 293.41 2943.96 317.684 3174.74C336.91 3360.38 674.699 3206.11 691.64 3362.08C695.973 3408.98 655.795 3495.42 638.178 3560.79C610.942 3663.58 642.453 3866.93 683.541 3875.65C768.182 3893.45 1001.84 3861.87 1042.94 3752.03C1084.03 3642.18 1123.82 3538.13 1204.25 3487.98C1251.38 3458.37 1292.93 3422.18 1327.41 3380.68Z" fill="#EAEEF2"/>
</g>
<g filter="url(#filter9_d_186:671)">
<path d="M1132.61 3339.45C1147.51 3319.77 1079.2 3312.09 1056.88 3282.53C1047.47 3270.05 1045.75 3252.81 1037.59 3239.48L945.683 3089.52C942.622 3084.53 939.026 3079.92 934.757 3075.91C889.934 3033.82 795.749 2966.81 718.846 2977.76C638.115 2989.26 556.939 3046.5 562.183 3191.98C566.231 3308.99 765.427 3218.08 769.279 3316.4C770.001 3345.96 743.755 3399.56 731.216 3440.33C711.767 3504.45 722.184 3632.81 745.383 3639.02C793.18 3651.72 928.152 3636.05 955.803 3567.75C983.453 3499.45 1010.14 3434.77 1058.07 3404.68C1086.16 3386.92 1111.31 3364.91 1132.61 3339.45Z" fill="#EAEEF2"/>
</g>
<g filter="url(#filter10_d_186:671)">
<path d="M1288.97 1118.56C1287.77 1122.28 1286.74 1126.13 1285.92 1130.12C1272.18 1196.36 1301.02 1322.29 1318.8 1383.33C1320.05 1387.62 1320.35 1392.12 1319.31 1396.46C1309.87 1435.96 1276.07 1504.13 1198.09 1507.85C1096.67 1512.93 874.746 1488.9 835.689 1556.03C796.632 1623.16 860.075 1709.34 731.971 1787.3C603.867 1865.25 526.079 1976.44 583.638 2017.43C641.197 2058.42 1106.25 2025.72 1142.82 2025.52C1179.15 2025.33 1418.94 2035.21 1488.55 2192.61C1489.49 2194.74 1490.14 2197.08 1490.49 2199.37C1557.27 2635.39 1653.56 2777.18 1992.6 2708.1C1994.11 2707.79 1995.66 2707.6 1997.21 2707.53C2078.37 2703.95 2229.11 2669.24 2207.3 2560.69C2206.91 2558.75 2206.64 2556.6 2206.67 2554.62C2208.76 2410.52 2479.39 2515.84 2540.34 2624.11C2606.47 2719.47 2708.22 3082.99 2763.96 3248.35C2783.48 3306.27 2816.13 3302.76 2839.55 3246.31C3238.08 2285.71 2334.28 1283.93 1433 1013.79C1401.94 1004.48 1298.89 1087.69 1288.97 1118.56Z" fill="#EAEEF2"/>
</g>
<g filter="url(#filter11_d_186:671)">
<path d="M2817.92 2970.5C2930.6 2231.87 2284.24 1452.29 1635.81 1208.21C1612.6 1199.48 1519.64 1258.88 1512.57 1282.65C1498.56 1329.39 1512.76 1420.47 1522.83 1466.55C1523.83 1471.12 1523.81 1475.83 1522.24 1480.23C1512.1 1508.66 1482.5 1554.2 1424.27 1552.76C1346.71 1551.03 1178.98 1521.66 1145.42 1568.41C1111.86 1615.16 1155.32 1681.26 1053.3 1731.12C951.285 1780.97 885.722 1857.71 927.258 1890.61C968.794 1923.52 1324.98 1924.62 1352.86 1926.44C1380.49 1928.24 1562.03 1948.2 1606.58 2065.87C1607.34 2067.89 1607.81 2069.97 1608.07 2072.11C1625.4 2213.25 1785.34 2462.2 1963.49 2468.33C2025.61 2470.47 2146.34 2453.4 2133.3 2370.61C2119.39 2283.5 2331.08 2322.22 2393.07 2385.4C2407.17 2399.78 2431.61 2416.6 2451.7 2415.16C2652.62 2400.77 2725.23 2754.51 2756.6 2969.26C2771.87 3073.84 2801.99 3074.98 2817.92 2970.5Z" fill="#EAEEF2"/>
</g>
<g filter="url(#filter12_d_186:671)">
<path d="M2542.76 2203.01C2518.59 1822.09 1985.96 1506.6 1701.6 1397.32C1690.02 1392.87 1630.73 1427.23 1626.89 1439.02C1618.11 1465.82 1626.25 1517.02 1632.71 1545.41C1633.83 1550.37 1633.85 1555.57 1631.76 1560.21C1624.07 1577.19 1604.88 1601.13 1569.26 1600.35C1518.73 1599.34 1409.47 1581.88 1387.59 1609.8C1365.71 1637.73 1393.99 1677.19 1327.51 1707C1261.03 1736.81 1218.29 1782.65 1245.33 1802.28C1272.38 1821.91 1504.42 1822.43 1522.58 1823.5C1539.52 1824.5 1645.19 1835.05 1681.77 1894.79C1686.75 1902.92 1683.9 1913.18 1683.48 1922.71C1681.45 1969.03 1795.89 2042.04 1856.65 2119.66C1912.04 2190.42 1879.52 2251.7 2007.83 2290.84C2009.32 2291.29 2010.99 2291.64 2012.53 2291.82C2160.47 2308.91 2133.35 2185.02 2206.55 2123.13C2209.32 2120.79 2212.75 2119.11 2216.26 2118.23C2319.85 2092.29 2392.26 2153.74 2440.52 2222.11C2503.02 2310.65 2549.63 2311.17 2542.76 2203.01Z" fill="#EAEEF2"/>
</g>
</g>
<path d="M4077.62 1094.04C4052.48 1090.14 4026.93 1089.61 4001.64 1092.45C3988.2 1093.9 3982.08 1090.75 3977.55 1081.27C3951.99 1024.26 3915.31 972.955 3869.64 930.358C3810.73 877.665 3735.3 846.24 3637.28 835.311C3631.64 835.149 3626.11 836.889 3621.58 840.251C3617.06 843.614 3613.79 848.403 3612.31 853.848C3598.72 894.05 3590.56 935.887 3588.06 978.246C3584.16 1046.02 3599.42 1113.51 3632.1 1172.97C3652.28 1209.75 3676.18 1244.36 3703.42 1276.26C3704.18 1277.33 3704.66 1278.56 3704.82 1279.86C3704.98 1281.16 3704.81 1282.48 3704.33 1283.7C3694.56 1305.43 3683.33 1327.17 3674.42 1349.04C3669.05 1360.14 3666.49 1372.4 3666.96 1384.73C3667.42 1397.06 3670.91 1409.08 3677.1 1419.74C3686.45 1435.22 3698.4 1448.96 3712.43 1460.35C3749.02 1489.01 3789.41 1512.43 3832.45 1529.94C3836.04 1531.62 3840.03 1532.26 3843.96 1531.79C3849.91 1531.42 3855.5 1528.85 3859.65 1524.58C3863.81 1520.31 3866.22 1514.64 3866.42 1508.69C3867.82 1477.04 3869.06 1445.32 3870.13 1413.55C3870.19 1411.54 3870.81 1409.59 3871.91 1407.9C3873 1406.21 3874.54 1404.86 3876.36 1404L3936.28 1365.48L3976.8 1424.73C3978.2 1427.35 3980.12 1429.65 3982.45 1431.49C3984.79 1433.33 3987.47 1434.67 3990.35 1435.42C3993.22 1436.17 3996.22 1436.31 3999.15 1435.85C4002.09 1435.38 4004.89 1434.31 4007.39 1432.7C4009.89 1431.1 4012.04 1428.99 4013.68 1426.52C4015.33 1424.04 4016.45 1421.25 4016.97 1418.33C4017.49 1415.4 4017.4 1412.4 4016.7 1409.51C4016.01 1406.62 4014.72 1403.91 4012.93 1401.54L3973.67 1341.84L4035.58 1301.86C4037.09 1300.57 4038.94 1299.73 4040.91 1299.45C4042.88 1299.17 4044.89 1299.46 4046.7 1300.29C4073.56 1311.39 4100.47 1322.33 4127.5 1332.95C4131.73 1334.79 4136.37 1335.48 4140.95 1334.96C4146.96 1334.49 4152.55 1331.71 4156.57 1327.21C4160.59 1322.72 4162.72 1316.84 4162.52 1310.81C4161.66 1282.83 4161.06 1255.66 4158.65 1227.47C4156.91 1195.88 4148.79 1164.97 4134.78 1136.62C4129.54 1125.33 4121.57 1115.53 4111.59 1108.09C4101.61 1100.66 4089.94 1095.83 4077.62 1094.04ZM3833.1 1414.38C3832.41 1437.62 3831.29 1461.06 3830.28 1486.18C3789.08 1465.09 3749.71 1443.95 3722.42 1411.2C3716.74 1405.65 3712.37 1398.9 3709.62 1391.43C3706.88 1383.97 3705.83 1376 3706.55 1368.08C3711.16 1346.41 3719.31 1325.64 3730.68 1306.63L3752.03 1328.28L3831.29 1407.89C3832.17 1408.78 3832.85 1409.84 3833.3 1411.01C3833.75 1412.18 3833.95 1413.43 3833.9 1414.68L3833.1 1414.38ZM3984.03 1200.71L4016.21 1275.29L4017.1 1277.81L3957.84 1316.02L3876.6 1190.16C3875.09 1187.75 3873.12 1185.66 3870.8 1184.03C3868.47 1182.39 3865.85 1181.23 3863.07 1180.62C3860.3 1180.01 3857.43 1179.97 3854.63 1180.48C3851.84 1181 3849.17 1182.06 3846.8 1183.62C3842 1186.73 3838.62 1191.61 3837.4 1197.19C3836.17 1202.78 3837.2 1208.62 3840.25 1213.45L3921.49 1339.31L3860.29 1378.82C3844.82 1362.96 3829.43 1347.86 3814.82 1332.14C3782.51 1297.19 3749.14 1263.13 3719.04 1226.63C3675.18 1175.98 3645.19 1114.83 3631.96 1049.11C3622.42 995.155 3624.94 939.745 3639.33 886.858L3643.13 871.499L3643.95 869.251C3653.2 870.815 3662.72 872.116 3671.86 874.001C3718.37 883.256 3762.68 901.325 3802.41 927.237C3840.03 953.08 3872.34 985.918 3897.58 1023.97C3933.09 1079.8 3962.61 1139.24 3985.64 1201.3L3984.03 1200.71ZM4097.58 1157.78C4110.39 1184.43 4117.98 1213.28 4119.94 1242.79C4121.55 1257.77 4122.23 1273.31 4123.4 1290.49C4099.69 1280.72 4077.85 1271.82 4056.18 1262.98C4054.64 1262.16 4053.45 1260.82 4052.83 1259.2L4002.02 1129.19C4001.51 1127.67 4001.11 1126.12 4000.81 1124.55C4023.76 1122.42 4046.91 1124.19 4069.28 1129.77C4076.01 1132.13 4082.16 1135.91 4087.31 1140.84C4092.47 1145.77 4096.52 1151.75 4099.18 1158.37L4097.58 1157.78Z" fill="#F2F5F8" stroke="#F2F5F8" stroke-width="5"/>
<path d="M3723.09 1007.81C3710.62 1015.94 3701.6 1028.4 3697.75 1042.78C3693.85 1057.5 3695.89 1073.16 3703.44 1086.37C3707.4 1093.37 3712.75 1099.49 3719.16 1104.35C3725.57 1109.2 3732.91 1112.7 3740.72 1114.62C3748.53 1116.54 3756.65 1116.85 3764.58 1115.52C3772.51 1114.19 3780.1 1111.25 3786.86 1106.88C3799.47 1098.58 3808.49 1085.82 3812.12 1071.16C3815.55 1056.28 3813.07 1040.64 3805.2 1027.57C3797.32 1014.49 3784.67 1005 3769.92 1001.1C3762.07 998.949 3753.87 998.436 3745.81 999.591C3737.76 1000.75 3730.02 1003.54 3723.09 1007.81ZM3729.45 1050.56C3731.17 1044.24 3735.11 1038.76 3740.55 1035.14C3743.62 1033.2 3747.05 1031.9 3750.64 1031.34C3754.22 1030.77 3757.88 1030.94 3761.4 1031.84C3766.29 1033.18 3770.7 1035.91 3774.09 1039.69C3777.49 1043.46 3779.72 1048.14 3780.53 1053.16C3781.34 1058.18 3780.69 1063.32 3778.66 1067.98C3776.63 1072.64 3773.3 1076.62 3769.08 1079.44C3766.07 1081.33 3762.7 1082.59 3759.19 1083.12C3755.68 1083.65 3752.1 1083.45 3748.67 1082.53C3741.94 1080.74 3736.18 1076.41 3732.6 1070.44C3729.01 1064.47 3727.88 1057.34 3729.45 1050.56Z" fill="#F2F5F8" stroke="#F2F5F8" stroke-width="5"/>
<path d="M3763.55 1032.93C3777.49 1038.03 3784.65 1053.47 3779.54 1067.43C3774.43 1081.39 3758.99 1088.56 3745.06 1083.46C3731.12 1078.36 3723.96 1062.92 3729.07 1048.96C3734.17 1035 3749.61 1027.83 3763.55 1032.93Z" fill="#50D8AF" stroke="#F2F5F8" stroke-width="5"/>
</g>
<defs>
<filter id="filter0_d_186:671" x="1577" y="-64" width="3210.89" height="2520" filterUnits="userSpaceOnUse" color-interpolation-filters="sRGB">
<feFlood flood-opacity="0" result="BackgroundImageFix"/>
<feColorMatrix in="SourceAlpha" type="matrix" values="0 0 0 0 0 0 0 0 0 0 0 0 0 0 0 0 0 0 127 0" result="hardAlpha"/>
<feOffset/>
<feGaussianBlur stdDeviation="9"/>
<feComposite in2="hardAlpha" operator="out"/>
<feColorMatrix type="matrix" values="0 0 0 0 1 0 0 0 0 1 0 0 0 0 1 0 0 0 1 0"/>
<feBlend mode="normal" in2="BackgroundImageFix" result="effect1_dropShadow_186:671"/>
<feBlend mode="normal" in="SourceGraphic" in2="effect1_dropShadow_186:671" result="shape"/>
</filter>
<filter id="filter1_d_186:671" x="-69" y="-64" width="3210.89" height="2520" filterUnits="userSpaceOnUse" color-interpolation-filters="sRGB">
<feFlood flood-opacity="0" result="BackgroundImageFix"/>
<feColorMatrix in="SourceAlpha" type="matrix" values="0 0 0 0 0 0 0 0 0 0 0 0 0 0 0 0 0 0 127 0" result="hardAlpha"/>
<feOffset/>
<feGaussianBlur stdDeviation="9"/>
<feComposite in2="hardAlpha" operator="out"/>
<feColorMatrix type="matrix" values="0 0 0 0 1 0 0 0 0 1 0 0 0 0 1 0 0 0 1 0"/>
<feBlend mode="normal" in2="BackgroundImageFix" result="effect1_dropShadow_186:671"/>
<feBlend mode="normal" in="SourceGraphic" in2="effect1_dropShadow_186:671" result="shape"/>
</filter>
<filter id="filter2_d_186:671" x="1671.67" y="2005.49" width="3672.25" height="3369.13" filterUnits="userSpaceOnUse" color-interpolation-filters="sRGB">
<feFlood flood-opacity="0" result="BackgroundImageFix"/>
<feColorMatrix in="SourceAlpha" type="matrix" values="0 0 0 0 0 0 0 0 0 0 0 0 0 0 0 0 0 0 127 0" result="hardAlpha"/>
<feOffset/>
<feGaussianBlur stdDeviation="9"/>
<feComposite in2="hardAlpha" operator="out"/>
<feColorMatrix type="matrix" values="0 0 0 0 1 0 0 0 0 1 0 0 0 0 1 0 0 0 1 0"/>
<feBlend mode="normal" in2="BackgroundImageFix" result="effect1_dropShadow_186:671"/>
<feBlend mode="normal" in="SourceGraphic" in2="effect1_dropShadow_186:671" result="shape"/>
</filter>
<filter id="filter3_d_186:671" x="-2170" y="420" width="5323.91" height="5270.42" filterUnits="userSpaceOnUse" color-interpolation-filters="sRGB">
<feFlood flood-opacity="0" result="BackgroundImageFix"/>
<feColorMatrix in="SourceAlpha" type="matrix" values="0 0 0 0 0 0 0 0 0 0 0 0 0 0 0 0 0 0 127 0" result="hardAlpha"/>
<feOffset/>
<feGaussianBlur stdDeviation="56"/>
<feComposite in2="hardAlpha" operator="out"/>
<feColorMatrix type="matrix" values="0 0 0 0 1 0 0 0 0 1 0 0 0 0 1 0 0 0 1 0"/>
<feBlend mode="normal" in2="BackgroundImageFix" result="effect1_dropShadow_186:671"/>
<feBlend mode="normal" in="SourceGraphic" in2="effect1_dropShadow_186:671" result="shape"/>
</filter>
<filter id="filter4_d_186:671" x="-2146" y="448" width="5275.91" height="5222.42" filterUnits="userSpaceOnUse" color-interpolation-filters="sRGB">
<feFlood flood-opacity="0" result="BackgroundImageFix"/>
<feColorMatrix in="SourceAlpha" type="matrix" values="0 0 0 0 0 0 0 0 0 0 0 0 0 0 0 0 0 0 127 0" result="hardAlpha"/>
<feMorphology radius="62" operator="dilate" in="SourceAlpha" result="effect1_dropShadow_186:671"/>
<feOffset dy="4"/>
<feGaussianBlur stdDeviation="13"/>
<feComposite in2="hardAlpha" operator="out"/>
<feColorMatrix type="matrix" values="0 0 0 0 0.0470588 0 0 0 0 0.180392 0 0 0 0 0.541176 0 0 0 0.39 0"/>
<feBlend mode="normal" in2="BackgroundImageFix" result="effect1_dropShadow_186:671"/>
<feBlend mode="normal" in="SourceGraphic" in2="effect1_dropShadow_186:671" result="shape"/>
</filter>
<filter id="filter5_d_186:671" x="-2077" y="517" width="5137.91" height="5084.42" filterUnits="userSpaceOnUse" color-interpolation-filters="sRGB">
<feFlood flood-opacity="0" result="BackgroundImageFix"/>
<feColorMatrix in="SourceAlpha" type="matrix" values="0 0 0 0 0 0 0 0 0 0 0 0 0 0 0 0 0 0 127 0" result="hardAlpha"/>
<feOffset dy="4"/>
<feGaussianBlur stdDeviation="9.5"/>
<feComposite in2="hardAlpha" operator="out"/>
<feColorMatrix type="matrix" values="0 0 0 0 0 0 0 0 0 0 0 0 0 0 0 0 0 0 1 0"/>
<feBlend mode="normal" in2="BackgroundImageFix" result="effect1_dropShadow_186:671"/>
<feBlend mode="normal" in="SourceGraphic" in2="effect1_dropShadow_186:671" result="shape"/>
</filter>
<filter id="filter6_d_186:671" x="-374.592" y="2408.13" width="2224.8" height="2199.42" filterUnits="userSpaceOnUse" color-interpolation-filters="sRGB">
<feFlood flood-opacity="0" result="BackgroundImageFix"/>
<feColorMatrix in="SourceAlpha" type="matrix" values="0 0 0 0 0 0 0 0 0 0 0 0 0 0 0 0 0 0 127 0" result="hardAlpha"/>
<feMorphology radius="62" operator="dilate" in="SourceAlpha" result="effect1_dropShadow_186:671"/>
<feOffset dy="4"/>
<feGaussianBlur stdDeviation="13"/>
<feComposite in2="hardAlpha" operator="out"/>
<feColorMatrix type="matrix" values="0 0 0 0 0.0470588 0 0 0 0 0.180392 0 0 0 0 0.541176 0 0 0 0.39 0"/>
<feBlend mode="normal" in2="BackgroundImageFix" result="effect1_dropShadow_186:671"/>
<feBlend mode="normal" in="SourceGraphic" in2="effect1_dropShadow_186:671" result="shape"/>
</filter>
<filter id="filter7_d_186:671" x="-131.738" y="2545.87" width="1789.34" height="1771.9" filterUnits="userSpaceOnUse" color-interpolation-filters="sRGB">
<feFlood flood-opacity="0" result="BackgroundImageFix"/>
<feColorMatrix in="SourceAlpha" type="matrix" values="0 0 0 0 0 0 0 0 0 0 0 0 0 0 0 0 0 0 127 0" result="hardAlpha"/>
<feMorphology radius="62" operator="dilate" in="SourceAlpha" result="effect1_dropShadow_186:671"/>
<feOffset dy="4"/>
<feGaussianBlur stdDeviation="13"/>
<feComposite in2="hardAlpha" operator="out"/>
<feColorMatrix type="matrix" values="0 0 0 0 0.0470588 0 0 0 0 0.180392 0 0 0 0 0.541176 0 0 0 0.39 0"/>
<feBlend mode="normal" in2="BackgroundImageFix" result="effect1_dropShadow_186:671"/>
<feBlend mode="normal" in="SourceGraphic" in2="effect1_dropShadow_186:671" result="shape"/>
</filter>
<filter id="filter8_d_186:671" x="122.001" y="2700.65" width="1360.68" height="1349.71" filterUnits="userSpaceOnUse" color-interpolation-filters="sRGB">
<feFlood flood-opacity="0" result="BackgroundImageFix"/>
<feColorMatrix in="SourceAlpha" type="matrix" values="0 0 0 0 0 0 0 0 0 0 0 0 0 0 0 0 0 0 127 0" result="hardAlpha"/>
<feMorphology radius="62" operator="dilate" in="SourceAlpha" result="effect1_dropShadow_186:671"/>
<feOffset dy="4"/>
<feGaussianBlur stdDeviation="13"/>
<feComposite in2="hardAlpha" operator="out"/>
<feColorMatrix type="matrix" values="0 0 0 0 0.0470588 0 0 0 0 0.180392 0 0 0 0 0.541176 0 0 0 0.39 0"/>
<feBlend mode="normal" in2="BackgroundImageFix" result="effect1_dropShadow_186:671"/>
<feBlend mode="normal" in="SourceGraphic" in2="effect1_dropShadow_186:671" result="shape"/>
</filter>
<filter id="filter9_d_186:671" x="388.84" y="2863.57" width="886.944" height="929.458" filterUnits="userSpaceOnUse" color-interpolation-filters="sRGB">
<feFlood flood-opacity="0" result="BackgroundImageFix"/>
<feColorMatrix in="SourceAlpha" type="matrix" values="0 0 0 0 0 0 0 0 0 0 0 0 0 0 0 0 0 0 127 0" result="hardAlpha"/>
<feMorphology radius="62" operator="dilate" in="SourceAlpha" result="effect1_dropShadow_186:671"/>
<feOffset dy="4"/>
<feGaussianBlur stdDeviation="13"/>
<feComposite in2="hardAlpha" operator="out"/>
<feColorMatrix type="matrix" values="0 0 0 0 0.0470588 0 0 0 0 0.180392 0 0 0 0 0.541176 0 0 0 0.39 0"/>
<feBlend mode="normal" in2="BackgroundImageFix" result="effect1_dropShadow_186:671"/>
<feBlend mode="normal" in="SourceGraphic" in2="effect1_dropShadow_186:671" result="shape"/>
</filter>
<filter id="filter10_d_186:671" x="403.688" y="818.133" width="2666.37" height="2736.34" filterUnits="userSpaceOnUse" color-interpolation-filters="sRGB">
<feFlood flood-opacity="0" result="BackgroundImageFix"/>
<feColorMatrix in="SourceAlpha" type="matrix" values="0 0 0 0 0 0 0 0 0 0 0 0 0 0 0 0 0 0 127 0" result="hardAlpha"/>
<feMorphology radius="62" operator="dilate" in="SourceAlpha" result="effect1_dropShadow_186:671"/>
<feOffset dy="4"/>
<feGaussianBlur stdDeviation="13"/>
<feComposite in2="hardAlpha" operator="out"/>
<feColorMatrix type="matrix" values="0 0 0 0 0.0470588 0 0 0 0 0.180392 0 0 0 0 0.541176 0 0 0 0.39 0"/>
<feBlend mode="normal" in2="BackgroundImageFix" result="effect1_dropShadow_186:671"/>
<feBlend mode="normal" in="SourceGraphic" in2="effect1_dropShadow_186:671" result="shape"/>
</filter>
<filter id="filter11_d_186:671" x="821.756" y="1114.51" width="2098.92" height="2039.62" filterUnits="userSpaceOnUse" color-interpolation-filters="sRGB">
<feFlood flood-opacity="0" result="BackgroundImageFix"/>
<feColorMatrix in="SourceAlpha" type="matrix" values="0 0 0 0 0 0 0 0 0 0 0 0 0 0 0 0 0 0 127 0" result="hardAlpha"/>
<feMorphology radius="62" operator="dilate" in="SourceAlpha" result="effect1_dropShadow_186:671"/>
<feOffset dy="4"/>
<feGaussianBlur stdDeviation="13"/>
<feComposite in2="hardAlpha" operator="out"/>
<feColorMatrix type="matrix" values="0 0 0 0 0.0470588 0 0 0 0 0.180392 0 0 0 0 0.541176 0 0 0 0.39 0"/>
<feBlend mode="normal" in2="BackgroundImageFix" result="effect1_dropShadow_186:671"/>
<feBlend mode="normal" in="SourceGraphic" in2="effect1_dropShadow_186:671" result="shape"/>
</filter>
<filter id="filter12_d_186:671" x="1146.23" y="1306.69" width="1485.71" height="1084.67" filterUnits="userSpaceOnUse" color-interpolation-filters="sRGB">
<feFlood flood-opacity="0" result="BackgroundImageFix"/>
<feColorMatrix in="SourceAlpha" type="matrix" values="0 0 0 0 0 0 0 0 0 0 0 0 0 0 0 0 0 0 127 0" result="hardAlpha"/>
<feMorphology radius="62" operator="dilate" in="SourceAlpha" result="effect1_dropShadow_186:671"/>
<feOffset dy="4"/>
<feGaussianBlur stdDeviation="13"/>
<feComposite in2="hardAlpha" operator="out"/>
<feColorMatrix type="matrix" values="0 0 0 0 0.0470588 0 0 0 0 0.180392 0 0 0 0 0.541176 0 0 0 0.39 0"/>
<feBlend mode="normal" in2="BackgroundImageFix" result="effect1_dropShadow_186:671"/>
<feBlend mode="normal" in="SourceGraphic" in2="effect1_dropShadow_186:671" result="shape"/>
</filter>
<clipPath id="clip0_186:671">
<rect width="4770" height="3656" rx="327" fill="white"/>
</clipPath>
</defs>
</svg>
