<svg width="234" height="152" viewBox="0 0 234 152" fill="none" xmlns="http://www.w3.org/2000/svg">
<g filter="url(#filter0_i_214:442)">
<path d="M154.035 40.0018C153.975 39.9994 153.915 40.0054 153.855 40.0162L153.376 40.1038C153.316 40.1146 153.258 40.1307 153.202 40.1519L131.669 48.2734C131.452 48.3552 131.213 48.3591 130.994 48.2844L106.983 40.1077C106.778 40.0378 106.555 40.0365 106.349 40.1041L83.48 47.6C82.6167 47.88 82 48.6 82 49.52V110C82 111.09 82.8574 111.953 83.965 111.998C84.0252 112.001 84.0853 111.995 84.1446 111.984L84.6244 111.896C84.6836 111.885 84.7416 111.869 84.7979 111.848L106.331 103.727C106.548 103.645 106.787 103.641 107.006 103.716L131.017 111.892C131.222 111.962 131.445 111.963 131.651 111.896L154.52 104.4C155.383 104.12 156 103.4 156 102.48V42C156 40.9095 155.143 40.0466 154.035 40.0018ZM110.778 51.2769C110.778 50.5916 111.451 50.1094 112.1 50.3303L126.545 55.2492C126.95 55.3872 127.222 55.7678 127.222 56.1959V100.723C127.222 101.408 126.549 101.891 125.9 101.67L111.455 96.7508C111.05 96.6128 110.778 96.2322 110.778 95.8041V51.2769ZM90.2222 54.5647C90.2222 54.1324 90.5001 53.749 90.9109 53.6144L101.244 50.2295C101.891 50.0177 102.556 50.4995 102.556 51.1799V95.9078C102.556 96.3242 102.297 96.6971 101.908 96.8437L91.5743 100.731C90.9204 100.977 90.2222 100.494 90.2222 99.7954V54.5647ZM147.778 97.4353C147.778 97.8676 147.5 98.251 147.089 98.3856L136.756 101.77C136.109 101.982 135.444 101.501 135.444 100.82V56.1322C135.444 55.7158 135.703 55.3429 136.092 55.1963L146.426 51.3087C147.08 51.0627 147.778 51.546 147.778 52.2446V97.4353Z" fill="#50D8AF" fill-opacity="0.9"/>
</g>
<g filter="url(#filter1_d_214:442)">
<path d="M62.7099 78.1912H69.211V90.807C67.5418 92.0804 65.609 93.0577 63.4127 93.7388C61.2164 94.42 59.0054 94.7605 56.7798 94.7605C53.5879 94.7605 50.718 94.0794 48.1703 92.7171C45.6226 91.3253 43.6166 89.4151 42.1524 86.9867C40.7175 84.5287 40 81.7598 40 78.6799C40 75.6 40.7175 72.8458 42.1524 70.4174C43.6166 67.9594 45.6372 66.0493 48.2142 64.687C50.7912 63.2951 53.6904 62.5992 56.9116 62.5992C59.6058 62.5992 62.051 63.0582 64.2473 63.9763C66.4436 64.8943 68.2885 66.227 69.782 67.9742L65.2137 72.2387C63.0174 69.8992 60.3671 68.7294 57.263 68.7294C55.301 68.7294 53.5586 69.144 52.0358 69.9732C50.513 70.8024 49.327 71.9722 48.4778 73.4825C47.6285 74.9929 47.2039 76.7253 47.2039 78.6799C47.2039 80.6048 47.6285 82.3225 48.4778 83.8328C49.327 85.3431 50.4984 86.5277 51.9919 87.3865C53.5146 88.2157 55.2424 88.6303 57.1752 88.6303C59.2251 88.6303 61.07 88.1861 62.7099 87.2977V78.1912Z" fill="#0C2E8A"/>
<path d="M84.87 69.9732C88.5305 69.9732 91.3418 70.8616 93.3038 72.6385C95.2659 74.3858 96.2469 77.0363 96.2469 80.59V94.2275H89.8337V91.2512C88.5452 93.4723 86.1439 94.5828 82.6298 94.5828C80.8141 94.5828 79.2328 94.2719 77.8857 93.65C76.5679 93.0281 75.5576 92.1693 74.8548 91.0735C74.152 89.9778 73.8006 88.734 73.8006 87.3421C73.8006 85.121 74.6205 83.3738 76.2604 82.1003C77.9296 80.8269 80.492 80.1902 83.9475 80.1902H89.3944C89.3944 78.6799 88.9405 77.5249 88.0327 76.7253C87.1249 75.8961 85.7632 75.4815 83.9475 75.4815C82.6883 75.4815 81.4437 75.6888 80.2138 76.1034C79.0132 76.4884 77.9882 77.0215 77.139 77.7026L74.6791 72.8606C75.9676 71.9426 77.505 71.2318 79.2914 70.7284C81.107 70.2249 82.9665 69.9732 84.87 69.9732ZM84.3429 89.9186C85.5143 89.9186 86.5538 89.652 87.4616 89.119C88.3695 88.5563 89.0137 87.7419 89.3944 86.6758V84.2326H84.6943C81.883 84.2326 80.4774 85.1654 80.4774 87.0312C80.4774 87.9196 80.8141 88.6303 81.4877 89.1634C82.1905 89.6668 83.1422 89.9186 84.3429 89.9186Z" fill="#0C2E8A"/>
<path d="M102.449 61.2666H109.301V94.2275H102.449V61.2666Z" fill="#0C2E8A"/>
<path d="M115.661 70.3286H122.513V94.2275H115.661V70.3286ZM119.087 66.997C117.828 66.997 116.803 66.6268 116.012 65.8864C115.222 65.1461 114.826 64.228 114.826 63.1323C114.826 62.0365 115.222 61.1185 116.012 60.3781C116.803 59.6378 117.828 59.2676 119.087 59.2676C120.346 59.2676 121.371 59.623 122.162 60.3337C122.953 61.0444 123.348 61.9329 123.348 62.999C123.348 64.154 122.953 65.1164 122.162 65.8864C121.371 66.6268 120.346 66.997 119.087 66.997Z" fill="#0C2E8A"/>
<path d="M128.873 61.2666H135.726V94.2275H128.873V61.2666Z" fill="#0C2E8A"/>
<path d="M165.234 82.3669C165.234 82.4557 165.191 83.0776 165.103 84.2326H147.225C147.547 85.7133 148.308 86.8831 149.509 87.7419C150.71 88.6007 152.203 89.0301 153.989 89.0301C155.219 89.0301 156.303 88.8524 157.24 88.4971C158.206 88.1121 159.099 87.5198 159.919 86.7202L163.565 90.7182C161.34 93.2946 158.089 94.5828 153.814 94.5828C151.149 94.5828 148.791 94.0646 146.742 93.0281C144.692 91.962 143.11 90.496 141.997 88.6303C140.885 86.7646 140.328 84.6472 140.328 82.278C140.328 79.9385 140.87 77.8359 141.954 75.9701C143.066 74.0748 144.574 72.6089 146.478 71.5724C148.411 70.5063 150.563 69.9732 152.935 69.9732C155.249 69.9732 157.342 70.4767 159.217 71.4836C161.091 72.4904 162.555 73.9416 163.609 75.8369C164.693 77.7026 165.234 79.8793 165.234 82.3669ZM152.979 75.215C151.427 75.215 150.124 75.6592 149.07 76.5476C148.015 77.4361 147.371 78.6503 147.137 80.1902H158.777C158.543 78.6799 157.899 77.4805 156.845 76.5921C155.79 75.674 154.502 75.215 152.979 75.215Z" fill="#0C2E8A"/>
<path d="M181.042 94.5828C178.553 94.5828 176.312 94.0646 174.321 93.0281C172.359 91.962 170.822 90.496 169.709 88.6303C168.596 86.7646 168.04 84.6472 168.04 82.278C168.04 79.9089 168.596 77.7914 169.709 75.9257C170.822 74.06 172.359 72.6089 174.321 71.5724C176.312 70.5063 178.553 69.9732 181.042 69.9732C183.531 69.9732 185.757 70.5063 187.719 71.5724C189.681 72.6089 191.218 74.06 192.331 75.9257C193.444 77.7914 194 79.9089 194 82.278C194 84.6472 193.444 86.7646 192.331 88.6303C191.218 90.496 189.681 91.962 187.719 93.0281C185.757 94.0646 183.531 94.5828 181.042 94.5828ZM181.042 88.8969C182.799 88.8969 184.234 88.3046 185.347 87.12C186.489 85.9058 187.06 84.2918 187.06 82.278C187.06 80.2642 186.489 78.6651 185.347 77.4805C184.234 76.2663 182.799 75.6592 181.042 75.6592C179.285 75.6592 177.835 76.2663 176.693 77.4805C175.551 78.6651 174.98 80.2642 174.98 82.278C174.98 84.2918 175.551 85.9058 176.693 87.12C177.835 88.3046 179.285 88.8969 181.042 88.8969Z" fill="#0C2E8A"/>
</g>
<defs>
<filter id="filter0_i_214:442" x="82" y="40.002" width="74" height="75.9961" filterUnits="userSpaceOnUse" color-interpolation-filters="sRGB">
<feFlood flood-opacity="0" result="BackgroundImageFix"/>
<feBlend mode="normal" in="SourceGraphic" in2="BackgroundImageFix" result="shape"/>
<feColorMatrix in="SourceAlpha" type="matrix" values="0 0 0 0 0 0 0 0 0 0 0 0 0 0 0 0 0 0 127 0" result="hardAlpha"/>
<feOffset dy="4"/>
<feGaussianBlur stdDeviation="2"/>
<feComposite in2="hardAlpha" operator="arithmetic" k2="-1" k3="1"/>
<feColorMatrix type="matrix" values="0 0 0 0 0.17276 0 0 0 0 0.60224 0 0 0 0 0.472764 0 0 0 0.48 0"/>
<feBlend mode="normal" in2="shape" result="effect1_innerShadow_214:442"/>
</filter>
<filter id="filter1_d_214:442" x="36" y="57.2676" width="162" height="43.4922" filterUnits="userSpaceOnUse" color-interpolation-filters="sRGB">
<feFlood flood-opacity="0" result="BackgroundImageFix"/>
<feColorMatrix in="SourceAlpha" type="matrix" values="0 0 0 0 0 0 0 0 0 0 0 0 0 0 0 0 0 0 127 0" result="hardAlpha"/>
<feOffset dy="2"/>
<feGaussianBlur stdDeviation="2"/>
<feComposite in2="hardAlpha" operator="out"/>
<feColorMatrix type="matrix" values="0 0 0 0 0.0470588 0 0 0 0 0.180392 0 0 0 0 0.541176 0 0 0 0.25 0"/>
<feBlend mode="normal" in2="BackgroundImageFix" result="effect1_dropShadow_214:442"/>
<feBlend mode="normal" in="SourceGraphic" in2="effect1_dropShadow_214:442" result="shape"/>
</filter>
</defs>
</svg>
