<svg width="200" height="204" viewBox="0 0 200 204" fill="none" xmlns="http://www.w3.org/2000/svg">
<g filter="url(#filter0_d_214:458)">
<g filter="url(#filter1_i_214:458)">
<path d="M159.999 154.254L115.428 164V51.1938L158.756 40.3123C159.387 40.1537 159.999 40.6312 159.999 41.2822V154.254Z" fill="#F2F5F8"/>
</g>
<g filter="url(#filter2_i_214:458)">
<path d="M79.4277 40L115.428 51.1944V164L79.4277 152.43V40Z" fill="#F2F5F8"/>
</g>
<g filter="url(#filter3_i_214:458)">
<path d="M40 50.5218C40 50.0619 40.3137 49.6612 40.7602 49.551L79.4286 40V152.815L41.2729 163.639C40.6345 163.82 40 163.34 40 162.677V50.5218Z" fill="#F2F5F8"/>
</g>
</g>
<path d="M63.484 103.263H67.9166V111.438C66.7785 112.263 65.4607 112.897 63.9632 113.338C62.4657 113.779 60.9582 114 59.4408 114C57.2644 114 55.3077 113.559 53.5706 112.676C51.8336 111.774 50.4659 110.536 49.4675 108.962C48.4892 107.37 48 105.575 48 103.579C48 101.584 48.4892 99.7989 49.4675 98.2253C50.4659 96.6325 51.8435 95.3947 53.6006 94.5119C55.3577 93.6099 57.3343 93.1589 59.5306 93.1589C61.3676 93.1589 63.0348 93.4564 64.5322 94.0513C66.0297 94.6462 67.2876 95.5098 68.3059 96.6421L65.1911 99.4055C63.6937 97.8894 61.8867 97.1314 59.7702 97.1314C58.4325 97.1314 57.2445 97.4001 56.2062 97.9374C55.168 98.4748 54.3593 99.2328 53.7803 100.212C53.2013 101.19 52.9118 102.313 52.9118 103.579C52.9118 104.827 53.2013 105.94 53.7803 106.919C54.3593 107.897 55.158 108.665 56.1763 109.222C57.2145 109.759 58.3926 110.028 59.7103 110.028C61.108 110.028 62.3659 109.74 63.484 109.164V103.263Z" fill="#0C2E8A"/>
<path d="M78.5932 97.9374C81.089 97.9374 83.0058 98.5131 84.3435 99.6646C85.6813 100.797 86.3502 102.514 86.3502 104.817V113.655H81.9775V111.726C81.099 113.165 79.4617 113.885 77.0657 113.885C75.8278 113.885 74.7496 113.683 73.8312 113.28C72.9327 112.877 72.2438 112.321 71.7646 111.611C71.2854 110.901 71.0458 110.095 71.0458 109.193C71.0458 107.753 71.6049 106.621 72.723 105.796C73.8611 104.971 75.6082 104.558 77.9642 104.558H81.678C81.678 103.579 81.3685 102.831 80.7496 102.313C80.1306 101.776 79.2022 101.507 77.9642 101.507C77.1057 101.507 76.2571 101.641 75.4185 101.91C74.5999 102.159 73.9011 102.505 73.322 102.946L71.6448 99.8085C72.5234 99.2136 73.5716 98.753 74.7896 98.4268C76.0275 98.1005 77.2954 97.9374 78.5932 97.9374ZM78.2338 110.862C79.0324 110.862 79.7413 110.69 80.3602 110.344C80.9792 109.98 81.4184 109.452 81.678 108.761V107.178H78.4734C76.5566 107.178 75.5982 107.782 75.5982 108.991C75.5982 109.567 75.8278 110.028 76.287 110.373C76.7662 110.699 77.4152 110.862 78.2338 110.862Z" fill="#0C2E8A"/>
<path d="M90.5787 92.2954H95.2508V113.655H90.5787V92.2954Z" fill="#0C2E8A"/>
<path d="M99.587 98.1677H104.259V113.655H99.587V98.1677ZM101.923 96.0088C101.065 96.0088 100.366 95.7689 99.8266 95.2891C99.2875 94.8093 99.018 94.2144 99.018 93.5044C99.018 92.7943 99.2875 92.1994 99.8266 91.7197C100.366 91.2399 101.065 91 101.923 91C102.782 91 103.48 91.2303 104.02 91.6909C104.559 92.1514 104.828 92.7272 104.828 93.418C104.828 94.1665 104.559 94.7902 104.02 95.2891C103.48 95.7689 102.782 96.0088 101.923 96.0088Z" fill="#0C2E8A"/>
<path d="M108.595 92.2954H113.267V113.655H108.595V92.2954Z" fill="#0C2E8A"/>
<path d="M133.387 105.969C133.387 106.026 133.357 106.429 133.297 107.178H121.108C121.327 108.137 121.847 108.895 122.665 109.452C123.484 110.008 124.502 110.287 125.72 110.287C126.559 110.287 127.297 110.171 127.936 109.941C128.595 109.692 129.204 109.308 129.763 108.79L132.249 111.38C130.732 113.05 128.515 113.885 125.6 113.885C123.783 113.885 122.176 113.549 120.778 112.877C119.381 112.186 118.302 111.237 117.544 110.028C116.785 108.819 116.406 107.446 116.406 105.911C116.406 104.395 116.775 103.033 117.514 101.824C118.273 100.595 119.301 99.6454 120.599 98.9737C121.916 98.2829 123.384 97.9374 125.001 97.9374C126.579 97.9374 128.006 98.2637 129.284 98.9161C130.562 99.5686 131.56 100.509 132.279 101.737C133.018 102.946 133.387 104.357 133.387 105.969ZM125.031 101.334C123.973 101.334 123.084 101.622 122.366 102.198C121.647 102.773 121.208 103.56 121.048 104.558H128.985C128.825 103.579 128.386 102.802 127.667 102.227C126.948 101.632 126.069 101.334 125.031 101.334Z" fill="#0C2E8A"/>
<path d="M144.165 113.885C142.468 113.885 140.94 113.549 139.583 112.877C138.245 112.186 137.197 111.237 136.438 110.028C135.679 108.819 135.3 107.446 135.3 105.911C135.3 104.376 135.679 103.004 136.438 101.795C137.197 100.586 138.245 99.6454 139.583 98.9737C140.94 98.2829 142.468 97.9374 144.165 97.9374C145.862 97.9374 147.379 98.2829 148.717 98.9737C150.055 99.6454 151.103 100.586 151.862 101.795C152.621 103.004 153 104.376 153 105.911C153 107.446 152.621 108.819 151.862 110.028C151.103 111.237 150.055 112.186 148.717 112.877C147.379 113.549 145.862 113.885 144.165 113.885ZM144.165 110.2C145.363 110.2 146.341 109.816 147.1 109.049C147.879 108.262 148.268 107.216 148.268 105.911C148.268 104.606 147.879 103.57 147.1 102.802C146.341 102.015 145.363 101.622 144.165 101.622C142.967 101.622 141.979 102.015 141.2 102.802C140.421 103.57 140.032 104.606 140.032 105.911C140.032 107.216 140.421 108.262 141.2 109.049C141.979 109.816 142.967 110.2 144.165 110.2Z" fill="#0C2E8A"/>
<defs>
<filter id="filter0_d_214:458" x="40" y="40" width="128" height="133" filterUnits="userSpaceOnUse" color-interpolation-filters="sRGB">
<feFlood flood-opacity="0" result="BackgroundImageFix"/>
<feColorMatrix in="SourceAlpha" type="matrix" values="0 0 0 0 0 0 0 0 0 0 0 0 0 0 0 0 0 0 127 0" result="hardAlpha"/>
<feOffset dx="4" dy="5"/>
<feGaussianBlur stdDeviation="2"/>
<feComposite in2="hardAlpha" operator="out"/>
<feColorMatrix type="matrix" values="0 0 0 0 0 0 0 0 0 0 0 0 0 0 0 0 0 0 0.25 0"/>
<feBlend mode="normal" in2="BackgroundImageFix" result="effect1_dropShadow_214:458"/>
<feBlend mode="normal" in="SourceGraphic" in2="effect1_dropShadow_214:458" result="shape"/>
</filter>
<filter id="filter1_i_214:458" x="115.428" y="39.2812" width="46.5723" height="124.719" filterUnits="userSpaceOnUse" color-interpolation-filters="sRGB">
<feFlood flood-opacity="0" result="BackgroundImageFix"/>
<feBlend mode="normal" in="SourceGraphic" in2="BackgroundImageFix" result="shape"/>
<feColorMatrix in="SourceAlpha" type="matrix" values="0 0 0 0 0 0 0 0 0 0 0 0 0 0 0 0 0 0 127 0" result="hardAlpha"/>
<feOffset dx="2" dy="-1"/>
<feGaussianBlur stdDeviation="4"/>
<feComposite in2="hardAlpha" operator="arithmetic" k2="-1" k3="1"/>
<feColorMatrix type="matrix" values="0 0 0 0 0.254902 0 0 0 0 0.254902 0 0 0 0 0.431373 0 0 0 0.35 0"/>
<feBlend mode="normal" in2="shape" result="effect1_innerShadow_214:458"/>
</filter>
<filter id="filter2_i_214:458" x="79.4277" y="39" width="38" height="125" filterUnits="userSpaceOnUse" color-interpolation-filters="sRGB">
<feFlood flood-opacity="0" result="BackgroundImageFix"/>
<feBlend mode="normal" in="SourceGraphic" in2="BackgroundImageFix" result="shape"/>
<feColorMatrix in="SourceAlpha" type="matrix" values="0 0 0 0 0 0 0 0 0 0 0 0 0 0 0 0 0 0 127 0" result="hardAlpha"/>
<feOffset dx="2" dy="-1"/>
<feGaussianBlur stdDeviation="4"/>
<feComposite in2="hardAlpha" operator="arithmetic" k2="-1" k3="1"/>
<feColorMatrix type="matrix" values="0 0 0 0 0.254902 0 0 0 0 0.254902 0 0 0 0 0.431373 0 0 0 0.35 0"/>
<feBlend mode="normal" in2="shape" result="effect1_innerShadow_214:458"/>
</filter>
<filter id="filter3_i_214:458" x="40" y="39" width="41.4277" height="124.678" filterUnits="userSpaceOnUse" color-interpolation-filters="sRGB">
<feFlood flood-opacity="0" result="BackgroundImageFix"/>
<feBlend mode="normal" in="SourceGraphic" in2="BackgroundImageFix" result="shape"/>
<feColorMatrix in="SourceAlpha" type="matrix" values="0 0 0 0 0 0 0 0 0 0 0 0 0 0 0 0 0 0 127 0" result="hardAlpha"/>
<feOffset dx="2" dy="-1"/>
<feGaussianBlur stdDeviation="4"/>
<feComposite in2="hardAlpha" operator="arithmetic" k2="-1" k3="1"/>
<feColorMatrix type="matrix" values="0 0 0 0 0.254902 0 0 0 0 0.254902 0 0 0 0 0.431373 0 0 0 0.35 0"/>
<feBlend mode="normal" in2="shape" result="effect1_innerShadow_214:458"/>
</filter>
</defs>
</svg>
