<svg width="152" height="152" viewBox="0 0 152 152" fill="none" xmlns="http://www.w3.org/2000/svg">
<g filter="url(#filter0_d_214:434)">
<path d="M109.509 40.0022C109.446 39.9993 109.383 40.006 109.321 40.0179L108.881 40.1023C108.819 40.1141 108.759 40.1316 108.701 40.1547L88.236 48.2612C88.0103 48.3507 87.7596 48.3549 87.531 48.2731L64.7303 40.1182C64.5164 40.0417 64.2829 40.0403 64.0681 40.1142L42.3232 47.6C41.5012 47.88 40.9141 48.6 40.9141 49.52V110C40.9141 111.087 41.7259 111.949 42.7763 111.998C42.8393 112.001 42.9024 111.994 42.9645 111.982L43.405 111.898C43.4665 111.886 43.5268 111.868 43.5851 111.845L64.0496 103.739C64.2754 103.649 64.526 103.645 64.7547 103.727L87.5553 111.882C87.7692 111.958 88.0028 111.96 88.2176 111.886L109.962 104.4C110.784 104.12 111.372 103.4 111.372 102.48V42C111.372 40.9126 110.56 40.0514 109.509 40.0022ZM68.3142 51.2997C68.3142 50.608 68.9997 50.1252 69.651 50.3581L83.3082 55.2428C83.706 55.3851 83.9714 55.7619 83.9714 56.1844V100.7C83.9714 101.392 83.286 101.875 82.6347 101.642L68.9774 96.7572C68.5797 96.6149 68.3142 96.2381 68.3142 95.8156V51.2997ZM48.7427 54.5535C48.7427 54.1266 49.0137 53.7468 49.4174 53.6079L59.1603 50.256C59.8095 50.0326 60.4856 50.515 60.4856 51.2016V95.9199C60.4856 96.3303 60.2348 96.6991 59.8531 96.8499L50.1102 100.7C49.4539 100.959 48.7427 100.475 48.7427 99.7696V54.5535ZM103.543 97.4465C103.543 97.8734 103.272 98.2532 102.868 98.3921L93.1254 101.744C92.4761 101.967 91.8 101.485 91.8 100.798V56.1201C91.8 55.7097 92.0508 55.3409 92.4326 55.1901L102.175 51.3403C102.832 51.081 103.543 51.5647 103.543 52.2704V97.4465Z" fill="#50D8AF"/>
</g>
<defs>
<filter id="filter0_d_214:434" x="40.9141" y="40.002" width="83.457" height="83.9961" filterUnits="userSpaceOnUse" color-interpolation-filters="sRGB">
<feFlood flood-opacity="0" result="BackgroundImageFix"/>
<feColorMatrix in="SourceAlpha" type="matrix" values="0 0 0 0 0 0 0 0 0 0 0 0 0 0 0 0 0 0 127 0" result="hardAlpha"/>
<feOffset dx="9" dy="8"/>
<feGaussianBlur stdDeviation="2"/>
<feComposite in2="hardAlpha" operator="out"/>
<feColorMatrix type="matrix" values="0 0 0 0 0 0 0 0 0 0 0 0 0 0 0 0 0 0 0.25 0"/>
<feBlend mode="normal" in2="BackgroundImageFix" result="effect1_dropShadow_214:434"/>
<feBlend mode="normal" in="SourceGraphic" in2="effect1_dropShadow_214:434" result="shape"/>
</filter>
</defs>
</svg>
