<svg width="254" height="152" viewBox="0 0 254 152" fill="none" xmlns="http://www.w3.org/2000/svg">
<g opacity="0.54" filter="url(#filter0_d_214:454)">
<path d="M108.595 40.0022C108.532 39.9993 108.469 40.006 108.407 40.0179L107.967 40.1023C107.905 40.1141 107.845 40.1316 107.786 40.1547L87.322 48.2612C87.0962 48.3507 86.8456 48.3549 86.6169 48.2731L63.8163 40.1182C63.6024 40.0417 63.3688 40.0403 63.154 40.1142L41.4092 47.6C40.5871 47.88 40 48.6 40 49.52V110C40 111.087 40.8118 111.949 41.8622 111.998C41.9253 112.001 41.9884 111.994 42.0504 111.982L42.4909 111.898C42.5525 111.886 42.6128 111.868 42.671 111.845L63.1355 103.739C63.3613 103.649 63.6119 103.645 63.8406 103.727L86.6412 111.882C86.8551 111.958 87.0887 111.96 87.3035 111.886L109.048 104.4C109.87 104.12 110.458 103.4 110.458 102.48V42C110.458 40.9126 109.646 40.0514 108.595 40.0022ZM67.4001 51.2997C67.4001 50.608 68.0856 50.1252 68.7369 50.3581L82.3941 55.2428C82.7919 55.3851 83.0574 55.7619 83.0574 56.1844V100.7C83.0574 101.392 82.3719 101.875 81.7206 101.642L68.0634 96.7572C67.6656 96.6149 67.4001 96.2381 67.4001 95.8156V51.2997ZM47.8286 54.5535C47.8286 54.1266 48.0996 53.7468 48.5033 53.6079L58.2462 50.256C58.8955 50.0326 59.5715 50.515 59.5715 51.2016V95.9199C59.5715 96.3303 59.3207 96.6991 58.939 96.8499L49.1961 100.7C48.5398 100.959 47.8286 100.475 47.8286 99.7696V54.5535ZM102.629 97.4465C102.629 97.8734 102.358 98.2532 101.954 98.3921L92.2113 101.744C91.5621 101.967 90.886 101.485 90.886 100.798V56.1201C90.886 55.7097 91.1368 55.3409 91.5185 55.1901L101.261 51.3403C101.918 51.081 102.629 51.5647 102.629 52.2704V97.4465Z" fill="#EAEEF2"/>
</g>
<path d="M82.7099 76.9237H89.211V89.5394C87.5418 90.8128 85.609 91.7901 83.4127 92.4713C81.2164 93.1524 79.0054 93.493 76.7798 93.493C73.5879 93.493 70.718 92.8118 68.1703 91.4496C65.6226 90.0577 63.6166 88.1475 62.1524 85.7192C60.7175 83.2612 60 80.4922 60 77.4123C60 74.3324 60.7175 71.5782 62.1524 69.1499C63.6166 66.6919 65.6372 64.7817 68.2142 63.4195C70.7912 62.0276 73.6904 61.3316 76.9116 61.3316C79.6058 61.3316 82.051 61.7907 84.2473 62.7087C86.4436 63.6268 88.2885 64.9594 89.782 66.7067L85.2137 70.9711C83.0174 68.6316 80.3671 67.4618 77.263 67.4618C75.301 67.4618 73.5586 67.8764 72.0358 68.7056C70.513 69.5348 69.327 70.7046 68.4778 72.215C67.6285 73.7253 67.2039 75.4577 67.2039 77.4123C67.2039 79.3372 67.6285 81.0549 68.4778 82.5652C69.327 84.0756 70.4984 85.2601 71.9919 86.1189C73.5146 86.9482 75.2424 87.3628 77.1752 87.3628C79.2251 87.3628 81.07 86.9185 82.7099 86.0301V76.9237Z" fill="#0C2E8A"/>
<path d="M104.87 68.7056C108.531 68.7056 111.342 69.5941 113.304 71.3709C115.266 73.1182 116.247 75.7687 116.247 79.3224V92.9599H109.834V89.9836C108.545 92.2047 106.144 93.3153 102.63 93.3153C100.814 93.3153 99.2328 93.0043 97.8857 92.3824C96.5679 91.7605 95.5576 90.9017 94.8548 89.806C94.152 88.7102 93.8006 87.4664 93.8006 86.0745C93.8006 83.8534 94.6205 82.1062 96.2604 80.8328C97.9296 79.5593 100.492 78.9226 103.948 78.9226H109.394C109.394 77.4123 108.94 76.2573 108.033 75.4577C107.125 74.6285 105.763 74.2139 103.948 74.2139C102.688 74.2139 101.444 74.4212 100.214 74.8358C99.0132 75.2208 97.9882 75.7539 97.139 76.435L94.6791 71.593C95.9676 70.675 97.505 69.9643 99.2914 69.4608C101.107 68.9574 102.967 68.7056 104.87 68.7056ZM104.343 88.651C105.514 88.651 106.554 88.3845 107.462 87.8514C108.369 87.2887 109.014 86.4743 109.394 85.4082V82.965H104.694C101.883 82.965 100.477 83.8979 100.477 85.7636C100.477 86.652 100.814 87.3628 101.488 87.8958C102.19 88.3993 103.142 88.651 104.343 88.651Z" fill="#0C2E8A"/>
<path d="M122.449 59.999H129.301V92.9599H122.449V59.999Z" fill="#0C2E8A"/>
<path d="M135.661 69.061H142.513V92.9599H135.661V69.061ZM139.087 65.7294C137.828 65.7294 136.803 65.3592 136.012 64.6188C135.222 63.8785 134.826 62.9604 134.826 61.8647C134.826 60.769 135.222 59.8509 136.012 59.1105C136.803 58.3702 137.828 58 139.087 58C140.346 58 141.371 58.3554 142.162 59.0661C142.953 59.7769 143.348 60.6653 143.348 61.7314C143.348 62.8864 142.953 63.8489 142.162 64.6188C141.371 65.3592 140.346 65.7294 139.087 65.7294Z" fill="#0C2E8A"/>
<path d="M148.873 59.999H155.726V92.9599H148.873V59.999Z" fill="#0C2E8A"/>
<path d="M185.234 81.0993C185.234 81.1881 185.191 81.81 185.103 82.965H167.225C167.547 84.4457 168.308 85.6155 169.509 86.4743C170.71 87.3331 172.203 87.7626 173.989 87.7626C175.219 87.7626 176.303 87.5849 177.24 87.2295C178.206 86.8445 179.099 86.2522 179.919 85.4526L183.565 89.4506C181.34 92.027 178.089 93.3153 173.814 93.3153C171.149 93.3153 168.791 92.797 166.742 91.7605C164.692 90.6944 163.11 89.2285 161.997 87.3628C160.885 85.497 160.328 83.3796 160.328 81.0105C160.328 78.6709 160.87 76.5683 161.954 74.7026C163.066 72.8072 164.574 71.3413 166.478 70.3048C168.411 69.2387 170.563 68.7056 172.935 68.7056C175.249 68.7056 177.342 69.2091 179.217 70.216C181.091 71.2229 182.555 72.674 183.609 74.5693C184.693 76.435 185.234 78.6117 185.234 81.0993ZM172.979 73.9474C171.427 73.9474 170.124 74.3916 169.07 75.2801C168.015 76.1685 167.371 77.3827 167.137 78.9226H178.777C178.543 77.4123 177.899 76.2129 176.845 75.3245C175.79 74.4064 174.502 73.9474 172.979 73.9474Z" fill="#0C2E8A"/>
<path d="M201.042 93.3153C198.553 93.3153 196.312 92.797 194.321 91.7605C192.359 90.6944 190.822 89.2285 189.709 87.3628C188.596 85.497 188.04 83.3796 188.04 81.0105C188.04 78.6413 188.596 76.5239 189.709 74.6581C190.822 72.7924 192.359 71.3413 194.321 70.3048C196.312 69.2387 198.553 68.7056 201.042 68.7056C203.531 68.7056 205.757 69.2387 207.719 70.3048C209.681 71.3413 211.218 72.7924 212.331 74.6581C213.444 76.5239 214 78.6413 214 81.0105C214 83.3796 213.444 85.497 212.331 87.3628C211.218 89.2285 209.681 90.6944 207.719 91.7605C205.757 92.797 203.531 93.3153 201.042 93.3153ZM201.042 87.6293C202.799 87.6293 204.234 87.037 205.347 85.8524C206.489 84.6382 207.06 83.0242 207.06 81.0105C207.06 78.9967 206.489 77.3975 205.347 76.2129C204.234 74.9987 202.799 74.3916 201.042 74.3916C199.285 74.3916 197.835 74.9987 196.693 76.2129C195.551 77.3975 194.98 78.9967 194.98 81.0105C194.98 83.0242 195.551 84.6382 196.693 85.8524C197.835 87.037 199.285 87.6293 201.042 87.6293Z" fill="#0C2E8A"/>
<defs>
<filter id="filter0_d_214:454" x="36" y="40.002" width="78.457" height="79.9961" filterUnits="userSpaceOnUse" color-interpolation-filters="sRGB">
<feFlood flood-opacity="0" result="BackgroundImageFix"/>
<feColorMatrix in="SourceAlpha" type="matrix" values="0 0 0 0 0 0 0 0 0 0 0 0 0 0 0 0 0 0 127 0" result="hardAlpha"/>
<feOffset dy="4"/>
<feGaussianBlur stdDeviation="2"/>
<feComposite in2="hardAlpha" operator="out"/>
<feColorMatrix type="matrix" values="0 0 0 0 0 0 0 0 0 0 0 0 0 0 0 0 0 0 0.25 0"/>
<feBlend mode="normal" in2="BackgroundImageFix" result="effect1_dropShadow_214:454"/>
<feBlend mode="normal" in="SourceGraphic" in2="effect1_dropShadow_214:454" result="shape"/>
</filter>
</defs>
</svg>
