<svg width="300" height="148" viewBox="0 0 300 148" fill="none" xmlns="http://www.w3.org/2000/svg">
<circle cx="154.029" cy="37.1151" r="6.35143" fill="#50D8AF"/>
<path d="M63.2942 76.6904H73.6841V96.7224C71.0164 98.7445 67.9275 100.296 64.4174 101.378C60.9074 102.459 57.3739 103 53.817 103C48.7157 103 44.1292 101.919 40.0575 99.7555C35.9858 97.5454 32.7799 94.5123 30.4399 90.6564C28.1466 86.7534 27 82.3567 27 77.4663C27 72.5758 28.1466 68.2026 30.4399 64.3467C32.7799 60.4437 36.0092 57.4107 40.1277 55.2476C44.2462 53.0375 48.8795 51.9325 54.0276 51.9325C58.3333 51.9325 62.2412 52.6613 65.7513 54.1191C69.2614 55.5768 72.2098 57.6929 74.5967 60.4672L67.2957 67.2386C63.7856 63.5238 59.5501 61.6664 54.5892 61.6664C51.4536 61.6664 48.6689 62.3247 46.2352 63.6413C43.8016 64.958 41.9061 66.8154 40.5489 69.2136C39.1917 71.6118 38.5131 74.3627 38.5131 77.4663C38.5131 80.5228 39.1917 83.2502 40.5489 85.6484C41.9061 88.0466 43.7782 89.9275 46.165 91.2912C48.5987 92.6079 51.36 93.2662 54.4488 93.2662C57.7249 93.2662 60.6734 92.5609 63.2942 91.1501V76.6904Z" fill="#0C2E8A"/>
<path d="M98.7098 63.6413C104.56 63.6413 109.053 65.052 112.189 67.8735C115.324 70.6479 116.892 74.8565 116.892 80.4993V102.154H106.643V97.4278C104.583 100.955 100.746 102.718 95.1295 102.718C92.2279 102.718 89.7006 102.224 87.5478 101.237C85.4417 100.249 83.8271 98.8855 82.7039 97.1457C81.5806 95.4058 81.019 93.4308 81.019 91.2207C81.019 87.6939 82.3295 84.9195 84.9503 82.8975C87.618 80.8755 91.7131 79.8645 97.2356 79.8645H105.941C105.941 77.4663 105.215 75.6324 103.764 74.3627C102.314 73.0461 100.137 72.3877 97.2356 72.3877C95.2231 72.3877 93.2341 72.7169 91.2685 73.3752C89.3496 73.9865 87.7116 74.833 86.3543 75.9145L82.4231 68.2261C84.4823 66.7684 86.9394 65.6398 89.7942 64.8404C92.6959 64.041 95.6678 63.6413 98.7098 63.6413ZM97.8674 95.3117C99.7395 95.3117 101.401 94.8885 102.852 94.0421C104.303 93.1486 105.332 91.8555 105.941 90.1627V86.2832H98.429C93.9361 86.2832 91.6897 87.7644 91.6897 90.7269C91.6897 92.1376 92.2279 93.2662 93.3043 94.1126C94.4275 94.912 95.9486 95.3117 97.8674 95.3117Z" fill="#0C2E8A"/>
<path d="M126.804 49.8164H137.755V102.154H126.804V49.8164Z" fill="#0C2E8A"/>
<path d="M147.919 64.2056H158.87V102.154H147.919V64.2056Z" fill="#0C2E8A"/>
<path d="M169.034 49.8164H179.986V102.154H169.034V49.8164Z" fill="#0C2E8A"/>
<path d="M227.146 83.3207C227.146 83.4618 227.076 84.4493 226.935 86.2832H198.363C198.878 88.6344 200.095 90.4918 202.014 91.8555C203.932 93.2192 206.319 93.901 209.174 93.901C211.14 93.901 212.871 93.6189 214.369 93.0546C215.914 92.4433 217.341 91.5028 218.651 90.2332L224.478 96.5814C220.921 100.672 215.726 102.718 208.893 102.718C204.635 102.718 200.867 101.895 197.591 100.249C194.315 98.5564 191.788 96.2287 190.009 93.2662C188.231 90.3037 187.342 86.9415 187.342 83.1796C187.342 79.4648 188.207 76.1261 189.939 73.1636C191.717 70.1541 194.128 67.8264 197.17 66.1806C200.259 64.4878 203.698 63.6413 207.489 63.6413C211.187 63.6413 214.533 64.4407 217.528 66.0395C220.523 67.6383 222.864 69.9425 224.548 72.952C226.28 75.9145 227.146 79.3707 227.146 83.3207ZM207.56 71.9645C205.079 71.9645 202.996 72.6699 201.312 74.0806C199.627 75.4913 198.597 77.4193 198.223 79.8645H216.826C216.452 77.4663 215.422 75.5618 213.737 74.1511C212.052 72.6934 209.993 71.9645 207.56 71.9645Z" fill="#0C2E8A"/>
<path d="M252.409 102.718C248.43 102.718 244.85 101.895 241.668 100.249C238.532 98.5564 236.075 96.2287 234.297 93.2662C232.518 90.3037 231.629 86.9415 231.629 83.1796C231.629 79.4178 232.518 76.0556 234.297 73.0931C236.075 70.1306 238.532 67.8264 241.668 66.1806C244.85 64.4878 248.43 63.6413 252.409 63.6413C256.387 63.6413 259.943 64.4878 263.079 66.1806C266.215 67.8264 268.672 70.1306 270.45 73.0931C272.229 76.0556 273.118 79.4178 273.118 83.1796C273.118 86.9415 272.229 90.3037 270.45 93.2662C268.672 96.2287 266.215 98.5564 263.079 100.249C259.943 101.895 256.387 102.718 252.409 102.718ZM252.409 93.6894C255.217 93.6894 257.51 92.7489 259.288 90.868C261.114 88.94 262.026 86.3772 262.026 83.1796C262.026 79.982 261.114 77.4428 259.288 75.5618C257.51 73.6339 255.217 72.6699 252.409 72.6699C249.6 72.6699 247.284 73.6339 245.459 75.5618C243.633 77.4428 242.721 79.982 242.721 83.1796C242.721 86.3772 243.633 88.94 245.459 90.868C247.284 92.7489 249.6 93.6894 252.409 93.6894Z" fill="#0C2E8A"/>
<path fill-rule="evenodd" clip-rule="evenodd" d="M154.029 56.1693C157.32 56.1693 165.144 43.0748 165.144 36.9998C165.144 30.9248 160.168 26 154.029 26C147.89 26 142.914 30.9248 142.914 36.9998C142.914 43.0748 149.982 56.1693 154.029 56.1693ZM158.885 36.9464C158.885 39.63 156.687 41.8055 153.975 41.8055C151.263 41.8055 149.065 39.63 149.065 36.9464C149.065 34.2628 151.317 32.1942 154.029 32.1942C156.741 32.1942 158.885 34.2628 158.885 36.9464Z" fill="#0C2E8A"/>
</svg>
