<svg width="3005" height="3003" viewBox="0 0 3005 3003" fill="none" xmlns="http://www.w3.org/2000/svg">
<g filter="url(#filter0_d_214:415)">
<ellipse cx="1502.79" cy="1501.5" rx="1374" ry="1373.5" fill="#0C2E8A"/>
</g>
<g filter="url(#filter1_d_214:415)">
<path fill-rule="evenodd" clip-rule="evenodd" d="M1501.71 115C728.133 115 100 735.295 100 1501.72C100 2268.15 728.133 2888.44 1501.71 2888.44C2275.29 2888.44 2903.43 2268.15 2903.43 1501.72C2903.43 735.295 2275.29 115 1501.71 115ZM950.708 347.121C956.459 341.016 963.491 336.214 971.156 332.81C1133.05 260.909 1312.62 220.9 1501.71 220.9C1639.82 220.9 1772.84 242.241 1897.61 281.76C1908.05 285.067 1918.25 290.403 1923.99 299.728C1934.67 317.068 1927.06 329.896 1917.76 345.577C1912.35 354.694 1906.37 364.776 1903.08 377.269C1892.17 418.438 1901.1 496.449 1908.77 541.913C1910.48 552.019 1910.53 562.444 1906.74 571.969C1896.26 598.354 1872.32 632.813 1829.78 631.23C1814.9 630.715 1795.94 628.71 1775.29 626.526C1708.61 619.472 1624.37 610.561 1603.35 644.024C1593.72 659.361 1591.73 676.999 1589.65 695.432C1585.79 729.669 1581.62 766.648 1527.6 796.727C1444.5 843.001 1390.82 914.861 1424.33 946.164C1452.35 972.329 1658.93 979.096 1739.2 981.725L1739.21 981.725C1754.97 982.242 1765.85 982.598 1769.56 982.911C1792.18 984.816 1941.77 1005.23 1975.56 1119.01C2009.35 1232.79 1847.49 1284.51 1742.04 1241.23C1722.91 1233.37 1699.57 1222.35 1673.21 1209.9C1554.3 1153.73 1373.94 1068.53 1241.23 1114.65C1079.1 1171 934.417 1322.34 1003.63 1621.76C1032.49 1747.46 1148.37 1734.42 1259.33 1721.94C1361.03 1710.5 1458.61 1699.52 1481.28 1796.24C1490.21 1837.02 1478.54 1904.94 1466.98 1972.25C1461.26 2005.59 1455.56 2038.78 1452.4 2068.44C1437.96 2209.17 1510.98 2471.02 1561.39 2474.56C1665.2 2481.64 1937.68 2394.8 1967.38 2242.1C1997.08 2089.4 2026.24 1944.59 2113.16 1862.93C2164.06 1814.8 2207.18 1759.06 2240.95 1697.7C2253.22 1672.6 2217.4 1664.3 2172.61 1653.92C2115.92 1640.78 2044.86 1624.32 2038.77 1566.23C2028.19 1465.28 2174.27 1476.71 2254.86 1496.14C2259.58 1497.28 2264.35 1498.07 2269.21 1498.13C2321.17 1498.82 2409.97 1481.51 2400.35 1407C2388.07 1313.26 2565.23 1374.2 2618.26 1448.85C2622.63 1455.01 2624.92 1462.21 2626.93 1469.48C2650.85 1556.02 2763.28 1691.23 2700.62 1978.07V1978.07C2699.89 1980.59 2688.68 2009.16 2687.68 2011.59C2496.05 2480.63 2046.06 2797.06 1501.71 2797.06C1096.56 2797.06 735.123 2599.72 497.593 2311.41C484.856 2295.95 485.232 2273.73 500.573 2260.85C561.659 2209.57 668.976 2152.77 618.891 2007.74C596.161 1944.89 590.821 1877.08 603.433 1811.45C615.345 1749.46 642.856 1691.59 683.294 1643.25C688.02 1637.6 693.797 1632.99 699.985 1629C782.175 1575.92 883.107 1451.37 690.553 1331.87C440.417 1176.17 374.205 1109.49 390.826 950.794C404.45 823.677 547.501 803.807 617.256 809.523C787.555 841.37 940.143 725.958 923.794 603.469C920.392 577.976 915.113 555.431 910.237 534.606C894.616 467.898 883.13 418.846 950.708 347.121Z" fill="#EAEEF2"/>
</g>
<defs>
<filter id="filter0_d_214:415" x="0.792969" y="0" width="3004" height="3003" filterUnits="userSpaceOnUse" color-interpolation-filters="sRGB">
<feFlood flood-opacity="0" result="BackgroundImageFix"/>
<feColorMatrix in="SourceAlpha" type="matrix" values="0 0 0 0 0 0 0 0 0 0 0 0 0 0 0 0 0 0 127 0" result="hardAlpha"/>
<feOffset/>
<feGaussianBlur stdDeviation="64"/>
<feComposite in2="hardAlpha" operator="out"/>
<feColorMatrix type="matrix" values="0 0 0 0 1 0 0 0 0 1 0 0 0 0 1 0 0 0 1 0"/>
<feBlend mode="normal" in2="BackgroundImageFix" result="effect1_dropShadow_214:415"/>
<feBlend mode="normal" in="SourceGraphic" in2="effect1_dropShadow_214:415" result="shape"/>
</filter>
<filter id="filter1_d_214:415" x="100" y="108" width="2849.43" height="2795.45" filterUnits="userSpaceOnUse" color-interpolation-filters="sRGB">
<feFlood flood-opacity="0" result="BackgroundImageFix"/>
<feColorMatrix in="SourceAlpha" type="matrix" values="0 0 0 0 0 0 0 0 0 0 0 0 0 0 0 0 0 0 127 0" result="hardAlpha"/>
<feOffset dx="35" dy="4"/>
<feGaussianBlur stdDeviation="5.5"/>
<feComposite in2="hardAlpha" operator="out"/>
<feColorMatrix type="matrix" values="0 0 0 0 0.0440104 0 0 0 0 0.107957 0 0 0 0 0.28099 0 0 0 1 0"/>
<feBlend mode="normal" in2="BackgroundImageFix" result="effect1_dropShadow_214:415"/>
<feBlend mode="normal" in="SourceGraphic" in2="effect1_dropShadow_214:415" result="shape"/>
</filter>
</defs>
</svg>
