<svg width="4806" height="3768" viewBox="0 0 4806 3768" fill="none" xmlns="http://www.w3.org/2000/svg">
<rect x="18" y="18" width="4770" height="3732" rx="327" fill="#293469"/>
<g filter="url(#filter0_d_176:470)">
<path d="M1473.84 985.908C1482.85 985.908 1490.16 978.804 1490.16 970.041C1490.16 961.278 1482.85 954.174 1473.84 954.174C1464.83 954.174 1457.52 961.278 1457.52 970.041C1457.52 978.804 1464.83 985.908 1473.84 985.908Z" fill="#F2F5F8"/>
<path d="M3324.91 1158.86C3333.92 1158.86 3341.23 1151.76 3341.23 1143C3341.23 1134.23 3333.92 1127.13 3324.91 1127.13C3315.9 1127.13 3308.59 1134.23 3308.59 1143C3308.59 1151.76 3315.9 1158.86 3324.91 1158.86Z" fill="#F2F5F8"/>
<path d="M3234.26 225.863C3243.27 225.863 3250.58 219.114 3250.58 210.789C3250.58 202.464 3243.27 195.715 3234.26 195.715C3225.25 195.715 3217.94 202.464 3217.94 210.789C3217.94 219.114 3225.25 225.863 3234.26 225.863Z" fill="#F2F5F8"/>
<path d="M851.978 1415.91C860.99 1415.91 868.295 1408.81 868.295 1400.05C868.295 1391.28 860.99 1384.18 851.978 1384.18C842.966 1384.18 835.661 1391.28 835.661 1400.05C835.661 1408.81 842.966 1415.91 851.978 1415.91Z" fill="#F2F5F8"/>
<path d="M2704.86 1588.87C2713.88 1588.87 2721.18 1581.76 2721.18 1573C2721.18 1564.24 2713.88 1557.13 2704.86 1557.13C2695.85 1557.13 2688.55 1564.24 2688.55 1573C2688.55 1581.76 2695.85 1588.87 2704.86 1588.87Z" fill="#F2F5F8"/>
<path d="M2614.21 655.868C2623.23 655.868 2630.53 649.119 2630.53 640.794C2630.53 632.469 2623.23 625.72 2614.21 625.72C2605.2 625.72 2597.9 632.469 2597.9 640.794C2597.9 649.119 2605.2 655.868 2614.21 655.868Z" fill="#F2F5F8"/>
<path d="M2713.93 878.01C2722.94 878.01 2730.25 871.261 2730.25 862.936C2730.25 854.611 2722.94 847.862 2713.93 847.862C2704.92 847.862 2697.61 854.611 2697.61 862.936C2697.61 871.261 2704.92 878.01 2713.93 878.01Z" fill="#F2F5F8"/>
<path d="M4566.81 1050.96C4575.82 1050.96 4583.13 1043.86 4583.13 1035.1C4583.13 1026.33 4575.82 1019.23 4566.81 1019.23C4557.8 1019.23 4550.5 1026.33 4550.5 1035.1C4550.5 1043.86 4557.8 1050.96 4566.81 1050.96Z" fill="#F2F5F8"/>
<path d="M4476.16 117.964C4485.18 117.964 4492.48 111.216 4492.48 102.89C4492.48 94.5653 4485.18 87.8164 4476.16 87.8164C4467.15 87.8164 4459.85 94.5653 4459.85 102.89C4459.85 111.216 4467.15 117.964 4476.16 117.964Z" fill="#F2F5F8"/>
<path d="M2811.83 1645.99C2820.84 1645.99 2828.15 1639.24 2828.15 1630.92C2828.15 1622.59 2820.84 1615.84 2811.83 1615.84C2802.82 1615.84 2795.51 1622.59 2795.51 1630.92C2795.51 1639.24 2802.82 1645.99 2811.83 1645.99Z" fill="#F2F5F8"/>
<path d="M4664.72 1818.94C4673.73 1818.94 4681.03 1811.84 4681.03 1803.08C4681.03 1794.31 4673.73 1787.21 4664.72 1787.21C4655.71 1787.21 4648.4 1794.31 4648.4 1803.08C4648.4 1811.84 4655.71 1818.94 4664.72 1818.94Z" fill="#F2F5F8"/>
<path d="M4574.07 885.944C4583.08 885.944 4590.38 879.195 4590.38 870.87C4590.38 862.545 4583.08 855.796 4574.07 855.796C4565.05 855.796 4557.75 862.545 4557.75 870.87C4557.75 879.195 4565.05 885.944 4574.07 885.944Z" fill="#F2F5F8"/>
<path d="M1555.42 494.02C1564.44 494.02 1571.74 487.271 1571.74 478.946C1571.74 470.621 1564.44 463.872 1555.42 463.872C1546.41 463.872 1539.11 470.621 1539.11 478.946C1539.11 487.271 1546.41 494.02 1555.42 494.02Z" fill="#F2F5F8"/>
<path d="M3406.5 666.975C3415.51 666.975 3422.81 659.871 3422.81 651.108C3422.81 642.344 3415.51 635.24 3406.5 635.24C3397.48 635.24 3390.18 642.344 3390.18 651.108C3390.18 659.871 3397.48 666.975 3406.5 666.975Z" fill="#F2F5F8"/>
<path d="M933.566 924.026C942.578 924.026 949.883 917.277 949.883 908.952C949.883 900.627 942.578 893.878 933.566 893.878C924.554 893.878 917.249 900.627 917.249 908.952C917.249 917.277 924.554 924.026 933.566 924.026Z" fill="#F2F5F8"/>
<path d="M2786.45 1096.98C2795.46 1096.98 2802.77 1089.88 2802.77 1081.11C2802.77 1072.35 2795.46 1065.25 2786.45 1065.25C2777.44 1065.25 2770.13 1072.35 2770.13 1081.11C2770.13 1089.88 2777.44 1096.98 2786.45 1096.98Z" fill="#F2F5F8"/>
<path d="M2695.8 163.98C2704.81 163.98 2712.12 157.231 2712.12 148.906C2712.12 140.581 2704.81 133.832 2695.8 133.832C2686.79 133.832 2679.48 140.581 2679.48 148.906C2679.48 157.231 2686.79 163.98 2695.8 163.98Z" fill="#F2F5F8"/>
<path d="M2795.51 386.123C2804.53 386.123 2811.83 379.374 2811.83 371.049C2811.83 362.723 2804.53 355.975 2795.51 355.975C2786.5 355.975 2779.2 362.723 2779.2 371.049C2779.2 379.374 2786.5 386.123 2795.51 386.123Z" fill="#F2F5F8"/>
<path d="M4648.4 559.077C4657.41 559.077 4664.72 552.328 4664.72 544.003C4664.72 535.678 4657.41 528.929 4648.4 528.929C4639.39 528.929 4632.08 535.678 4632.08 544.003C4632.08 552.328 4639.39 559.077 4648.4 559.077Z" fill="#F2F5F8"/>
<path d="M2893.42 1154.1C2902.43 1154.1 2909.73 1147.35 2909.73 1139.03C2909.73 1130.7 2902.43 1123.95 2893.42 1123.95C2884.4 1123.95 2877.1 1130.7 2877.1 1139.03C2877.1 1147.35 2884.4 1154.1 2893.42 1154.1Z" fill="#F2F5F8"/>
<path d="M4746.3 1327.06C4755.31 1327.06 4762.62 1320.31 4762.62 1311.98C4762.62 1303.66 4755.31 1296.91 4746.3 1296.91C4737.29 1296.91 4729.98 1303.66 4729.98 1311.98C4729.98 1320.31 4737.29 1327.06 4746.3 1327.06Z" fill="#F2F5F8"/>
<path d="M4655.65 395.643C4664.66 395.643 4671.97 388.539 4671.97 379.776C4671.97 371.012 4664.66 363.908 4655.65 363.908C4646.64 363.908 4639.33 371.012 4639.33 379.776C4639.33 388.539 4646.64 395.643 4655.65 395.643Z" fill="#F2F5F8"/>
<path d="M395.104 478.153C404.116 478.153 411.421 471.404 411.421 463.079C411.421 454.754 404.116 448.005 395.104 448.005C386.092 448.005 378.787 454.754 378.787 463.079C378.787 471.404 386.092 478.153 395.104 478.153Z" fill="#F2F5F8"/>
<path d="M2247.99 651.107C2257 651.107 2264.31 644.358 2264.31 636.033C2264.31 627.708 2257 620.959 2247.99 620.959C2238.98 620.959 2231.67 627.708 2231.67 636.033C2231.67 644.358 2238.98 651.107 2247.99 651.107Z" fill="#F2F5F8"/>
<path d="M1637.01 371.842C1646.02 371.842 1653.33 364.738 1653.33 355.975C1653.33 347.211 1646.02 340.107 1637.01 340.107C1628 340.107 1620.69 347.211 1620.69 355.975C1620.69 364.738 1628 371.842 1637.01 371.842Z" fill="#F2F5F8"/>
<path d="M1734.91 1139.82C1743.92 1139.82 1751.23 1132.72 1751.23 1123.95C1751.23 1115.19 1743.92 1108.09 1734.91 1108.09C1725.9 1108.09 1718.59 1115.19 1718.59 1123.95C1718.59 1132.72 1725.9 1139.82 1734.91 1139.82Z" fill="#F2F5F8"/>
<path d="M427.736 3258.11C436.748 3258.11 444.053 3251.36 444.053 3243.04C444.053 3234.71 436.748 3227.96 427.736 3227.96C418.724 3227.96 411.419 3234.71 411.419 3243.04C411.419 3251.36 418.724 3258.11 427.736 3258.11Z" fill="#F2F5F8"/>
<path d="M1669.64 3151.8C1678.65 3151.8 1685.96 3144.7 1685.96 3135.93C1685.96 3127.17 1678.65 3120.07 1669.64 3120.07C1660.63 3120.07 1653.33 3127.17 1653.33 3135.93C1653.33 3144.7 1660.63 3151.8 1669.64 3151.8Z" fill="#F2F5F8"/>
<path d="M3529.78 3227.96C3538.79 3227.96 3546.1 3221.22 3546.1 3212.89C3546.1 3204.57 3538.79 3197.82 3529.78 3197.82C3520.77 3197.82 3513.46 3204.57 3513.46 3212.89C3513.46 3221.22 3520.77 3227.96 3529.78 3227.96Z" fill="#F2F5F8"/>
<path d="M2909.73 3657.97C2918.74 3657.97 2926.05 3651.22 2926.05 3642.9C2926.05 3634.57 2918.74 3627.82 2909.73 3627.82C2900.72 3627.82 2893.42 3634.57 2893.42 3642.9C2893.42 3651.22 2900.72 3657.97 2909.73 3657.97Z" fill="#F2F5F8"/>
<path d="M4771.68 3120.07C4780.7 3120.07 4788 3113.32 4788 3104.99C4788 3096.67 4780.7 3089.92 4771.68 3089.92C4762.67 3089.92 4755.37 3096.67 4755.37 3104.99C4755.37 3113.32 4762.67 3120.07 4771.68 3120.07Z" fill="#F2F5F8"/>
<path d="M3955.83 2690.06C3964.85 2690.06 3972.15 2683.31 3972.15 2674.99C3972.15 2666.66 3964.85 2659.91 3955.83 2659.91C3946.82 2659.91 3939.52 2666.66 3939.52 2674.99C3939.52 2683.31 3946.82 2690.06 3955.83 2690.06Z" fill="#F2F5F8"/>
<path d="M3988.47 2413.97C3997.48 2413.97 4004.78 2407.22 4004.78 2398.9C4004.78 2390.57 3997.48 2383.82 3988.47 2383.82C3979.46 2383.82 3972.15 2390.57 3972.15 2398.9C3972.15 2407.22 3979.46 2413.97 3988.47 2413.97Z" fill="#F2F5F8"/>
<path d="M4347.44 2383.82C4356.45 2383.82 4363.76 2376.72 4363.76 2367.95C4363.76 2359.19 4356.45 2352.09 4347.44 2352.09C4338.43 2352.09 4331.12 2359.19 4331.12 2367.95C4331.12 2376.72 4338.43 2383.82 4347.44 2383.82Z" fill="#F2F5F8"/>
<path d="M4380.07 3581.81C4389.09 3581.81 4396.39 3574.7 4396.39 3565.94C4396.39 3557.18 4389.09 3550.07 4380.07 3550.07C4371.06 3550.07 4363.76 3557.18 4363.76 3565.94C4363.76 3574.7 4371.06 3581.81 4380.07 3581.81Z" fill="#F2F5F8"/>
<path d="M4412.71 1615.84C4421.72 1615.84 4429.03 1608.74 4429.03 1599.97C4429.03 1591.21 4421.72 1584.11 4412.71 1584.11C4403.7 1584.11 4396.39 1591.21 4396.39 1599.97C4396.39 1608.74 4403.7 1615.84 4412.71 1615.84Z" fill="#F2F5F8"/>
<path d="M2208.1 1200.12C2217.12 1200.12 2224.42 1193.37 2224.42 1185.04C2224.42 1176.72 2217.12 1169.97 2208.1 1169.97C2199.09 1169.97 2191.79 1176.72 2191.79 1185.04C2191.79 1193.37 2199.09 1200.12 2208.1 1200.12Z" fill="#F2F5F8"/>
<path d="M819.346 540.036C828.358 540.036 835.663 533.287 835.663 524.962C835.663 516.637 828.358 509.888 819.346 509.888C810.335 509.888 803.029 516.637 803.029 524.962C803.029 533.287 810.335 540.036 819.346 540.036Z" fill="#F2F5F8"/>
<path d="M2289.69 709.817C2298.7 709.817 2306.01 702.713 2306.01 693.949C2306.01 685.186 2298.7 678.082 2289.69 678.082C2280.68 678.082 2273.37 685.186 2273.37 693.949C2273.37 702.713 2280.68 709.817 2289.69 709.817Z" fill="#F2F5F8"/>
<path d="M900.931 48.148C909.943 48.148 917.248 41.3991 917.248 33.074C917.248 24.7489 909.943 18 900.931 18C891.92 18 884.614 24.7489 884.614 33.074C884.614 41.3991 891.92 48.148 900.931 48.148Z" fill="#F2F5F8"/>
<path d="M1131.18 693.949C1140.19 693.949 1147.5 687.2 1147.5 678.875C1147.5 670.55 1140.19 663.801 1131.18 663.801C1122.17 663.801 1114.86 670.55 1114.86 678.875C1114.86 687.2 1122.17 693.949 1131.18 693.949Z" fill="#F2F5F8"/>
<path d="M1163.82 3473.91C1172.83 3473.91 1180.13 3466.8 1180.13 3458.04C1180.13 3449.28 1172.83 3442.17 1163.82 3442.17C1154.81 3442.17 1147.5 3449.28 1147.5 3458.04C1147.5 3466.8 1154.81 3473.91 1163.82 3473.91Z" fill="#F2F5F8"/>
<path d="M4265.85 3442.17C4274.87 3442.17 4282.17 3435.42 4282.17 3427.1C4282.17 3418.77 4274.87 3412.03 4265.85 3412.03C4256.84 3412.03 4249.54 3418.77 4249.54 3427.1C4249.54 3435.42 4256.84 3442.17 4265.85 3442.17Z" fill="#F2F5F8"/>
<path d="M2877.1 2782.09C2886.11 2782.09 2893.42 2775.34 2893.42 2767.02C2893.42 2758.69 2886.11 2751.94 2877.1 2751.94C2868.09 2751.94 2860.78 2758.69 2860.78 2767.02C2860.78 2775.34 2868.09 2782.09 2877.1 2782.09Z" fill="#F2F5F8"/>
<path d="M672.492 3703.98C681.503 3703.98 688.809 3697.24 688.809 3688.91C688.809 3680.59 681.503 3673.84 672.492 3673.84C663.48 3673.84 656.175 3680.59 656.175 3688.91C656.175 3697.24 663.48 3703.98 672.492 3703.98Z" fill="#F2F5F8"/>
<path d="M1048.69 3657.97C1058.2 3657.97 1065.91 3651.22 1065.91 3642.9C1065.91 3634.57 1058.2 3627.82 1048.69 3627.82C1039.18 3627.82 1031.47 3634.57 1031.47 3642.9C1031.47 3651.22 1039.18 3657.97 1048.69 3657.97Z" fill="#F2F5F8"/>
<path d="M427.736 3719.85C436.748 3719.85 444.053 3712.75 444.053 3703.98C444.053 3695.22 436.748 3688.12 427.736 3688.12C418.724 3688.12 411.419 3695.22 411.419 3703.98C411.419 3712.75 418.724 3719.85 427.736 3719.85Z" fill="#F2F5F8"/>
<path d="M3776.35 3181.95C3785.36 3181.95 3792.66 3175.2 3792.66 3166.87C3792.66 3158.55 3785.36 3151.8 3776.35 3151.8C3767.33 3151.8 3760.03 3158.55 3760.03 3166.87C3760.03 3175.2 3767.33 3181.95 3776.35 3181.95Z" fill="#F2F5F8"/>
<path d="M115.902 2566.3C124.914 2566.3 132.219 2559.55 132.219 2551.22C132.219 2542.9 124.914 2536.15 115.902 2536.15C106.89 2536.15 99.585 2542.9 99.585 2551.22C99.585 2559.55 106.89 2566.3 115.902 2566.3Z" fill="#F2F5F8"/>
<path d="M3399.24 3611.95C3408.25 3611.95 3415.56 3605.21 3415.56 3596.88C3415.56 3588.56 3408.25 3581.81 3399.24 3581.81C3390.23 3581.81 3382.93 3588.56 3382.93 3596.88C3382.93 3605.21 3390.23 3611.95 3399.24 3611.95Z" fill="#F2F5F8"/>
<path d="M3890.56 2245.78C3899.58 2245.78 3906.88 2238.67 3906.88 2229.91C3906.88 2221.15 3899.58 2214.04 3890.56 2214.04C3881.55 2214.04 3874.25 2221.15 3874.25 2229.91C3874.25 2238.67 3881.55 2245.78 3890.56 2245.78Z" fill="#F2F5F8"/>
<path d="M230.12 1630.12C239.131 1630.12 246.437 1623.02 246.437 1614.26C246.437 1605.49 239.131 1598.39 230.12 1598.39C221.108 1598.39 213.803 1605.49 213.803 1614.26C213.803 1623.02 221.108 1630.12 230.12 1630.12Z" fill="#F2F5F8"/>
<path d="M3939.52 1983.96C3948.53 1983.96 3955.83 1977.22 3955.83 1968.89C3955.83 1960.57 3948.53 1953.82 3939.52 1953.82C3930.5 1953.82 3923.2 1960.57 3923.2 1968.89C3923.2 1977.22 3930.5 1983.96 3939.52 1983.96Z" fill="#F2F5F8"/>
<path d="M279.073 1368.31C288.084 1368.31 295.39 1361.56 295.39 1353.24C295.39 1344.91 288.084 1338.16 279.073 1338.16C270.061 1338.16 262.756 1344.91 262.756 1353.24C262.756 1361.56 270.061 1368.31 279.073 1368.31Z" fill="#F2F5F8"/>
<path d="M4314.81 1937.95C4323.82 1937.95 4331.12 1931.2 4331.12 1922.87C4331.12 1914.55 4323.82 1907.8 4314.81 1907.8C4305.8 1907.8 4298.49 1914.55 4298.49 1922.87C4298.49 1931.2 4305.8 1937.95 4314.81 1937.95Z" fill="#F2F5F8"/>
<path d="M656.175 1322.3C665.187 1322.3 672.492 1315.55 672.492 1307.22C672.492 1298.9 665.187 1292.15 656.175 1292.15C647.164 1292.15 639.858 1298.9 639.858 1307.22C639.858 1315.55 647.164 1322.3 656.175 1322.3Z" fill="#F2F5F8"/>
<path d="M3694.76 1999.83C3703.77 1999.83 3711.08 1992.73 3711.08 1983.96C3711.08 1975.2 3703.77 1968.1 3694.76 1968.1C3685.75 1968.1 3678.44 1975.2 3678.44 1983.96C3678.44 1992.73 3685.75 1999.83 3694.76 1999.83Z" fill="#F2F5F8"/>
<path d="M34.317 1384.18C43.3286 1384.18 50.634 1377.07 50.634 1368.31C50.634 1359.55 43.3286 1352.44 34.317 1352.44C25.3054 1352.44 18 1359.55 18 1368.31C18 1377.07 25.3054 1384.18 34.317 1384.18Z" fill="#F2F5F8"/>
<path d="M4282.17 3319.99C4291.18 3319.99 4298.49 3313.25 4298.49 3304.92C4298.49 3296.6 4291.18 3289.85 4282.17 3289.85C4273.16 3289.85 4265.86 3296.6 4265.86 3304.92C4265.86 3313.25 4273.16 3319.99 4282.17 3319.99Z" fill="#F2F5F8"/>
<path d="M623.544 2704.34C632.555 2704.34 639.861 2697.59 639.861 2689.27C639.861 2680.94 632.555 2674.19 623.544 2674.19C614.532 2674.19 607.227 2680.94 607.227 2689.27C607.227 2697.59 614.532 2704.34 623.544 2704.34Z" fill="#F2F5F8"/>
<path d="M623.44 2154.15C632.452 2154.15 639.757 2147.4 639.757 2139.07C639.757 2130.75 632.452 2124 623.44 2124C614.428 2124 607.123 2130.75 607.123 2139.07C607.123 2147.4 614.428 2154.15 623.44 2154.15Z" fill="#F2F5F8"/>
<path d="M818.481 2367.15C827.493 2367.15 834.798 2360.4 834.798 2352.07C834.798 2343.75 827.493 2337 818.481 2337C809.469 2337 802.164 2343.75 802.164 2352.07C802.164 2360.4 809.469 2367.15 818.481 2367.15Z" fill="#F2F5F8"/>
<path d="M851.488 2908.15C860.5 2908.15 867.805 2901.4 867.805 2893.07C867.805 2884.75 860.5 2878 851.488 2878C842.476 2878 835.171 2884.75 835.171 2893.07C835.171 2901.4 842.476 2908.15 851.488 2908.15Z" fill="#F2F5F8"/>
<path d="M214.355 2124.15C223.367 2124.15 230.672 2117.4 230.672 2109.07C230.672 2100.75 223.367 2094 214.355 2094C205.343 2094 198.038 2100.75 198.038 2109.07C198.038 2117.4 205.343 2124.15 214.355 2124.15Z" fill="#F2F5F8"/>
<path d="M656.448 1833.15C665.459 1833.15 672.765 1826.4 672.765 1818.07C672.765 1809.75 665.459 1803 656.448 1803C647.436 1803 640.131 1809.75 640.131 1818.07C640.131 1826.4 647.436 1833.15 656.448 1833.15Z" fill="#F2F5F8"/>
<path d="M3906.88 3750C3915.89 3750 3923.2 3743.25 3923.2 3734.93C3923.2 3726.6 3915.89 3719.85 3906.88 3719.85C3897.87 3719.85 3890.56 3726.6 3890.56 3734.93C3890.56 3743.25 3897.87 3750 3906.88 3750Z" fill="#F2F5F8"/>
</g>
<g filter="url(#filter1_d_176:470)">
<ellipse cx="2404" cy="1883.5" rx="1374" ry="1373.5" fill="#0C2E8A"/>
</g>
<g filter="url(#filter2_d_176:470)">
<path fill-rule="evenodd" clip-rule="evenodd" d="M2402.92 497C1629.34 497 1001.21 1117.3 1001.21 1883.72C1001.21 2650.15 1629.34 3270.44 2402.92 3270.44C3176.5 3270.44 3804.63 2650.15 3804.63 1883.72C3804.63 1117.3 3176.5 497 2402.92 497ZM1851.91 729.121C1857.67 723.016 1864.7 718.214 1872.36 714.81C2034.26 642.909 2213.83 602.9 2402.92 602.9C2541.02 602.9 2674.05 624.241 2798.81 663.76C2809.25 667.067 2819.45 672.403 2825.2 681.728C2835.88 699.068 2828.27 711.896 2818.96 727.577C2813.56 736.694 2807.58 746.776 2804.28 759.269C2793.38 800.438 2802.31 878.449 2809.98 923.913C2811.68 934.019 2811.73 944.444 2807.95 953.969C2797.46 980.354 2773.53 1014.81 2730.99 1013.23C2716.11 1012.72 2697.14 1010.71 2676.5 1008.53C2609.82 1001.47 2525.57 992.561 2504.56 1026.02C2494.93 1041.36 2492.94 1059 2490.86 1077.43C2487 1111.67 2482.83 1148.65 2428.81 1178.73C2345.7 1225 2292.02 1296.86 2325.54 1328.16C2353.55 1354.33 2560.14 1361.1 2640.41 1363.73L2640.41 1363.73C2656.17 1364.24 2667.06 1364.6 2670.77 1364.91C2693.39 1366.82 2842.98 1387.23 2876.76 1501.01C2910.55 1614.79 2748.7 1666.51 2643.25 1623.23C2624.12 1615.37 2600.78 1604.35 2574.42 1591.9C2455.51 1535.73 2275.14 1450.53 2142.43 1496.65C1980.31 1553 1835.62 1704.34 1904.83 2003.76C1933.69 2129.46 2049.57 2116.42 2160.54 2103.94C2262.24 2092.5 2359.81 2081.52 2382.49 2178.24C2391.42 2219.02 2379.75 2286.94 2368.19 2354.25C2362.46 2387.59 2356.76 2420.78 2353.6 2450.44C2339.16 2591.17 2412.19 2853.02 2462.6 2856.56C2566.41 2863.64 2838.89 2776.8 2868.59 2624.1C2898.29 2471.4 2927.45 2326.59 3014.37 2244.93C3065.27 2196.8 3108.38 2141.06 3142.16 2079.7C3154.43 2054.6 3118.6 2046.3 3073.81 2035.92C3017.12 2022.78 2946.07 2006.32 2939.98 1948.23C2929.4 1847.28 3075.48 1858.71 3156.06 1878.14C3160.79 1879.28 3165.56 1880.07 3170.41 1880.13C3222.38 1880.82 3311.17 1863.51 3301.56 1789C3289.27 1695.26 3466.44 1756.2 3519.47 1830.85C3523.84 1837.01 3526.12 1844.21 3528.14 1851.48C3552.05 1938.02 3664.48 2073.23 3601.83 2360.07C3601.1 2362.59 3589.88 2391.16 3588.89 2393.59C3397.25 2862.63 2947.27 3179.06 2402.92 3179.06C1997.76 3179.06 1636.33 2981.72 1398.8 2693.41C1386.06 2677.95 1386.44 2655.73 1401.78 2642.85C1462.87 2591.57 1570.18 2534.77 1520.1 2389.74C1497.37 2326.89 1492.03 2259.08 1504.64 2193.45C1516.55 2131.46 1544.06 2073.59 1584.5 2025.25C1589.23 2019.6 1595 2014.99 1601.19 2011C1683.38 1957.92 1784.31 1833.37 1591.76 1713.87C1341.62 1558.17 1275.41 1491.49 1292.03 1332.79C1305.66 1205.68 1448.71 1185.81 1518.46 1191.52C1688.76 1223.37 1841.35 1107.96 1825 985.469C1821.6 959.976 1816.32 937.431 1811.44 916.606C1795.82 849.898 1784.34 800.846 1851.91 729.121Z" fill="#EAEEF2"/>
</g>
<path d="M3430.58 1382.35C3425.31 1366.49 3417.96 1351.4 3408.71 1337.48C3403.82 1330.06 3403.83 1325.54 3408.01 1320.04C3433.65 1288.01 3452.62 1251.18 3463.81 1211.72C3476.92 1161.48 3472.64 1107.99 3449.61 1047.43C3448.01 1044.09 3445.34 1041.39 3442.01 1039.75C3438.69 1038.11 3434.91 1037.64 3431.28 1038.41C3403.71 1042.53 3376.82 1050.32 3351.31 1061.57C3310.54 1079.62 3275.68 1108.79 3250.75 1145.73C3235.31 1168.55 3222.25 1192.9 3211.79 1218.39C3211.4 1219.15 3210.82 1219.8 3210.11 1220.28C3209.4 1220.77 3208.58 1221.07 3207.72 1221.15C3192.09 1221.96 3176.01 1221.93 3160.56 1223.28C3152.46 1223.48 3144.53 1225.66 3137.46 1229.63C3130.4 1233.6 3124.42 1239.24 3120.05 1246.06C3113.81 1256.17 3109.37 1267.27 3106.92 1278.89C3101.16 1308.86 3099.59 1339.49 3102.28 1369.89C3102.37 1372.49 3103.2 1375.02 3104.66 1377.17C3106.65 1380.53 3109.83 1383.03 3113.57 1384.18C3117.32 1385.32 3121.35 1385.03 3124.89 1383.36C3143.81 1374.68 3162.71 1365.89 3181.6 1356.99C3182.79 1356.42 3184.12 1356.19 3185.43 1356.33C3186.75 1356.46 3188 1356.96 3189.05 1357.76L3229.54 1381.21L3207.08 1422.66C3205.97 1424.26 3205.2 1426.08 3204.83 1427.99C3204.45 1429.91 3204.48 1431.88 3204.9 1433.78C3205.33 1435.69 3206.14 1437.48 3207.3 1439.06C3208.45 1440.63 3209.92 1441.95 3211.61 1442.93C3213.29 1443.91 3215.17 1444.53 3217.11 1444.75C3219.05 1444.97 3221.01 1444.79 3222.88 1444.21C3224.75 1443.64 3226.47 1442.68 3227.95 1441.41C3229.43 1440.14 3230.63 1438.57 3231.48 1436.81L3254.58 1395.96L3296.52 1420.14C3297.73 1420.63 3298.78 1421.46 3299.53 1422.53C3300.29 1423.6 3300.72 1424.86 3300.78 1426.17C3302.35 1445.19 3304.03 1464.19 3305.94 1483.17C3306.14 1486.2 3307.12 1489.11 3308.8 1491.63C3310.88 1495 3314.19 1497.44 3318.02 1498.44C3321.86 1499.44 3325.93 1498.92 3329.39 1496.99C3345.49 1488.09 3361.18 1479.59 3376.93 1469.72C3394.87 1459.23 3410.49 1445.21 3422.85 1428.52C3427.88 1422.07 3431.21 1414.47 3432.56 1406.41C3433.91 1398.35 3433.23 1390.08 3430.58 1382.35ZM3170 1335.6C3156.22 1342.17 3142.18 1348.55 3127.2 1355.49C3127.16 1325.09 3127.69 1295.75 3138.64 1269.98C3140.18 1264.99 3142.81 1260.41 3146.35 1256.57C3149.89 1252.73 3154.23 1249.72 3159.08 1247.77C3173.12 1243.96 3187.7 1242.49 3202.23 1243.42L3195.98 1262.4L3173.25 1332.59C3172.99 1333.37 3172.58 1334.09 3172.03 1334.7C3171.48 1335.32 3170.81 1335.81 3170.07 1336.15L3170 1335.6ZM3340.16 1359.67L3306.23 1400.85L3305.03 1402.13L3264.92 1378.96L3314.08 1293.73C3315.04 1292.13 3315.66 1290.35 3315.92 1288.5C3316.18 1286.66 3316.07 1284.77 3315.59 1282.97C3315.12 1281.17 3314.28 1279.48 3313.14 1278C3312 1276.52 3310.58 1275.28 3308.96 1274.36C3305.7 1272.49 3301.84 1271.98 3298.2 1272.94C3294.57 1273.9 3291.47 1276.25 3289.56 1279.48L3240.4 1364.72L3198.94 1340.82C3203.57 1327.02 3207.77 1313.5 3212.57 1300.24C3223.3 1270.87 3233.18 1241.16 3245.48 1212.62C3261.92 1171.8 3288.65 1135.92 3323.08 1108.48C3351.75 1086.72 3384.88 1071.56 3420.1 1064.1L3430.22 1061.71L3431.78 1061.52C3433.64 1067.39 3435.74 1073.35 3437.38 1079.25C3445.93 1109.2 3448.67 1140.51 3445.45 1171.5C3441.65 1201.24 3432.15 1229.97 3417.49 1256.13C3395.52 1293.63 3369.65 1328.71 3340.3 1360.78L3340.16 1359.67ZM3399.32 1413.13C3387.6 1428.61 3373.01 1441.71 3356.36 1451.7C3348.09 1457.14 3339.21 1462.2 3329.53 1468.04C3328.12 1451.26 3326.77 1435.82 3325.43 1420.5C3325.44 1419.36 3325.87 1418.27 3326.63 1417.42L3387.35 1348.72C3388.09 1347.97 3388.87 1347.27 3389.7 1346.62C3397.83 1359.4 3403.75 1373.45 3407.2 1388.19C3407.84 1392.83 3407.48 1397.56 3406.14 1402.05C3404.81 1406.54 3402.53 1410.7 3399.46 1414.25L3399.32 1413.13Z" fill="#0C2E8A" stroke="#0C2E8A" stroke-width="5"/>
<path d="M3374.57 1149.33C3366.08 1144.49 3356.09 1142.95 3346.53 1145.02C3336.76 1147.16 3328.22 1153.05 3322.76 1161.42C3319.86 1165.84 3317.89 1170.8 3316.98 1176C3316.06 1181.21 3316.22 1186.54 3317.44 1191.68C3318.66 1196.82 3320.92 1201.66 3324.08 1205.89C3327.24 1210.13 3331.23 1213.68 3335.81 1216.32C3344.45 1221.19 3354.61 1222.63 3364.27 1220.36C3374 1217.9 3382.39 1211.76 3387.67 1203.23C3392.94 1194.71 3394.69 1184.47 3392.55 1174.68C3391.45 1169.45 3389.28 1164.5 3386.19 1160.14C3383.1 1155.78 3379.14 1152.1 3374.57 1149.33ZM3351.5 1165.88C3355.7 1164.98 3360.09 1165.64 3363.84 1167.73C3365.9 1168.94 3367.68 1170.56 3369.09 1172.49C3370.5 1174.41 3371.49 1176.6 3372.02 1178.93C3372.71 1182.19 3372.44 1185.58 3371.25 1188.7C3370.06 1191.81 3368 1194.52 3365.31 1196.5C3362.62 1198.48 3359.42 1199.64 3356.09 1199.85C3352.75 1200.07 3349.43 1199.32 3346.51 1197.69C3344.5 1196.5 3342.76 1194.91 3341.4 1193.02C3340.03 1191.13 3339.07 1188.98 3338.58 1186.7C3337.61 1182.23 3338.41 1177.56 3340.82 1173.68C3343.23 1169.79 3347.06 1167 3351.5 1165.88Z" fill="#0C2E8A" stroke="#0C2E8A" stroke-width="5"/>
<path d="M3371.18 1180.61C3372.33 1189.81 3365.79 1198.21 3356.57 1199.35C3347.35 1200.5 3338.95 1193.96 3337.8 1184.76C3336.66 1175.56 3343.2 1167.17 3352.42 1166.02C3361.64 1164.88 3370.04 1171.41 3371.18 1180.61Z" fill="#50D8AF" stroke="#0C2E8A" stroke-width="5"/>
<path d="M726.507 881.376L727.497 882.056C728.107 882.475 728.771 882.829 729.458 883.104C729.949 883.3 730.431 883.538 730.884 883.809L807.331 929.51C812.071 932.343 813.617 938.483 810.784 943.223L777.887 998.271C775.055 1003.01 768.918 1004.56 764.177 1001.73L687.572 955.995C687.145 955.741 686.746 955.443 686.38 955.108C685.797 954.574 685.132 954.138 684.409 953.817L683.354 953.348L681.875 952.574C681.194 952.217 680.554 951.788 679.987 951.27C672.888 944.795 668.174 936.105 666.63 926.601C665.023 916.716 666.947 906.581 672.063 897.972C677.18 889.362 685.164 882.826 694.616 879.509C703.824 876.277 713.855 876.3 723.036 879.56C723.523 879.733 723.992 879.954 724.442 880.208L726.507 881.376ZM695.704 1055.04C695.5 1056.5 694.977 1057.89 694.172 1059.13L656.321 1117.08C656.066 1117.47 655.761 1117.83 655.414 1118.14C654.971 1118.54 654.597 1119.01 654.307 1119.53L653.552 1120.89L647.842 1130.42C645.005 1135.16 638.864 1136.7 634.126 1133.86L606.715 1117.45C601.971 1114.61 600.432 1108.46 603.279 1103.72L644.981 1034.32C645.526 1033.41 646.212 1032.59 647.012 1031.9L664.183 1017.06C667.444 1014.24 672.145 1013.82 675.847 1016.03L693.509 1026.57C696.963 1028.63 698.847 1032.56 698.29 1036.54L695.704 1055.04ZM863.396 757.133C868.226 759.928 869.834 766.134 866.969 770.922L827.769 836.437C827.338 837.158 826.796 837.806 826.165 838.359L809.108 853.244C805.844 856.092 801.118 856.515 797.4 854.292L782.117 845.152C778.622 843.062 776.744 839.063 777.367 835.039L780.392 815.513C780.469 815.019 780.643 814.546 780.905 814.12L781.114 813.781C781.341 813.411 781.462 812.986 781.462 812.553C781.462 812.129 781.577 811.713 781.794 811.35L821.82 744.457C824.626 739.766 830.679 738.199 835.41 740.936L863.396 757.133Z" fill="#50D8AF" stroke="#50D8AF" stroke-width="20"/>
<path d="M1347.53 3460.45L1348.1 3459.39C1348.44 3458.75 1348.71 3458.08 1348.9 3457.38L1349.2 3456.29L1393.86 3354.1C1396.07 3349.05 1401.95 3346.74 1407.01 3348.93L1486.21 3383.31C1491.28 3385.51 1493.61 3391.42 1491.39 3396.49L1447.05 3497.95C1446.85 3498.4 1446.62 3498.84 1446.36 3499.25L1445.97 3499.88C1445.7 3500.31 1445.47 3500.77 1445.28 3501.24C1444.91 3502.19 1444.77 3503.22 1444.36 3504.15C1444.19 3504.54 1443.97 3504.94 1443.77 3505.34C1443.51 3505.85 1443.26 3506.36 1442.96 3506.84C1436.17 3517.47 1425.84 3525.38 1413.78 3529.16C1401.44 3533.03 1388.11 3532.32 1376.25 3527.17C1364.4 3522.01 1354.8 3512.76 1349.24 3501.11C1343.68 3489.47 1342.52 3476.21 1345.98 3463.78C1346.43 3462.64 1346.95 3461.52 1347.53 3460.45ZM1639.76 3505.98C1640.27 3506.23 1640.76 3506.53 1641.23 3506.87C1641.72 3507.24 1642.24 3507.56 1642.8 3507.82L1644.23 3508.5L1660.89 3515.7C1665.98 3517.89 1668.31 3523.8 1666.09 3528.88L1646.91 3572.85C1644.71 3577.9 1638.82 3580.22 1633.76 3578.02L1540.43 3537.46C1539.44 3537.02 1538.52 3536.43 1537.72 3535.71L1514.24 3514.52C1511.04 3511.64 1510.05 3507.02 1511.78 3503.08L1524.38 3474.4C1525.98 3470.76 1529.57 3468.42 1533.54 3468.42H1560.47C1561.99 3468.42 1563.49 3468.76 1564.86 3469.43L1639.76 3505.98ZM1182.75 3314.06C1184.99 3309.04 1190.84 3306.77 1195.88 3308.96L1284.6 3347.55C1285.37 3347.88 1286.08 3348.34 1286.72 3348.89L1309.69 3369.11C1312.92 3371.95 1313.97 3376.54 1312.3 3380.5L1301.29 3406.61C1299.69 3410.39 1295.94 3412.81 1291.84 3412.72L1264.47 3412.08C1263.41 3412.05 1262.38 3411.8 1261.44 3411.33L1260.61 3410.95C1260.13 3410.73 1259.61 3410.61 1259.09 3410.61C1258.59 3410.61 1258.1 3410.51 1257.64 3410.31L1168.25 3371.46C1163.15 3369.25 1160.84 3363.3 1163.1 3358.22L1182.75 3314.06Z" fill="#50D8AF" stroke="#50D8AF" stroke-width="20"/>
<g filter="url(#filter3_di_176:470)">
<path d="M3978.33 667C4106.76 667 4210.88 564.026 4210.88 437C4210.88 309.975 4106.76 207 3978.33 207C3849.9 207 3745.78 309.975 3745.78 437C3745.78 564.026 3849.9 667 3978.33 667Z" fill="#F2F5F8"/>
</g>
<defs>
<filter id="filter0_d_176:470" x="0" y="0" width="4806" height="3768" filterUnits="userSpaceOnUse" color-interpolation-filters="sRGB">
<feFlood flood-opacity="0" result="BackgroundImageFix"/>
<feColorMatrix in="SourceAlpha" type="matrix" values="0 0 0 0 0 0 0 0 0 0 0 0 0 0 0 0 0 0 127 0" result="hardAlpha"/>
<feOffset/>
<feGaussianBlur stdDeviation="9"/>
<feComposite in2="hardAlpha" operator="out"/>
<feColorMatrix type="matrix" values="0 0 0 0 1 0 0 0 0 1 0 0 0 0 1 0 0 0 0.66 0"/>
<feBlend mode="normal" in2="BackgroundImageFix" result="effect1_dropShadow_176:470"/>
<feBlend mode="normal" in="SourceGraphic" in2="effect1_dropShadow_176:470" result="shape"/>
</filter>
<filter id="filter1_d_176:470" x="901.999" y="382" width="3004" height="3003" filterUnits="userSpaceOnUse" color-interpolation-filters="sRGB">
<feFlood flood-opacity="0" result="BackgroundImageFix"/>
<feColorMatrix in="SourceAlpha" type="matrix" values="0 0 0 0 0 0 0 0 0 0 0 0 0 0 0 0 0 0 127 0" result="hardAlpha"/>
<feOffset/>
<feGaussianBlur stdDeviation="64"/>
<feComposite in2="hardAlpha" operator="out"/>
<feColorMatrix type="matrix" values="0 0 0 0 1 0 0 0 0 1 0 0 0 0 1 0 0 0 1 0"/>
<feBlend mode="normal" in2="BackgroundImageFix" result="effect1_dropShadow_176:470"/>
<feBlend mode="normal" in="SourceGraphic" in2="effect1_dropShadow_176:470" result="shape"/>
</filter>
<filter id="filter2_d_176:470" x="1001.21" y="490" width="2849.43" height="2795.44" filterUnits="userSpaceOnUse" color-interpolation-filters="sRGB">
<feFlood flood-opacity="0" result="BackgroundImageFix"/>
<feColorMatrix in="SourceAlpha" type="matrix" values="0 0 0 0 0 0 0 0 0 0 0 0 0 0 0 0 0 0 127 0" result="hardAlpha"/>
<feOffset dx="35" dy="4"/>
<feGaussianBlur stdDeviation="5.5"/>
<feComposite in2="hardAlpha" operator="out"/>
<feColorMatrix type="matrix" values="0 0 0 0 0.0440104 0 0 0 0 0.107957 0 0 0 0 0.28099 0 0 0 1 0"/>
<feBlend mode="normal" in2="BackgroundImageFix" result="effect1_dropShadow_176:470"/>
<feBlend mode="normal" in="SourceGraphic" in2="effect1_dropShadow_176:470" result="shape"/>
</filter>
<filter id="filter3_di_176:470" x="3701.78" y="163" width="553.098" height="548" filterUnits="userSpaceOnUse" color-interpolation-filters="sRGB">
<feFlood flood-opacity="0" result="BackgroundImageFix"/>
<feColorMatrix in="SourceAlpha" type="matrix" values="0 0 0 0 0 0 0 0 0 0 0 0 0 0 0 0 0 0 127 0" result="hardAlpha"/>
<feOffset/>
<feGaussianBlur stdDeviation="22"/>
<feComposite in2="hardAlpha" operator="out"/>
<feColorMatrix type="matrix" values="0 0 0 0 1 0 0 0 0 1 0 0 0 0 1 0 0 0 1 0"/>
<feBlend mode="normal" in2="BackgroundImageFix" result="effect1_dropShadow_176:470"/>
<feBlend mode="normal" in="SourceGraphic" in2="effect1_dropShadow_176:470" result="shape"/>
<feColorMatrix in="SourceAlpha" type="matrix" values="0 0 0 0 0 0 0 0 0 0 0 0 0 0 0 0 0 0 127 0" result="hardAlpha"/>
<feOffset dx="69" dy="4"/>
<feGaussianBlur stdDeviation="4"/>
<feComposite in2="hardAlpha" operator="arithmetic" k2="-1" k3="1"/>
<feColorMatrix type="matrix" values="0 0 0 0 0.668663 0 0 0 0 0.723803 0 0 0 0 0.873003 0 0 0 1 0"/>
<feBlend mode="normal" in2="shape" result="effect2_innerShadow_176:470"/>
</filter>
</defs>
</svg>
