<svg width="3132" height="1922" viewBox="0 0 3132 1922" fill="none" xmlns="http://www.w3.org/2000/svg">
<g filter="url(#filter0_d_214:414)">
<path d="M1038.37 1033.56C530.16 1352.77 -399.457 2026.87 665.801 1619.08C1997.37 1109.33 2956.38 268.939 2956.38 186.277C2956.38 103.616 1990.47 544.477 1900.78 620.25" stroke="#50D8AF" stroke-width="101" shape-rendering="crispEdges"/>
</g>
<g filter="url(#filter1_d_214:414)">
<path d="M1555.17 1727C1942.59 1727 2256.67 1414.05 2256.67 1028C2256.67 641.953 1942.59 329 1555.17 329C1167.74 329 853.666 641.953 853.666 1028C853.666 1414.05 1167.74 1727 1555.17 1727Z" fill="#0C2E8A"/>
<path d="M1555.17 1727C1942.59 1727 2256.67 1414.05 2256.67 1028C2256.67 641.953 1942.59 329 1555.17 329C1167.74 329 853.666 641.953 853.666 1028C853.666 1414.05 1167.74 1727 1555.17 1727Z" stroke="#F2F5F8" stroke-width="5"/>
</g>
<g filter="url(#filter2_d_214:414)">
<path fill-rule="evenodd" clip-rule="evenodd" d="M860.586 1185.26C946.788 1567.23 1327 1807.39 1710.3 1720.93C2093.6 1634.46 2333.83 1254.33 2247.63 872.368C2161.43 490.405 1781.21 250.239 1397.91 336.706C1014.61 423.173 774.385 803.3 860.586 1185.26ZM1032.53 1427.78C976.56 1354.84 935.122 1268.91 913.548 1173.32C897.506 1102.23 893.677 1031.26 900.671 962.574C910.127 947.649 918.61 950.347 929.541 953.824C934.703 955.466 940.412 957.281 947.027 957.497C971.535 958.331 1016.53 941.536 1036.07 933.028C1049.56 933.235 1077.45 939.528 1082.2 965.037C1083.6 972.442 1084.71 982.032 1085.92 992.473C1089.83 1026.19 1036.41 1092.72 1055.49 1099.32C1064.23 1102.35 1131.62 1077.41 1141.07 1076.36C1158.62 1074.4 1177.58 1072.29 1198.64 1095.57C1231.05 1131.38 1272.97 1149.78 1284.89 1129.7C1294.85 1112.92 1275.21 1010.15 1267.58 970.219L1267.58 970.216C1266.09 962.378 1265.05 956.961 1264.79 955.094C1263.23 943.712 1256.77 867.547 1309.91 838.028C1363.04 808.508 1406.94 882.59 1397.05 939.539C1395.25 949.872 1392.34 962.639 1389.05 977.059C1374.21 1042.11 1372.58 1011.5 1410.44 1071.83C1456.68 1145.52 1446.42 1257.84 1588.45 1189.89C1648.1 1161.45 1696.39 1159.74 1690.42 1084.81C1673.37 1035.88 1657.83 1027.78 1703.68 1005.68C1723.07 996.668 1758.34 994.766 1793.29 992.88C1810.61 991.946 1827.84 991.017 1843.02 989.23C1915.01 980.484 1919.7 833.514 1915.85 808.225C1907.82 756.167 1922.7 557.546 1843.02 560.109C1810.95 543.621 1773.73 526.526 1762.92 519.369C1733.18 499.665 1726.54 532.448 1692.09 522.692C1678.17 519.468 1681.03 501.8 1636.91 524.801C1622.02 527.453 1606.35 527.95 1599.38 529.028C1588.87 533.41 1566.17 522.605 1547.08 527.812C1525.4 533.725 1484.02 505.324 1446.08 519.115C1398.63 536.463 1367.93 484.051 1407.37 479.396C1446.8 474.742 1605.75 541.048 1638.52 425C1641.49 414.484 1625.83 386.335 1650.11 379.717C1910.62 418.129 2133.22 612.031 2194.66 884.316C2241.19 1090.48 2230.44 1152.3 2105.43 1303.43C1965.64 1472.43 1982.93 1360.14 1905.55 1407.63C1876.65 1425.94 1843.33 1436.23 1809.1 1437.41C1774.87 1438.58 1741.01 1430.61 1711.06 1414.32C1677.13 1378.71 1599.34 1335.74 1559.55 1448.5C1509.56 1589.57 1483.58 1629.79 1402.37 1639.48C1337.28 1647.1 1311.4 1578.71 1306.48 1543.62C1303.43 1455.94 1228.71 1393.62 1169.28 1415.51C1156.9 1420.06 1146.22 1425.21 1136.35 1429.97C1103.4 1445.85 1079.55 1457.34 1032.53 1427.78Z" fill="#F2F5F8"/>
</g>
<g filter="url(#filter3_d_214:414)">
<path d="M300.264 1736.72C1619.01 1379.9 3056.7 210.207 2950.87 179.335H2948.11H2909.62C2908.52 179.202 2907.41 179.202 2906.31 179.335L2852.77 193.117L2666.51 262.028L2128.41 496.326" stroke="#50D8AF" stroke-width="101" shape-rendering="crispEdges"/>
</g>
<defs>
<filter id="filter0_d_214:414" x="0.480469" y="0.505859" width="3131.4" height="1921.42" filterUnits="userSpaceOnUse" color-interpolation-filters="sRGB">
<feFlood flood-opacity="0" result="BackgroundImageFix"/>
<feColorMatrix in="SourceAlpha" type="matrix" values="0 0 0 0 0 0 0 0 0 0 0 0 0 0 0 0 0 0 127 0" result="hardAlpha"/>
<feOffset/>
<feGaussianBlur stdDeviation="62.5"/>
<feComposite in2="hardAlpha" operator="out"/>
<feColorMatrix type="matrix" values="0 0 0 0 0.212569 0 0 0 0 0.820764 0 0 0 0 0.637411 0 0 0 1 0"/>
<feBlend mode="normal" in2="BackgroundImageFix" result="effect1_dropShadow_214:414"/>
<feBlend mode="normal" in="SourceGraphic" in2="effect1_dropShadow_214:414" result="shape"/>
</filter>
<filter id="filter1_d_214:414" x="754.166" y="233.5" width="1602" height="1597" filterUnits="userSpaceOnUse" color-interpolation-filters="sRGB">
<feFlood flood-opacity="0" result="BackgroundImageFix"/>
<feColorMatrix in="SourceAlpha" type="matrix" values="0 0 0 0 0 0 0 0 0 0 0 0 0 0 0 0 0 0 127 0" result="hardAlpha"/>
<feOffset dy="4"/>
<feGaussianBlur stdDeviation="48.5"/>
<feComposite in2="hardAlpha" operator="out"/>
<feColorMatrix type="matrix" values="0 0 0 0 1 0 0 0 0 1 0 0 0 0 1 0 0 0 0.8 0"/>
<feBlend mode="normal" in2="BackgroundImageFix" result="effect1_dropShadow_214:414"/>
<feBlend mode="normal" in="SourceGraphic" in2="effect1_dropShadow_214:414" result="shape"/>
</filter>
<filter id="filter2_d_214:414" x="755.066" y="235.084" width="1598.08" height="1595.46" filterUnits="userSpaceOnUse" color-interpolation-filters="sRGB">
<feFlood flood-opacity="0" result="BackgroundImageFix"/>
<feColorMatrix in="SourceAlpha" type="matrix" values="0 0 0 0 0 0 0 0 0 0 0 0 0 0 0 0 0 0 127 0" result="hardAlpha"/>
<feMorphology radius="62" operator="dilate" in="SourceAlpha" result="effect1_dropShadow_214:414"/>
<feOffset dy="4"/>
<feGaussianBlur stdDeviation="13"/>
<feComposite in2="hardAlpha" operator="out"/>
<feColorMatrix type="matrix" values="0 0 0 0 0.0470588 0 0 0 0 0.180392 0 0 0 0 0.541176 0 0 0 0.39 0"/>
<feBlend mode="normal" in2="BackgroundImageFix" result="effect1_dropShadow_214:414"/>
<feBlend mode="normal" in="SourceGraphic" in2="effect1_dropShadow_214:414" result="shape"/>
</filter>
<filter id="filter3_d_214:414" x="162.074" y="3.73535" width="2969.8" height="1906.74" filterUnits="userSpaceOnUse" color-interpolation-filters="sRGB">
<feFlood flood-opacity="0" result="BackgroundImageFix"/>
<feColorMatrix in="SourceAlpha" type="matrix" values="0 0 0 0 0 0 0 0 0 0 0 0 0 0 0 0 0 0 127 0" result="hardAlpha"/>
<feOffset/>
<feGaussianBlur stdDeviation="62.5"/>
<feComposite in2="hardAlpha" operator="out"/>
<feColorMatrix type="matrix" values="0 0 0 0 0.212569 0 0 0 0 0.820764 0 0 0 0 0.637411 0 0 0 1 0"/>
<feBlend mode="normal" in2="BackgroundImageFix" result="effect1_dropShadow_214:414"/>
<feBlend mode="normal" in="SourceGraphic" in2="effect1_dropShadow_214:414" result="shape"/>
</filter>
</defs>
</svg>
