<svg width="4770" height="3656" viewBox="0 0 4770 3656" fill="none" xmlns="http://www.w3.org/2000/svg">
<g clip-path="url(#clip0_186:1009)">
<rect width="4770" height="3656" rx="327" fill="#293469"/>
<g filter="url(#filter0_d_186:1009)">
<path d="M1476.68 964.277C1485.64 964.277 1492.9 957.2 1492.9 948.469C1492.9 939.739 1485.64 932.662 1476.68 932.662C1467.73 932.662 1460.47 939.739 1460.47 948.469C1460.47 957.2 1467.73 964.277 1476.68 964.277Z" fill="#F2F5F8"/>
<path d="M3316.11 1136.58C3325.07 1136.58 3332.33 1129.5 3332.33 1120.77C3332.33 1112.04 3325.07 1104.97 3316.11 1104.97C3307.16 1104.97 3299.9 1112.04 3299.9 1120.77C3299.9 1129.5 3307.16 1136.58 3316.11 1136.58Z" fill="#F2F5F8"/>
<path d="M3226.03 207.083C3234.99 207.083 3242.25 200.36 3242.25 192.066C3242.25 183.772 3234.99 177.048 3226.03 177.048C3217.08 177.048 3209.82 183.772 3209.82 192.066C3209.82 200.36 3217.08 207.083 3226.03 207.083Z" fill="#F2F5F8"/>
<path d="M858.736 1392.67C867.691 1392.67 874.95 1385.59 874.95 1376.86C874.95 1368.13 867.691 1361.05 858.736 1361.05C849.781 1361.05 842.521 1368.13 842.521 1376.86C842.521 1385.59 849.781 1392.67 858.736 1392.67Z" fill="#F2F5F8"/>
<path d="M2699.97 1564.97C2708.92 1564.97 2716.18 1557.9 2716.18 1549.17C2716.18 1540.44 2708.92 1533.36 2699.97 1533.36C2691.01 1533.36 2683.75 1540.44 2683.75 1549.17C2683.75 1557.9 2691.01 1564.97 2699.97 1564.97Z" fill="#F2F5F8"/>
<path d="M2609.89 635.474C2618.84 635.474 2626.1 628.75 2626.1 620.456C2626.1 612.162 2618.84 605.439 2609.89 605.439C2600.93 605.439 2593.67 612.162 2593.67 620.456C2593.67 628.75 2600.93 635.474 2609.89 635.474Z" fill="#F2F5F8"/>
<path d="M2708.98 856.783C2717.93 856.783 2725.19 850.06 2725.19 841.766C2725.19 833.472 2717.93 826.749 2708.98 826.749C2700.02 826.749 2692.76 833.472 2692.76 841.766C2692.76 850.06 2700.02 856.783 2708.98 856.783Z" fill="#F2F5F8"/>
<path d="M4550.21 1029.09C4559.16 1029.09 4566.42 1022.01 4566.42 1013.28C4566.42 1004.55 4559.16 997.475 4550.21 997.475C4541.25 997.475 4533.99 1004.55 4533.99 1013.28C4533.99 1022.01 4541.25 1029.09 4550.21 1029.09Z" fill="#F2F5F8"/>
<path d="M4460.13 99.5891C4469.08 99.5891 4476.34 92.8655 4476.34 84.5716C4476.34 76.2777 4469.08 69.5542 4460.13 69.5542C4451.17 69.5542 4443.91 76.2777 4443.91 84.5716C4443.91 92.8655 4451.17 99.5891 4460.13 99.5891Z" fill="#F2F5F8"/>
<path d="M2806.26 1621.88C2815.22 1621.88 2822.48 1615.16 2822.48 1606.87C2822.48 1598.57 2815.22 1591.85 2806.26 1591.85C2797.31 1591.85 2790.05 1598.57 2790.05 1606.87C2790.05 1615.16 2797.31 1621.88 2806.26 1621.88Z" fill="#F2F5F8"/>
<path d="M4647.49 1794.19C4656.45 1794.19 4663.71 1787.11 4663.71 1778.38C4663.71 1769.65 4656.45 1762.57 4647.49 1762.57C4638.54 1762.57 4631.28 1769.65 4631.28 1778.38C4631.28 1787.11 4638.54 1794.19 4647.49 1794.19Z" fill="#F2F5F8"/>
<path d="M4557.41 864.689C4566.37 864.689 4573.63 857.966 4573.63 849.672C4573.63 841.378 4566.37 834.654 4557.41 834.654C4548.46 834.654 4541.2 841.378 4541.2 849.672C4541.2 857.966 4548.46 864.689 4557.41 864.689Z" fill="#F2F5F8"/>
<path d="M1557.76 474.236C1566.71 474.236 1573.97 467.513 1573.97 459.219C1573.97 450.925 1566.71 444.201 1557.76 444.201C1548.8 444.201 1541.54 450.925 1541.54 459.219C1541.54 467.513 1548.8 474.236 1557.76 474.236Z" fill="#F2F5F8"/>
<path d="M3397.18 646.54C3406.14 646.54 3413.4 639.463 3413.4 630.733C3413.4 622.002 3406.14 614.925 3397.18 614.925C3388.23 614.925 3380.97 622.002 3380.97 630.733C3380.97 639.463 3388.23 646.54 3397.18 646.54Z" fill="#F2F5F8"/>
<path d="M939.808 902.626C948.763 902.626 956.023 895.902 956.023 887.608C956.023 879.314 948.763 872.591 939.808 872.591C930.853 872.591 923.594 879.314 923.594 887.608C923.594 895.902 930.853 902.626 939.808 902.626Z" fill="#F2F5F8"/>
<path d="M2781.04 1074.93C2789.99 1074.93 2797.25 1067.85 2797.25 1059.12C2797.25 1050.39 2789.99 1043.32 2781.04 1043.32C2772.08 1043.32 2764.82 1050.39 2764.82 1059.12C2764.82 1067.85 2772.08 1074.93 2781.04 1074.93Z" fill="#F2F5F8"/>
<path d="M2690.95 145.432C2699.91 145.432 2707.17 138.709 2707.17 130.415C2707.17 122.121 2699.91 115.397 2690.95 115.397C2682 115.397 2674.74 122.121 2674.74 130.415C2674.74 138.709 2682 145.432 2690.95 145.432Z" fill="#F2F5F8"/>
<path d="M2790.05 366.741C2799 366.741 2806.26 360.018 2806.26 351.724C2806.26 343.43 2799 336.707 2790.05 336.707C2781.09 336.707 2773.83 343.43 2773.83 351.724C2773.83 360.018 2781.09 366.741 2790.05 366.741Z" fill="#F2F5F8"/>
<path d="M4631.28 539.046C4640.23 539.046 4647.49 532.323 4647.49 524.029C4647.49 515.735 4640.23 509.011 4631.28 509.011C4622.32 509.011 4615.06 515.735 4615.06 524.029C4615.06 532.323 4622.32 539.046 4631.28 539.046Z" fill="#F2F5F8"/>
<path d="M2887.33 1131.84C2896.29 1131.84 2903.55 1125.12 2903.55 1116.82C2903.55 1108.53 2896.29 1101.8 2887.33 1101.8C2878.38 1101.8 2871.12 1108.53 2871.12 1116.82C2871.12 1125.12 2878.38 1131.84 2887.33 1131.84Z" fill="#F2F5F8"/>
<path d="M4728.57 1304.15C4737.52 1304.15 4744.78 1297.42 4744.78 1289.13C4744.78 1280.83 4737.52 1274.11 4728.57 1274.11C4719.61 1274.11 4712.35 1280.83 4712.35 1289.13C4712.35 1297.42 4719.61 1304.15 4728.57 1304.15Z" fill="#F2F5F8"/>
<path d="M4638.48 376.226C4647.44 376.226 4654.7 369.149 4654.7 360.419C4654.7 351.688 4647.44 344.611 4638.48 344.611C4629.53 344.611 4622.27 351.688 4622.27 360.419C4622.27 369.149 4629.53 376.226 4638.48 376.226Z" fill="#F2F5F8"/>
<path d="M404.732 458.427C413.687 458.427 420.946 451.704 420.946 443.41C420.946 435.116 413.687 428.393 404.732 428.393C395.777 428.393 388.518 435.116 388.518 443.41C388.518 451.704 395.777 458.427 404.732 458.427Z" fill="#F2F5F8"/>
<path d="M2245.96 630.731C2254.92 630.731 2262.18 624.008 2262.18 615.714C2262.18 607.42 2254.92 600.696 2245.96 600.696C2237.01 600.696 2229.75 607.42 2229.75 615.714C2229.75 624.008 2237.01 630.731 2245.96 630.731Z" fill="#F2F5F8"/>
<path d="M1638.83 352.515C1647.78 352.515 1655.04 345.438 1655.04 336.707C1655.04 327.977 1647.78 320.899 1638.83 320.899C1629.87 320.899 1622.61 327.977 1622.61 336.707C1622.61 345.438 1629.87 352.515 1638.83 352.515Z" fill="#F2F5F8"/>
<path d="M1736.11 1117.61C1745.07 1117.61 1752.33 1110.54 1752.33 1101.8C1752.33 1093.07 1745.07 1086 1736.11 1086C1727.16 1086 1719.9 1093.07 1719.9 1101.8C1719.9 1110.54 1727.16 1117.61 1736.11 1117.61Z" fill="#F2F5F8"/>
<path d="M437.161 3227.96C446.116 3227.96 453.375 3221.24 453.375 3212.94C453.375 3204.65 446.116 3197.92 437.161 3197.92C428.206 3197.92 420.946 3204.65 420.946 3212.94C420.946 3221.24 428.206 3227.96 437.161 3227.96Z" fill="#F2F5F8"/>
<path d="M1671.25 3122.05C1680.21 3122.05 1687.47 3114.97 1687.47 3106.24C1687.47 3097.51 1680.21 3090.43 1671.25 3090.43C1662.3 3090.43 1655.04 3097.51 1655.04 3106.24C1655.04 3114.97 1662.3 3122.05 1671.25 3122.05Z" fill="#F2F5F8"/>
<path d="M3519.69 3197.92C3528.65 3197.92 3535.91 3191.2 3535.91 3182.91C3535.91 3174.61 3528.65 3167.89 3519.69 3167.89C3510.74 3167.89 3503.48 3174.61 3503.48 3182.91C3503.48 3191.2 3510.74 3197.92 3519.69 3197.92Z" fill="#F2F5F8"/>
<path d="M2903.55 3626.32C2912.5 3626.32 2919.76 3619.59 2919.76 3611.3C2919.76 3603 2912.5 3596.28 2903.55 3596.28C2894.59 3596.28 2887.33 3603 2887.33 3611.3C2887.33 3619.59 2894.59 3626.32 2903.55 3626.32Z" fill="#F2F5F8"/>
<path d="M4753.79 3090.43C4762.74 3090.43 4770 3083.7 4770 3075.41C4770 3067.12 4762.74 3060.39 4753.79 3060.39C4744.83 3060.39 4737.57 3067.12 4737.57 3075.41C4737.57 3083.7 4744.83 3090.43 4753.79 3090.43Z" fill="#F2F5F8"/>
<path d="M3943.07 2662.04C3952.02 2662.04 3959.28 2655.32 3959.28 2647.02C3959.28 2638.73 3952.02 2632 3943.07 2632C3934.11 2632 3926.86 2638.73 3926.86 2647.02C3926.86 2655.32 3934.11 2662.04 3943.07 2662.04Z" fill="#F2F5F8"/>
<path d="M1201.07 2738.81C1210.03 2738.81 1217.29 2732.08 1217.29 2723.79C1217.29 2715.5 1210.03 2708.77 1201.07 2708.77C1192.12 2708.77 1184.86 2715.5 1184.86 2723.79C1184.86 2732.08 1192.12 2738.81 1201.07 2738.81Z" fill="#F2F5F8"/>
<path d="M3975.5 2386.98C3984.45 2386.98 3991.71 2380.26 3991.71 2371.96C3991.71 2363.67 3984.45 2356.95 3975.5 2356.95C3966.54 2356.95 3959.28 2363.67 3959.28 2371.96C3959.28 2380.26 3966.54 2386.98 3975.5 2386.98Z" fill="#F2F5F8"/>
<path d="M1233.5 2463.75C1242.45 2463.75 1249.71 2457.03 1249.71 2448.73C1249.71 2440.44 1242.45 2433.71 1233.5 2433.71C1224.54 2433.71 1217.29 2440.44 1217.29 2448.73C1217.29 2457.03 1224.54 2463.75 1233.5 2463.75Z" fill="#F2F5F8"/>
<path d="M2222.5 3473.75C2231.45 3473.75 2238.71 3467.03 2238.71 3458.73C2238.71 3450.44 2231.45 3443.71 2222.5 3443.71C2213.54 3443.71 2206.29 3450.44 2206.29 3458.73C2206.29 3467.03 2213.54 3473.75 2222.5 3473.75Z" fill="#F2F5F8"/>
<path d="M4332.21 2356.95C4341.17 2356.95 4348.43 2349.87 4348.43 2341.14C4348.43 2332.41 4341.17 2325.33 4332.21 2325.33C4323.26 2325.33 4316 2332.41 4316 2341.14C4316 2349.87 4323.26 2356.95 4332.21 2356.95Z" fill="#F2F5F8"/>
<path d="M1590.22 2433.71C1599.17 2433.71 1606.43 2426.64 1606.43 2417.91C1606.43 2409.18 1599.17 2402.1 1590.22 2402.1C1581.26 2402.1 1574 2409.18 1574 2417.91C1574 2426.64 1581.26 2433.71 1590.22 2433.71Z" fill="#F2F5F8"/>
<path d="M2579.22 3443.71C2588.17 3443.71 2595.43 3436.64 2595.43 3427.91C2595.43 3419.18 2588.17 3412.1 2579.22 3412.1C2570.26 3412.1 2563 3419.18 2563 3427.91C2563 3436.64 2570.26 3443.71 2579.22 3443.71Z" fill="#F2F5F8"/>
<path d="M4364.64 3550.44C4373.59 3550.44 4380.85 3543.36 4380.85 3534.63C4380.85 3525.9 4373.59 3518.82 4364.64 3518.82C4355.69 3518.82 4348.43 3525.9 4348.43 3534.63C4348.43 3543.36 4355.69 3550.44 4364.64 3550.44Z" fill="#F2F5F8"/>
<path d="M4397.07 1591.85C4406.03 1591.85 4413.29 1584.77 4413.29 1576.04C4413.29 1567.31 4406.03 1560.23 4397.07 1560.23C4388.12 1560.23 4380.86 1567.31 4380.86 1576.04C4380.86 1584.77 4388.12 1591.85 4397.07 1591.85Z" fill="#F2F5F8"/>
<path d="M1655.08 1668.62C1664.03 1668.62 1671.29 1661.54 1671.29 1652.81C1671.29 1644.08 1664.03 1637 1655.08 1637C1646.12 1637 1638.86 1644.08 1638.86 1652.81C1638.86 1661.54 1646.12 1668.62 1655.08 1668.62Z" fill="#F2F5F8"/>
<path d="M2644.08 2678.62C2653.03 2678.62 2660.29 2671.54 2660.29 2662.81C2660.29 2654.08 2653.03 2647 2644.08 2647C2635.12 2647 2627.86 2654.08 2627.86 2662.81C2627.86 2671.54 2635.12 2678.62 2644.08 2678.62Z" fill="#F2F5F8"/>
<path d="M2206.33 1177.68C2215.28 1177.68 2222.54 1170.96 2222.54 1162.66C2222.54 1154.37 2215.28 1147.65 2206.33 1147.65C2197.37 1147.65 2190.11 1154.37 2190.11 1162.66C2190.11 1170.96 2197.37 1177.68 2206.33 1177.68Z" fill="#F2F5F8"/>
<path d="M826.304 520.078C835.259 520.078 842.519 513.354 842.519 505.06C842.519 496.766 835.259 490.043 826.304 490.043C817.349 490.043 810.09 496.766 810.09 505.06C810.09 513.354 817.349 520.078 826.304 520.078Z" fill="#F2F5F8"/>
<path d="M2287.4 689.222C2296.36 689.222 2303.62 682.144 2303.62 673.414C2303.62 664.683 2296.36 657.606 2287.4 657.606C2278.45 657.606 2271.19 664.683 2271.19 673.414C2271.19 682.144 2278.45 689.222 2287.4 689.222Z" fill="#F2F5F8"/>
<path d="M907.376 30.0349C916.331 30.0349 923.591 23.3113 923.591 15.0174C923.591 6.72353 916.331 0 907.376 0C898.422 0 891.162 6.72353 891.162 15.0174C891.162 23.3113 898.422 30.0349 907.376 30.0349Z" fill="#F2F5F8"/>
<path d="M1136.18 673.413C1145.13 673.413 1152.39 666.69 1152.39 658.396C1152.39 650.102 1145.13 643.378 1136.18 643.378C1127.22 643.378 1119.96 650.102 1119.96 658.396C1119.96 666.69 1127.22 673.413 1136.18 673.413Z" fill="#F2F5F8"/>
<path d="M1168.61 3442.94C1177.57 3442.94 1184.83 3435.87 1184.83 3427.14C1184.83 3418.41 1177.57 3411.33 1168.61 3411.33C1159.66 3411.33 1152.4 3418.41 1152.4 3427.14C1152.4 3435.87 1159.66 3442.94 1168.61 3442.94Z" fill="#F2F5F8"/>
<path d="M4251.14 3411.33C4260.1 3411.33 4267.35 3404.6 4267.35 3396.31C4267.35 3388.02 4260.1 3381.29 4251.14 3381.29C4242.19 3381.29 4234.93 3388.02 4234.93 3396.31C4234.93 3404.6 4242.19 3411.33 4251.14 3411.33Z" fill="#F2F5F8"/>
<path d="M2871.12 2753.72C2880.08 2753.72 2887.33 2747 2887.33 2738.7C2887.33 2730.41 2880.08 2723.69 2871.12 2723.69C2862.17 2723.69 2854.91 2730.41 2854.91 2738.7C2854.91 2747 2862.17 2753.72 2871.12 2753.72Z" fill="#F2F5F8"/>
<path d="M680.376 3672.16C689.331 3672.16 696.591 3665.43 696.591 3657.14C696.591 3648.84 689.331 3642.12 680.376 3642.12C671.422 3642.12 664.162 3648.84 664.162 3657.14C664.162 3665.43 671.422 3672.16 680.376 3672.16Z" fill="#F2F5F8"/>
<path d="M1054.21 3626.32C1063.66 3626.32 1071.32 3619.59 1071.32 3611.3C1071.32 3603 1063.66 3596.28 1054.21 3596.28C1044.76 3596.28 1037.09 3603 1037.09 3611.3C1037.09 3619.59 1044.76 3626.32 1054.21 3626.32Z" fill="#F2F5F8"/>
<path d="M3764.71 3152.08C3773.66 3152.08 3780.92 3145.36 3780.92 3137.06C3780.92 3128.77 3773.66 3122.04 3764.71 3122.04C3755.75 3122.04 3748.49 3128.77 3748.49 3137.06C3748.49 3145.36 3755.75 3152.08 3764.71 3152.08Z" fill="#F2F5F8"/>
<path d="M127.287 2538.74C136.242 2538.74 143.501 2532.01 143.501 2523.72C143.501 2515.43 136.242 2508.7 127.287 2508.7C118.332 2508.7 111.072 2515.43 111.072 2523.72C111.072 2532.01 118.332 2538.74 127.287 2538.74Z" fill="#F2F5F8"/>
<path d="M3389.98 3580.47C3398.93 3580.47 3406.19 3573.75 3406.19 3565.45C3406.19 3557.16 3398.93 3550.44 3389.98 3550.44C3381.02 3550.44 3373.76 3557.16 3373.76 3565.45C3373.76 3573.75 3381.02 3580.47 3389.98 3580.47Z" fill="#F2F5F8"/>
<path d="M3878.21 2219.42C3887.17 2219.42 3894.42 2212.34 3894.42 2203.61C3894.42 2194.88 3887.17 2187.8 3878.21 2187.8C3869.26 2187.8 3862 2194.88 3862 2203.61C3862 2212.34 3869.26 2219.42 3878.21 2219.42Z" fill="#F2F5F8"/>
<path d="M1136.21 2296.19C1145.17 2296.19 1152.43 2289.11 1152.43 2280.38C1152.43 2271.65 1145.17 2264.57 1136.21 2264.57C1127.26 2264.57 1120 2271.65 1120 2280.38C1120 2289.11 1127.26 2296.19 1136.21 2296.19Z" fill="#F2F5F8"/>
<path d="M2125.21 3306.19C2134.17 3306.19 2141.43 3299.11 2141.43 3290.38C2141.43 3281.65 2134.17 3274.57 2125.21 3274.57C2116.26 3274.57 2109 3281.65 2109 3290.38C2109 3299.11 2116.26 3306.19 2125.21 3306.19Z" fill="#F2F5F8"/>
<path d="M240.786 1606.08C249.741 1606.08 257 1599 257 1590.27C257 1581.54 249.741 1574.46 240.786 1574.46C231.831 1574.46 224.571 1581.54 224.571 1590.27C224.571 1599 231.831 1606.08 240.786 1606.08Z" fill="#F2F5F8"/>
<path d="M3926.85 1958.59C3935.81 1958.59 3943.07 1951.87 3943.07 1943.57C3943.07 1935.28 3935.81 1928.55 3926.85 1928.55C3917.9 1928.55 3910.64 1935.28 3910.64 1943.57C3910.64 1951.87 3917.9 1958.59 3926.85 1958.59Z" fill="#F2F5F8"/>
<path d="M1184.86 2035.36C1193.81 2035.36 1201.07 2028.63 1201.07 2020.34C1201.07 2012.05 1193.81 2005.32 1184.86 2005.32C1175.9 2005.32 1168.64 2012.05 1168.64 2020.34C1168.64 2028.63 1175.9 2035.36 1184.86 2035.36Z" fill="#F2F5F8"/>
<path d="M2173.86 3045.36C2182.81 3045.36 2190.07 3038.63 2190.07 3030.34C2190.07 3022.05 2182.81 3015.32 2173.86 3015.32C2164.9 3015.32 2157.64 3022.05 2157.64 3030.34C2157.64 3038.63 2164.9 3045.36 2173.86 3045.36Z" fill="#F2F5F8"/>
<path d="M289.431 1345.25C298.386 1345.25 305.646 1338.52 305.646 1330.23C305.646 1321.94 298.386 1315.21 289.431 1315.21C280.476 1315.21 273.217 1321.94 273.217 1330.23C273.217 1338.52 280.476 1345.25 289.431 1345.25Z" fill="#F2F5F8"/>
<path d="M4299.78 1912.75C4308.74 1912.75 4316 1906.02 4316 1897.73C4316 1889.44 4308.74 1882.71 4299.78 1882.71C4290.83 1882.71 4283.57 1889.44 4283.57 1897.73C4283.57 1906.02 4290.83 1912.75 4299.78 1912.75Z" fill="#F2F5F8"/>
<path d="M664.164 1299.4C673.119 1299.4 680.378 1292.68 680.378 1284.39C680.378 1276.09 673.119 1269.37 664.164 1269.37C655.209 1269.37 647.949 1276.09 647.949 1284.39C647.949 1292.68 655.209 1299.4 664.164 1299.4Z" fill="#F2F5F8"/>
<path d="M3683.64 1974.4C3692.59 1974.4 3699.85 1967.32 3699.85 1958.59C3699.85 1949.86 3692.59 1942.78 3683.64 1942.78C3674.68 1942.78 3667.42 1949.86 3667.42 1958.59C3667.42 1967.32 3674.68 1974.4 3683.64 1974.4Z" fill="#F2F5F8"/>
<path d="M46.2144 1361.05C55.1693 1361.05 62.4287 1353.98 62.4287 1345.25C62.4287 1336.51 55.1693 1329.44 46.2144 1329.44C37.2594 1329.44 30 1336.51 30 1345.25C30 1353.98 37.2594 1361.05 46.2144 1361.05Z" fill="#F2F5F8"/>
<path d="M4267.36 3289.61C4276.31 3289.61 4283.57 3282.88 4283.57 3274.59C4283.57 3266.3 4276.31 3259.57 4267.36 3259.57C4258.4 3259.57 4251.14 3266.3 4251.14 3274.59C4251.14 3282.88 4258.4 3289.61 4267.36 3289.61Z" fill="#F2F5F8"/>
<path d="M631.732 2676.26C640.687 2676.26 647.946 2669.54 647.946 2661.25C647.946 2652.95 640.687 2646.23 631.732 2646.23C622.777 2646.23 615.518 2652.95 615.518 2661.25C615.518 2669.54 622.777 2676.26 631.732 2676.26Z" fill="#F2F5F8"/>
</g>
<g filter="url(#filter1_d_186:1009)">
<path d="M2414.6 1546.56C1906.39 1865.77 976.777 2539.87 2042.04 2132.08C3373.61 1622.33 4332.62 781.939 4332.62 699.277C4332.62 616.616 3366.71 1057.48 3277.02 1133.25" stroke="#50D8AF" stroke-width="101" shape-rendering="crispEdges"/>
</g>
<g filter="url(#filter2_d_186:1009)">
<path d="M2931.4 2240C3318.83 2240 3632.9 1927.05 3632.9 1541C3632.9 1154.95 3318.83 842 2931.4 842C2543.97 842 2229.9 1154.95 2229.9 1541C2229.9 1927.05 2543.97 2240 2931.4 2240Z" fill="#0C2E8A"/>
<path d="M2931.4 2240C3318.83 2240 3632.9 1927.05 3632.9 1541C3632.9 1154.95 3318.83 842 2931.4 842C2543.97 842 2229.9 1154.95 2229.9 1541C2229.9 1927.05 2543.97 2240 2931.4 2240Z" stroke="#F2F5F8" stroke-width="5"/>
</g>
<g filter="url(#filter3_d_186:1009)">
<path fill-rule="evenodd" clip-rule="evenodd" d="M2236.82 1698.26C2323.02 2080.23 2703.23 2320.39 3086.54 2233.93C3469.84 2147.46 3710.06 1767.33 3623.86 1385.37C3537.66 1003.41 3157.45 763.239 2774.15 849.706C2390.84 936.173 2150.62 1316.3 2236.82 1698.26ZM2408.76 1940.78C2352.79 1867.84 2311.36 1781.91 2289.78 1686.32C2273.74 1615.23 2269.91 1544.26 2276.91 1475.57C2286.36 1460.65 2294.84 1463.35 2305.78 1466.82C2310.94 1468.47 2316.65 1470.28 2323.26 1470.5C2347.77 1471.33 2392.76 1454.54 2412.3 1446.03C2425.8 1446.24 2453.68 1452.53 2458.44 1478.04C2459.84 1485.44 2460.95 1495.03 2462.16 1505.47C2466.06 1539.19 2412.64 1605.72 2431.72 1612.32C2440.47 1615.35 2507.85 1590.41 2517.3 1589.36C2534.86 1587.4 2553.82 1585.29 2574.88 1608.57C2607.28 1644.38 2649.2 1662.78 2661.12 1642.7C2671.08 1625.92 2651.45 1523.15 2643.82 1483.22L2643.82 1483.22C2642.32 1475.38 2641.29 1469.96 2641.03 1468.09C2639.46 1456.71 2633 1380.55 2686.14 1351.03C2739.28 1321.51 2783.18 1395.59 2773.28 1452.54C2771.49 1462.87 2768.58 1475.64 2765.29 1490.06C2750.44 1555.11 2748.82 1524.5 2786.67 1584.83C2832.92 1658.52 2822.66 1770.84 2964.69 1702.89C3024.33 1674.45 3072.62 1672.74 3066.66 1597.81C3049.6 1548.88 3034.07 1540.78 3079.91 1518.68C3099.31 1509.67 3134.58 1507.77 3169.53 1505.88C3186.84 1504.95 3204.07 1504.02 3219.26 1502.23C3291.25 1493.48 3295.93 1346.51 3292.09 1321.23C3284.06 1269.17 3298.93 1070.55 3219.25 1073.11C3187.19 1056.62 3149.96 1039.53 3139.16 1032.37C3109.41 1012.66 3102.77 1045.45 3068.33 1035.69C3054.4 1032.47 3057.27 1014.8 3013.14 1037.8C2998.25 1040.45 2982.59 1040.95 2975.62 1042.03C2965.11 1046.41 2942.41 1035.6 2923.31 1040.81C2901.63 1046.73 2860.26 1018.32 2822.31 1032.12C2774.87 1049.46 2744.17 997.051 2783.6 992.396C2823.04 987.742 2981.98 1054.05 3014.75 938C3017.72 927.484 3002.06 899.335 3026.34 892.717C3286.85 931.129 3509.45 1125.03 3570.9 1397.32C3617.43 1603.48 3606.67 1665.3 3481.67 1816.43C3341.88 1985.43 3359.16 1873.14 3281.78 1920.63C3252.88 1938.94 3219.56 1949.23 3185.34 1950.41C3151.11 1951.58 3117.24 1943.61 3087.3 1927.32C3053.37 1891.71 2975.57 1848.74 2935.78 1961.5C2885.79 2102.57 2859.82 2142.79 2778.6 2152.48C2713.51 2160.1 2687.63 2091.71 2682.72 2056.62C2679.67 1968.94 2604.95 1906.62 2545.51 1928.51C2533.14 1933.06 2522.45 1938.21 2512.58 1942.97C2479.64 1958.85 2455.78 1970.34 2408.76 1940.78Z" fill="#F2F5F8"/>
</g>
<g filter="url(#filter4_d_186:1009)">
<path d="M1676.5 2249.72C2995.25 1892.9 4432.93 723.207 4327.11 692.335H4324.35H4285.85C4284.75 692.202 4283.64 692.202 4282.54 692.335L4229.01 706.117L4042.74 775.028L3504.65 1009.33" stroke="#50D8AF" stroke-width="101" shape-rendering="crispEdges"/>
</g>
<path d="M900.725 3206.5C898.103 3183.29 892.402 3160.54 883.771 3138.83C879.236 3127.27 880.547 3121.09 887.855 3114.79C932.171 3078.38 968.752 3033.5 995.448 2982.77C1027.88 2917.86 1037.49 2843.47 1023.49 2754.02C1022.27 2748.99 1019.39 2744.52 1015.32 2741.32C1011.25 2738.12 1006.21 2736.38 1001.03 2736.39C962.14 2734.07 923.113 2736.95 884.989 2744.97C824.015 2757.89 767.926 2787.72 723.157 2831.03C695.453 2857.79 670.57 2887.31 648.899 2919.14C648.139 2920.07 647.159 2920.8 646.048 2921.25C644.937 2921.71 643.729 2921.88 642.534 2921.75C620.925 2918.35 598.952 2913.66 577.433 2911.05C566.295 2908.98 554.819 2909.67 544.012 2913.06C533.205 2916.45 523.397 2922.44 515.448 2930.5C504.002 2942.52 494.724 2956.43 488.022 2971.61C471.476 3010.93 460.491 3052.36 455.384 3094.71C454.762 3098.29 455.16 3101.98 456.531 3105.35C458.289 3110.52 461.916 3114.86 466.703 3117.5C471.49 3120.15 477.093 3120.91 482.416 3119.65C510.79 3113.24 539.178 3106.68 567.578 3099.96C569.374 3099.52 571.255 3099.59 573.013 3100.16C574.772 3100.72 576.341 3101.76 577.547 3103.16L626.143 3146.92L583.453 3197.12C581.469 3198.99 579.895 3201.25 578.829 3203.76C577.763 3206.27 577.229 3208.97 577.26 3211.7C577.291 3214.42 577.887 3217.11 579.01 3219.6C580.133 3222.08 581.759 3224.31 583.785 3226.14C585.812 3227.96 588.195 3229.35 590.784 3230.21C593.374 3231.08 596.114 3231.39 598.833 3231.15C601.551 3230.9 604.189 3230.09 606.58 3228.78C608.971 3227.46 611.063 3225.67 612.726 3223.51L656.118 3174.32L706.485 3219.48C708.001 3220.51 709.19 3221.94 709.914 3223.62C710.637 3225.3 710.864 3227.15 710.567 3228.95C707.223 3255.42 704.036 3281.89 701.161 3308.4C700.555 3312.59 701.062 3316.86 702.632 3320.79C704.503 3326 708.314 3330.29 713.269 3332.76C718.225 3335.23 723.944 3335.69 729.235 3334.06C753.817 3326.54 777.734 3319.44 802.123 3310.49C829.682 3301.32 855.093 3286.67 876.82 3267.41C885.553 3260.04 892.311 3250.61 896.484 3239.97C900.657 3229.34 902.115 3217.84 900.725 3206.5ZM557.894 3067.36C537.147 3072.37 516.114 3077.04 493.621 3082.21C502.341 3040.63 511.555 3000.66 533.965 2968.57C537.513 2962.2 542.438 2956.7 548.383 2952.47C554.328 2948.23 561.142 2945.38 568.332 2944.11C588.639 2942.95 608.999 2945.15 628.589 2950.62L614.572 2974.76L563.203 3064.19C562.629 3065.18 561.855 3066.04 560.93 3066.72C560.004 3067.4 558.948 3067.89 557.828 3068.14L557.894 3067.36ZM783.628 3149.39L725.339 3195.91L723.33 3197.31L675.163 3154.06L767.011 3051.7C768.782 3049.78 770.153 3047.53 771.042 3045.08C771.932 3042.63 772.322 3040.02 772.191 3037.42C772.059 3034.81 771.408 3032.26 770.276 3029.91C769.144 3027.56 767.554 3025.46 765.599 3023.73C761.685 3020.24 756.55 3018.42 751.307 3018.69C746.064 3018.95 741.137 3021.27 737.596 3025.14L645.747 3127.5L595.966 3082.85C606.273 3065.31 615.928 3048.04 626.325 3031.3C649.471 2994.24 671.575 2956.46 696.635 2920.98C730.899 2869.91 777.819 2828.57 832.827 2800.98C878.315 2779.49 928.002 2768.33 978.324 2768.29L992.846 2767.95L995.036 2768.13C995.886 2776.7 997.035 2785.45 997.572 2793.99C1000.61 2837.42 995.318 2881.03 981.966 2922.47C968.168 2962.03 946.889 2998.58 919.285 3030.13C878.409 3075.07 832.893 3115.57 783.496 3150.95L783.628 3149.39ZM849.088 3239.58C828.584 3257.36 804.857 3271.05 779.191 3279.92C766.318 3284.96 752.716 3289.32 737.784 3294.5C740.707 3271.15 743.314 3249.66 745.909 3228.33C746.255 3226.77 747.156 3225.39 748.442 3224.45L851.326 3148.04C852.546 3147.23 853.818 3146.49 855.135 3145.85C862.569 3165.66 866.602 3186.59 867.065 3207.74C866.595 3214.27 864.738 3220.63 861.615 3226.39C858.492 3232.15 854.177 3237.18 848.956 3241.14L849.088 3239.58Z" fill="#EAEEF2" stroke="#EAEEF2" stroke-width="5"/>
<path d="M891.433 2871.7C881.219 2862.63 868.007 2857.64 854.337 2857.71C840.357 2857.81 826.981 2863.41 817.099 2873.28C811.855 2878.48 807.73 2884.7 804.977 2891.55C802.223 2898.4 800.899 2905.74 801.085 2913.12C801.271 2920.5 802.964 2927.77 806.059 2934.47C809.155 2941.18 813.588 2947.18 819.088 2952.11C829.492 2961.27 842.972 2966.18 856.836 2965.85C870.849 2965.3 884.096 2959.32 893.774 2949.19C903.453 2939.05 908.804 2925.56 908.696 2911.55C908.702 2904.08 907.174 2896.69 904.204 2889.84C901.235 2882.98 896.888 2876.81 891.433 2871.7ZM855.108 2887.67C861.114 2887.66 866.92 2889.83 871.447 2893.77C873.908 2896.02 875.883 2898.74 877.251 2901.78C878.619 2904.82 879.352 2908.1 879.404 2911.43C879.399 2916.09 878.053 2920.66 875.525 2924.57C872.997 2928.49 869.394 2931.6 865.146 2933.53C860.898 2935.46 856.184 2936.13 851.565 2935.45C846.947 2934.78 842.62 2932.8 839.099 2929.73C836.696 2927.53 834.774 2924.85 833.454 2921.87C832.134 2918.89 831.445 2915.67 831.43 2912.41C831.39 2906.02 833.838 2899.87 838.257 2895.25C842.675 2890.64 848.718 2887.92 855.108 2887.67Z" fill="#EAEEF2" stroke="#EAEEF2" stroke-width="5"/>
<path d="M878.76 2913.59C877.62 2927.05 865.769 2937.04 852.283 2935.9C838.798 2934.76 828.795 2922.91 829.935 2909.45C831.075 2895.99 842.927 2886 856.412 2887.14C869.898 2888.28 879.9 2900.12 878.76 2913.59Z" fill="#50D8AF" stroke="#EAEEF2" stroke-width="5"/>
<g filter="url(#filter5_di_186:1009)">
<path d="M1850.8 559C1789.76 559 1740.27 608.025 1740.27 668.5C1740.27 728.975 1789.76 778 1850.8 778C1911.84 778 1961.32 728.975 1961.32 668.5C1961.32 608.025 1911.84 559 1850.8 559Z" fill="#50D8AF"/>
</g>
<g filter="url(#filter6_di_186:1009)">
<path d="M3632.17 2470C3571.13 2470 3521.65 2519.02 3521.65 2579.5C3521.65 2639.98 3571.13 2689 3632.17 2689C3693.21 2689 3742.69 2639.98 3742.69 2579.5C3742.69 2519.02 3693.21 2470 3632.17 2470Z" fill="#50D8AF"/>
</g>
<g filter="url(#filter7_di_186:1009)">
<path d="M3669.18 298C3608.14 298 3558.65 347.025 3558.65 407.5C3558.65 467.975 3608.14 517 3669.18 517C3730.22 517 3779.7 467.975 3779.7 407.5C3779.7 347.025 3730.22 298 3669.18 298Z" fill="#50D8AF"/>
</g>
</g>
<defs>
<filter id="filter0_d_186:1009" x="12" y="-18" width="4776" height="3784.81" filterUnits="userSpaceOnUse" color-interpolation-filters="sRGB">
<feFlood flood-opacity="0" result="BackgroundImageFix"/>
<feColorMatrix in="SourceAlpha" type="matrix" values="0 0 0 0 0 0 0 0 0 0 0 0 0 0 0 0 0 0 127 0" result="hardAlpha"/>
<feOffset/>
<feGaussianBlur stdDeviation="9"/>
<feComposite in2="hardAlpha" operator="out"/>
<feColorMatrix type="matrix" values="0 0 0 0 1 0 0 0 0 1 0 0 0 0 1 0 0 0 1 0"/>
<feBlend mode="normal" in2="BackgroundImageFix" result="effect1_dropShadow_186:1009"/>
<feBlend mode="normal" in="SourceGraphic" in2="effect1_dropShadow_186:1009" result="shape"/>
</filter>
<filter id="filter1_d_186:1009" x="1376.71" y="513.505" width="3131.4" height="1921.43" filterUnits="userSpaceOnUse" color-interpolation-filters="sRGB">
<feFlood flood-opacity="0" result="BackgroundImageFix"/>
<feColorMatrix in="SourceAlpha" type="matrix" values="0 0 0 0 0 0 0 0 0 0 0 0 0 0 0 0 0 0 127 0" result="hardAlpha"/>
<feOffset/>
<feGaussianBlur stdDeviation="62.5"/>
<feComposite in2="hardAlpha" operator="out"/>
<feColorMatrix type="matrix" values="0 0 0 0 0.212569 0 0 0 0 0.820764 0 0 0 0 0.637411 0 0 0 1 0"/>
<feBlend mode="normal" in2="BackgroundImageFix" result="effect1_dropShadow_186:1009"/>
<feBlend mode="normal" in="SourceGraphic" in2="effect1_dropShadow_186:1009" result="shape"/>
</filter>
<filter id="filter2_d_186:1009" x="2130.4" y="746.5" width="1602" height="1597" filterUnits="userSpaceOnUse" color-interpolation-filters="sRGB">
<feFlood flood-opacity="0" result="BackgroundImageFix"/>
<feColorMatrix in="SourceAlpha" type="matrix" values="0 0 0 0 0 0 0 0 0 0 0 0 0 0 0 0 0 0 127 0" result="hardAlpha"/>
<feOffset dy="4"/>
<feGaussianBlur stdDeviation="48.5"/>
<feComposite in2="hardAlpha" operator="out"/>
<feColorMatrix type="matrix" values="0 0 0 0 1 0 0 0 0 1 0 0 0 0 1 0 0 0 0.8 0"/>
<feBlend mode="normal" in2="BackgroundImageFix" result="effect1_dropShadow_186:1009"/>
<feBlend mode="normal" in="SourceGraphic" in2="effect1_dropShadow_186:1009" result="shape"/>
</filter>
<filter id="filter3_d_186:1009" x="2131.3" y="748.084" width="1598.08" height="1595.46" filterUnits="userSpaceOnUse" color-interpolation-filters="sRGB">
<feFlood flood-opacity="0" result="BackgroundImageFix"/>
<feColorMatrix in="SourceAlpha" type="matrix" values="0 0 0 0 0 0 0 0 0 0 0 0 0 0 0 0 0 0 127 0" result="hardAlpha"/>
<feMorphology radius="62" operator="dilate" in="SourceAlpha" result="effect1_dropShadow_186:1009"/>
<feOffset dy="4"/>
<feGaussianBlur stdDeviation="13"/>
<feComposite in2="hardAlpha" operator="out"/>
<feColorMatrix type="matrix" values="0 0 0 0 0.0470588 0 0 0 0 0.180392 0 0 0 0 0.541176 0 0 0 0.39 0"/>
<feBlend mode="normal" in2="BackgroundImageFix" result="effect1_dropShadow_186:1009"/>
<feBlend mode="normal" in="SourceGraphic" in2="effect1_dropShadow_186:1009" result="shape"/>
</filter>
<filter id="filter4_d_186:1009" x="1538.31" y="516.735" width="2969.81" height="1906.74" filterUnits="userSpaceOnUse" color-interpolation-filters="sRGB">
<feFlood flood-opacity="0" result="BackgroundImageFix"/>
<feColorMatrix in="SourceAlpha" type="matrix" values="0 0 0 0 0 0 0 0 0 0 0 0 0 0 0 0 0 0 127 0" result="hardAlpha"/>
<feOffset/>
<feGaussianBlur stdDeviation="62.5"/>
<feComposite in2="hardAlpha" operator="out"/>
<feColorMatrix type="matrix" values="0 0 0 0 0.212569 0 0 0 0 0.820764 0 0 0 0 0.637411 0 0 0 1 0"/>
<feBlend mode="normal" in2="BackgroundImageFix" result="effect1_dropShadow_186:1009"/>
<feBlend mode="normal" in="SourceGraphic" in2="effect1_dropShadow_186:1009" result="shape"/>
</filter>
<filter id="filter5_di_186:1009" x="1666.27" y="485" width="369.046" height="367" filterUnits="userSpaceOnUse" color-interpolation-filters="sRGB">
<feFlood flood-opacity="0" result="BackgroundImageFix"/>
<feColorMatrix in="SourceAlpha" type="matrix" values="0 0 0 0 0 0 0 0 0 0 0 0 0 0 0 0 0 0 127 0" result="hardAlpha"/>
<feOffset/>
<feGaussianBlur stdDeviation="37"/>
<feComposite in2="hardAlpha" operator="out"/>
<feColorMatrix type="matrix" values="0 0 0 0 0.482353 0 0 0 0 0.380392 0 0 0 0 1 0 0 0 1 0"/>
<feBlend mode="normal" in2="BackgroundImageFix" result="effect1_dropShadow_186:1009"/>
<feBlend mode="normal" in="SourceGraphic" in2="effect1_dropShadow_186:1009" result="shape"/>
<feColorMatrix in="SourceAlpha" type="matrix" values="0 0 0 0 0 0 0 0 0 0 0 0 0 0 0 0 0 0 127 0" result="hardAlpha"/>
<feOffset dx="39" dy="4"/>
<feGaussianBlur stdDeviation="2"/>
<feComposite in2="hardAlpha" operator="arithmetic" k2="-1" k3="1"/>
<feColorMatrix type="matrix" values="0 0 0 0 0.805365 0 0 0 0 0.886302 0 0 0 0 0.808602 0 0 0 0.87 0"/>
<feBlend mode="normal" in2="shape" result="effect2_innerShadow_186:1009"/>
</filter>
<filter id="filter6_di_186:1009" x="3447.65" y="2396" width="369.047" height="367" filterUnits="userSpaceOnUse" color-interpolation-filters="sRGB">
<feFlood flood-opacity="0" result="BackgroundImageFix"/>
<feColorMatrix in="SourceAlpha" type="matrix" values="0 0 0 0 0 0 0 0 0 0 0 0 0 0 0 0 0 0 127 0" result="hardAlpha"/>
<feOffset/>
<feGaussianBlur stdDeviation="37"/>
<feComposite in2="hardAlpha" operator="out"/>
<feColorMatrix type="matrix" values="0 0 0 0 0.482353 0 0 0 0 0.380392 0 0 0 0 1 0 0 0 1 0"/>
<feBlend mode="normal" in2="BackgroundImageFix" result="effect1_dropShadow_186:1009"/>
<feBlend mode="normal" in="SourceGraphic" in2="effect1_dropShadow_186:1009" result="shape"/>
<feColorMatrix in="SourceAlpha" type="matrix" values="0 0 0 0 0 0 0 0 0 0 0 0 0 0 0 0 0 0 127 0" result="hardAlpha"/>
<feOffset dx="39" dy="4"/>
<feGaussianBlur stdDeviation="2"/>
<feComposite in2="hardAlpha" operator="arithmetic" k2="-1" k3="1"/>
<feColorMatrix type="matrix" values="0 0 0 0 0.805365 0 0 0 0 0.886302 0 0 0 0 0.808602 0 0 0 0.87 0"/>
<feBlend mode="normal" in2="shape" result="effect2_innerShadow_186:1009"/>
</filter>
<filter id="filter7_di_186:1009" x="3484.65" y="224" width="369.046" height="367" filterUnits="userSpaceOnUse" color-interpolation-filters="sRGB">
<feFlood flood-opacity="0" result="BackgroundImageFix"/>
<feColorMatrix in="SourceAlpha" type="matrix" values="0 0 0 0 0 0 0 0 0 0 0 0 0 0 0 0 0 0 127 0" result="hardAlpha"/>
<feOffset/>
<feGaussianBlur stdDeviation="37"/>
<feComposite in2="hardAlpha" operator="out"/>
<feColorMatrix type="matrix" values="0 0 0 0 0.482353 0 0 0 0 0.380392 0 0 0 0 1 0 0 0 1 0"/>
<feBlend mode="normal" in2="BackgroundImageFix" result="effect1_dropShadow_186:1009"/>
<feBlend mode="normal" in="SourceGraphic" in2="effect1_dropShadow_186:1009" result="shape"/>
<feColorMatrix in="SourceAlpha" type="matrix" values="0 0 0 0 0 0 0 0 0 0 0 0 0 0 0 0 0 0 127 0" result="hardAlpha"/>
<feOffset dx="39" dy="4"/>
<feGaussianBlur stdDeviation="2"/>
<feComposite in2="hardAlpha" operator="arithmetic" k2="-1" k3="1"/>
<feColorMatrix type="matrix" values="0 0 0 0 0.805365 0 0 0 0 0.886302 0 0 0 0 0.808602 0 0 0 0.87 0"/>
<feBlend mode="normal" in2="shape" result="effect2_innerShadow_186:1009"/>
</filter>
<clipPath id="clip0_186:1009">
<rect width="4770" height="3656" rx="327" fill="white"/>
</clipPath>
</defs>
</svg>
