<svg width="4770" height="3656" viewBox="0 0 4770 3656" fill="none" xmlns="http://www.w3.org/2000/svg">
<g clip-path="url(#clip0_214:257)">
<rect width="4770" height="3656" rx="327" fill="#293469"/>
<g filter="url(#filter0_d_214:257)">
<path d="M1455.84 940.405C1464.85 940.405 1472.16 933.503 1472.16 924.989C1472.16 916.474 1464.85 909.572 1455.84 909.572C1446.83 909.572 1439.52 916.474 1439.52 924.989C1439.52 933.503 1446.83 940.405 1455.84 940.405Z" fill="#F2F5F8"/>
<path d="M3306.91 1108.44C3315.92 1108.44 3323.23 1101.54 3323.23 1093.03C3323.23 1084.51 3315.92 1077.61 3306.91 1077.61C3297.9 1077.61 3290.59 1084.51 3290.59 1093.03C3290.59 1101.54 3297.9 1108.44 3306.91 1108.44Z" fill="#F2F5F8"/>
<path d="M3216.26 201.956C3225.27 201.956 3232.58 195.399 3232.58 187.311C3232.58 179.222 3225.27 172.665 3216.26 172.665C3207.25 172.665 3199.94 179.222 3199.94 187.311C3199.94 195.399 3207.25 201.956 3216.26 201.956Z" fill="#F2F5F8"/>
<path d="M833.981 1358.19C842.993 1358.19 850.298 1351.29 850.298 1342.78C850.298 1334.26 842.993 1327.36 833.981 1327.36C824.969 1327.36 817.664 1334.26 817.664 1342.78C817.664 1351.29 824.969 1358.19 833.981 1358.19Z" fill="#F2F5F8"/>
<path d="M2686.87 1526.23C2695.88 1526.23 2703.18 1519.33 2703.18 1510.81C2703.18 1502.3 2695.88 1495.4 2686.87 1495.4C2677.86 1495.4 2670.55 1502.3 2670.55 1510.81C2670.55 1519.33 2677.86 1526.23 2686.87 1526.23Z" fill="#F2F5F8"/>
<path d="M2596.21 619.741C2605.23 619.741 2612.53 613.184 2612.53 605.096C2612.53 597.007 2605.23 590.45 2596.21 590.45C2587.2 590.45 2579.9 597.007 2579.9 605.096C2579.9 613.184 2587.2 619.741 2596.21 619.741Z" fill="#F2F5F8"/>
<path d="M2695.93 835.573C2704.94 835.573 2712.25 829.015 2712.25 820.927C2712.25 812.838 2704.94 806.281 2695.93 806.281C2686.92 806.281 2679.61 812.838 2679.61 820.927C2679.61 829.015 2686.92 835.573 2695.93 835.573Z" fill="#F2F5F8"/>
<path d="M4548.82 1003.61C4557.83 1003.61 4565.13 996.712 4565.13 988.198C4565.13 979.683 4557.83 972.781 4548.82 972.781C4539.8 972.781 4532.5 979.683 4532.5 988.198C4532.5 996.712 4539.8 1003.61 4548.82 1003.61Z" fill="#F2F5F8"/>
<path d="M4458.17 97.1233C4467.18 97.1233 4474.48 90.5663 4474.48 82.4777C4474.48 74.3891 4467.18 67.832 4458.17 67.832C4449.16 67.832 4441.85 74.3891 4441.85 82.4777C4441.85 90.5663 4449.16 97.1233 4458.17 97.1233Z" fill="#F2F5F8"/>
<path d="M2793.83 1581.73C2802.84 1581.73 2810.15 1575.17 2810.15 1567.09C2810.15 1559 2802.84 1552.44 2793.83 1552.44C2784.82 1552.44 2777.52 1559 2777.52 1567.09C2777.52 1575.17 2784.82 1581.73 2793.83 1581.73Z" fill="#F2F5F8"/>
<path d="M4646.72 1749.77C4655.73 1749.77 4663.03 1742.87 4663.03 1734.35C4663.03 1725.84 4655.73 1718.94 4646.72 1718.94C4637.7 1718.94 4630.4 1725.84 4630.4 1734.35C4630.4 1742.87 4637.7 1749.77 4646.72 1749.77Z" fill="#F2F5F8"/>
<path d="M4556.07 843.283C4565.08 843.283 4572.38 836.725 4572.38 828.637C4572.38 820.548 4565.08 813.991 4556.07 813.991C4547.05 813.991 4539.75 820.548 4539.75 828.637C4539.75 836.725 4547.05 843.283 4556.07 843.283Z" fill="#F2F5F8"/>
<path d="M1537.42 462.495C1546.44 462.495 1553.74 455.938 1553.74 447.85C1553.74 439.761 1546.44 433.204 1537.42 433.204C1528.41 433.204 1521.11 439.761 1521.11 447.85C1521.11 455.938 1528.41 462.495 1537.42 462.495Z" fill="#F2F5F8"/>
<path d="M3388.49 630.534C3397.51 630.534 3404.81 623.632 3404.81 615.118C3404.81 606.603 3397.51 599.701 3388.49 599.701C3379.48 599.701 3372.18 606.603 3372.18 615.118C3372.18 623.632 3379.48 630.534 3388.49 630.534Z" fill="#F2F5F8"/>
<path d="M915.567 880.28C924.578 880.28 931.884 873.722 931.884 865.634C931.884 857.545 924.578 850.988 915.567 850.988C906.555 850.988 899.25 857.545 899.25 865.634C899.25 873.722 906.555 880.28 915.567 880.28Z" fill="#F2F5F8"/>
<path d="M2768.45 1048.32C2777.46 1048.32 2784.77 1041.42 2784.77 1032.9C2784.77 1024.39 2777.46 1017.49 2768.45 1017.49C2759.44 1017.49 2752.13 1024.39 2752.13 1032.9C2752.13 1041.42 2759.44 1048.32 2768.45 1048.32Z" fill="#F2F5F8"/>
<path d="M2677.8 141.832C2686.81 141.832 2694.11 135.275 2694.11 127.187C2694.11 119.098 2686.81 112.541 2677.8 112.541C2668.78 112.541 2661.48 119.098 2661.48 127.187C2661.48 135.275 2668.78 141.832 2677.8 141.832Z" fill="#F2F5F8"/>
<path d="M2777.52 357.662C2786.53 357.662 2793.83 351.105 2793.83 343.017C2793.83 334.928 2786.53 328.371 2777.52 328.371C2768.51 328.371 2761.2 334.928 2761.2 343.017C2761.2 351.105 2768.51 357.662 2777.52 357.662Z" fill="#F2F5F8"/>
<path d="M4630.4 525.701C4639.41 525.701 4646.72 519.144 4646.72 511.056C4646.72 502.967 4639.41 496.41 4630.4 496.41C4621.39 496.41 4614.08 502.967 4614.08 511.056C4614.08 519.144 4621.39 525.701 4630.4 525.701Z" fill="#F2F5F8"/>
<path d="M2875.42 1103.82C2884.43 1103.82 2891.74 1097.26 2891.74 1089.17C2891.74 1081.09 2884.43 1074.53 2875.42 1074.53C2866.41 1074.53 2859.1 1081.09 2859.1 1089.17C2859.1 1097.26 2866.41 1103.82 2875.42 1103.82Z" fill="#F2F5F8"/>
<path d="M4728.3 1271.86C4737.32 1271.86 4744.62 1265.3 4744.62 1257.21C4744.62 1249.13 4737.32 1242.57 4728.3 1242.57C4719.29 1242.57 4711.99 1249.13 4711.99 1257.21C4711.99 1265.3 4719.29 1271.86 4728.3 1271.86Z" fill="#F2F5F8"/>
<path d="M4637.65 366.913C4646.66 366.913 4653.97 360.011 4653.97 351.497C4653.97 342.982 4646.66 336.08 4637.65 336.08C4628.64 336.08 4621.33 342.982 4621.33 351.497C4621.33 360.011 4628.64 366.913 4637.65 366.913Z" fill="#F2F5F8"/>
<path d="M377.104 447.078C386.115 447.078 393.421 440.521 393.421 432.433C393.421 424.344 386.115 417.787 377.104 417.787C368.092 417.787 360.787 424.344 360.787 432.433C360.787 440.521 368.092 447.078 377.104 447.078Z" fill="#F2F5F8"/>
<path d="M2229.99 615.116C2239 615.116 2246.31 608.559 2246.31 600.471C2246.31 592.382 2239 585.825 2229.99 585.825C2220.98 585.825 2213.67 592.382 2213.67 600.471C2213.67 608.559 2220.98 615.116 2229.99 615.116Z" fill="#F2F5F8"/>
<path d="M1619.01 343.788C1628.02 343.788 1635.33 336.886 1635.33 328.372C1635.33 319.857 1628.02 312.955 1619.01 312.955C1610 312.955 1602.69 319.857 1602.69 328.372C1602.69 336.886 1610 343.788 1619.01 343.788Z" fill="#F2F5F8"/>
<path d="M1716.91 1089.94C1725.92 1089.94 1733.23 1083.04 1733.23 1074.53C1733.23 1066.01 1725.92 1059.11 1716.91 1059.11C1707.9 1059.11 1700.59 1066.01 1700.59 1074.53C1700.59 1083.04 1707.9 1089.94 1716.91 1089.94Z" fill="#F2F5F8"/>
<path d="M409.738 3148.05C418.749 3148.05 426.055 3141.49 426.055 3133.4C426.055 3125.31 418.749 3118.75 409.738 3118.75C400.726 3118.75 393.421 3125.31 393.421 3133.4C393.421 3141.49 400.726 3148.05 409.738 3148.05Z" fill="#F2F5F8"/>
<path d="M1651.64 3044.76C1660.65 3044.76 1667.96 3037.85 1667.96 3029.34C1667.96 3020.83 1660.65 3013.92 1651.64 3013.92C1642.63 3013.92 1635.32 3020.83 1635.32 3029.34C1635.32 3037.85 1642.63 3044.76 1651.64 3044.76Z" fill="#F2F5F8"/>
<path d="M3511.78 3118.75C3520.79 3118.75 3528.09 3112.2 3528.09 3104.11C3528.09 3096.02 3520.79 3089.46 3511.78 3089.46C3502.77 3089.46 3495.46 3096.02 3495.46 3104.11C3495.46 3112.2 3502.77 3118.75 3511.78 3118.75Z" fill="#F2F5F8"/>
<path d="M2891.73 3536.54C2900.75 3536.54 2908.05 3529.98 2908.05 3521.9C2908.05 3513.81 2900.75 3507.25 2891.73 3507.25C2882.72 3507.25 2875.42 3513.81 2875.42 3521.9C2875.42 3529.98 2882.72 3536.54 2891.73 3536.54Z" fill="#F2F5F8"/>
<path d="M4753.68 3013.92C4762.7 3013.92 4770 3007.36 4770 2999.27C4770 2991.19 4762.7 2984.63 4753.68 2984.63C4744.67 2984.63 4737.37 2991.19 4737.37 2999.27C4737.37 3007.36 4744.67 3013.92 4753.68 3013.92Z" fill="#F2F5F8"/>
<path d="M3937.84 2596.14C3946.85 2596.14 3954.15 2589.58 3954.15 2581.49C3954.15 2573.4 3946.85 2566.84 3937.84 2566.84C3928.82 2566.84 3921.52 2573.4 3921.52 2581.49C3921.52 2589.58 3928.82 2596.14 3937.84 2596.14Z" fill="#F2F5F8"/>
<path d="M1178.49 2671C1187.5 2671 1194.8 2664.45 1194.8 2656.36C1194.8 2648.27 1187.5 2641.71 1178.49 2641.71C1169.47 2641.71 1162.17 2648.27 1162.17 2656.36C1162.17 2664.45 1169.47 2671 1178.49 2671Z" fill="#F2F5F8"/>
<path d="M2173.32 3537.29C2182.33 3537.29 2189.63 3530.73 2189.63 3522.65C2189.63 3514.56 2182.33 3508 2173.32 3508C2164.31 3508 2157 3514.56 2157 3522.65C2157 3530.73 2164.31 3537.29 2173.32 3537.29Z" fill="#F2F5F8"/>
<path d="M3970.47 2327.89C3979.48 2327.89 3986.78 2321.33 3986.78 2313.24C3986.78 2305.15 3979.48 2298.6 3970.47 2298.6C3961.46 2298.6 3954.15 2305.15 3954.15 2313.24C3954.15 2321.33 3961.46 2327.89 3970.47 2327.89Z" fill="#F2F5F8"/>
<path d="M1211.12 2402.76C1220.13 2402.76 1227.43 2396.2 1227.43 2388.11C1227.43 2380.02 1220.13 2373.46 1211.12 2373.46C1202.11 2373.46 1194.8 2380.02 1194.8 2388.11C1194.8 2396.2 1202.11 2402.76 1211.12 2402.76Z" fill="#F2F5F8"/>
<path d="M720.218 2202.08C729.23 2202.08 736.535 2195.52 736.535 2187.43C736.535 2179.34 729.23 2172.79 720.218 2172.79C711.207 2172.79 703.901 2179.34 703.901 2187.43C703.901 2195.52 711.207 2202.08 720.218 2202.08Z" fill="#F2F5F8"/>
<path d="M2206.38 3387.75C2215.39 3387.75 2222.69 3381.2 2222.69 3373.11C2222.69 3365.02 2215.39 3358.46 2206.38 3358.46C2197.36 3358.46 2190.06 3365.02 2190.06 3373.11C2190.06 3381.2 2197.36 3387.75 2206.38 3387.75Z" fill="#F2F5F8"/>
<path d="M4329.44 2298.6C4338.45 2298.6 4345.76 2291.69 4345.76 2283.18C4345.76 2274.67 4338.45 2267.76 4329.44 2267.76C4320.43 2267.76 4313.12 2274.67 4313.12 2283.18C4313.12 2291.69 4320.43 2298.6 4329.44 2298.6Z" fill="#F2F5F8"/>
<path d="M4215.32 896.833C4224.33 896.833 4231.63 889.931 4231.63 881.417C4231.63 872.902 4224.33 866 4215.32 866C4206.31 866 4199 872.902 4199 881.417C4199 889.931 4206.31 896.833 4215.32 896.833Z" fill="#F2F5F8"/>
<path d="M4441.32 2670.83C4450.33 2670.83 4457.63 2663.93 4457.63 2655.42C4457.63 2646.9 4450.33 2640 4441.32 2640C4432.31 2640 4425 2646.9 4425 2655.42C4425 2663.93 4432.31 2670.83 4441.32 2670.83Z" fill="#F2F5F8"/>
<path d="M1997.32 143.833C2006.33 143.833 2013.63 136.931 2013.63 128.417C2013.63 119.902 2006.33 113 1997.32 113C1988.31 113 1981 119.902 1981 128.417C1981 136.931 1988.31 143.833 1997.32 143.833Z" fill="#F2F5F8"/>
<path d="M260.317 143.833C269.329 143.833 276.634 136.931 276.634 128.417C276.634 119.902 269.329 113 260.317 113C251.305 113 244 119.902 244 128.417C244 136.931 251.305 143.833 260.317 143.833Z" fill="#F2F5F8"/>
<path d="M1456.32 2822.83C1465.33 2822.83 1472.63 2815.93 1472.63 2807.42C1472.63 2798.9 1465.33 2792 1456.32 2792C1447.31 2792 1440 2798.9 1440 2807.42C1440 2815.93 1447.31 2822.83 1456.32 2822.83Z" fill="#F2F5F8"/>
<path d="M1570.09 2373.46C1579.1 2373.46 1586.41 2366.56 1586.41 2358.05C1586.41 2349.53 1579.1 2342.63 1570.09 2342.63C1561.08 2342.63 1553.77 2349.53 1553.77 2358.05C1553.77 2366.56 1561.08 2373.46 1570.09 2373.46Z" fill="#F2F5F8"/>
<path d="M2565.35 3358.46C2574.36 3358.46 2581.67 3351.56 2581.67 3343.04C2581.67 3334.53 2574.36 3327.63 2565.35 3327.63C2556.34 3327.63 2549.03 3334.53 2549.03 3343.04C2549.03 3351.56 2556.34 3358.46 2565.35 3358.46Z" fill="#F2F5F8"/>
<path d="M4362.07 3462.54C4371.09 3462.54 4378.39 3455.64 4378.39 3447.13C4378.39 3438.61 4371.09 3431.71 4362.07 3431.71C4353.06 3431.71 4345.76 3438.61 4345.76 3447.13C4345.76 3455.64 4353.06 3462.54 4362.07 3462.54Z" fill="#F2F5F8"/>
<path d="M2916.53 3058.66C2925.55 3058.66 2932.85 3051.76 2932.85 3043.25C2932.85 3034.73 2925.55 3027.83 2916.53 3027.83C2907.52 3027.83 2900.22 3034.73 2900.22 3043.25C2900.22 3051.76 2907.52 3058.66 2916.53 3058.66Z" fill="#F2F5F8"/>
<path d="M1415.53 1977.66C1424.55 1977.66 1431.85 1970.76 1431.85 1962.25C1431.85 1953.73 1424.55 1946.83 1415.53 1946.83C1406.52 1946.83 1399.22 1953.73 1399.22 1962.25C1399.22 1970.76 1406.52 1977.66 1415.53 1977.66Z" fill="#F2F5F8"/>
<path d="M4394.71 1552.44C4403.72 1552.44 4411.03 1545.54 4411.03 1537.02C4411.03 1528.51 4403.72 1521.61 4394.71 1521.61C4385.7 1521.61 4378.39 1528.51 4378.39 1537.02C4378.39 1545.54 4385.7 1552.44 4394.71 1552.44Z" fill="#F2F5F8"/>
<path d="M1635.36 1627.31C1644.37 1627.31 1651.68 1620.4 1651.68 1611.89C1651.68 1603.38 1644.37 1596.47 1635.36 1596.47C1626.35 1596.47 1619.04 1603.38 1619.04 1611.89C1619.04 1620.4 1626.35 1627.31 1635.36 1627.31Z" fill="#F2F5F8"/>
<path d="M2630.62 2612.3C2639.63 2612.3 2646.94 2605.4 2646.94 2596.89C2646.94 2588.37 2639.63 2581.47 2630.62 2581.47C2621.61 2581.47 2614.3 2588.37 2614.3 2596.89C2614.3 2605.4 2621.61 2612.3 2630.62 2612.3Z" fill="#F2F5F8"/>
<path d="M2075.27 2128.58C2084.28 2128.58 2091.58 2121.68 2091.58 2113.17C2091.58 2104.65 2084.28 2097.75 2075.27 2097.75C2066.25 2097.75 2058.95 2104.65 2058.95 2113.17C2058.95 2121.68 2066.25 2128.58 2075.27 2128.58Z" fill="#F2F5F8"/>
<path d="M3026.19 2064.5C3033.26 2069.91 3043.41 2068.89 3048.86 2062.21C3054.31 2055.53 3052.99 2045.73 3045.92 2040.31C3038.85 2034.89 3028.7 2035.92 3023.26 2042.6C3017.81 2049.28 3019.12 2059.08 3026.19 2064.5Z" fill="#F2F5F8"/>
<path d="M2071.75 2524.77C2078.82 2530.18 2088.97 2529.16 2094.42 2522.48C2099.86 2515.8 2098.55 2505.99 2091.48 2500.58C2084.41 2495.16 2074.26 2496.19 2068.81 2502.87C2063.37 2509.55 2064.68 2519.35 2071.75 2524.77Z" fill="#F2F5F8"/>
<path d="M2190.1 1148.53C2199.11 1148.53 2206.42 1141.97 2206.42 1133.88C2206.42 1125.79 2199.11 1119.24 2190.1 1119.24C2181.09 1119.24 2173.79 1125.79 2173.79 1133.88C2173.79 1141.97 2181.09 1148.53 2190.1 1148.53Z" fill="#F2F5F8"/>
<path d="M801.344 507.202C810.356 507.202 817.661 500.645 817.661 492.557C817.661 484.468 810.356 477.911 801.344 477.911C792.333 477.911 785.027 484.468 785.027 492.557C785.027 500.645 792.333 507.202 801.344 507.202Z" fill="#F2F5F8"/>
<path d="M2271.69 672.159C2280.7 672.159 2288.01 665.257 2288.01 656.743C2288.01 648.228 2280.7 641.326 2271.69 641.326C2262.68 641.326 2255.37 648.228 2255.37 656.743C2255.37 665.257 2262.68 672.159 2271.69 672.159Z" fill="#F2F5F8"/>
<path d="M882.929 29.2913C891.941 29.2913 899.246 22.7342 899.246 14.6457C899.246 6.55708 891.941 0 882.929 0C873.918 0 866.612 6.55708 866.612 14.6457C866.612 22.7342 873.918 29.2913 882.929 29.2913Z" fill="#F2F5F8"/>
<path d="M1113.18 656.742C1122.19 656.742 1129.5 650.185 1129.5 642.097C1129.5 634.008 1122.19 627.451 1113.18 627.451C1104.17 627.451 1096.86 634.008 1096.86 642.097C1096.86 650.185 1104.17 656.742 1113.18 656.742Z" fill="#F2F5F8"/>
<path d="M1145.82 3357.71C1154.83 3357.71 1162.13 3350.81 1162.13 3342.29C1162.13 3333.78 1154.83 3326.88 1145.82 3326.88C1136.81 3326.88 1129.5 3333.78 1129.5 3342.29C1129.5 3350.81 1136.81 3357.71 1145.82 3357.71Z" fill="#F2F5F8"/>
<path d="M4247.86 3326.88C4256.87 3326.88 4264.17 3320.32 4264.17 3312.23C4264.17 3304.14 4256.87 3297.58 4247.86 3297.58C4238.84 3297.58 4231.54 3304.14 4231.54 3312.23C4231.54 3320.32 4238.84 3326.88 4247.86 3326.88Z" fill="#F2F5F8"/>
<path d="M2802.32 2923C2811.33 2923 2818.63 2916.44 2818.63 2908.35C2818.63 2900.26 2811.33 2893.71 2802.32 2893.71C2793.31 2893.71 2786 2900.26 2786 2908.35C2786 2916.44 2793.31 2923 2802.32 2923Z" fill="#F2F5F8"/>
<path d="M1301.32 1842C1310.33 1842 1317.63 1835.44 1317.63 1827.35C1317.63 1819.26 1310.33 1812.71 1301.32 1812.71C1292.31 1812.71 1285 1819.26 1285 1827.35C1285 1835.44 1292.31 1842 1301.32 1842Z" fill="#F2F5F8"/>
<path d="M2859.1 2685.55C2868.11 2685.55 2875.42 2678.99 2875.42 2670.9C2875.42 2662.81 2868.11 2656.26 2859.1 2656.26C2850.09 2656.26 2842.79 2662.81 2842.79 2670.9C2842.79 2678.99 2850.09 2685.55 2859.1 2685.55Z" fill="#F2F5F8"/>
<path d="M2303.75 2201.83C2312.76 2201.83 2320.06 2195.27 2320.06 2187.18C2320.06 2179.09 2312.76 2172.54 2303.75 2172.54C2294.74 2172.54 2287.43 2179.09 2287.43 2187.18C2287.43 2195.27 2294.74 2201.83 2303.75 2201.83Z" fill="#F2F5F8"/>
<path d="M3158.57 2259.27C3165.64 2264.68 3175.57 2263.93 3180.75 2257.58C3185.92 2251.24 3184.39 2241.7 3177.32 2236.29C3170.25 2230.87 3160.32 2231.63 3155.14 2237.97C3149.97 2244.32 3151.5 2253.85 3158.57 2259.27Z" fill="#F2F5F8"/>
<path d="M2204.13 2719.54C2211.2 2724.95 2221.13 2724.2 2226.3 2717.85C2231.48 2711.51 2229.94 2701.97 2222.87 2696.56C2215.8 2691.14 2205.88 2691.9 2200.7 2698.24C2195.52 2704.59 2197.06 2714.12 2204.13 2719.54Z" fill="#F2F5F8"/>
<path d="M654.493 3581.25C663.504 3581.25 670.81 3574.69 670.81 3566.6C670.81 3558.51 663.504 3551.96 654.493 3551.96C645.481 3551.96 638.176 3558.51 638.176 3566.6C638.176 3574.69 645.481 3581.25 654.493 3581.25Z" fill="#F2F5F8"/>
<path d="M1030.69 3536.54C1040.2 3536.54 1047.91 3529.98 1047.91 3521.9C1047.91 3513.81 1040.2 3507.25 1030.69 3507.25C1021.18 3507.25 1013.47 3513.81 1013.47 3521.9C1013.47 3529.98 1021.18 3536.54 1030.69 3536.54Z" fill="#F2F5F8"/>
<path d="M409.738 3596.66C418.749 3596.66 426.055 3589.76 426.055 3581.25C426.055 3572.73 418.749 3565.83 409.738 3565.83C400.726 3565.83 393.421 3572.73 393.421 3581.25C393.421 3589.76 400.726 3596.66 409.738 3596.66Z" fill="#F2F5F8"/>
<path d="M3758.34 3074.05C3767.36 3074.05 3774.66 3067.49 3774.66 3059.4C3774.66 3051.31 3767.36 3044.75 3758.34 3044.75C3749.33 3044.75 3742.03 3051.31 3742.03 3059.4C3742.03 3067.49 3749.33 3074.05 3758.34 3074.05Z" fill="#F2F5F8"/>
<path d="M97.9022 2475.89C106.914 2475.89 114.219 2469.33 114.219 2461.24C114.219 2453.15 106.914 2446.6 97.9022 2446.6C88.8906 2446.6 81.5852 2453.15 81.5852 2461.24C81.5852 2469.33 88.8906 2475.89 97.9022 2475.89Z" fill="#F2F5F8"/>
<path d="M3381.24 3491.83C3390.25 3491.83 3397.56 3485.28 3397.56 3477.19C3397.56 3469.1 3390.25 3462.54 3381.24 3462.54C3372.23 3462.54 3364.92 3469.1 3364.92 3477.19C3364.92 3485.28 3372.23 3491.83 3381.24 3491.83Z" fill="#F2F5F8"/>
<path d="M3872.57 2164.47C3881.58 2164.47 3888.88 2157.57 3888.88 2149.06C3888.88 2140.54 3881.58 2133.64 3872.57 2133.64C3863.55 2133.64 3856.25 2140.54 3856.25 2149.06C3856.25 2157.57 3863.55 2164.47 3872.57 2164.47Z" fill="#F2F5F8"/>
<path d="M1113.22 2239.34C1122.23 2239.34 1129.53 2232.44 1129.53 2223.93C1129.53 2215.41 1122.23 2208.51 1113.22 2208.51C1104.2 2208.51 1096.9 2215.41 1096.9 2223.93C1096.9 2232.44 1104.2 2239.34 1113.22 2239.34Z" fill="#F2F5F8"/>
<path d="M622.317 2038.66C631.328 2038.66 638.634 2031.76 638.634 2023.25C638.634 2014.73 631.328 2007.83 622.317 2007.83C613.305 2007.83 606 2014.73 606 2023.25C606 2031.76 613.305 2038.66 622.317 2038.66Z" fill="#F2F5F8"/>
<path d="M2108.48 3224.34C2117.49 3224.34 2124.79 3217.44 2124.79 3208.92C2124.79 3200.41 2117.49 3193.51 2108.48 3193.51C2099.46 3193.51 2092.16 3200.41 2092.16 3208.92C2092.16 3217.44 2099.46 3224.34 2108.48 3224.34Z" fill="#F2F5F8"/>
<path d="M212.12 1566.32C221.131 1566.32 228.437 1559.41 228.437 1550.9C228.437 1542.38 221.131 1535.48 212.12 1535.48C203.108 1535.48 195.803 1542.38 195.803 1550.9C195.803 1559.41 203.108 1566.32 212.12 1566.32Z" fill="#F2F5F8"/>
<path d="M3921.52 1910.1C3930.53 1910.1 3937.84 1903.54 3937.84 1895.46C3937.84 1887.37 3930.53 1880.81 3921.52 1880.81C3912.51 1880.81 3905.2 1887.37 3905.2 1895.46C3905.2 1903.54 3912.51 1910.1 3921.52 1910.1Z" fill="#F2F5F8"/>
<path d="M1162.17 1984.97C1171.18 1984.97 1178.48 1978.41 1178.48 1970.32C1178.48 1962.24 1171.18 1955.68 1162.17 1955.68C1153.16 1955.68 1145.85 1962.24 1145.85 1970.32C1145.85 1978.41 1153.16 1984.97 1162.17 1984.97Z" fill="#F2F5F8"/>
<path d="M671.27 1784.29C680.281 1784.29 687.587 1777.73 687.587 1769.65C687.587 1761.56 680.281 1755 671.27 1755C662.258 1755 654.953 1761.56 654.953 1769.65C654.953 1777.73 662.258 1784.29 671.27 1784.29Z" fill="#F2F5F8"/>
<path d="M2157.43 2969.97C2166.44 2969.97 2173.74 2963.41 2173.74 2955.32C2173.74 2947.23 2166.44 2940.67 2157.43 2940.67C2148.42 2940.67 2141.11 2947.23 2141.11 2955.32C2141.11 2963.41 2148.42 2969.97 2157.43 2969.97Z" fill="#F2F5F8"/>
<path d="M261.073 1311.94C270.085 1311.94 277.39 1305.39 277.39 1297.3C277.39 1289.21 270.085 1282.65 261.073 1282.65C252.061 1282.65 244.756 1289.21 244.756 1297.3C244.756 1305.39 252.061 1311.94 261.073 1311.94Z" fill="#F2F5F8"/>
<path d="M4296.81 1865.39C4305.82 1865.39 4313.13 1858.84 4313.13 1850.75C4313.13 1842.66 4305.82 1836.1 4296.81 1836.1C4287.8 1836.1 4280.49 1842.66 4280.49 1850.75C4280.49 1858.84 4287.8 1865.39 4296.81 1865.39Z" fill="#F2F5F8"/>
<path d="M638.177 1267.23C647.189 1267.23 654.494 1260.68 654.494 1252.59C654.494 1244.5 647.189 1237.94 638.177 1237.94C629.166 1237.94 621.86 1244.5 621.86 1252.59C621.86 1260.68 629.166 1267.23 638.177 1267.23Z" fill="#F2F5F8"/>
<path d="M3676.76 1925.52C3685.77 1925.52 3693.08 1918.62 3693.08 1910.1C3693.08 1901.59 3685.77 1894.69 3676.76 1894.69C3667.75 1894.69 3660.45 1901.59 3660.45 1910.1C3660.45 1918.62 3667.75 1925.52 3676.76 1925.52Z" fill="#F2F5F8"/>
<path d="M16.317 1327.36C25.3286 1327.36 32.634 1320.46 32.634 1311.94C32.634 1303.43 25.3286 1296.53 16.317 1296.53C7.30537 1296.53 0 1303.43 0 1311.94C0 1320.46 7.30537 1327.36 16.317 1327.36Z" fill="#F2F5F8"/>
<path d="M4264.17 3208.17C4273.19 3208.17 4280.49 3201.61 4280.49 3193.52C4280.49 3185.44 4273.19 3178.88 4264.17 3178.88C4255.16 3178.88 4247.86 3185.44 4247.86 3193.52C4247.86 3201.61 4255.16 3208.17 4264.17 3208.17Z" fill="#F2F5F8"/>
<path d="M2818.63 2804.29C2827.65 2804.29 2834.95 2797.73 2834.95 2789.65C2834.95 2781.56 2827.65 2775 2818.63 2775C2809.62 2775 2802.32 2781.56 2802.32 2789.65C2802.32 2797.73 2809.62 2804.29 2818.63 2804.29Z" fill="#F2F5F8"/>
<path d="M1317.63 1723.29C1326.65 1723.29 1333.95 1716.73 1333.95 1708.65C1333.95 1700.56 1326.65 1694 1317.63 1694C1308.62 1694 1301.32 1700.56 1301.32 1708.65C1301.32 1716.73 1308.62 1723.29 1317.63 1723.29Z" fill="#F2F5F8"/>
<path d="M605.54 2610.01C614.552 2610.01 621.857 2603.45 621.857 2595.36C621.857 2587.27 614.552 2580.72 605.54 2580.72C596.529 2580.72 589.223 2587.27 589.223 2595.36C589.223 2603.45 596.529 2610.01 605.54 2610.01Z" fill="#F2F5F8"/>
<path d="M3888.88 3625.96C3897.9 3625.96 3905.2 3619.4 3905.2 3611.31C3905.2 3603.22 3897.9 3596.66 3888.88 3596.66C3879.87 3596.66 3872.57 3603.22 3872.57 3611.31C3872.57 3619.4 3879.87 3625.96 3888.88 3625.96Z" fill="#F2F5F8"/>
</g>
<path d="M925.073 3175.13C921.804 3146.2 914.697 3117.83 903.938 3090.77C898.285 3076.37 899.919 3068.66 909.029 3060.81C964.273 3015.42 1009.87 2959.47 1043.15 2896.23C1083.59 2815.32 1095.57 2722.58 1078.1 2611.08C1076.59 2604.81 1073 2599.23 1067.92 2595.24C1062.85 2591.26 1056.57 2589.09 1050.12 2589.1C1001.63 2586.2 952.981 2589.8 905.456 2599.8C829.447 2615.91 759.527 2653.09 703.719 2707.07C669.183 2740.43 638.165 2777.24 611.15 2816.92C610.203 2818.07 608.981 2818.98 607.596 2819.55C606.21 2820.11 604.705 2820.33 603.216 2820.17C576.278 2815.93 548.887 2810.08 522.061 2806.83C508.177 2804.25 493.871 2805.11 480.399 2809.34C466.927 2813.57 454.7 2821.03 444.792 2831.08C430.524 2846.06 418.957 2863.4 410.603 2882.32C389.976 2931.34 376.283 2982.99 369.917 3035.78C369.142 3040.24 369.637 3044.84 371.346 3049.04C373.538 3055.49 378.06 3060.89 384.027 3064.19C389.995 3067.49 396.979 3068.44 403.614 3066.87C438.985 3058.88 474.373 3050.7 509.777 3042.32C512.015 3041.78 514.359 3041.87 516.552 3042.57C518.744 3043.27 520.7 3044.57 522.203 3046.31L582.783 3100.86L529.566 3163.43C527.093 3165.77 525.13 3168.59 523.801 3171.72C522.473 3174.84 521.807 3178.21 521.846 3181.61C521.885 3185.01 522.628 3188.36 524.027 3191.46C525.427 3194.56 527.454 3197.33 529.98 3199.61C532.506 3201.89 535.477 3203.62 538.705 3204.69C541.933 3205.77 545.349 3206.16 548.738 3205.86C552.126 3205.55 555.414 3204.54 558.395 3202.9C561.376 3201.27 563.984 3199.03 566.057 3196.33L620.149 3135.01L682.936 3191.32C684.825 3192.6 686.308 3194.39 687.21 3196.48C688.112 3198.57 688.394 3200.88 688.025 3203.12C683.856 3236.11 679.883 3269.12 676.299 3302.16C675.543 3307.38 676.175 3312.71 678.132 3317.61C680.465 3324.1 685.215 3329.44 691.393 3332.52C697.571 3335.6 704.7 3336.18 711.296 3334.15C741.94 3324.77 771.754 3315.92 802.156 3304.77C836.512 3293.33 868.189 3275.07 895.273 3251.06C906.159 3241.87 914.583 3230.12 919.786 3216.86C924.988 3203.61 926.805 3189.27 925.073 3175.13V3175.13ZM497.704 3001.68C471.842 3007.92 445.622 3013.75 417.582 3020.2C428.453 2968.36 439.939 2918.54 467.874 2878.54C472.297 2870.59 478.437 2863.73 485.848 2858.46C493.258 2853.18 501.754 2849.62 510.716 2848.04C536.031 2846.59 561.412 2849.34 585.832 2856.16L568.358 2886.25L504.323 2997.73C503.607 2998.97 502.642 3000.04 501.488 3000.89C500.335 3001.74 499.018 3002.34 497.621 3002.65L497.704 3001.68ZM779.101 3103.94L706.439 3161.93L703.934 3163.68L643.89 3109.76L758.387 2982.16C760.595 2979.77 762.303 2976.97 763.412 2973.91C764.521 2970.85 765.007 2967.61 764.843 2964.36C764.679 2961.11 763.868 2957.93 762.457 2955C761.046 2952.07 759.064 2949.45 756.626 2947.3C751.748 2942.94 745.346 2940.68 738.81 2941.01C732.274 2941.34 726.132 2944.23 721.718 2949.05L607.221 3076.65L545.164 3020.99C558.013 2999.13 570.049 2977.6 583.01 2956.73C611.863 2910.53 639.417 2863.44 670.657 2819.21C713.37 2755.54 771.859 2704.01 840.432 2669.61C897.137 2642.83 959.076 2628.91 1021.81 2628.87L1039.91 2628.44L1042.64 2628.67C1043.7 2639.35 1045.13 2650.26 1045.8 2660.91C1049.59 2715.04 1042.99 2769.41 1026.35 2821.06C1009.15 2870.38 982.62 2915.95 948.21 2955.27C897.254 3011.29 840.514 3061.78 778.937 3105.89L779.101 3103.94ZM860.702 3216.36C835.143 3238.53 805.565 3255.6 773.57 3266.65C757.523 3272.94 740.567 3278.37 721.952 3284.84C725.596 3255.73 728.846 3228.94 732.081 3202.34C732.513 3200.4 733.635 3198.69 735.239 3197.51L863.493 3102.26C865.013 3101.24 866.6 3100.33 868.241 3099.52C877.508 3124.22 882.535 3150.31 883.112 3176.68C882.527 3184.82 880.211 3192.75 876.319 3199.93C872.426 3207.11 867.046 3213.37 860.538 3218.31L860.702 3216.36Z" fill="#EAEEF2" stroke="#EAEEF2" stroke-width="5"/>
<path d="M913.49 2757.78C900.757 2746.47 884.287 2740.25 867.246 2740.33C849.82 2740.46 833.145 2747.44 820.827 2759.74C814.29 2766.23 809.147 2773.98 805.715 2782.52C802.282 2791.06 800.631 2800.21 800.863 2809.41C801.095 2818.61 803.205 2827.67 807.064 2836.03C810.923 2844.38 816.45 2851.87 823.305 2858.02C836.275 2869.44 853.079 2875.55 870.362 2875.14C887.83 2874.45 904.343 2867 916.409 2854.37C928.474 2841.74 935.144 2824.91 935.009 2807.46C935.018 2798.15 933.112 2788.93 929.41 2780.39C925.709 2771.84 920.29 2764.15 913.49 2757.78ZM868.208 2777.68C875.695 2777.67 882.933 2780.37 888.576 2785.29C891.644 2788.09 894.106 2791.49 895.811 2795.28C897.517 2799.06 898.43 2803.16 898.494 2807.31C898.489 2813.12 896.81 2818.8 893.659 2823.69C890.508 2828.57 886.016 2832.45 880.721 2834.85C875.425 2837.25 869.549 2838.09 863.792 2837.25C858.035 2836.41 852.64 2833.94 848.252 2830.12C845.255 2827.37 842.859 2824.04 841.214 2820.32C839.569 2816.6 838.71 2812.59 838.691 2808.52C838.642 2800.56 841.693 2792.89 847.201 2787.14C852.709 2781.38 860.241 2777.99 868.208 2777.68Z" fill="#EAEEF2" stroke="#EAEEF2" stroke-width="5"/>
<path d="M898.307 2810.04C896.857 2827.16 881.784 2839.87 864.635 2838.42C847.485 2836.97 834.764 2821.91 836.214 2804.79C837.663 2787.67 852.736 2774.96 869.886 2776.41C887.035 2777.86 899.757 2792.92 898.307 2810.04Z" fill="#50D8AF" stroke="#EAEEF2" stroke-width="5"/>
<g filter="url(#filter1_di_214:257)">
<path d="M1431.52 563C1370.48 563 1321 612.025 1321 672.5C1321 732.975 1370.48 782 1431.52 782C1492.56 782 1542.05 732.975 1542.05 672.5C1542.05 612.025 1492.56 563 1431.52 563Z" fill="#50D8AF"/>
</g>
<g filter="url(#filter2_di_214:257)">
<path d="M3632.17 2470C3571.13 2470 3521.65 2519.02 3521.65 2579.5C3521.65 2639.98 3571.13 2689 3632.17 2689C3693.21 2689 3742.69 2639.98 3742.69 2579.5C3742.69 2519.02 3693.21 2470 3632.17 2470Z" fill="#50D8AF"/>
</g>
<g filter="url(#filter3_di_214:257)">
<path d="M4004.52 301C3943.48 301 3894 350.025 3894 410.5C3894 470.975 3943.48 520 4004.52 520C4065.56 520 4115.05 470.975 4115.05 410.5C4115.05 350.025 4065.56 301 4004.52 301Z" fill="#50D8AF"/>
</g>
<g filter="url(#filter4_dd_214:257)">
<ellipse cx="3029.56" cy="1483.27" rx="1526.66" ry="532.201" transform="rotate(7.92277 3029.56 1483.27)" fill="#DCF6EE"/>
</g>
<g filter="url(#filter5_dd_214:257)">
<ellipse cx="3029.72" cy="1379.05" rx="1375.37" ry="479.462" transform="rotate(7.92277 3029.72 1379.05)" fill="#DCF6EE"/>
</g>
<g filter="url(#filter6_d_214:257)">
<ellipse cx="3031.1" cy="1261.68" rx="1175.33" ry="409.725" transform="rotate(7.92277 3031.1 1261.68)" fill="#C4E1FF"/>
</g>
<g filter="url(#filter7_d_214:257)">
<path fill-rule="evenodd" clip-rule="evenodd" d="M1852.48 1110.54C1823.37 1344.63 2326.59 1600.25 2977.56 1681.24C3628.53 1762.23 4179.01 1637.7 4208.11 1403.62C4237.21 1169.53 3734 913.913 3083.03 832.923C2432.06 751.933 1881.58 876.457 1852.48 1110.54ZM2096.8 1325.32C2044.75 1314.39 1999.08 1281.07 1971.26 1235.73C1947.97 1197.78 1937.73 1159.46 1942.42 1121.73C1946.03 1092.75 1958.25 1065.6 1978.17 1040.48C1999.03 1014.16 2032.22 998.064 2063.97 1009.01V1009.01C2071.51 1011.61 2079.85 1014.49 2090.34 1016.8C2118.06 1022.94 2166.4 1027.72 2204.52 1030.65C2230.43 1032.65 2256.83 1034.52 2280.77 1044.66C2294.45 1050.46 2305.15 1057.77 2303.28 1065.82C2302.28 1070.27 2299.87 1075.79 2297.23 1081.81C2288.73 1101.24 2174.2 1119.25 2201.83 1129.15C2214.5 1133.68 2333.2 1142.69 2348.78 1145.27C2377.71 1150.05 2408.96 1155.22 2432.48 1174.75C2468.65 1204.78 2527.67 1228.62 2555.52 1221.79C2578.8 1216.08 2592.31 1154.28 2597.57 1130.27L2597.57 1130.26C2598.6 1125.55 2599.31 1122.29 2599.72 1121.2C2602.19 1114.56 2625.15 1071.45 2723.06 1073.25C2820.97 1075.05 2858.81 1129.49 2818.08 1156.83C2810.69 1161.79 2800.45 1167.69 2788.89 1174.35C2736.7 1204.39 2747.48 1187.39 2781.67 1232.42C2823.42 1287.44 2757.9 1344.43 3014.82 1355.12C3061.93 1357.11 3103.34 1361.12 3136.98 1361.48C3199.18 1362.14 3217.52 1291.87 3279.68 1294.38V1294.38C3314.65 1295.99 3371.9 1306.7 3428.63 1317.31C3456.73 1322.57 3484.71 1327.8 3509.78 1331.89C3628.77 1351.13 3700.52 1273.65 3705.42 1258.77C3713.38 1234.14 3786.34 1163.56 3748.08 1123.72C3722.18 1096.75 3680.12 1093.47 3645.78 1078.67C3618.97 1067.12 3595.8 1057.15 3587.07 1052.56C3548.11 1032.07 3523.15 1047.49 3472.31 1030.79C3451.45 1024.43 3463.75 1015.88 3383.11 1013.57C3358.13 1010.04 3332.86 1005.1 3321.23 1003.36C3302.51 1002.22 3270.91 988.861 3238.09 985.31C3200.82 981.279 3147.06 952.244 3080.33 947.04C2996.85 940.589 2970.65 902.19 3035.77 912.804C3100.89 923.418 3326.16 1011.94 3429.32 960.435C3432.64 958.781 3433.17 955.156 3434.35 951.368C3441.95 926.781 3480.17 943.188 3504.92 950.245C3884.34 1058.42 4138.26 1230.79 4118.17 1392.43C4102.46 1518.77 4058.23 1548.44 3792.19 1588.14C3494.67 1632.53 3571.42 1577.89 3426.87 1577.69C3372.63 1577.93 3314.84 1572.38 3259.57 1561.63C3227.12 1555.32 3196.25 1547.35 3168.04 1538.06C3130.65 1525.74 3097.77 1502.7 3061.53 1487.3C3010.07 1465.45 2934.58 1451.4 2855.52 1484.59C2713.86 1543.82 2654.73 1556.81 2520.57 1535.01C2479.6 1528.32 2452.57 1517.58 2435.24 1505.71C2399.8 1481.46 2427.99 1424.08 2397.39 1393.95C2368.41 1365.42 2309.3 1341.9 2245.62 1337.04C2223.84 1335.37 2204.49 1334.59 2186.62 1333.86C2153.66 1332.52 2125.72 1331.39 2096.8 1325.32Z" fill="#DCF6EE"/>
</g>
<path d="M3236.18 428.261C3264.28 439.257 3363.02 423.867 3383.1 405.153C3378.29 374.608 3354.03 316.071 3295.39 326.274C3236.76 336.477 3231.49 398.517 3236.18 428.261Z" stroke="#50D8AF" stroke-width="31"/>
<path d="M3237.58 380.845C3195.7 387.433 3134.86 428.799 3139.14 455.963C3143.37 482.875 3179.44 495.326 3226.6 497.277M3367.29 360.584C3468.3 362.11 3474.83 382.666 3478.01 399.578C3482.78 424.938 3452.16 448.492 3407.58 466.147M3226.6 497.277L3215.25 541.359L3197 536.942L3234.33 546.416M3226.6 497.277C3282.88 499.606 3354.96 486.985 3407.58 466.147M3407.58 466.147L3434.46 506.837M3434.46 506.837L3434.48 506.876L3415.72 517.886L3434.46 506.837ZM3434.46 506.837L3451.21 496.957" stroke="#50D8AF" stroke-width="31" stroke-linecap="round" stroke-linejoin="round"/>
<circle cx="899.5" cy="1008.5" r="9.5" fill="#50D8AF"/>
<path d="M823.414 1159.9C980.321 1264.13 1097.14 1183.03 1164.75 1138.34C1176.51 1130.56 1185.19 1122.62 1190.32 1114.49M823.414 1159.9C820.572 1153.11 825.629 1136.85 844.76 1107.22M823.414 1159.9C727.884 1167.99 680.658 1105.7 665.043 1082.83C664.035 1079.76 673.895 1070.88 720.495 1059.39M1190.32 1114.49C1208.76 1085.22 1189.22 1055.67 1173.99 1042.27L850.204 955.51C800.79 939.121 715.372 871.905 769.007 734.147C797.545 720.123 857.419 676.357 868.606 613.491C835.227 608.43 766.945 621.828 758.951 654.947C752.823 625.81 757.099 602.031 680.463 563.078C661.293 617.257 690.445 688.697 707.417 717.644C654.368 885.114 679.022 991.706 720.495 1059.39M1190.32 1114.49C1133.78 1094.3 1038.86 1063.83 975.779 1057.01C931.671 1052.23 868.673 1070.18 844.76 1107.22M844.76 1107.22C825.679 1085.95 774.958 1046.39 724.723 1058.37C723.281 1058.71 721.872 1059.05 720.495 1059.39" stroke="#50D8AF" stroke-width="30" stroke-linejoin="round"/>
</g>
<defs>
<filter id="filter0_d_214:257" x="-18" y="-18" width="4806" height="3661.96" filterUnits="userSpaceOnUse" color-interpolation-filters="sRGB">
<feFlood flood-opacity="0" result="BackgroundImageFix"/>
<feColorMatrix in="SourceAlpha" type="matrix" values="0 0 0 0 0 0 0 0 0 0 0 0 0 0 0 0 0 0 127 0" result="hardAlpha"/>
<feOffset/>
<feGaussianBlur stdDeviation="9"/>
<feComposite in2="hardAlpha" operator="out"/>
<feColorMatrix type="matrix" values="0 0 0 0 1 0 0 0 0 1 0 0 0 0 1 0 0 0 1 0"/>
<feBlend mode="normal" in2="BackgroundImageFix" result="effect1_dropShadow_214:257"/>
<feBlend mode="normal" in="SourceGraphic" in2="effect1_dropShadow_214:257" result="shape"/>
</filter>
<filter id="filter1_di_214:257" x="1247" y="489" width="369.046" height="367" filterUnits="userSpaceOnUse" color-interpolation-filters="sRGB">
<feFlood flood-opacity="0" result="BackgroundImageFix"/>
<feColorMatrix in="SourceAlpha" type="matrix" values="0 0 0 0 0 0 0 0 0 0 0 0 0 0 0 0 0 0 127 0" result="hardAlpha"/>
<feOffset/>
<feGaussianBlur stdDeviation="37"/>
<feComposite in2="hardAlpha" operator="out"/>
<feColorMatrix type="matrix" values="0 0 0 0 0.482353 0 0 0 0 0.380392 0 0 0 0 1 0 0 0 1 0"/>
<feBlend mode="normal" in2="BackgroundImageFix" result="effect1_dropShadow_214:257"/>
<feBlend mode="normal" in="SourceGraphic" in2="effect1_dropShadow_214:257" result="shape"/>
<feColorMatrix in="SourceAlpha" type="matrix" values="0 0 0 0 0 0 0 0 0 0 0 0 0 0 0 0 0 0 127 0" result="hardAlpha"/>
<feOffset dx="39" dy="4"/>
<feGaussianBlur stdDeviation="2"/>
<feComposite in2="hardAlpha" operator="arithmetic" k2="-1" k3="1"/>
<feColorMatrix type="matrix" values="0 0 0 0 0.805365 0 0 0 0 0.886302 0 0 0 0 0.808602 0 0 0 0.87 0"/>
<feBlend mode="normal" in2="shape" result="effect2_innerShadow_214:257"/>
</filter>
<filter id="filter2_di_214:257" x="3447.65" y="2396" width="369.046" height="367" filterUnits="userSpaceOnUse" color-interpolation-filters="sRGB">
<feFlood flood-opacity="0" result="BackgroundImageFix"/>
<feColorMatrix in="SourceAlpha" type="matrix" values="0 0 0 0 0 0 0 0 0 0 0 0 0 0 0 0 0 0 127 0" result="hardAlpha"/>
<feOffset/>
<feGaussianBlur stdDeviation="37"/>
<feComposite in2="hardAlpha" operator="out"/>
<feColorMatrix type="matrix" values="0 0 0 0 0.482353 0 0 0 0 0.380392 0 0 0 0 1 0 0 0 1 0"/>
<feBlend mode="normal" in2="BackgroundImageFix" result="effect1_dropShadow_214:257"/>
<feBlend mode="normal" in="SourceGraphic" in2="effect1_dropShadow_214:257" result="shape"/>
<feColorMatrix in="SourceAlpha" type="matrix" values="0 0 0 0 0 0 0 0 0 0 0 0 0 0 0 0 0 0 127 0" result="hardAlpha"/>
<feOffset dx="39" dy="4"/>
<feGaussianBlur stdDeviation="2"/>
<feComposite in2="hardAlpha" operator="arithmetic" k2="-1" k3="1"/>
<feColorMatrix type="matrix" values="0 0 0 0 0.805365 0 0 0 0 0.886302 0 0 0 0 0.808602 0 0 0 0.87 0"/>
<feBlend mode="normal" in2="shape" result="effect2_innerShadow_214:257"/>
</filter>
<filter id="filter3_di_214:257" x="3820" y="227" width="369.046" height="367" filterUnits="userSpaceOnUse" color-interpolation-filters="sRGB">
<feFlood flood-opacity="0" result="BackgroundImageFix"/>
<feColorMatrix in="SourceAlpha" type="matrix" values="0 0 0 0 0 0 0 0 0 0 0 0 0 0 0 0 0 0 127 0" result="hardAlpha"/>
<feOffset/>
<feGaussianBlur stdDeviation="37"/>
<feComposite in2="hardAlpha" operator="out"/>
<feColorMatrix type="matrix" values="0 0 0 0 0.482353 0 0 0 0 0.380392 0 0 0 0 1 0 0 0 1 0"/>
<feBlend mode="normal" in2="BackgroundImageFix" result="effect1_dropShadow_214:257"/>
<feBlend mode="normal" in="SourceGraphic" in2="effect1_dropShadow_214:257" result="shape"/>
<feColorMatrix in="SourceAlpha" type="matrix" values="0 0 0 0 0 0 0 0 0 0 0 0 0 0 0 0 0 0 127 0" result="hardAlpha"/>
<feOffset dx="39" dy="4"/>
<feGaussianBlur stdDeviation="2"/>
<feComposite in2="hardAlpha" operator="arithmetic" k2="-1" k3="1"/>
<feColorMatrix type="matrix" values="0 0 0 0 0.805365 0 0 0 0 0.886302 0 0 0 0 0.808602 0 0 0 0.87 0"/>
<feBlend mode="normal" in2="shape" result="effect2_innerShadow_214:257"/>
</filter>
<filter id="filter4_dd_214:257" x="1353.12" y="658.717" width="3352.88" height="1657.1" filterUnits="userSpaceOnUse" color-interpolation-filters="sRGB">
<feFlood flood-opacity="0" result="BackgroundImageFix"/>
<feColorMatrix in="SourceAlpha" type="matrix" values="0 0 0 0 0 0 0 0 0 0 0 0 0 0 0 0 0 0 127 0" result="hardAlpha"/>
<feOffset dy="30"/>
<feGaussianBlur stdDeviation="30"/>
<feComposite in2="hardAlpha" operator="out"/>
<feColorMatrix type="matrix" values="0 0 0 0 0.196078 0 0 0 0 0.196078 0 0 0 0 0.364706 0 0 0 0.25 0"/>
<feBlend mode="normal" in2="BackgroundImageFix" result="effect1_dropShadow_214:257"/>
<feColorMatrix in="SourceAlpha" type="matrix" values="0 0 0 0 0 0 0 0 0 0 0 0 0 0 0 0 0 0 127 0" result="hardAlpha"/>
<feOffset dy="4"/>
<feGaussianBlur stdDeviation="45.5"/>
<feComposite in2="hardAlpha" operator="out"/>
<feColorMatrix type="matrix" values="0 0 0 0 0.527014 0 0 0 0 0.540625 0 0 0 0 0.656319 0 0 0 1 0"/>
<feBlend mode="normal" in2="effect1_dropShadow_214:257" result="effect2_dropShadow_214:257"/>
<feBlend mode="normal" in="SourceGraphic" in2="effect2_dropShadow_214:257" result="shape"/>
</filter>
<filter id="filter5_dd_214:257" x="1510.39" y="627.582" width="3038.66" height="1510.93" filterUnits="userSpaceOnUse" color-interpolation-filters="sRGB">
<feFlood flood-opacity="0" result="BackgroundImageFix"/>
<feColorMatrix in="SourceAlpha" type="matrix" values="0 0 0 0 0 0 0 0 0 0 0 0 0 0 0 0 0 0 127 0" result="hardAlpha"/>
<feOffset dy="30"/>
<feGaussianBlur stdDeviation="30"/>
<feComposite in2="hardAlpha" operator="out"/>
<feColorMatrix type="matrix" values="0 0 0 0 0.196078 0 0 0 0 0.196078 0 0 0 0 0.364706 0 0 0 0.25 0"/>
<feBlend mode="normal" in2="BackgroundImageFix" result="effect1_dropShadow_214:257"/>
<feColorMatrix in="SourceAlpha" type="matrix" values="0 0 0 0 0 0 0 0 0 0 0 0 0 0 0 0 0 0 127 0" result="hardAlpha"/>
<feOffset dy="4"/>
<feGaussianBlur stdDeviation="45.5"/>
<feComposite in2="hardAlpha" operator="out"/>
<feColorMatrix type="matrix" values="0 0 0 0 0.527014 0 0 0 0 0.540625 0 0 0 0 0.656319 0 0 0 1 0"/>
<feBlend mode="normal" in2="effect1_dropShadow_214:257" result="effect2_dropShadow_214:257"/>
<feBlend mode="normal" in="SourceGraphic" in2="effect2_dropShadow_214:257" result="shape"/>
</filter>
<filter id="filter6_d_214:257" x="1750.52" y="663.861" width="2561.17" height="1255.64" filterUnits="userSpaceOnUse" color-interpolation-filters="sRGB">
<feFlood flood-opacity="0" result="BackgroundImageFix"/>
<feColorMatrix in="SourceAlpha" type="matrix" values="0 0 0 0 0 0 0 0 0 0 0 0 0 0 0 0 0 0 127 0" result="hardAlpha"/>
<feOffset dy="30"/>
<feGaussianBlur stdDeviation="30"/>
<feComposite in2="hardAlpha" operator="out"/>
<feColorMatrix type="matrix" values="0 0 0 0 0.196078 0 0 0 0 0.196078 0 0 0 0 0.364706 0 0 0 0.25 0"/>
<feBlend mode="normal" in2="BackgroundImageFix" result="effect1_dropShadow_214:257"/>
<feBlend mode="normal" in="SourceGraphic" in2="effect1_dropShadow_214:257" result="shape"/>
</filter>
<filter id="filter7_d_214:257" x="1791.27" y="778.195" width="2478.04" height="1017.77" filterUnits="userSpaceOnUse" color-interpolation-filters="sRGB">
<feFlood flood-opacity="0" result="BackgroundImageFix"/>
<feColorMatrix in="SourceAlpha" type="matrix" values="0 0 0 0 0 0 0 0 0 0 0 0 0 0 0 0 0 0 127 0" result="hardAlpha"/>
<feOffset dy="30"/>
<feGaussianBlur stdDeviation="30"/>
<feComposite in2="hardAlpha" operator="out"/>
<feColorMatrix type="matrix" values="0 0 0 0 0.196078 0 0 0 0 0.196078 0 0 0 0 0.364706 0 0 0 0.25 0"/>
<feBlend mode="normal" in2="BackgroundImageFix" result="effect1_dropShadow_214:257"/>
<feBlend mode="normal" in="SourceGraphic" in2="effect1_dropShadow_214:257" result="shape"/>
</filter>
<clipPath id="clip0_214:257">
<rect width="4770" height="3656" rx="327" fill="white"/>
</clipPath>
</defs>
</svg>
