<svg width="556" height="414" viewBox="0 0 556 414" fill="none" xmlns="http://www.w3.org/2000/svg">
<g filter="url(#filter0_i_214:401)">
<path d="M443.62 58.7131C442.488 59.4407 440.986 58.8671 440.687 57.5547C436.198 37.8572 436.864 0.2091 463.724 12.9042C491.602 26.0806 463.651 45.842 443.62 58.7131Z" fill="#0AD598"/>
</g>
<path d="M463.724 12.9042L460.946 18.7809L460.946 18.7809L463.724 12.9042ZM440.687 57.5547L434.349 58.999L440.687 57.5547ZM443.62 58.7131L440.106 53.2447L443.62 58.7131ZM447.024 56.1105C444.909 46.8273 444.154 33.7064 446.695 24.8812C447.968 20.4621 449.716 18.3097 451.269 17.464C452.549 16.7674 455.294 16.1096 460.946 18.7809L466.501 7.02756C458.723 3.35132 451.313 2.63884 445.054 6.04624C439.068 9.30464 435.893 15.415 434.203 21.2832C430.819 33.0327 431.976 48.5846 434.349 58.999L447.024 56.1105ZM460.946 18.7809C467.194 21.7338 468.57 24.2613 468.858 25.4028C469.147 26.5435 468.934 28.6159 466.395 32.0809C461.231 39.127 450.35 46.6627 440.106 53.2447L447.134 64.1815C456.921 57.8924 470.031 49.1118 476.881 39.7654C480.348 35.0341 483.148 28.8911 481.462 22.2185C479.777 15.5467 474.193 10.6628 466.501 7.02756L460.946 18.7809ZM434.349 58.999C435.701 64.9319 442.408 67.2178 447.134 64.1815L440.106 53.2447C442.567 51.6637 446.27 52.8024 447.024 56.1105L434.349 58.999Z" fill="#F2F5F8"/>
<g filter="url(#filter1_i_214:401)">
<path d="M458.783 149.96C457.441 150.054 456.4 148.829 456.768 147.534C462.304 128.105 480.992 95.4154 498.438 119.462C516.545 144.42 482.536 148.307 458.783 149.96Z" fill="#0AD598"/>
</g>
<path d="M498.438 119.462L493.177 123.279L493.177 123.279L498.438 119.462ZM456.768 147.534L450.517 145.753L456.768 147.534ZM458.783 149.96L458.332 143.476L458.783 149.96ZM463.02 149.315C465.629 140.159 471.276 128.291 477.748 121.775C480.989 118.513 483.556 117.466 485.325 117.471C486.782 117.476 489.506 118.219 493.177 123.279L503.699 115.645C498.647 108.682 492.492 104.494 485.366 104.471C478.551 104.45 472.829 108.281 468.525 112.614C459.908 121.289 453.444 135.481 450.517 145.753L463.02 149.315ZM493.177 123.279C497.235 128.873 497.226 131.75 496.93 132.89C496.634 134.029 495.451 135.744 491.559 137.561C483.643 141.256 470.479 142.631 458.332 143.476L459.235 156.445C470.841 155.637 486.557 154.242 497.057 149.341C502.373 146.86 507.782 142.82 509.512 136.159C511.243 129.498 508.695 122.531 503.699 115.645L493.177 123.279ZM450.517 145.753C448.85 151.605 453.632 156.835 459.235 156.445L458.332 143.476C461.25 143.273 463.949 146.052 463.02 149.315L450.517 145.753Z" fill="#F2F5F8"/>
<g filter="url(#filter2_i_214:401)">
<path d="M512.163 83.6608C510.919 84.1736 509.544 83.34 509.485 81.9953C508.601 61.812 516.006 24.8935 540.155 42.1989C565.218 60.1603 534.178 74.5899 512.163 83.6608Z" fill="#0AD598"/>
</g>
<path d="M540.155 42.1989L536.369 47.4823L536.369 47.4823L540.155 42.1989ZM509.485 81.9953L502.991 82.2798L509.485 81.9953ZM512.163 83.6608L509.687 77.651L512.163 83.6608ZM515.979 81.7107C515.562 72.1987 517.172 59.1551 521.255 50.9286C523.299 46.8094 525.405 45.0052 527.085 44.4517C528.468 43.9958 531.287 43.8409 536.369 47.4823L543.941 36.9155C536.948 31.9042 529.786 29.8746 523.017 32.1045C516.544 34.2369 512.325 39.679 509.61 45.1491C504.175 56.1014 502.524 71.6086 502.991 82.2798L515.979 81.7107ZM536.369 47.4823C541.985 51.5076 542.886 54.2409 542.965 55.4156C543.044 56.5895 542.464 58.5902 539.344 61.5437C533.001 67.5498 520.945 73.0124 509.687 77.651L514.64 89.6706C525.396 85.2384 539.868 78.9506 548.282 70.9838C552.542 66.9509 556.398 61.4095 555.936 54.5428C555.474 47.6768 550.856 41.8709 543.941 36.9155L536.369 47.4823ZM502.991 82.2798C503.258 88.3589 509.447 91.8104 514.64 89.6706L509.687 77.651C512.391 76.5368 515.83 78.3211 515.979 81.7107L502.991 82.2798Z" fill="#F2F5F8"/>
<g filter="url(#filter3_i_214:401)">
<path d="M250.11 209.861C264.995 206.947 296.351 205.144 302.687 221.241C310.456 240.977 156.263 404.835 13.0496 406.999C8.79809 407.064 5.84209 402.961 7.44002 399.025C23.0676 360.525 72.6728 306.174 119.383 279.99L171.658 247.584L231.251 215.551L250.11 209.861Z" fill="#50D8AF"/>
</g>
<path d="M231.251 215.551L250.11 209.861C264.995 206.947 296.351 205.144 302.687 221.241C310.456 240.977 156.263 404.835 13.0496 406.999C8.79809 407.064 5.84209 402.961 7.44002 399.025C23.0676 360.525 72.6728 306.174 119.383 279.99L171.658 247.584L231.251 215.551ZM231.251 215.551C282.341 128.689 212.748 83.1048 146.292 82.8741C145.954 82.8729 145.635 82.8485 145.3 82.8002C124.654 79.814 73.6188 88.6633 19.7578 143.433C15.2028 148.065 7.74162 144.434 9.70516 138.244C41.1524 39.1091 244.55 -55.9328 376.311 60.9424C444.422 121.359 406.56 263.787 274.626 366.618" stroke="#F2F5F8" stroke-width="13" stroke-linecap="round" stroke-linejoin="round"/>
<g filter="url(#filter4_i_214:401)">
<path d="M192.167 107.496L208.073 83.5866L200.995 56.1744C175.348 37.4427 162.08 56.149 158.529 66.7585C158.291 77.3799 159.058 97.0637 163.133 107.496C164.268 110.401 165.659 112.589 167.357 113.664C175.15 118.598 187.144 111.608 192.167 107.496Z" fill="#0AD598"/>
<path d="M201.055 94.1352L192.167 107.496C187.144 111.608 175.15 118.598 167.357 113.664C165.659 112.589 164.268 110.401 163.133 107.496L116.976 166.737C110.202 191.56 100.72 244.024 116.976 255.294C133.232 266.563 134.962 212.17 133.795 183.565L167.357 142.904L158.529 166.737C169.741 169.402 192.167 173.133 192.167 166.737C192.167 160.341 215.708 136.355 227.479 125.162C271.417 132.243 350.981 139.858 317.739 113.664C284.496 87.47 223.76 89.7188 201.055 94.1352Z" fill="#0AD598"/>
<path d="M187.677 234.049C179.3 240.155 162.253 250.335 152.718 248.927L124.054 309.204C126.269 322.2 132.903 348.19 141.71 348.19C150.516 348.19 152.718 322.2 152.718 309.204L187.677 234.049Z" fill="#0AD598"/>
<path d="M227.479 239.303L215.987 207.474C218.572 218.354 209.653 222.935 200.995 224.489C189.782 242.237 168.955 281.027 175.348 294.204C181.741 307.38 205.105 305.582 215.987 303.036L200.995 278.289L227.479 239.303Z" fill="#0AD598"/>
<path d="M192.167 166.737C192.167 173.133 169.741 169.402 158.529 166.737L167.357 142.904L133.795 183.565C135.545 202.144 140.994 240.902 148.787 247.298C149.862 248.18 151.194 248.701 152.718 248.927C162.253 250.335 179.3 240.155 187.677 234.049L175.348 196.89L192.167 225.14C194.689 225.222 197.825 225.058 200.995 224.489C209.653 222.935 218.572 218.354 215.987 207.474C212.456 192.611 198.636 174.123 192.167 166.737Z" fill="#0AD598"/>
</g>
<path d="M192.167 107.496L208.073 83.5866L200.995 56.1744C175.348 37.4427 162.08 56.149 158.529 66.7585C158.291 77.3799 159.058 97.0637 163.133 107.496M192.167 107.496C187.144 111.608 175.15 118.598 167.357 113.664C165.659 112.589 164.268 110.401 163.133 107.496M192.167 107.496L201.055 94.1352C223.76 89.7188 284.496 87.47 317.739 113.664C350.981 139.858 271.417 132.243 227.479 125.162C215.708 136.355 192.167 160.341 192.167 166.737M192.167 166.737C192.167 173.133 169.741 169.402 158.529 166.737L167.357 142.904L133.795 183.565M192.167 166.737C198.636 174.123 212.456 192.611 215.987 207.474M163.133 107.496L116.976 166.737C110.202 191.56 100.72 244.024 116.976 255.294C133.232 266.563 134.962 212.17 133.795 183.565M133.795 183.565C135.545 202.144 140.994 240.902 148.787 247.298C149.862 248.18 151.194 248.701 152.718 248.927M215.987 207.474L227.479 239.303L200.995 278.289L215.987 303.036C205.105 305.582 181.741 307.38 175.348 294.204C168.955 281.027 189.782 242.237 200.995 224.489M215.987 207.474C218.572 218.354 209.653 222.935 200.995 224.489M187.677 234.049L175.348 196.89L192.167 225.14C194.689 225.222 197.825 225.058 200.995 224.489M187.677 234.049C179.3 240.155 162.253 250.335 152.718 248.927M187.677 234.049L152.718 309.204C152.718 322.2 150.516 348.19 141.71 348.19C132.903 348.19 126.269 322.2 124.054 309.204L152.718 248.927" stroke="#EAEEF2" stroke-width="7" stroke-linecap="round" stroke-linejoin="round"/>
<defs>
<filter id="filter0_i_214:401" x="432.09" y="3.84277" width="64.877" height="76.6797" filterUnits="userSpaceOnUse" color-interpolation-filters="sRGB">
<feFlood flood-opacity="0" result="BackgroundImageFix"/>
<feBlend mode="normal" in="SourceGraphic" in2="BackgroundImageFix" result="shape"/>
<feColorMatrix in="SourceAlpha" type="matrix" values="0 0 0 0 0 0 0 0 0 0 0 0 0 0 0 0 0 0 127 0" result="hardAlpha"/>
<feOffset dx="34" dy="24"/>
<feGaussianBlur stdDeviation="7.5"/>
<feComposite in2="hardAlpha" operator="arithmetic" k2="-1" k3="1"/>
<feColorMatrix type="matrix" values="0 0 0 0 0 0 0 0 0 0 0 0 0 0 0 0 0 0 0.25 0"/>
<feBlend mode="normal" in2="shape" result="effect1_innerShadow_214:401"/>
</filter>
<filter id="filter1_i_214:401" x="450.18" y="104.472" width="74.873" height="66.9932" filterUnits="userSpaceOnUse" color-interpolation-filters="sRGB">
<feFlood flood-opacity="0" result="BackgroundImageFix"/>
<feBlend mode="normal" in="SourceGraphic" in2="BackgroundImageFix" result="shape"/>
<feColorMatrix in="SourceAlpha" type="matrix" values="0 0 0 0 0 0 0 0 0 0 0 0 0 0 0 0 0 0 127 0" result="hardAlpha"/>
<feOffset dx="34" dy="24"/>
<feGaussianBlur stdDeviation="7.5"/>
<feComposite in2="hardAlpha" operator="arithmetic" k2="-1" k3="1"/>
<feColorMatrix type="matrix" values="0 0 0 0 0 0 0 0 0 0 0 0 0 0 0 0 0 0 0.25 0"/>
<feBlend mode="normal" in2="shape" result="effect1_innerShadow_214:401"/>
</filter>
<filter id="filter2_i_214:401" x="502.916" y="31.2051" width="68.0586" height="74.1025" filterUnits="userSpaceOnUse" color-interpolation-filters="sRGB">
<feFlood flood-opacity="0" result="BackgroundImageFix"/>
<feBlend mode="normal" in="SourceGraphic" in2="BackgroundImageFix" result="shape"/>
<feColorMatrix in="SourceAlpha" type="matrix" values="0 0 0 0 0 0 0 0 0 0 0 0 0 0 0 0 0 0 127 0" result="hardAlpha"/>
<feOffset dx="34" dy="24"/>
<feGaussianBlur stdDeviation="7.5"/>
<feComposite in2="hardAlpha" operator="arithmetic" k2="-1" k3="1"/>
<feColorMatrix type="matrix" values="0 0 0 0 0 0 0 0 0 0 0 0 0 0 0 0 0 0 0.25 0"/>
<feBlend mode="normal" in2="shape" result="effect1_innerShadow_214:401"/>
</filter>
<filter id="filter3_i_214:401" x="0.478516" y="0.504883" width="425.561" height="416.995" filterUnits="userSpaceOnUse" color-interpolation-filters="sRGB">
<feFlood flood-opacity="0" result="BackgroundImageFix"/>
<feBlend mode="normal" in="SourceGraphic" in2="BackgroundImageFix" result="shape"/>
<feColorMatrix in="SourceAlpha" type="matrix" values="0 0 0 0 0 0 0 0 0 0 0 0 0 0 0 0 0 0 127 0" result="hardAlpha"/>
<feOffset dx="31" dy="4"/>
<feGaussianBlur stdDeviation="5"/>
<feComposite in2="hardAlpha" operator="arithmetic" k2="-1" k3="1"/>
<feColorMatrix type="matrix" values="0 0 0 0 0 0 0 0 0 0 0 0 0 0 0 0 0 0 0.42 0"/>
<feBlend mode="normal" in2="shape" result="effect1_innerShadow_214:401"/>
</filter>
<filter id="filter4_i_214:401" x="104.5" y="44.6865" width="232.646" height="311.004" filterUnits="userSpaceOnUse" color-interpolation-filters="sRGB">
<feFlood flood-opacity="0" result="BackgroundImageFix"/>
<feBlend mode="normal" in="SourceGraphic" in2="BackgroundImageFix" result="shape"/>
<feColorMatrix in="SourceAlpha" type="matrix" values="0 0 0 0 0 0 0 0 0 0 0 0 0 0 0 0 0 0 127 0" result="hardAlpha"/>
<feOffset dx="8" dy="4"/>
<feGaussianBlur stdDeviation="5"/>
<feComposite in2="hardAlpha" operator="arithmetic" k2="-1" k3="1"/>
<feColorMatrix type="matrix" values="0 0 0 0 0 0 0 0 0 0 0 0 0 0 0 0 0 0 0.42 0"/>
<feBlend mode="normal" in2="shape" result="effect1_innerShadow_214:401"/>
</filter>
</defs>
</svg>
