<svg width="216" height="500" viewBox="0 0 216 500" fill="none" xmlns="http://www.w3.org/2000/svg">
<mask id="path-1-inside-1_214:403" fill="white">
<path d="M173.735 459.846L173.691 458.621V296.445L173.59 296.013C171.484 287.025 169.568 281.009 167.561 276.236C165.561 271.48 163.508 268.057 161.28 264.341L161.244 264.28C158.951 260.456 156.398 256.197 153.248 249.514C148.77 240.011 146.665 234.944 145.636 231.281C144.663 227.817 144.641 225.597 144.621 221.431L144.621 221.422C144.61 218.932 144.595 215.841 144.34 211.616C143.209 133.179 151.747 81.2428 163.422 49.4637C169.261 33.5679 175.824 22.8814 182.214 16.4066C188.592 9.94368 194.641 7.80917 199.682 8.48454C200.157 8.54813 200.675 8.56502 201.073 8.57797L201.134 8.57996C203.051 8.64305 204.594 8.77495 205.931 10.4125C207.403 12.2144 209.176 16.5641 209.176 27.0974C209.176 28.5409 209.062 30.6608 208.828 33.4467L208.814 33.6086V458.621L208.77 459.846C208.431 469.348 206.144 477.681 202.807 483.533C199.445 489.428 195.31 492.379 191.253 492.379C187.195 492.379 183.06 489.428 179.699 483.533C176.362 477.681 174.075 469.348 173.735 459.846Z"/>
<path d="M6.01424 14.6255C6.01424 10.3225 9.08388 6.83434 12.8705 6.83434C16.6571 6.83434 19.7267 10.3225 19.7267 14.6255V103.062C19.7267 111.215 25.5429 117.824 32.7174 117.824C39.892 117.824 45.7082 111.215 45.7082 103.062V16.8125C45.7082 11.3017 49.6395 6.83434 54.489 6.83434H56.173C61.0225 6.83434 64.9538 11.3017 64.9538 16.8125V103.062C64.9538 111.215 70.7699 117.824 77.9445 117.824C85.1191 117.824 90.9352 111.215 90.9352 103.062V14.7622C90.9352 10.3837 94.0587 6.83434 97.9118 6.83434C101.765 6.83434 104.888 10.3837 104.888 14.7622V115.225C104.742 115.682 104.677 116.183 104.713 116.701C104.829 118.377 104.888 120.074 104.888 121.788C104.888 133.814 101.982 150.89 96.8637 167.944C91.7449 185 84.5328 201.634 76.1471 212.928C73.765 216.136 72.1708 220.246 72.1708 224.718V463.499C72.1657 463.568 72.1625 463.638 72.1611 463.708C71.9956 472.219 69.7795 479.731 66.4495 485.026C63.114 490.33 58.8528 493.166 54.489 493.166C50.1251 493.166 45.864 490.33 42.5285 485.026C39.1985 479.731 36.9824 472.219 36.8168 463.708C36.8155 463.638 36.8122 463.568 36.8071 463.499V222.022C36.8071 217.84 35.4138 213.954 33.2618 210.843C25.256 199.268 18.4202 182.951 13.5845 166.41C8.74668 149.863 6.01424 133.449 6.01424 121.788C6.01424 120.074 6.07331 118.377 6.18925 116.701C6.22513 116.183 6.16041 115.682 6.01424 115.225V14.6255Z"/>
</mask>
<g filter="url(#filter0_i_214:403)">
<path d="M173.735 459.846L173.691 458.621V296.445L173.59 296.013C171.484 287.025 169.568 281.009 167.561 276.236C165.561 271.48 163.508 268.057 161.28 264.341L161.244 264.28C158.951 260.456 156.398 256.197 153.248 249.514C148.77 240.011 146.665 234.944 145.636 231.281C144.663 227.817 144.641 225.597 144.621 221.431L144.621 221.422C144.61 218.932 144.595 215.841 144.34 211.616C143.209 133.179 151.747 81.2428 163.422 49.4637C169.261 33.5679 175.824 22.8814 182.214 16.4066C188.592 9.94368 194.641 7.80917 199.682 8.48454C200.157 8.54813 200.675 8.56502 201.073 8.57797L201.134 8.57996C203.051 8.64305 204.594 8.77495 205.931 10.4125C207.403 12.2144 209.176 16.5641 209.176 27.0974C209.176 28.5409 209.062 30.6608 208.828 33.4467L208.814 33.6086V458.621L208.77 459.846C208.431 469.348 206.144 477.681 202.807 483.533C199.445 489.428 195.31 492.379 191.253 492.379C187.195 492.379 183.06 489.428 179.699 483.533C176.362 477.681 174.075 469.348 173.735 459.846Z" fill="#0AD598"/>
<path d="M6.01424 14.6255C6.01424 10.3225 9.08388 6.83434 12.8705 6.83434C16.6571 6.83434 19.7267 10.3225 19.7267 14.6255V103.062C19.7267 111.215 25.5429 117.824 32.7174 117.824C39.892 117.824 45.7082 111.215 45.7082 103.062V16.8125C45.7082 11.3017 49.6395 6.83434 54.489 6.83434H56.173C61.0225 6.83434 64.9538 11.3017 64.9538 16.8125V103.062C64.9538 111.215 70.7699 117.824 77.9445 117.824C85.1191 117.824 90.9352 111.215 90.9352 103.062V14.7622C90.9352 10.3837 94.0587 6.83434 97.9118 6.83434C101.765 6.83434 104.888 10.3837 104.888 14.7622V115.225C104.742 115.682 104.677 116.183 104.713 116.701C104.829 118.377 104.888 120.074 104.888 121.788C104.888 133.814 101.982 150.89 96.8637 167.944C91.7449 185 84.5328 201.634 76.1471 212.928C73.765 216.136 72.1708 220.246 72.1708 224.718V463.499C72.1657 463.568 72.1625 463.638 72.1611 463.708C71.9956 472.219 69.7795 479.731 66.4495 485.026C63.114 490.33 58.8528 493.166 54.489 493.166C50.1251 493.166 45.864 490.33 42.5285 485.026C39.1985 479.731 36.9824 472.219 36.8168 463.708C36.8155 463.638 36.8122 463.568 36.8071 463.499V222.022C36.8071 217.84 35.4138 213.954 33.2618 210.843C25.256 199.268 18.4202 182.951 13.5845 166.41C8.74668 149.863 6.01424 133.449 6.01424 121.788C6.01424 120.074 6.07331 118.377 6.18925 116.701C6.22513 116.183 6.16041 115.682 6.01424 115.225V14.6255Z" fill="#0AD598"/>
</g>
<path d="M173.735 459.846L173.691 458.621V296.445L173.59 296.013C171.484 287.025 169.568 281.009 167.561 276.236C165.561 271.48 163.508 268.057 161.28 264.341L161.244 264.28C158.951 260.456 156.398 256.197 153.248 249.514C148.77 240.011 146.665 234.944 145.636 231.281C144.663 227.817 144.641 225.597 144.621 221.431L144.621 221.422C144.61 218.932 144.595 215.841 144.34 211.616C143.209 133.179 151.747 81.2428 163.422 49.4637C169.261 33.5679 175.824 22.8814 182.214 16.4066C188.592 9.94368 194.641 7.80917 199.682 8.48454C200.157 8.54813 200.675 8.56502 201.073 8.57797L201.134 8.57996C203.051 8.64305 204.594 8.77495 205.931 10.4125C207.403 12.2144 209.176 16.5641 209.176 27.0974C209.176 28.5409 209.062 30.6608 208.828 33.4467L208.814 33.6086V458.621L208.77 459.846C208.431 469.348 206.144 477.681 202.807 483.533C199.445 489.428 195.31 492.379 191.253 492.379C187.195 492.379 183.06 489.428 179.699 483.533C176.362 477.681 174.075 469.348 173.735 459.846Z" stroke="#0AD598" stroke-width="6" mask="url(#path-1-inside-1_214:403)"/>
<path d="M6.01424 14.6255C6.01424 10.3225 9.08388 6.83434 12.8705 6.83434C16.6571 6.83434 19.7267 10.3225 19.7267 14.6255V103.062C19.7267 111.215 25.5429 117.824 32.7174 117.824C39.892 117.824 45.7082 111.215 45.7082 103.062V16.8125C45.7082 11.3017 49.6395 6.83434 54.489 6.83434H56.173C61.0225 6.83434 64.9538 11.3017 64.9538 16.8125V103.062C64.9538 111.215 70.7699 117.824 77.9445 117.824C85.1191 117.824 90.9352 111.215 90.9352 103.062V14.7622C90.9352 10.3837 94.0587 6.83434 97.9118 6.83434C101.765 6.83434 104.888 10.3837 104.888 14.7622V115.225C104.742 115.682 104.677 116.183 104.713 116.701C104.829 118.377 104.888 120.074 104.888 121.788C104.888 133.814 101.982 150.89 96.8637 167.944C91.7449 185 84.5328 201.634 76.1471 212.928C73.765 216.136 72.1708 220.246 72.1708 224.718V463.499C72.1657 463.568 72.1625 463.638 72.1611 463.708C71.9956 472.219 69.7795 479.731 66.4495 485.026C63.114 490.33 58.8528 493.166 54.489 493.166C50.1251 493.166 45.864 490.33 42.5285 485.026C39.1985 479.731 36.9824 472.219 36.8168 463.708C36.8155 463.638 36.8122 463.568 36.8071 463.499V222.022C36.8071 217.84 35.4138 213.954 33.2618 210.843C25.256 199.268 18.4202 182.951 13.5845 166.41C8.74668 149.863 6.01424 133.449 6.01424 121.788C6.01424 120.074 6.07331 118.377 6.18925 116.701C6.22513 116.183 6.16041 115.682 6.01424 115.225V14.6255Z" stroke="#0AD598" stroke-width="6" mask="url(#path-1-inside-1_214:403)"/>
<defs>
<filter id="filter0_i_214:403" x="0" y="0" width="223.189" height="504" filterUnits="userSpaceOnUse" color-interpolation-filters="sRGB">
<feFlood flood-opacity="0" result="BackgroundImageFix"/>
<feBlend mode="normal" in="SourceGraphic" in2="BackgroundImageFix" result="shape"/>
<feColorMatrix in="SourceAlpha" type="matrix" values="0 0 0 0 0 0 0 0 0 0 0 0 0 0 0 0 0 0 127 0" result="hardAlpha"/>
<feOffset dx="8" dy="4"/>
<feGaussianBlur stdDeviation="5"/>
<feComposite in2="hardAlpha" operator="arithmetic" k2="-1" k3="1"/>
<feColorMatrix type="matrix" values="0 0 0 0 0 0 0 0 0 0 0 0 0 0 0 0 0 0 0.42 0"/>
<feBlend mode="normal" in2="shape" result="effect1_innerShadow_214:403"/>
</filter>
</defs>
</svg>
