<svg width="300" height="368" viewBox="0 0 300 368" fill="none" xmlns="http://www.w3.org/2000/svg">
<g filter="url(#filter0_i_214:404)">
<path fill-rule="evenodd" clip-rule="evenodd" d="M60.9631 44.2071C56.8403 44.2071 53.4982 47.5455 53.4982 51.6637V128.005C53.4982 132.123 56.8403 135.462 60.9631 135.462H187.333C191.455 135.462 194.797 132.123 194.797 128.005V51.6637C194.797 47.5455 191.455 44.2071 187.333 44.2071H60.9631ZM70.7404 126.23C66.3221 126.23 62.7404 122.648 62.7404 118.23V61.4391C62.7404 57.0208 66.3221 53.4391 70.7404 53.4391H177.555C181.973 53.4391 185.555 57.0208 185.555 61.4391V118.23C185.555 122.648 181.973 126.23 177.555 126.23H70.7404Z" fill="#0AD598"/>
<path fill-rule="evenodd" clip-rule="evenodd" d="M20.6172 34.4425C20.6172 15.4204 36.0547 0 55.0978 0H193.198C212.241 0 227.678 15.4204 227.678 34.4425V116.338C227.678 116.733 227.824 117.111 228.044 117.441V117.441C237.751 132.01 242.907 156.044 245.947 184.845C249.018 213.945 250.019 249.089 250.694 286.71C250.798 292.488 252.732 298.474 255.757 303.398C258.834 308.405 262.638 311.687 265.969 312.887C267.557 313.46 268.956 313.538 270.199 313.245C271.433 312.954 272.899 312.209 274.491 310.514C277.823 306.968 281.383 299.577 283.464 285.943C290.246 241.526 289.987 187.262 283.411 143.887C282.822 139.999 279.414 137.285 275.514 136.781C269.642 136.022 264.749 134.137 260.874 131.247C254.484 126.481 251.663 119.57 251.455 112.758C251.25 106.056 253.538 99.2764 257.525 94.0222C258.341 92.9456 259.243 91.9171 260.224 90.958C263.511 87.745 265.414 82.6561 262.674 78.9667C261.496 77.3819 260.304 76.0086 259.104 74.8483C255.395 71.2645 251.893 69.9532 248.444 70.2014C245.262 70.4305 242.497 68.0396 242.268 64.8612C242.038 61.6827 244.432 58.9204 247.614 58.6913C255.157 58.1482 261.727 61.3265 267.137 66.5546C272.454 71.693 276.905 79.0188 280.649 87.6232C285.704 99.2402 289.737 113.813 292.785 130.048C301.482 176.359 302.481 237.93 294.885 287.683C292.668 302.204 288.608 312.352 282.914 318.412C279.993 321.521 276.594 323.595 272.85 324.477C269.116 325.356 265.424 324.959 262.049 323.743C255.453 321.366 249.836 315.821 245.911 309.434C241.935 302.963 239.288 294.987 239.143 286.917C238.467 249.261 237.469 214.589 234.457 186.055V186.055C233.802 179.849 227.678 180.428 227.678 186.668V347.876C227.678 352.294 231.26 355.876 235.678 355.876H244.919C248.109 355.876 250.695 358.459 250.695 361.646C250.695 364.832 248.109 367.416 244.919 367.416H5.77638C2.58617 367.416 0 364.832 0 361.646C0 358.459 2.58617 355.876 5.77638 355.876H12.6172C17.0355 355.876 20.6172 352.294 20.6172 347.876V34.4425ZM55.0978 10.6523C41.9443 10.6523 31.2813 21.3035 31.2813 34.4425V342.639C31.2813 347.057 34.8631 350.639 39.2813 350.639H209.014C213.433 350.639 217.014 347.057 217.014 342.639V34.4425C217.014 21.3035 206.351 10.6523 193.198 10.6523H55.0978ZM274.154 103.064C273.004 99.5851 268.946 98.0741 266.732 100.993V100.993C264.269 104.238 262.882 108.455 263.003 112.406C263.12 116.245 264.625 119.643 267.786 122C268.463 122.506 269.25 122.988 270.16 123.426C274.853 125.688 279.081 120.647 277.793 115.6C276.662 111.165 275.447 106.976 274.154 103.064Z" fill="#0AD598"/>
<path fill-rule="evenodd" clip-rule="evenodd" d="M31.2813 34.4425C31.2813 21.3035 41.9443 10.6523 55.0978 10.6523H193.198C206.351 10.6523 217.014 21.3035 217.014 34.4425V342.639C217.014 347.057 213.433 350.639 209.014 350.639H39.2813C34.8631 350.639 31.2813 347.057 31.2813 342.639V34.4425ZM60.9631 44.2071C56.8403 44.2071 53.4982 47.5455 53.4982 51.6637V128.005C53.4982 132.123 56.8403 135.462 60.9631 135.462H187.333C191.455 135.462 194.797 132.123 194.797 128.005V51.6637C194.797 47.5455 191.455 44.2071 187.333 44.2071H60.9631Z" fill="#0AD598"/>
</g>
<defs>
<filter id="filter0_i_214:404" x="0" y="0" width="308" height="371.416" filterUnits="userSpaceOnUse" color-interpolation-filters="sRGB">
<feFlood flood-opacity="0" result="BackgroundImageFix"/>
<feBlend mode="normal" in="SourceGraphic" in2="BackgroundImageFix" result="shape"/>
<feColorMatrix in="SourceAlpha" type="matrix" values="0 0 0 0 0 0 0 0 0 0 0 0 0 0 0 0 0 0 127 0" result="hardAlpha"/>
<feOffset dx="8" dy="4"/>
<feGaussianBlur stdDeviation="5"/>
<feComposite in2="hardAlpha" operator="arithmetic" k2="-1" k3="1"/>
<feColorMatrix type="matrix" values="0 0 0 0 0 0 0 0 0 0 0 0 0 0 0 0 0 0 0.42 0"/>
<feBlend mode="normal" in2="shape" result="effect1_innerShadow_214:404"/>
</filter>
</defs>
</svg>
