<svg width="397" height="500" viewBox="0 0 397 500" fill="none" xmlns="http://www.w3.org/2000/svg">
<g filter="url(#filter0_i_214:405)">
<path d="M265.713 231.389C253.637 245.508 212.924 222.437 194.077 210.927C184.994 222.224 171.562 253.181 190.495 272.313C199.087 280.996 214.031 295.206 229.895 310.062C248.265 327.265 267.87 345.335 280.279 356.693C281.197 357.534 281.766 358.683 281.88 359.923L285.949 404.318C286.017 405.058 286.249 405.774 286.628 406.413L321.486 465.165L343.489 453.783L315.668 369.842C315.295 368.717 315.346 367.503 315.711 366.376C317.537 360.733 319.314 349.875 315.09 340.604C310.505 330.538 277.469 279.37 260.271 253.124C259.423 251.83 259.228 250.227 259.731 248.764L265.713 231.389Z" fill="#0AD598"/>
<path d="M190.495 272.313L169.019 328.861C167.979 331.601 164.818 332.863 162.135 331.686C151.796 327.152 135.458 321.112 126.534 321.804C115.993 322.623 81.7189 334.678 65.8992 340.604L56.9447 364.518H148.375C149.236 364.518 150.08 364.74 150.831 365.16C154.484 367.203 160.712 370.614 163.375 371.808C166.287 373.113 184.377 360.902 193.556 354.28C193.906 354.028 194.215 353.735 194.488 353.401L229.895 310.062C214.031 295.206 199.087 280.996 190.495 272.313Z" fill="#0AD598"/>
<path d="M287.331 104.27C286.001 98.9501 270.83 96.938 263.41 96.597L244.728 100.205C242.476 100.64 240.216 99.4867 239.248 97.4076L231.302 80.3554C224.565 78.8634 209.504 76.7746 203.159 80.3554C197.093 83.7789 157.337 111.789 135.67 127.17C133.943 128.397 133.181 130.571 133.831 132.587C139.258 149.437 152.53 177.536 171.387 183.939C174.066 184.848 176.039 187.421 176.073 190.25C176.182 199.075 179.836 210.674 194.077 210.927C211.372 211.234 221.239 204.234 224.01 200.696C224.01 198.763 222.404 182.935 208.528 180.268L199.193 180.362C184.259 182.985 170.603 157.511 164.909 141.199C163.99 138.566 165.58 135.781 168.274 135.062L197.471 127.273C200.451 126.477 203.434 128.544 203.736 131.614L208.528 180.268C222.404 182.935 224.01 198.763 224.01 200.696C221.239 204.234 211.372 211.234 194.077 210.927C212.924 222.437 253.637 245.508 265.713 231.389C276.125 219.215 277.331 176.563 276.4 148.511L275.818 136.37C276.047 139.922 276.251 144.03 276.4 148.511L276.937 159.734C276.998 161.01 277.545 162.214 278.465 163.099L302.725 186.428C304.74 188.365 307.952 188.274 309.854 186.226L346.025 147.284C346.21 147.084 346.408 146.904 346.62 146.734C353.062 141.586 362.567 129.215 351.292 118.849C336.965 105.677 330.057 117.954 324.557 122.686C321.306 125.482 323.859 131.149 326.893 135.552C328.485 137.863 328.31 141.077 326.187 142.913L311.93 155.24C309.267 157.542 305.123 156.446 303.953 153.125C297.767 135.565 288.495 108.923 287.331 104.27Z" fill="#0AD598"/>
<path d="M236.14 63.4039C237.281 64.9653 237.558 67.0209 236.737 68.7715L231.302 80.3554L239.248 97.4076C240.216 99.4867 242.476 100.64 244.728 100.205L263.41 96.597L265.267 78.1394C265.521 75.6124 267.671 73.7635 270.114 73.0667C281.062 69.9435 286.119 56.1681 287.331 48.8955C298.179 10.2227 270.519 -2.99842 255.095 0.554506C228.777 6.61691 222.746 26.0048 226.454 41.1526C227.819 49.6436 231.88 57.5734 236.14 63.4039Z" fill="#0AD598"/>
<path d="M56.9447 364.518L65.8992 340.604L36.8668 319.716C35.8742 319.002 34.6522 318.654 33.4537 318.896C27.7493 320.05 19.08 324.16 19.08 333.954V355.769C19.08 357.187 18.4782 358.538 17.4243 359.486L4.6448 370.984C4.0435 371.525 3.58047 372.197 3.31694 372.962C1.21739 379.055 -1.1753 389.344 0.646661 396.182C1.46093 399.238 5.10832 398.714 7.09006 396.249C18.8454 381.629 45.407 371.454 56.9447 364.518Z" fill="#0AD598"/>
<path d="M343.489 453.783L321.486 465.165C319.866 474.927 319.312 495.295 330.057 498.671C339.841 501.745 348.529 498.832 352.548 496.517C353.253 496.11 353.79 495.48 354.163 494.757L360.507 482.483C361.156 481.228 362.302 480.319 363.651 479.899C375.843 476.104 395.503 465.341 396.347 446.712C396.48 443.777 393.602 441.837 390.744 442.518L343.489 453.783Z" fill="#0AD598"/>
</g>
<defs>
<filter id="filter0_i_214:405" x="0" y="0" width="404.352" height="504" filterUnits="userSpaceOnUse" color-interpolation-filters="sRGB">
<feFlood flood-opacity="0" result="BackgroundImageFix"/>
<feBlend mode="normal" in="SourceGraphic" in2="BackgroundImageFix" result="shape"/>
<feColorMatrix in="SourceAlpha" type="matrix" values="0 0 0 0 0 0 0 0 0 0 0 0 0 0 0 0 0 0 127 0" result="hardAlpha"/>
<feOffset dx="8" dy="4"/>
<feGaussianBlur stdDeviation="5"/>
<feComposite in2="hardAlpha" operator="arithmetic" k2="-1" k3="1"/>
<feColorMatrix type="matrix" values="0 0 0 0 0 0 0 0 0 0 0 0 0 0 0 0 0 0 0.42 0"/>
<feBlend mode="normal" in2="shape" result="effect1_innerShadow_214:405"/>
</filter>
</defs>
</svg>
