<svg width="514" height="370" viewBox="0 0 514 370" fill="none" xmlns="http://www.w3.org/2000/svg">
<g filter="url(#filter0_i_214:406)">
<path d="M81.8402 80.2862C81.5019 81.5902 80.0013 82.1863 78.8826 81.4357C56.603 66.4871 21.875 28.1671 60.1787 16.1518C99.8689 3.70148 89.8408 49.4501 81.8402 80.2862Z" fill="#0AD598"/>
<path d="M139.067 160.725C138.168 161.728 136.561 161.568 135.912 160.388C122.986 136.89 109.738 86.9196 149.288 93.8107C190.27 100.951 160.342 136.998 139.067 160.725Z" fill="#0AD598"/>
<path d="M61.9419 170.704C61.8975 172.05 60.5635 172.961 59.3074 172.473C34.2928 162.76 -7.98861 132.966 26.7531 112.864C62.7522 92.0348 62.9918 138.866 61.9419 170.704Z" fill="#0AD598"/>
<path d="M432.722 161.672C431.617 162.443 430.089 161.92 429.727 160.622C422.52 134.794 421.056 83.1222 457.982 98.8639C496.246 115.176 458.862 143.433 432.722 161.672Z" fill="#0AD598"/>
<path d="M446.757 250.382C445.415 250.506 444.345 249.296 444.672 247.988C451.193 221.978 475.495 176.346 499.798 208.272C524.982 241.354 478.505 247.444 446.757 250.382Z" fill="#0AD598"/>
<path d="M20.326 282.014C54.7578 320.788 113.603 390.173 227.987 351.788C230.872 348.063 230.438 337.192 223.512 315.735C214.856 288.914 178.846 267.413 150.758 263.065C110.588 256.845 46.7952 259.955 8.46083 263.065C10.2833 268.932 14.3378 275.271 20.326 282.014Z" fill="#0AD598"/>
<path fill-rule="evenodd" clip-rule="evenodd" d="M245.3 221.181H31.006C30.6987 221.181 30.4004 221.248 30.1264 221.387C18.4967 227.289 1.9772 242.191 8.46083 263.065C46.7952 259.955 110.588 256.845 150.758 263.065C178.846 267.413 214.856 288.914 223.512 315.735C238.848 305.758 276.796 289.73 305.897 305.434C306.733 305.885 307.548 306.329 308.344 306.766C345.134 271.935 377.988 210.448 373.146 98.861C373.121 98.2943 373.324 97.7457 373.725 97.3443C388.875 82.1751 417.046 44.7407 415.553 9.27292C415.502 8.06687 414.334 7.22792 413.155 7.4863C369.837 16.9783 361.87 29.1911 355.415 42.7527C354.499 44.6765 350.657 44.1047 349.795 42.156C342.069 24.6817 311.525 10.142 292.658 7.26915C291.546 7.09992 290.543 7.92777 290.477 9.05008C288.152 48.3978 316.456 83.9076 331.683 97.455C332.058 97.7884 332.288 98.2529 332.341 98.7517C342.243 192.026 278.503 219.243 245.3 221.181ZM204.45 266.952C212.293 266.952 218.65 260.599 218.65 252.764C218.65 244.928 212.293 238.576 204.45 238.576C196.607 238.576 190.249 244.928 190.249 252.764C190.249 260.599 196.607 266.952 204.45 266.952Z" fill="#0AD598"/>
<path d="M223.512 315.735C230.438 337.192 230.872 348.063 227.987 351.788C285.471 372.479 324.917 342.25 338.566 330.585C338.71 330.463 338.837 330.334 338.887 330.152C339.461 328.044 334.105 320.919 308.344 306.766C307.548 306.329 306.733 305.885 305.897 305.434C276.796 289.73 238.848 305.758 223.512 315.735Z" fill="#0AD598"/>
</g>
<path d="M149.288 93.8107L148.172 100.214L148.172 100.214L149.288 93.8107ZM26.7531 112.864L30.0084 118.49L26.7531 112.864ZM60.1787 16.1518L58.2332 9.94974L60.1787 16.1518ZM457.982 98.8639L460.531 92.8846L457.982 98.8639ZM499.798 208.272L494.626 212.209L499.798 208.272ZM245.3 221.181V227.681C245.426 227.681 245.553 227.677 245.679 227.67L245.3 221.181ZM20.326 282.014L25.1863 277.698L25.1863 277.698L20.326 282.014ZM150.758 263.065L151.753 256.641L151.753 256.641L150.758 263.065ZM305.897 305.434L308.984 299.714L308.984 299.714L305.897 305.434ZM308.344 306.766L305.214 312.463L305.214 312.463L308.344 306.766ZM349.795 42.156L355.74 39.5275L349.795 42.156ZM355.415 42.7527L349.546 39.959L355.415 42.7527ZM373.725 97.3443L369.126 92.751L373.725 97.3443ZM373.146 98.861L379.64 98.5792L373.146 98.861ZM332.341 98.7517L325.877 99.4379L332.341 98.7517ZM331.683 97.455L336.004 92.5988L331.683 97.455ZM444.672 247.988L438.368 246.408L444.672 247.988ZM446.757 250.382L447.356 256.854L446.757 250.382ZM415.553 9.27292L409.059 9.54625L415.553 9.27292ZM413.155 7.4863L414.546 13.8357L413.155 7.4863ZM429.727 160.622L435.988 158.875L429.727 160.622ZM432.722 161.672L436.441 167.002L436.441 167.002L432.722 161.672ZM290.477 9.05008L283.988 8.66678L290.477 9.05008ZM292.658 7.26915L293.636 0.843218L292.658 7.26915ZM78.8826 81.4357L82.5041 76.038L78.8826 81.4357ZM81.8402 80.2862L75.5485 78.6538L81.8402 80.2862ZM59.3074 172.473L61.6602 166.414L59.3074 172.473ZM61.9419 170.704L68.4384 170.918L61.9419 170.704ZM30.1264 221.387L33.0677 227.184L30.1264 221.387ZM338.566 330.585L342.789 335.527L338.566 330.585ZM338.887 330.152L345.158 331.861L338.887 330.152ZM135.912 160.388L130.217 163.521L135.912 160.388ZM139.067 160.725L143.906 165.064L139.067 160.725ZM141.607 157.255C135.439 146.042 129.407 128.781 129.421 115.71C129.428 109.155 130.947 104.922 133.271 102.618C135.346 100.56 139.462 98.6967 148.172 100.214L150.403 87.4072C139.338 85.4792 130.279 87.2779 124.118 93.3861C118.207 99.2475 116.43 107.684 116.421 115.696C116.404 131.763 123.459 151.235 130.217 163.521L141.607 157.255ZM148.172 100.214C157.622 101.861 161.056 104.863 162.282 107.084C163.525 109.335 163.704 112.953 161.468 118.687C156.958 130.253 145.053 144.313 134.227 156.386L143.906 165.064C154.356 153.41 168.053 137.583 173.58 123.41C176.362 116.273 177.669 108.057 173.662 100.8C169.638 93.5121 161.444 89.331 150.403 87.4072L148.172 100.214ZM61.6602 166.414C49.7227 161.779 33.9996 152.42 25.6059 142.392C21.3952 137.362 19.8387 133.142 20.1381 129.888C20.4051 126.984 22.3578 122.917 30.0084 118.49L23.4978 107.238C13.7775 112.862 7.98727 120.057 7.19268 128.697C6.43038 136.986 10.4936 144.591 15.6373 150.736C25.9526 163.06 43.8775 173.455 56.9547 178.532L61.6602 166.414ZM30.0084 118.49C38.3078 113.688 42.8715 113.783 45.243 114.7C47.6481 115.629 50.1114 118.29 52.084 124.118C56.0638 135.876 55.9797 154.29 55.4455 170.49L68.4384 170.918C68.9541 155.28 69.2751 134.359 64.3977 119.95C61.9418 112.694 57.661 105.562 49.9292 102.574C42.1638 99.5729 33.1979 101.625 23.4978 107.238L30.0084 118.49ZM82.5041 76.038C71.8721 68.9044 58.5815 56.334 52.5888 44.7144C49.5828 38.8856 48.9884 34.4287 49.9937 31.3181C50.8909 28.5421 53.6886 24.9999 62.1242 22.3538L58.2332 9.94974C47.5169 13.3113 40.2917 19.0648 37.6237 27.3203C35.0638 35.2412 37.362 43.5514 41.0349 50.6731C48.4003 64.9545 63.6134 79.0183 75.261 86.8333L82.5041 76.038ZM62.1242 22.3538C71.2754 19.4832 75.7074 20.5749 77.8196 21.9873C79.9614 23.4194 81.7819 26.5527 82.4296 32.6709C83.7364 45.0142 79.6194 62.9636 75.5485 78.6538L88.1319 81.9186C92.0616 66.7727 96.9589 46.4297 95.3574 31.3023C94.551 23.6851 91.9366 15.7884 85.0458 11.1807C78.1254 6.55321 68.9271 6.59522 58.2332 9.94974L62.1242 22.3538ZM435.988 158.875C432.549 146.551 430.626 128.369 433.631 115.648C435.138 109.268 437.585 105.493 440.376 103.78C442.868 102.25 447.302 101.377 455.433 104.843L460.531 92.8846C450.199 88.48 440.969 88.1625 433.575 92.7009C426.48 97.056 422.821 104.862 420.979 112.66C417.285 128.297 419.698 148.865 423.466 162.369L435.988 158.875ZM455.433 104.843C464.256 108.605 466.91 112.311 467.595 114.751C468.29 117.227 467.637 120.789 464.148 125.861C457.11 136.092 442.303 147.061 429.002 156.341L436.441 167.002C449.281 158.044 466.235 145.764 474.858 133.229C479.2 126.918 482.352 119.218 480.112 111.238C477.861 103.222 470.84 97.2793 460.531 92.8846L455.433 104.843ZM450.977 249.569C454.089 237.158 461.417 220.405 470.325 210.832C474.793 206.031 478.791 203.958 482.067 203.848C484.992 203.749 489.276 205.181 494.626 212.209L504.97 204.335C498.169 195.4 490.302 190.563 481.631 190.855C473.311 191.134 466.269 196.109 460.809 201.976C449.86 213.74 441.777 232.808 438.368 246.408L450.977 249.569ZM494.626 212.209C500.432 219.836 500.904 224.367 500.292 226.824C499.67 229.32 497.338 232.095 491.793 234.781C480.611 240.197 462.311 242.415 446.158 243.91L447.356 256.854C462.95 255.411 483.762 253.115 497.46 246.481C504.355 243.141 510.904 238.007 512.907 229.965C514.918 221.885 511.756 213.249 504.97 204.335L494.626 212.209ZM245.3 214.681H31.006V227.681H245.3V214.681ZM15.4658 286.33C32.5604 305.581 56.6269 333.563 91.1658 351.598C126.059 369.818 171.2 377.701 230.055 357.95L225.919 345.626C170.39 364.26 128.916 356.644 97.183 340.074C65.0955 323.319 42.5235 297.222 25.1863 277.698L15.4658 286.33ZM245.679 227.67C263.549 226.627 289.387 218.855 309.564 198.831C329.993 178.555 343.935 146.393 338.804 98.0655L325.877 99.4379C330.649 144.384 317.672 172.468 300.406 189.604C282.887 206.991 260.254 213.797 244.921 214.692L245.679 227.67ZM336.004 92.5988C328.893 86.2725 318.479 74.5658 310.167 59.7476C301.851 44.922 295.9 27.4583 296.965 9.43338L283.988 8.66678C282.728 29.9896 289.768 49.9546 298.829 66.1077C307.894 82.2682 319.246 95.0902 327.362 102.311L336.004 92.5988ZM378.324 101.938C386.278 93.9739 397.486 80.3505 406.557 64.0867C415.584 47.9009 422.865 28.4375 422.047 8.99959L409.059 9.54625C409.734 25.5762 403.676 42.5639 395.203 57.7545C386.774 72.8672 376.322 85.5455 369.126 92.751L378.324 101.938ZM291.679 13.6951C300.209 14.994 311.818 19.0398 322.213 24.8994C332.817 30.8773 340.855 38.0093 343.851 44.7845L355.74 39.5275C351.01 28.8284 339.912 19.9534 328.596 13.5747C317.071 7.07761 303.973 2.4172 293.636 0.843218L291.679 13.6951ZM361.284 45.5464C364.324 39.1586 367.35 33.8607 374.268 28.8619C381.44 23.6798 393.266 18.4985 414.546 13.8357L411.763 1.13695C389.725 5.96602 375.91 11.6372 366.654 18.3249C357.146 25.1959 352.96 32.7852 349.546 39.959L361.284 45.5464ZM27.1851 215.591C20.6525 218.906 12.6538 224.766 7.11331 232.975C1.44198 241.379 -1.67397 252.349 2.25339 264.993L14.6683 261.136C12.112 252.907 14.014 245.989 17.8889 240.248C21.8947 234.312 27.9706 229.77 33.0677 227.184L27.1851 215.591ZM2.25339 264.993C4.46255 272.105 9.17896 279.251 15.4658 286.33L25.1863 277.698C19.4966 271.291 16.104 265.759 14.6683 261.136L2.25339 264.993ZM8.98639 269.543C47.3583 266.431 110.443 263.4 149.764 269.488L151.753 256.641C110.733 250.29 46.2321 253.479 7.93527 256.586L8.98639 269.543ZM149.764 269.488C162.752 271.499 177.877 277.557 190.76 286.343C203.725 295.185 213.613 306.226 217.327 317.732L229.698 313.739C224.755 298.423 212.31 285.303 198.084 275.602C183.776 265.845 166.852 258.979 151.753 256.641L149.764 269.488ZM217.327 317.732C220.723 328.256 222.417 335.856 222.964 341.087C223.237 343.701 223.202 345.524 223.039 346.72C222.868 347.971 222.615 348.108 222.848 347.808L233.125 355.768C234.801 353.606 235.576 350.987 235.919 348.481C236.269 345.92 236.233 342.986 235.893 339.735C235.213 333.235 233.227 324.672 229.698 313.739L217.327 317.732ZM227.057 321.184C234.151 316.569 246.75 310.407 260.932 307.304C275.147 304.194 290.144 304.32 302.81 311.154L308.984 299.714C292.548 290.845 274.021 291.133 258.153 294.605C242.253 298.084 228.21 304.925 219.968 310.287L227.057 321.184ZM334.344 325.644C321.189 336.886 284.252 365.132 230.188 345.672L225.785 357.904C286.69 379.826 328.646 347.614 342.789 335.527L334.344 325.644ZM302.81 311.154C303.632 311.598 304.433 312.034 305.214 312.463L311.474 301.069C310.663 300.624 309.833 300.172 308.984 299.714L302.81 311.154ZM305.214 312.463C317.919 319.443 325.27 324.52 329.282 327.929C331.306 329.649 332.264 330.765 332.642 331.309C332.829 331.578 332.746 331.526 332.631 331.183C332.531 330.884 332.234 329.842 332.615 328.443L345.158 331.861C345.683 329.936 345.344 328.21 344.961 327.062C344.563 325.871 343.954 324.806 343.317 323.89C342.047 322.062 340.164 320.117 337.701 318.023C332.737 313.805 324.53 308.243 311.474 301.069L305.214 312.463ZM312.813 311.486C351.216 275.128 384.548 211.683 379.64 98.5792L366.652 99.1428C371.429 209.213 339.052 268.742 303.875 302.046L312.813 311.486ZM212.15 252.764C212.15 257.004 208.708 260.452 204.45 260.452V273.452C215.877 273.452 225.15 264.195 225.15 252.764H212.15ZM204.45 260.452C200.191 260.452 196.749 257.004 196.749 252.764H183.749C183.749 264.195 193.023 273.452 204.45 273.452V260.452ZM196.749 252.764C196.749 248.523 200.191 245.076 204.45 245.076V232.076C193.023 232.076 183.749 241.333 183.749 252.764H196.749ZM204.45 245.076C208.708 245.076 212.15 248.523 212.15 252.764H225.15C225.15 241.333 215.877 232.076 204.45 232.076V245.076ZM343.851 44.7845C345.566 48.6639 349.387 50.061 351.788 50.3575C354.044 50.6361 359.021 50.2995 361.284 45.5464L349.546 39.959C350.19 38.6058 351.276 37.9237 352.01 37.6513C352.679 37.4028 353.169 37.4293 353.381 37.4555C353.613 37.4842 353.906 37.56 354.254 37.7691C354.587 37.9689 355.28 38.486 355.74 39.5275L343.851 44.7845ZM369.126 92.751C367.38 94.4992 366.552 96.8422 366.652 99.1428L379.64 98.5792C379.69 99.7464 379.268 100.992 378.324 101.938L369.126 92.751ZM338.804 98.0655C338.588 96.0332 337.642 94.0562 336.004 92.5988L327.362 102.311C326.474 101.521 325.987 100.473 325.877 99.4379L338.804 98.0655ZM438.368 246.408C436.913 252.21 441.705 257.377 447.356 256.854L446.158 243.91C449.124 243.635 451.776 246.381 450.977 249.569L438.368 246.408ZM422.047 8.99959C421.814 3.46437 416.595 0.0781293 411.763 1.13695L414.546 13.8357C412.072 14.3777 409.19 12.6694 409.059 9.54625L422.047 8.99959ZM423.466 162.369C425.073 168.128 431.789 170.248 436.441 167.002L429.002 156.341C431.444 154.637 435.105 155.712 435.988 158.875L423.466 162.369ZM296.965 9.43338C296.811 12.0526 294.427 14.1134 291.679 13.6951L293.636 0.843218C288.666 0.0864167 284.275 3.8029 283.988 8.66678L296.965 9.43338ZM75.261 86.8333C80.2253 90.1641 86.7073 87.4093 88.1319 81.9186L75.5485 78.6538C76.2965 75.7711 79.7773 74.2084 82.5041 76.038L75.261 86.8333ZM56.9547 178.532C62.5286 180.697 68.2514 176.588 68.4384 170.918L55.4455 170.49C55.5436 167.513 58.5985 165.225 61.6602 166.414L56.9547 178.532ZM31.006 214.681C29.7325 214.681 28.4192 214.965 27.1851 215.591L33.0677 227.184C32.3817 227.532 31.6649 227.681 31.006 227.681V214.681ZM342.789 335.527C343.057 335.298 344.555 334.075 345.158 331.861L332.615 328.443C332.87 327.507 333.307 326.807 333.676 326.344C334.009 325.925 334.315 325.669 334.344 325.644L342.789 335.527ZM130.217 163.521C133.098 168.758 140.12 169.287 143.906 165.064L134.227 156.386C136.215 154.169 140.025 154.378 141.607 157.255L130.217 163.521Z" fill="#F2F5F8"/>
<defs>
<filter id="filter0_i_214:406" x="0.498047" y="0.745117" width="528.008" height="383.755" filterUnits="userSpaceOnUse" color-interpolation-filters="sRGB">
<feFlood flood-opacity="0" result="BackgroundImageFix"/>
<feBlend mode="normal" in="SourceGraphic" in2="BackgroundImageFix" result="shape"/>
<feColorMatrix in="SourceAlpha" type="matrix" values="0 0 0 0 0 0 0 0 0 0 0 0 0 0 0 0 0 0 127 0" result="hardAlpha"/>
<feOffset dx="34" dy="24"/>
<feGaussianBlur stdDeviation="7.5"/>
<feComposite in2="hardAlpha" operator="arithmetic" k2="-1" k3="1"/>
<feColorMatrix type="matrix" values="0 0 0 0 0 0 0 0 0 0 0 0 0 0 0 0 0 0 0.25 0"/>
<feBlend mode="normal" in2="shape" result="effect1_innerShadow_214:406"/>
</filter>
</defs>
</svg>
