<svg width="401" height="281" viewBox="0 0 401 281" fill="none" xmlns="http://www.w3.org/2000/svg">
<path d="M124.176 132.261C152.281 143.257 251.019 127.867 271.095 109.153C266.291 78.6084 242.025 20.0708 183.394 30.2739C124.763 40.4769 119.485 102.517 124.176 132.261Z" stroke="#50D8AF" stroke-width="31"/>
<path d="M125.582 84.8452C83.6982 91.4331 22.863 132.799 27.1356 159.963C31.3686 186.875 67.4402 199.326 114.605 201.277M255.291 64.5836C356.298 66.1097 362.826 86.6658 366.01 103.578C370.783 128.938 340.163 152.492 295.58 170.147M114.605 201.277L103.249 245.359L85.0007 240.942L122.334 250.416M114.605 201.277C170.884 203.606 242.958 190.985 295.58 170.147M295.58 170.147L322.457 210.837M322.457 210.837L322.483 210.876L303.718 221.886L322.457 210.837ZM322.457 210.837L339.212 200.957" stroke="#50D8AF" stroke-width="31" stroke-linecap="round" stroke-linejoin="round"/>
</svg>
