<svg width="798" height="741" viewBox="0 0 798 741" fill="none" xmlns="http://www.w3.org/2000/svg">
<circle cx="382.5" cy="471.5" r="9.5" fill="#50D8AF" stroke="#50D8AF" stroke-width="13"/>
<path d="M306.413 615.902C463.32 720.125 580.138 639.03 647.752 594.337C659.511 586.564 668.191 578.622 673.315 570.49M306.413 615.902C303.571 609.106 308.629 592.852 327.759 563.22M306.413 615.902C210.884 623.992 163.658 561.699 148.043 538.835C147.035 535.761 156.895 526.878 203.494 515.394M673.315 570.49C691.76 541.218 672.219 511.671 656.991 498.269L333.203 411.51C283.789 395.121 198.371 327.905 252.006 190.147C280.545 176.123 340.418 132.357 351.605 69.4911C318.226 64.4303 249.945 77.8279 241.951 110.947C235.822 81.8097 240.098 58.0308 163.462 19.0784C144.293 73.2572 173.444 144.697 190.416 173.644C137.368 341.114 162.022 447.706 203.494 515.394M673.315 570.49C616.779 550.304 521.861 519.833 458.778 513.005C414.671 508.231 351.672 526.18 327.759 563.22M327.759 563.22C308.678 541.945 257.958 502.391 207.722 514.369C206.28 514.713 204.871 515.055 203.494 515.394" stroke="#50D8AF" stroke-width="30" stroke-linejoin="round"/>
</svg>
