<svg width="849" height="804" viewBox="0 0 849 804" fill="none" xmlns="http://www.w3.org/2000/svg">
<path d="M661.624 283.04C636.482 279.141 610.93 278.607 585.642 281.452C572.199 282.905 566.077 279.754 561.547 270.268C535.992 213.263 499.305 161.955 453.644 119.358C394.727 66.6655 319.299 35.2396 221.276 24.3114C215.641 24.1487 210.114 25.8887 205.584 29.2511C201.055 32.6135 197.787 37.4029 196.306 42.848C182.717 83.05 174.563 124.887 172.061 167.246C168.157 235.02 183.421 302.509 216.103 361.968C236.282 398.751 260.179 433.363 287.419 465.26C288.177 466.325 288.659 467.563 288.819 468.861C288.979 470.16 288.812 471.478 288.335 472.696C278.564 494.428 267.334 516.171 258.423 538.035C253.054 549.145 250.491 561.402 250.957 573.73C251.424 586.059 254.906 598.082 261.099 608.745C270.45 624.218 282.404 637.955 296.434 649.349C333.016 678.01 373.411 701.432 416.454 718.94C420.042 720.621 424.029 721.26 427.963 720.786C433.905 720.422 439.5 717.853 443.652 713.581C447.805 709.309 450.218 703.643 450.419 697.688C451.818 666.035 453.057 634.324 454.135 602.554C454.195 600.543 454.807 598.587 455.905 596.901C457.004 595.215 458.545 593.864 460.36 592.998L520.283 554.481L560.797 613.73C562.195 616.352 564.121 618.655 566.453 620.494C568.785 622.334 571.472 623.67 574.346 624.419C577.22 625.167 580.218 625.313 583.152 624.845C586.086 624.378 588.891 623.307 591.392 621.702C593.893 620.097 596.035 617.991 597.684 615.517C599.333 613.043 600.452 610.255 600.972 607.328C601.492 604.4 601.401 601.397 600.704 598.508C600.008 595.619 598.722 592.905 596.926 590.539L557.668 530.838L619.58 490.865C621.091 489.566 622.941 488.728 624.913 488.449C626.884 488.17 628.893 488.462 630.703 489.291C657.557 500.392 684.469 511.333 711.499 521.953C715.728 523.791 720.366 524.484 724.949 523.962C730.957 523.488 736.553 520.713 740.571 516.214C744.589 511.715 746.719 505.839 746.517 499.811C745.664 471.825 745.058 444.658 742.645 416.465C740.909 384.877 732.792 353.974 718.785 325.623C713.539 314.333 705.567 304.529 695.588 297.095C685.61 289.661 673.937 284.831 661.624 283.04V283.04ZM417.096 603.383C416.413 626.619 415.291 650.059 414.282 675.179C373.079 654.093 333.714 632.951 306.416 600.203C300.736 594.648 296.365 587.895 293.621 580.435C290.878 572.975 289.83 564.995 290.555 557.076C295.16 535.405 303.311 514.643 314.678 495.627L336.034 517.279L415.287 596.895C416.167 597.783 416.853 598.844 417.302 600.012C417.751 601.179 417.954 602.427 417.898 603.676L417.096 603.383ZM568.032 389.708L600.206 464.294L601.104 466.807L541.838 505.019L460.595 379.159C459.089 376.748 457.118 374.663 454.796 373.025C452.474 371.388 449.848 370.23 447.073 369.622C444.298 369.013 441.429 368.965 438.634 369.481C435.839 369.996 433.175 371.065 430.797 372.624C426.002 375.734 422.625 380.61 421.398 386.195C420.172 391.78 421.195 397.621 424.247 402.452L505.49 528.312L444.295 567.82C428.82 551.962 413.432 536.863 398.818 521.138C366.506 486.191 333.141 452.134 303.035 415.628C259.185 364.98 229.187 303.825 215.962 238.113C206.423 184.155 208.938 128.745 223.326 75.8579L227.128 60.4993L227.951 58.2511C237.199 59.8148 246.725 61.1162 255.855 63.001C302.371 72.2558 346.683 90.3253 386.408 116.237C424.033 142.08 456.344 174.918 481.584 212.968C517.093 268.805 546.607 328.244 569.636 390.295L568.032 389.708ZM681.58 346.783C694.392 373.426 701.981 402.284 703.937 431.795C705.55 446.768 706.228 462.309 707.398 479.488C683.693 469.721 661.854 460.819 640.176 451.975C638.64 451.165 637.451 449.824 636.829 448.202L586.021 318.186C585.515 316.67 585.109 315.123 584.807 313.554C607.764 311.424 630.913 313.186 653.279 318.766C660.009 321.132 666.158 324.907 671.314 329.839C676.471 334.771 680.517 340.747 683.184 347.369L681.58 346.783Z" fill="#F2F5F8" stroke="#F2F5F8" stroke-width="5"/>
<path d="M307.092 196.81C294.626 204.941 285.599 217.395 281.747 231.778C277.848 246.496 279.892 262.155 287.436 275.37C291.401 282.372 296.752 288.489 303.162 293.347C309.573 298.205 316.908 301.701 324.718 303.621C332.528 305.542 340.648 305.846 348.582 304.516C356.516 303.185 364.096 300.248 370.859 295.884C383.468 287.578 392.488 274.82 396.117 260.157C399.554 245.275 397.072 229.642 389.197 216.567C381.322 203.491 368.672 193.999 353.922 190.097C346.075 187.949 337.87 187.436 329.814 188.591C321.759 189.746 314.025 192.543 307.092 196.81ZM313.454 239.557C315.167 233.243 319.11 227.764 324.552 224.137C327.621 222.197 331.052 220.903 334.637 220.336C338.222 219.77 341.884 219.942 345.399 220.842C350.296 222.183 354.703 224.906 358.096 228.685C361.488 232.465 363.722 237.142 364.531 242.159C365.341 247.176 364.691 252.321 362.66 256.98C360.629 261.64 357.303 265.618 353.077 268.44C350.07 270.334 346.706 271.585 343.194 272.117C339.682 272.649 336.099 272.45 332.669 271.531C325.945 269.741 320.182 265.405 316.596 259.439C313.011 253.473 311.884 246.343 313.454 239.557Z" fill="#F2F5F8" stroke="#F2F5F8" stroke-width="5"/>
<path d="M347.55 221.926C361.486 227.026 368.649 242.472 363.541 256.43C358.433 270.389 342.992 277.564 329.056 272.464C315.12 267.364 307.957 251.917 313.065 237.959C318.173 224.001 333.614 216.826 347.55 221.926Z" fill="#50D8AF" stroke="#F2F5F8" stroke-width="5"/>
</svg>
